<?xml version="1.0" encoding="utf-8"?>
<svg xmlns="http://www.w3.org/2000/svg" xmlns:xlink="http://www.w3.org/1999/xlink" width="600" height="400" viewBox="0 0 2400 1600">
<defs>
  <clipPath id="clip760">
    <rect x="0" y="0" width="2400" height="1600"/>
  </clipPath>
</defs>
<path clip-path="url(#clip760)" d="M0 1600 L2400 1600 L2400 0 L0 0  Z" fill="#ffffff" fill-rule="evenodd" fill-opacity="1"/>
<defs>
  <clipPath id="clip761">
    <rect x="480" y="0" width="1681" height="1600"/>
  </clipPath>
</defs>
<path clip-path="url(#clip760)" d="M423.889 654.814 L2352.76 654.814 L2352.76 47.2441 L423.889 47.2441  Z" fill="#ffffff" fill-rule="evenodd" fill-opacity="1"/>
<defs>
  <clipPath id="clip762">
    <rect x="423" y="47" width="1930" height="609"/>
  </clipPath>
</defs>
<polyline clip-path="url(#clip762)" style="stroke:#000000; stroke-linecap:round; stroke-linejoin:round; stroke-width:2; stroke-opacity:0.1; fill:none" points="478.479,654.814 478.479,47.2441 "/>
<polyline clip-path="url(#clip762)" style="stroke:#000000; stroke-linecap:round; stroke-linejoin:round; stroke-width:2; stroke-opacity:0.1; fill:none" points="933.401,654.814 933.401,47.2441 "/>
<polyline clip-path="url(#clip762)" style="stroke:#000000; stroke-linecap:round; stroke-linejoin:round; stroke-width:2; stroke-opacity:0.1; fill:none" points="1388.32,654.814 1388.32,47.2441 "/>
<polyline clip-path="url(#clip762)" style="stroke:#000000; stroke-linecap:round; stroke-linejoin:round; stroke-width:2; stroke-opacity:0.1; fill:none" points="1843.24,654.814 1843.24,47.2441 "/>
<polyline clip-path="url(#clip762)" style="stroke:#000000; stroke-linecap:round; stroke-linejoin:round; stroke-width:2; stroke-opacity:0.1; fill:none" points="2298.17,654.814 2298.17,47.2441 "/>
<polyline clip-path="url(#clip762)" style="stroke:#000000; stroke-linecap:round; stroke-linejoin:round; stroke-width:2; stroke-opacity:0.1; fill:none" points="423.889,549.437 2352.76,549.437 "/>
<polyline clip-path="url(#clip762)" style="stroke:#000000; stroke-linecap:round; stroke-linejoin:round; stroke-width:2; stroke-opacity:0.1; fill:none" points="423.889,439.21 2352.76,439.21 "/>
<polyline clip-path="url(#clip762)" style="stroke:#000000; stroke-linecap:round; stroke-linejoin:round; stroke-width:2; stroke-opacity:0.1; fill:none" points="423.889,328.984 2352.76,328.984 "/>
<polyline clip-path="url(#clip762)" style="stroke:#000000; stroke-linecap:round; stroke-linejoin:round; stroke-width:2; stroke-opacity:0.1; fill:none" points="423.889,218.757 2352.76,218.757 "/>
<polyline clip-path="url(#clip762)" style="stroke:#000000; stroke-linecap:round; stroke-linejoin:round; stroke-width:2; stroke-opacity:0.1; fill:none" points="423.889,108.53 2352.76,108.53 "/>
<polyline clip-path="url(#clip760)" style="stroke:#000000; stroke-linecap:round; stroke-linejoin:round; stroke-width:4; stroke-opacity:1; fill:none" points="423.889,654.814 2352.76,654.814 "/>
<polyline clip-path="url(#clip760)" style="stroke:#000000; stroke-linecap:round; stroke-linejoin:round; stroke-width:4; stroke-opacity:1; fill:none" points="478.479,654.814 478.479,635.916 "/>
<polyline clip-path="url(#clip760)" style="stroke:#000000; stroke-linecap:round; stroke-linejoin:round; stroke-width:4; stroke-opacity:1; fill:none" points="933.401,654.814 933.401,635.916 "/>
<polyline clip-path="url(#clip760)" style="stroke:#000000; stroke-linecap:round; stroke-linejoin:round; stroke-width:4; stroke-opacity:1; fill:none" points="1388.32,654.814 1388.32,635.916 "/>
<polyline clip-path="url(#clip760)" style="stroke:#000000; stroke-linecap:round; stroke-linejoin:round; stroke-width:4; stroke-opacity:1; fill:none" points="1843.24,654.814 1843.24,635.916 "/>
<polyline clip-path="url(#clip760)" style="stroke:#000000; stroke-linecap:round; stroke-linejoin:round; stroke-width:4; stroke-opacity:1; fill:none" points="2298.17,654.814 2298.17,635.916 "/>
<path clip-path="url(#clip760)" d="M455.864 685.733 Q452.252 685.733 450.424 689.297 Q448.618 692.839 448.618 699.969 Q448.618 707.075 450.424 710.64 Q452.252 714.181 455.864 714.181 Q459.498 714.181 461.303 710.64 Q463.132 707.075 463.132 699.969 Q463.132 692.839 461.303 689.297 Q459.498 685.733 455.864 685.733 M455.864 682.029 Q461.674 682.029 464.729 686.635 Q467.808 691.219 467.808 699.969 Q467.808 708.695 464.729 713.302 Q461.674 717.885 455.864 717.885 Q450.053 717.885 446.975 713.302 Q443.919 708.695 443.919 699.969 Q443.919 691.219 446.975 686.635 Q450.053 682.029 455.864 682.029 Z" fill="#000000" fill-rule="nonzero" fill-opacity="1" /><path clip-path="url(#clip760)" d="M476.026 711.334 L480.91 711.334 L480.91 717.214 L476.026 717.214 L476.026 711.334 Z" fill="#000000" fill-rule="nonzero" fill-opacity="1" /><path clip-path="url(#clip760)" d="M501.095 685.733 Q497.484 685.733 495.655 689.297 Q493.849 692.839 493.849 699.969 Q493.849 707.075 495.655 710.64 Q497.484 714.181 501.095 714.181 Q504.729 714.181 506.535 710.64 Q508.363 707.075 508.363 699.969 Q508.363 692.839 506.535 689.297 Q504.729 685.733 501.095 685.733 M501.095 682.029 Q506.905 682.029 509.961 686.635 Q513.039 691.219 513.039 699.969 Q513.039 708.695 509.961 713.302 Q506.905 717.885 501.095 717.885 Q495.285 717.885 492.206 713.302 Q489.15 708.695 489.15 699.969 Q489.15 691.219 492.206 686.635 Q495.285 682.029 501.095 682.029 Z" fill="#000000" fill-rule="nonzero" fill-opacity="1" /><path clip-path="url(#clip760)" d="M905.137 713.279 L921.456 713.279 L921.456 717.214 L899.512 717.214 L899.512 713.279 Q902.174 710.524 906.757 705.894 Q911.364 701.242 912.544 699.899 Q914.79 697.376 915.669 695.64 Q916.572 693.881 916.572 692.191 Q916.572 689.436 914.628 687.7 Q912.706 685.964 909.605 685.964 Q907.405 685.964 904.952 686.728 Q902.521 687.492 899.743 689.043 L899.743 684.321 Q902.568 683.186 905.021 682.608 Q907.475 682.029 909.512 682.029 Q914.882 682.029 918.077 684.714 Q921.271 687.399 921.271 691.89 Q921.271 694.02 920.461 695.941 Q919.674 697.839 917.567 700.432 Q916.989 701.103 913.887 704.32 Q910.785 707.515 905.137 713.279 Z" fill="#000000" fill-rule="nonzero" fill-opacity="1" /><path clip-path="url(#clip760)" d="M931.271 711.334 L936.155 711.334 L936.155 717.214 L931.271 717.214 L931.271 711.334 Z" fill="#000000" fill-rule="nonzero" fill-opacity="1" /><path clip-path="url(#clip760)" d="M946.387 682.654 L964.743 682.654 L964.743 686.589 L950.669 686.589 L950.669 695.061 Q951.688 694.714 952.706 694.552 Q953.725 694.367 954.743 694.367 Q960.53 694.367 963.91 697.538 Q967.289 700.709 967.289 706.126 Q967.289 711.705 963.817 714.806 Q960.345 717.885 954.026 717.885 Q951.85 717.885 949.581 717.515 Q947.336 717.144 944.928 716.404 L944.928 711.705 Q947.012 712.839 949.234 713.394 Q951.456 713.95 953.933 713.95 Q957.938 713.95 960.276 711.844 Q962.614 709.737 962.614 706.126 Q962.614 702.515 960.276 700.408 Q957.938 698.302 953.933 698.302 Q952.058 698.302 950.183 698.719 Q948.331 699.135 946.387 700.015 L946.387 682.654 Z" fill="#000000" fill-rule="nonzero" fill-opacity="1" /><path clip-path="url(#clip760)" d="M1355.49 682.654 L1373.84 682.654 L1373.84 686.589 L1359.77 686.589 L1359.77 695.061 Q1360.79 694.714 1361.81 694.552 Q1362.82 694.367 1363.84 694.367 Q1369.63 694.367 1373.01 697.538 Q1376.39 700.709 1376.39 706.126 Q1376.39 711.705 1372.92 714.806 Q1369.45 717.885 1363.13 717.885 Q1360.95 717.885 1358.68 717.515 Q1356.44 717.144 1354.03 716.404 L1354.03 711.705 Q1356.11 712.839 1358.33 713.394 Q1360.56 713.95 1363.03 713.95 Q1367.04 713.95 1369.38 711.844 Q1371.71 709.737 1371.71 706.126 Q1371.71 702.515 1369.38 700.408 Q1367.04 698.302 1363.03 698.302 Q1361.16 698.302 1359.28 698.719 Q1357.43 699.135 1355.49 700.015 L1355.49 682.654 Z" fill="#000000" fill-rule="nonzero" fill-opacity="1" /><path clip-path="url(#clip760)" d="M1385.6 711.334 L1390.49 711.334 L1390.49 717.214 L1385.6 717.214 L1385.6 711.334 Z" fill="#000000" fill-rule="nonzero" fill-opacity="1" /><path clip-path="url(#clip760)" d="M1410.67 685.733 Q1407.06 685.733 1405.23 689.297 Q1403.43 692.839 1403.43 699.969 Q1403.43 707.075 1405.23 710.64 Q1407.06 714.181 1410.67 714.181 Q1414.31 714.181 1416.11 710.64 Q1417.94 707.075 1417.94 699.969 Q1417.94 692.839 1416.11 689.297 Q1414.31 685.733 1410.67 685.733 M1410.67 682.029 Q1416.48 682.029 1419.54 686.635 Q1422.62 691.219 1422.62 699.969 Q1422.62 708.695 1419.54 713.302 Q1416.48 717.885 1410.67 717.885 Q1404.86 717.885 1401.78 713.302 Q1398.73 708.695 1398.73 699.969 Q1398.73 691.219 1401.78 686.635 Q1404.86 682.029 1410.67 682.029 Z" fill="#000000" fill-rule="nonzero" fill-opacity="1" /><path clip-path="url(#clip760)" d="M1809.56 682.654 L1831.79 682.654 L1831.79 684.645 L1819.24 717.214 L1814.36 717.214 L1826.16 686.589 L1809.56 686.589 L1809.56 682.654 Z" fill="#000000" fill-rule="nonzero" fill-opacity="1" /><path clip-path="url(#clip760)" d="M1840.91 711.334 L1845.79 711.334 L1845.79 717.214 L1840.91 717.214 L1840.91 711.334 Z" fill="#000000" fill-rule="nonzero" fill-opacity="1" /><path clip-path="url(#clip760)" d="M1856.02 682.654 L1874.38 682.654 L1874.38 686.589 L1860.3 686.589 L1860.3 695.061 Q1861.32 694.714 1862.34 694.552 Q1863.36 694.367 1864.38 694.367 Q1870.16 694.367 1873.54 697.538 Q1876.92 700.709 1876.92 706.126 Q1876.92 711.705 1873.45 714.806 Q1869.98 717.885 1863.66 717.885 Q1861.48 717.885 1859.22 717.515 Q1856.97 717.144 1854.56 716.404 L1854.56 711.705 Q1856.65 712.839 1858.87 713.394 Q1861.09 713.95 1863.57 713.95 Q1867.57 713.95 1869.91 711.844 Q1872.25 709.737 1872.25 706.126 Q1872.25 702.515 1869.91 700.408 Q1867.57 698.302 1863.57 698.302 Q1861.69 698.302 1859.82 698.719 Q1857.97 699.135 1856.02 700.015 L1856.02 682.654 Z" fill="#000000" fill-rule="nonzero" fill-opacity="1" /><path clip-path="url(#clip760)" d="M2250.24 713.279 L2257.88 713.279 L2257.88 686.913 L2249.57 688.58 L2249.57 684.321 L2257.83 682.654 L2262.51 682.654 L2262.51 713.279 L2270.14 713.279 L2270.14 717.214 L2250.24 717.214 L2250.24 713.279 Z" fill="#000000" fill-rule="nonzero" fill-opacity="1" /><path clip-path="url(#clip760)" d="M2289.59 685.733 Q2285.98 685.733 2284.15 689.297 Q2282.34 692.839 2282.34 699.969 Q2282.34 707.075 2284.15 710.64 Q2285.98 714.181 2289.59 714.181 Q2293.22 714.181 2295.03 710.64 Q2296.86 707.075 2296.86 699.969 Q2296.86 692.839 2295.03 689.297 Q2293.22 685.733 2289.59 685.733 M2289.59 682.029 Q2295.4 682.029 2298.45 686.635 Q2301.53 691.219 2301.53 699.969 Q2301.53 708.695 2298.45 713.302 Q2295.4 717.885 2289.59 717.885 Q2283.78 717.885 2280.7 713.302 Q2277.64 708.695 2277.64 699.969 Q2277.64 691.219 2280.7 686.635 Q2283.78 682.029 2289.59 682.029 Z" fill="#000000" fill-rule="nonzero" fill-opacity="1" /><path clip-path="url(#clip760)" d="M2309.75 711.334 L2314.64 711.334 L2314.64 717.214 L2309.75 717.214 L2309.75 711.334 Z" fill="#000000" fill-rule="nonzero" fill-opacity="1" /><path clip-path="url(#clip760)" d="M2334.82 685.733 Q2331.21 685.733 2329.38 689.297 Q2327.57 692.839 2327.57 699.969 Q2327.57 707.075 2329.38 710.64 Q2331.21 714.181 2334.82 714.181 Q2338.45 714.181 2340.26 710.64 Q2342.09 707.075 2342.09 699.969 Q2342.09 692.839 2340.26 689.297 Q2338.45 685.733 2334.82 685.733 M2334.82 682.029 Q2340.63 682.029 2343.69 686.635 Q2346.76 691.219 2346.76 699.969 Q2346.76 708.695 2343.69 713.302 Q2340.63 717.885 2334.82 717.885 Q2329.01 717.885 2325.93 713.302 Q2322.88 708.695 2322.88 699.969 Q2322.88 691.219 2325.93 686.635 Q2329.01 682.029 2334.82 682.029 Z" fill="#000000" fill-rule="nonzero" fill-opacity="1" /><polyline clip-path="url(#clip760)" style="stroke:#000000; stroke-linecap:round; stroke-linejoin:round; stroke-width:4; stroke-opacity:1; fill:none" points="423.889,654.814 423.889,47.2441 "/>
<polyline clip-path="url(#clip760)" style="stroke:#000000; stroke-linecap:round; stroke-linejoin:round; stroke-width:4; stroke-opacity:1; fill:none" points="423.889,549.437 442.786,549.437 "/>
<polyline clip-path="url(#clip760)" style="stroke:#000000; stroke-linecap:round; stroke-linejoin:round; stroke-width:4; stroke-opacity:1; fill:none" points="423.889,439.21 442.786,439.21 "/>
<polyline clip-path="url(#clip760)" style="stroke:#000000; stroke-linecap:round; stroke-linejoin:round; stroke-width:4; stroke-opacity:1; fill:none" points="423.889,328.984 442.786,328.984 "/>
<polyline clip-path="url(#clip760)" style="stroke:#000000; stroke-linecap:round; stroke-linejoin:round; stroke-width:4; stroke-opacity:1; fill:none" points="423.889,218.757 442.786,218.757 "/>
<polyline clip-path="url(#clip760)" style="stroke:#000000; stroke-linecap:round; stroke-linejoin:round; stroke-width:4; stroke-opacity:1; fill:none" points="423.889,108.53 442.786,108.53 "/>
<path clip-path="url(#clip760)" d="M330.713 535.236 Q327.102 535.236 325.273 538.801 Q323.468 542.342 323.468 549.472 Q323.468 556.578 325.273 560.143 Q327.102 563.685 330.713 563.685 Q334.347 563.685 336.153 560.143 Q337.981 556.578 337.981 549.472 Q337.981 542.342 336.153 538.801 Q334.347 535.236 330.713 535.236 M330.713 531.532 Q336.523 531.532 339.579 536.139 Q342.657 540.722 342.657 549.472 Q342.657 558.199 339.579 562.805 Q336.523 567.388 330.713 567.388 Q324.903 567.388 321.824 562.805 Q318.769 558.199 318.769 549.472 Q318.769 540.722 321.824 536.139 Q324.903 531.532 330.713 531.532 Z" fill="#000000" fill-rule="nonzero" fill-opacity="1" /><path clip-path="url(#clip760)" d="M350.875 560.838 L355.759 560.838 L355.759 566.717 L350.875 566.717 L350.875 560.838 Z" fill="#000000" fill-rule="nonzero" fill-opacity="1" /><path clip-path="url(#clip760)" d="M375.944 535.236 Q372.333 535.236 370.504 538.801 Q368.699 542.342 368.699 549.472 Q368.699 556.578 370.504 560.143 Q372.333 563.685 375.944 563.685 Q379.578 563.685 381.384 560.143 Q383.213 556.578 383.213 549.472 Q383.213 542.342 381.384 538.801 Q379.578 535.236 375.944 535.236 M375.944 531.532 Q381.754 531.532 384.81 536.139 Q387.889 540.722 387.889 549.472 Q387.889 558.199 384.81 562.805 Q381.754 567.388 375.944 567.388 Q370.134 567.388 367.055 562.805 Q364 558.199 364 549.472 Q364 540.722 367.055 536.139 Q370.134 531.532 375.944 531.532 Z" fill="#000000" fill-rule="nonzero" fill-opacity="1" /><path clip-path="url(#clip760)" d="M325.736 452.555 L342.056 452.555 L342.056 456.49 L320.111 456.49 L320.111 452.555 Q322.773 449.801 327.357 445.171 Q331.963 440.518 333.144 439.176 Q335.389 436.653 336.269 434.916 Q337.171 433.157 337.171 431.467 Q337.171 428.713 335.227 426.977 Q333.306 425.241 330.204 425.241 Q328.005 425.241 325.551 426.004 Q323.12 426.768 320.343 428.319 L320.343 423.597 Q323.167 422.463 325.62 421.884 Q328.074 421.305 330.111 421.305 Q335.481 421.305 338.676 423.991 Q341.87 426.676 341.87 431.166 Q341.87 433.296 341.06 435.217 Q340.273 437.115 338.167 439.708 Q337.588 440.379 334.486 443.597 Q331.384 446.791 325.736 452.555 Z" fill="#000000" fill-rule="nonzero" fill-opacity="1" /><path clip-path="url(#clip760)" d="M351.87 450.611 L356.755 450.611 L356.755 456.49 L351.87 456.49 L351.87 450.611 Z" fill="#000000" fill-rule="nonzero" fill-opacity="1" /><path clip-path="url(#clip760)" d="M366.986 421.93 L385.342 421.93 L385.342 425.866 L371.268 425.866 L371.268 434.338 Q372.287 433.99 373.305 433.828 Q374.324 433.643 375.342 433.643 Q381.129 433.643 384.509 436.815 Q387.889 439.986 387.889 445.402 Q387.889 450.981 384.416 454.083 Q380.944 457.162 374.625 457.162 Q372.449 457.162 370.18 456.791 Q367.935 456.421 365.528 455.68 L365.528 450.981 Q367.611 452.115 369.833 452.671 Q372.055 453.226 374.532 453.226 Q378.537 453.226 380.875 451.12 Q383.213 449.014 383.213 445.402 Q383.213 441.791 380.875 439.685 Q378.537 437.578 374.532 437.578 Q372.657 437.578 370.782 437.995 Q368.93 438.412 366.986 439.291 L366.986 421.93 Z" fill="#000000" fill-rule="nonzero" fill-opacity="1" /><path clip-path="url(#clip760)" d="M320.759 311.704 L339.116 311.704 L339.116 315.639 L325.042 315.639 L325.042 324.111 Q326.06 323.764 327.079 323.602 Q328.097 323.417 329.116 323.417 Q334.903 323.417 338.282 326.588 Q341.662 329.759 341.662 335.176 Q341.662 340.754 338.19 343.856 Q334.718 346.935 328.398 346.935 Q326.222 346.935 323.954 346.565 Q321.708 346.194 319.301 345.453 L319.301 340.754 Q321.384 341.889 323.607 342.444 Q325.829 343 328.306 343 Q332.31 343 334.648 340.893 Q336.986 338.787 336.986 335.176 Q336.986 331.565 334.648 329.458 Q332.31 327.352 328.306 327.352 Q326.431 327.352 324.556 327.768 Q322.704 328.185 320.759 329.065 L320.759 311.704 Z" fill="#000000" fill-rule="nonzero" fill-opacity="1" /><path clip-path="url(#clip760)" d="M350.875 340.384 L355.759 340.384 L355.759 346.264 L350.875 346.264 L350.875 340.384 Z" fill="#000000" fill-rule="nonzero" fill-opacity="1" /><path clip-path="url(#clip760)" d="M375.944 314.782 Q372.333 314.782 370.504 318.347 Q368.699 321.889 368.699 329.018 Q368.699 336.125 370.504 339.69 Q372.333 343.231 375.944 343.231 Q379.578 343.231 381.384 339.69 Q383.213 336.125 383.213 329.018 Q383.213 321.889 381.384 318.347 Q379.578 314.782 375.944 314.782 M375.944 311.079 Q381.754 311.079 384.81 315.685 Q387.889 320.268 387.889 329.018 Q387.889 337.745 384.81 342.352 Q381.754 346.935 375.944 346.935 Q370.134 346.935 367.055 342.352 Q364 337.745 364 329.018 Q364 320.268 367.055 315.685 Q370.134 311.079 375.944 311.079 Z" fill="#000000" fill-rule="nonzero" fill-opacity="1" /><path clip-path="url(#clip760)" d="M320.528 201.477 L342.75 201.477 L342.75 203.468 L330.204 236.037 L325.32 236.037 L337.125 205.412 L320.528 205.412 L320.528 201.477 Z" fill="#000000" fill-rule="nonzero" fill-opacity="1" /><path clip-path="url(#clip760)" d="M351.87 230.157 L356.755 230.157 L356.755 236.037 L351.87 236.037 L351.87 230.157 Z" fill="#000000" fill-rule="nonzero" fill-opacity="1" /><path clip-path="url(#clip760)" d="M366.986 201.477 L385.342 201.477 L385.342 205.412 L371.268 205.412 L371.268 213.884 Q372.287 213.537 373.305 213.375 Q374.324 213.19 375.342 213.19 Q381.129 213.19 384.509 216.361 Q387.889 219.532 387.889 224.949 Q387.889 230.528 384.416 233.629 Q380.944 236.708 374.625 236.708 Q372.449 236.708 370.18 236.338 Q367.935 235.967 365.528 235.227 L365.528 230.528 Q367.611 231.662 369.833 232.217 Q372.055 232.773 374.532 232.773 Q378.537 232.773 380.875 230.667 Q383.213 228.56 383.213 224.949 Q383.213 221.338 380.875 219.231 Q378.537 217.125 374.532 217.125 Q372.657 217.125 370.782 217.542 Q368.93 217.958 366.986 218.838 L366.986 201.477 Z" fill="#000000" fill-rule="nonzero" fill-opacity="1" /><path clip-path="url(#clip760)" d="M291.361 121.875 L299 121.875 L299 95.5094 L290.69 97.1761 L290.69 92.9168 L298.954 91.2502 L303.63 91.2502 L303.63 121.875 L311.269 121.875 L311.269 125.81 L291.361 125.81 L291.361 121.875 Z" fill="#000000" fill-rule="nonzero" fill-opacity="1" /><path clip-path="url(#clip760)" d="M330.713 94.3288 Q327.102 94.3288 325.273 97.8936 Q323.468 101.435 323.468 108.565 Q323.468 115.671 325.273 119.236 Q327.102 122.778 330.713 122.778 Q334.347 122.778 336.153 119.236 Q337.981 115.671 337.981 108.565 Q337.981 101.435 336.153 97.8936 Q334.347 94.3288 330.713 94.3288 M330.713 90.6252 Q336.523 90.6252 339.579 95.2316 Q342.657 99.8149 342.657 108.565 Q342.657 117.292 339.579 121.898 Q336.523 126.481 330.713 126.481 Q324.903 126.481 321.824 121.898 Q318.769 117.292 318.769 108.565 Q318.769 99.8149 321.824 95.2316 Q324.903 90.6252 330.713 90.6252 Z" fill="#000000" fill-rule="nonzero" fill-opacity="1" /><path clip-path="url(#clip760)" d="M350.875 119.931 L355.759 119.931 L355.759 125.81 L350.875 125.81 L350.875 119.931 Z" fill="#000000" fill-rule="nonzero" fill-opacity="1" /><path clip-path="url(#clip760)" d="M375.944 94.3288 Q372.333 94.3288 370.504 97.8936 Q368.699 101.435 368.699 108.565 Q368.699 115.671 370.504 119.236 Q372.333 122.778 375.944 122.778 Q379.578 122.778 381.384 119.236 Q383.213 115.671 383.213 108.565 Q383.213 101.435 381.384 97.8936 Q379.578 94.3288 375.944 94.3288 M375.944 90.6252 Q381.754 90.6252 384.81 95.2316 Q387.889 99.8149 387.889 108.565 Q387.889 117.292 384.81 121.898 Q381.754 126.481 375.944 126.481 Q370.134 126.481 367.055 121.898 Q364 117.292 364 108.565 Q364 99.8149 367.055 95.2316 Q370.134 90.6252 375.944 90.6252 Z" fill="#000000" fill-rule="nonzero" fill-opacity="1" /><path clip-path="url(#clip760)" d="M204.786 334.414 L222.133 347.305 L240.434 333.746 L240.434 340.653 L226.43 351.029 L240.434 361.405 L240.434 368.312 L221.783 354.466 L204.786 367.134 L204.786 360.227 L217.486 350.774 L204.786 341.321 L204.786 334.414 Z" fill="#000000" fill-rule="nonzero" fill-opacity="1" /><polyline clip-path="url(#clip762)" style="stroke:#009af9; stroke-linecap:round; stroke-linejoin:round; stroke-width:4; stroke-opacity:1; fill:none" points="478.479,64.4395 660.448,95.303 842.416,137.189 1024.39,177.708 1206.35,214.74 1388.32,248.182 1570.29,278.302 1752.26,305.414 1934.23,329.816 2116.2,351.778 2298.17,371.544 "/>
<polyline clip-path="url(#clip762)" style="stroke:#e26f46; stroke-linecap:round; stroke-linejoin:round; stroke-width:4; stroke-opacity:1; fill:none" points="478.479,637.618 660.448,567.073 842.416,552.964 1024.39,550.143 1206.35,549.578 1388.32,549.465 1570.29,549.443 1752.26,549.438 1934.23,549.437 2116.2,549.437 2298.17,549.437 "/>
<polyline clip-path="url(#clip762)" style="stroke:#000000; stroke-linecap:round; stroke-linejoin:round; stroke-width:4; stroke-opacity:1; fill:none" stroke-dasharray="16, 10" points="478.479,64.4395 660.448,95.303 842.416,137.189 1024.39,177.708 1206.35,214.74 1388.32,248.182 1570.29,278.302 1752.26,305.414 1934.23,329.816 2116.2,351.778 2298.17,371.544 "/>
<polyline clip-path="url(#clip762)" style="stroke:#000000; stroke-linecap:round; stroke-linejoin:round; stroke-width:4; stroke-opacity:1; fill:none" stroke-dasharray="16, 10" points="478.479,637.618 660.448,567.073 842.416,552.964 1024.39,550.143 1206.35,549.578 1388.32,549.465 1570.29,549.443 1752.26,549.438 1934.23,549.437 2116.2,549.437 2298.17,549.437 "/>
<path clip-path="url(#clip760)" d="M1998.38 223.016 L2288.46 223.016 L2288.46 67.4964 L1998.38 67.4964  Z" fill="#ffffff" fill-rule="evenodd" fill-opacity="1"/>
<polyline clip-path="url(#clip760)" style="stroke:#000000; stroke-linecap:round; stroke-linejoin:round; stroke-width:4; stroke-opacity:1; fill:none" points="1998.38,223.016 2288.46,223.016 2288.46,67.4964 1998.38,67.4964 1998.38,223.016 "/>
<polyline clip-path="url(#clip760)" style="stroke:#009af9; stroke-linecap:round; stroke-linejoin:round; stroke-width:4; stroke-opacity:1; fill:none" points="2019.81,119.336 2148.4,119.336 "/>
<path clip-path="url(#clip760)" d="M2194.48 110.691 L2185.11 123.306 L2194.97 136.616 L2189.95 136.616 L2182.4 126.431 L2174.85 136.616 L2169.83 136.616 L2179.9 123.052 L2170.69 110.691 L2175.71 110.691 L2182.58 119.927 L2189.46 110.691 L2194.48 110.691 Z" fill="#000000" fill-rule="nonzero" fill-opacity="1" /><path clip-path="url(#clip760)" d="M2182.95 98.7 L2186.38 98.7 L2192.05 107.404 L2188.83 107.404 L2184.67 101.732 L2180.5 107.404 L2177.28 107.404 L2182.95 98.7 M2184.67 110.066 L2184.67 110.066 Z" fill="#000000" fill-rule="nonzero" fill-opacity="1" /><path clip-path="url(#clip760)" d="M2200.13 134.07 L2204.85 134.07 L2204.85 119.927 L2199.69 120.876 L2199.69 118.191 L2205.01 117.288 L2208.19 117.288 L2208.19 134.07 L2212.93 134.07 L2212.93 136.616 L2200.13 136.616 L2200.13 134.07 Z" fill="#000000" fill-rule="nonzero" fill-opacity="1" /><path clip-path="url(#clip760)" d="M2230.22 100.644 Q2227.12 105.968 2225.62 111.177 Q2224.11 116.385 2224.11 121.732 Q2224.11 127.079 2225.62 132.334 Q2227.14 137.565 2230.22 142.866 L2226.52 142.866 Q2223.05 137.427 2221.31 132.172 Q2219.6 126.917 2219.6 121.732 Q2219.6 116.57 2221.31 111.339 Q2223.02 106.107 2226.52 100.644 L2230.22 100.644 Z" fill="#000000" fill-rule="nonzero" fill-opacity="1" /><path clip-path="url(#clip760)" d="M2242.7 103.33 L2242.7 110.691 L2251.47 110.691 L2251.47 114.001 L2242.7 114.001 L2242.7 128.075 Q2242.7 131.246 2243.56 132.149 Q2244.44 133.052 2247.1 133.052 L2251.47 133.052 L2251.47 136.616 L2247.1 136.616 Q2242.17 136.616 2240.29 134.788 Q2238.42 132.936 2238.42 128.075 L2238.42 114.001 L2235.29 114.001 L2235.29 110.691 L2238.42 110.691 L2238.42 103.33 L2242.7 103.33 Z" fill="#000000" fill-rule="nonzero" fill-opacity="1" /><path clip-path="url(#clip760)" d="M2256.4 100.644 L2260.11 100.644 Q2263.58 106.107 2265.29 111.339 Q2267.03 116.57 2267.03 121.732 Q2267.03 126.917 2265.29 132.172 Q2263.58 137.427 2260.11 142.866 L2256.4 142.866 Q2259.48 137.565 2260.99 132.334 Q2262.51 127.079 2262.51 121.732 Q2262.51 116.385 2260.99 111.177 Q2259.48 105.968 2256.4 100.644 Z" fill="#000000" fill-rule="nonzero" fill-opacity="1" /><polyline clip-path="url(#clip760)" style="stroke:#e26f46; stroke-linecap:round; stroke-linejoin:round; stroke-width:4; stroke-opacity:1; fill:none" points="2019.81,171.176 2148.4,171.176 "/>
<path clip-path="url(#clip760)" d="M2194.48 162.531 L2185.11 175.146 L2194.97 188.456 L2189.95 188.456 L2182.4 178.271 L2174.85 188.456 L2169.83 188.456 L2179.9 174.892 L2170.69 162.531 L2175.71 162.531 L2182.58 171.767 L2189.46 162.531 L2194.48 162.531 Z" fill="#000000" fill-rule="nonzero" fill-opacity="1" /><path clip-path="url(#clip760)" d="M2182.95 150.54 L2186.38 150.54 L2192.05 159.244 L2188.83 159.244 L2184.67 153.572 L2180.5 159.244 L2177.28 159.244 L2182.95 150.54 M2184.67 161.906 L2184.67 161.906 Z" fill="#000000" fill-rule="nonzero" fill-opacity="1" /><path clip-path="url(#clip760)" d="M2202.72 185.818 L2212.54 185.818 L2212.54 188.456 L2198.7 188.456 L2198.7 185.91 Q2199.48 185.193 2200.94 183.896 Q2208.9 176.836 2208.9 174.66 Q2208.9 173.132 2207.7 172.207 Q2206.5 171.257 2204.53 171.257 Q2203.33 171.257 2201.91 171.674 Q2200.5 172.068 2198.83 172.878 L2198.83 170.031 Q2200.62 169.382 2202.14 169.058 Q2203.7 168.734 2205.01 168.734 Q2208.37 168.734 2210.39 170.262 Q2212.4 171.79 2212.4 174.29 Q2212.4 177.507 2204.74 184.081 Q2203.44 185.193 2202.72 185.818 Z" fill="#000000" fill-rule="nonzero" fill-opacity="1" /><path clip-path="url(#clip760)" d="M2230.22 152.484 Q2227.12 157.808 2225.62 163.017 Q2224.11 168.225 2224.11 173.572 Q2224.11 178.919 2225.62 184.174 Q2227.14 189.405 2230.22 194.706 L2226.52 194.706 Q2223.05 189.267 2221.31 184.012 Q2219.6 178.757 2219.6 173.572 Q2219.6 168.41 2221.31 163.179 Q2223.02 157.947 2226.52 152.484 L2230.22 152.484 Z" fill="#000000" fill-rule="nonzero" fill-opacity="1" /><path clip-path="url(#clip760)" d="M2242.7 155.17 L2242.7 162.531 L2251.47 162.531 L2251.47 165.841 L2242.7 165.841 L2242.7 179.915 Q2242.7 183.086 2243.56 183.989 Q2244.44 184.892 2247.1 184.892 L2251.47 184.892 L2251.47 188.456 L2247.1 188.456 Q2242.17 188.456 2240.29 186.628 Q2238.42 184.776 2238.42 179.915 L2238.42 165.841 L2235.29 165.841 L2235.29 162.531 L2238.42 162.531 L2238.42 155.17 L2242.7 155.17 Z" fill="#000000" fill-rule="nonzero" fill-opacity="1" /><path clip-path="url(#clip760)" d="M2256.4 152.484 L2260.11 152.484 Q2263.58 157.947 2265.29 163.179 Q2267.03 168.41 2267.03 173.572 Q2267.03 178.757 2265.29 184.012 Q2263.58 189.267 2260.11 194.706 L2256.4 194.706 Q2259.48 189.405 2260.99 184.174 Q2262.51 178.919 2262.51 173.572 Q2262.51 168.225 2260.99 163.017 Q2259.48 157.808 2256.4 152.484 Z" fill="#000000" fill-rule="nonzero" fill-opacity="1" /><path clip-path="url(#clip760)" d="M423.889 1423.18 L2352.76 1423.18 L2352.76 815.61 L423.889 815.61  Z" fill="#ffffff" fill-rule="evenodd" fill-opacity="1"/>
<defs>
  <clipPath id="clip763">
    <rect x="423" y="815" width="1930" height="609"/>
  </clipPath>
</defs>
<polyline clip-path="url(#clip763)" style="stroke:#000000; stroke-linecap:round; stroke-linejoin:round; stroke-width:2; stroke-opacity:0.1; fill:none" points="478.479,1423.18 478.479,815.61 "/>
<polyline clip-path="url(#clip763)" style="stroke:#000000; stroke-linecap:round; stroke-linejoin:round; stroke-width:2; stroke-opacity:0.1; fill:none" points="933.401,1423.18 933.401,815.61 "/>
<polyline clip-path="url(#clip763)" style="stroke:#000000; stroke-linecap:round; stroke-linejoin:round; stroke-width:2; stroke-opacity:0.1; fill:none" points="1388.32,1423.18 1388.32,815.61 "/>
<polyline clip-path="url(#clip763)" style="stroke:#000000; stroke-linecap:round; stroke-linejoin:round; stroke-width:2; stroke-opacity:0.1; fill:none" points="1843.24,1423.18 1843.24,815.61 "/>
<polyline clip-path="url(#clip763)" style="stroke:#000000; stroke-linecap:round; stroke-linejoin:round; stroke-width:2; stroke-opacity:0.1; fill:none" points="2298.17,1423.18 2298.17,815.61 "/>
<polyline clip-path="url(#clip763)" style="stroke:#000000; stroke-linecap:round; stroke-linejoin:round; stroke-width:2; stroke-opacity:0.1; fill:none" points="423.889,1405.98 2352.76,1405.98 "/>
<polyline clip-path="url(#clip763)" style="stroke:#000000; stroke-linecap:round; stroke-linejoin:round; stroke-width:2; stroke-opacity:0.1; fill:none" points="423.889,1275.72 2352.76,1275.72 "/>
<polyline clip-path="url(#clip763)" style="stroke:#000000; stroke-linecap:round; stroke-linejoin:round; stroke-width:2; stroke-opacity:0.1; fill:none" points="423.889,1145.45 2352.76,1145.45 "/>
<polyline clip-path="url(#clip763)" style="stroke:#000000; stroke-linecap:round; stroke-linejoin:round; stroke-width:2; stroke-opacity:0.1; fill:none" points="423.889,1015.18 2352.76,1015.18 "/>
<polyline clip-path="url(#clip763)" style="stroke:#000000; stroke-linecap:round; stroke-linejoin:round; stroke-width:2; stroke-opacity:0.1; fill:none" points="423.889,884.913 2352.76,884.913 "/>
<polyline clip-path="url(#clip760)" style="stroke:#000000; stroke-linecap:round; stroke-linejoin:round; stroke-width:4; stroke-opacity:1; fill:none" points="423.889,1423.18 2352.76,1423.18 "/>
<polyline clip-path="url(#clip760)" style="stroke:#000000; stroke-linecap:round; stroke-linejoin:round; stroke-width:4; stroke-opacity:1; fill:none" points="478.479,1423.18 478.479,1404.28 "/>
<polyline clip-path="url(#clip760)" style="stroke:#000000; stroke-linecap:round; stroke-linejoin:round; stroke-width:4; stroke-opacity:1; fill:none" points="933.401,1423.18 933.401,1404.28 "/>
<polyline clip-path="url(#clip760)" style="stroke:#000000; stroke-linecap:round; stroke-linejoin:round; stroke-width:4; stroke-opacity:1; fill:none" points="1388.32,1423.18 1388.32,1404.28 "/>
<polyline clip-path="url(#clip760)" style="stroke:#000000; stroke-linecap:round; stroke-linejoin:round; stroke-width:4; stroke-opacity:1; fill:none" points="1843.24,1423.18 1843.24,1404.28 "/>
<polyline clip-path="url(#clip760)" style="stroke:#000000; stroke-linecap:round; stroke-linejoin:round; stroke-width:4; stroke-opacity:1; fill:none" points="2298.17,1423.18 2298.17,1404.28 "/>
<path clip-path="url(#clip760)" d="M455.864 1454.1 Q452.252 1454.1 450.424 1457.66 Q448.618 1461.2 448.618 1468.33 Q448.618 1475.44 450.424 1479.01 Q452.252 1482.55 455.864 1482.55 Q459.498 1482.55 461.303 1479.01 Q463.132 1475.44 463.132 1468.33 Q463.132 1461.2 461.303 1457.66 Q459.498 1454.1 455.864 1454.1 M455.864 1450.39 Q461.674 1450.39 464.729 1455 Q467.808 1459.58 467.808 1468.33 Q467.808 1477.06 464.729 1481.67 Q461.674 1486.25 455.864 1486.25 Q450.053 1486.25 446.975 1481.67 Q443.919 1477.06 443.919 1468.33 Q443.919 1459.58 446.975 1455 Q450.053 1450.39 455.864 1450.39 Z" fill="#000000" fill-rule="nonzero" fill-opacity="1" /><path clip-path="url(#clip760)" d="M476.026 1479.7 L480.91 1479.7 L480.91 1485.58 L476.026 1485.58 L476.026 1479.7 Z" fill="#000000" fill-rule="nonzero" fill-opacity="1" /><path clip-path="url(#clip760)" d="M501.095 1454.1 Q497.484 1454.1 495.655 1457.66 Q493.849 1461.2 493.849 1468.33 Q493.849 1475.44 495.655 1479.01 Q497.484 1482.55 501.095 1482.55 Q504.729 1482.55 506.535 1479.01 Q508.363 1475.44 508.363 1468.33 Q508.363 1461.2 506.535 1457.66 Q504.729 1454.1 501.095 1454.1 M501.095 1450.39 Q506.905 1450.39 509.961 1455 Q513.039 1459.58 513.039 1468.33 Q513.039 1477.06 509.961 1481.67 Q506.905 1486.25 501.095 1486.25 Q495.285 1486.25 492.206 1481.67 Q489.15 1477.06 489.15 1468.33 Q489.15 1459.58 492.206 1455 Q495.285 1450.39 501.095 1450.39 Z" fill="#000000" fill-rule="nonzero" fill-opacity="1" /><path clip-path="url(#clip760)" d="M905.137 1481.64 L921.456 1481.64 L921.456 1485.58 L899.512 1485.58 L899.512 1481.64 Q902.174 1478.89 906.757 1474.26 Q911.364 1469.61 912.544 1468.27 Q914.79 1465.74 915.669 1464.01 Q916.572 1462.25 916.572 1460.56 Q916.572 1457.8 914.628 1456.07 Q912.706 1454.33 909.605 1454.33 Q907.405 1454.33 904.952 1455.09 Q902.521 1455.86 899.743 1457.41 L899.743 1452.69 Q902.568 1451.55 905.021 1450.97 Q907.475 1450.39 909.512 1450.39 Q914.882 1450.39 918.077 1453.08 Q921.271 1455.77 921.271 1460.26 Q921.271 1462.39 920.461 1464.31 Q919.674 1466.2 917.567 1468.8 Q916.989 1469.47 913.887 1472.69 Q910.785 1475.88 905.137 1481.64 Z" fill="#000000" fill-rule="nonzero" fill-opacity="1" /><path clip-path="url(#clip760)" d="M931.271 1479.7 L936.155 1479.7 L936.155 1485.58 L931.271 1485.58 L931.271 1479.7 Z" fill="#000000" fill-rule="nonzero" fill-opacity="1" /><path clip-path="url(#clip760)" d="M946.387 1451.02 L964.743 1451.02 L964.743 1454.96 L950.669 1454.96 L950.669 1463.43 Q951.688 1463.08 952.706 1462.92 Q953.725 1462.73 954.743 1462.73 Q960.53 1462.73 963.91 1465.9 Q967.289 1469.08 967.289 1474.49 Q967.289 1480.07 963.817 1483.17 Q960.345 1486.25 954.026 1486.25 Q951.85 1486.25 949.581 1485.88 Q947.336 1485.51 944.928 1484.77 L944.928 1480.07 Q947.012 1481.2 949.234 1481.76 Q951.456 1482.32 953.933 1482.32 Q957.938 1482.32 960.276 1480.21 Q962.614 1478.1 962.614 1474.49 Q962.614 1470.88 960.276 1468.77 Q957.938 1466.67 953.933 1466.67 Q952.058 1466.67 950.183 1467.08 Q948.331 1467.5 946.387 1468.38 L946.387 1451.02 Z" fill="#000000" fill-rule="nonzero" fill-opacity="1" /><path clip-path="url(#clip760)" d="M1355.49 1451.02 L1373.84 1451.02 L1373.84 1454.96 L1359.77 1454.96 L1359.77 1463.43 Q1360.79 1463.08 1361.81 1462.92 Q1362.82 1462.73 1363.84 1462.73 Q1369.63 1462.73 1373.01 1465.9 Q1376.39 1469.08 1376.39 1474.49 Q1376.39 1480.07 1372.92 1483.17 Q1369.45 1486.25 1363.13 1486.25 Q1360.95 1486.25 1358.68 1485.88 Q1356.44 1485.51 1354.03 1484.77 L1354.03 1480.07 Q1356.11 1481.2 1358.33 1481.76 Q1360.56 1482.32 1363.03 1482.32 Q1367.04 1482.32 1369.38 1480.21 Q1371.71 1478.1 1371.71 1474.49 Q1371.71 1470.88 1369.38 1468.77 Q1367.04 1466.67 1363.03 1466.67 Q1361.16 1466.67 1359.28 1467.08 Q1357.43 1467.5 1355.49 1468.38 L1355.49 1451.02 Z" fill="#000000" fill-rule="nonzero" fill-opacity="1" /><path clip-path="url(#clip760)" d="M1385.6 1479.7 L1390.49 1479.7 L1390.49 1485.58 L1385.6 1485.58 L1385.6 1479.7 Z" fill="#000000" fill-rule="nonzero" fill-opacity="1" /><path clip-path="url(#clip760)" d="M1410.67 1454.1 Q1407.06 1454.1 1405.23 1457.66 Q1403.43 1461.2 1403.43 1468.33 Q1403.43 1475.44 1405.23 1479.01 Q1407.06 1482.55 1410.67 1482.55 Q1414.31 1482.55 1416.11 1479.01 Q1417.94 1475.44 1417.94 1468.33 Q1417.94 1461.2 1416.11 1457.66 Q1414.31 1454.1 1410.67 1454.1 M1410.67 1450.39 Q1416.48 1450.39 1419.54 1455 Q1422.62 1459.58 1422.62 1468.33 Q1422.62 1477.06 1419.54 1481.67 Q1416.48 1486.25 1410.67 1486.25 Q1404.86 1486.25 1401.78 1481.67 Q1398.73 1477.06 1398.73 1468.33 Q1398.73 1459.58 1401.78 1455 Q1404.86 1450.39 1410.67 1450.39 Z" fill="#000000" fill-rule="nonzero" fill-opacity="1" /><path clip-path="url(#clip760)" d="M1809.56 1451.02 L1831.79 1451.02 L1831.79 1453.01 L1819.24 1485.58 L1814.36 1485.58 L1826.16 1454.96 L1809.56 1454.96 L1809.56 1451.02 Z" fill="#000000" fill-rule="nonzero" fill-opacity="1" /><path clip-path="url(#clip760)" d="M1840.91 1479.7 L1845.79 1479.7 L1845.79 1485.58 L1840.91 1485.58 L1840.91 1479.7 Z" fill="#000000" fill-rule="nonzero" fill-opacity="1" /><path clip-path="url(#clip760)" d="M1856.02 1451.02 L1874.38 1451.02 L1874.38 1454.96 L1860.3 1454.96 L1860.3 1463.43 Q1861.32 1463.08 1862.34 1462.92 Q1863.36 1462.73 1864.38 1462.73 Q1870.16 1462.73 1873.54 1465.9 Q1876.92 1469.08 1876.92 1474.49 Q1876.92 1480.07 1873.45 1483.17 Q1869.98 1486.25 1863.66 1486.25 Q1861.48 1486.25 1859.22 1485.88 Q1856.97 1485.51 1854.56 1484.77 L1854.56 1480.07 Q1856.65 1481.2 1858.87 1481.76 Q1861.09 1482.32 1863.57 1482.32 Q1867.57 1482.32 1869.91 1480.21 Q1872.25 1478.1 1872.25 1474.49 Q1872.25 1470.88 1869.91 1468.77 Q1867.57 1466.67 1863.57 1466.67 Q1861.69 1466.67 1859.82 1467.08 Q1857.97 1467.5 1856.02 1468.38 L1856.02 1451.02 Z" fill="#000000" fill-rule="nonzero" fill-opacity="1" /><path clip-path="url(#clip760)" d="M2250.24 1481.64 L2257.88 1481.64 L2257.88 1455.28 L2249.57 1456.95 L2249.57 1452.69 L2257.83 1451.02 L2262.51 1451.02 L2262.51 1481.64 L2270.14 1481.64 L2270.14 1485.58 L2250.24 1485.58 L2250.24 1481.64 Z" fill="#000000" fill-rule="nonzero" fill-opacity="1" /><path clip-path="url(#clip760)" d="M2289.59 1454.1 Q2285.98 1454.1 2284.15 1457.66 Q2282.34 1461.2 2282.34 1468.33 Q2282.34 1475.44 2284.15 1479.01 Q2285.98 1482.55 2289.59 1482.55 Q2293.22 1482.55 2295.03 1479.01 Q2296.86 1475.44 2296.86 1468.33 Q2296.86 1461.2 2295.03 1457.66 Q2293.22 1454.1 2289.59 1454.1 M2289.59 1450.39 Q2295.4 1450.39 2298.45 1455 Q2301.53 1459.58 2301.53 1468.33 Q2301.53 1477.06 2298.45 1481.67 Q2295.4 1486.25 2289.59 1486.25 Q2283.78 1486.25 2280.7 1481.67 Q2277.64 1477.06 2277.64 1468.33 Q2277.64 1459.58 2280.7 1455 Q2283.78 1450.39 2289.59 1450.39 Z" fill="#000000" fill-rule="nonzero" fill-opacity="1" /><path clip-path="url(#clip760)" d="M2309.75 1479.7 L2314.64 1479.7 L2314.64 1485.58 L2309.75 1485.58 L2309.75 1479.7 Z" fill="#000000" fill-rule="nonzero" fill-opacity="1" /><path clip-path="url(#clip760)" d="M2334.82 1454.1 Q2331.21 1454.1 2329.38 1457.66 Q2327.57 1461.2 2327.57 1468.33 Q2327.57 1475.44 2329.38 1479.01 Q2331.21 1482.55 2334.82 1482.55 Q2338.45 1482.55 2340.26 1479.01 Q2342.09 1475.44 2342.09 1468.33 Q2342.09 1461.2 2340.26 1457.66 Q2338.45 1454.1 2334.82 1454.1 M2334.82 1450.39 Q2340.63 1450.39 2343.69 1455 Q2346.76 1459.58 2346.76 1468.33 Q2346.76 1477.06 2343.69 1481.67 Q2340.63 1486.25 2334.82 1486.25 Q2329.01 1486.25 2325.93 1481.67 Q2322.88 1477.06 2322.88 1468.33 Q2322.88 1459.58 2325.93 1455 Q2329.01 1450.39 2334.82 1450.39 Z" fill="#000000" fill-rule="nonzero" fill-opacity="1" /><path clip-path="url(#clip760)" d="M1387.38 1522.27 L1387.38 1532.4 L1399.45 1532.4 L1399.45 1536.95 L1387.38 1536.95 L1387.38 1556.3 Q1387.38 1560.66 1388.56 1561.9 Q1389.77 1563.14 1393.43 1563.14 L1399.45 1563.14 L1399.45 1568.04 L1393.43 1568.04 Q1386.65 1568.04 1384.07 1565.53 Q1381.5 1562.98 1381.5 1556.3 L1381.5 1536.95 L1377.2 1536.95 L1377.2 1532.4 L1381.5 1532.4 L1381.5 1522.27 L1387.38 1522.27 Z" fill="#000000" fill-rule="nonzero" fill-opacity="1" /><polyline clip-path="url(#clip760)" style="stroke:#000000; stroke-linecap:round; stroke-linejoin:round; stroke-width:4; stroke-opacity:1; fill:none" points="423.889,1423.18 423.889,815.61 "/>
<polyline clip-path="url(#clip760)" style="stroke:#000000; stroke-linecap:round; stroke-linejoin:round; stroke-width:4; stroke-opacity:1; fill:none" points="423.889,1405.98 442.786,1405.98 "/>
<polyline clip-path="url(#clip760)" style="stroke:#000000; stroke-linecap:round; stroke-linejoin:round; stroke-width:4; stroke-opacity:1; fill:none" points="423.889,1275.72 442.786,1275.72 "/>
<polyline clip-path="url(#clip760)" style="stroke:#000000; stroke-linecap:round; stroke-linejoin:round; stroke-width:4; stroke-opacity:1; fill:none" points="423.889,1145.45 442.786,1145.45 "/>
<polyline clip-path="url(#clip760)" style="stroke:#000000; stroke-linecap:round; stroke-linejoin:round; stroke-width:4; stroke-opacity:1; fill:none" points="423.889,1015.18 442.786,1015.18 "/>
<polyline clip-path="url(#clip760)" style="stroke:#000000; stroke-linecap:round; stroke-linejoin:round; stroke-width:4; stroke-opacity:1; fill:none" points="423.889,884.913 442.786,884.913 "/>
<path clip-path="url(#clip760)" d="M375.944 1391.78 Q372.333 1391.78 370.504 1395.35 Q368.699 1398.89 368.699 1406.02 Q368.699 1413.13 370.504 1416.69 Q372.333 1420.23 375.944 1420.23 Q379.578 1420.23 381.384 1416.69 Q383.213 1413.13 383.213 1406.02 Q383.213 1398.89 381.384 1395.35 Q379.578 1391.78 375.944 1391.78 M375.944 1388.08 Q381.754 1388.08 384.81 1392.69 Q387.889 1397.27 387.889 1406.02 Q387.889 1414.75 384.81 1419.35 Q381.754 1423.94 375.944 1423.94 Q370.134 1423.94 367.055 1419.35 Q364 1414.75 364 1406.02 Q364 1397.27 367.055 1392.69 Q370.134 1388.08 375.944 1388.08 Z" fill="#000000" fill-rule="nonzero" fill-opacity="1" /><path clip-path="url(#clip760)" d="M119.885 1295.51 L136.204 1295.51 L136.204 1299.44 L114.26 1299.44 L114.26 1295.51 Q116.922 1292.75 121.505 1288.12 Q126.112 1283.47 127.292 1282.13 Q129.538 1279.61 130.417 1277.87 Q131.32 1276.11 131.32 1274.42 Q131.32 1271.67 129.376 1269.93 Q127.455 1268.19 124.353 1268.19 Q122.154 1268.19 119.7 1268.96 Q117.269 1269.72 114.492 1271.27 L114.492 1266.55 Q117.316 1265.42 119.769 1264.84 Q122.223 1264.26 124.26 1264.26 Q129.63 1264.26 132.825 1266.94 Q136.019 1269.63 136.019 1274.12 Q136.019 1276.25 135.209 1278.17 Q134.422 1280.07 132.316 1282.66 Q131.737 1283.33 128.635 1286.55 Q125.533 1289.75 119.885 1295.51 Z" fill="#000000" fill-rule="nonzero" fill-opacity="1" /><path clip-path="url(#clip760)" d="M146.019 1293.56 L150.903 1293.56 L150.903 1299.44 L146.019 1299.44 L146.019 1293.56 Z" fill="#000000" fill-rule="nonzero" fill-opacity="1" /><path clip-path="url(#clip760)" d="M161.135 1264.88 L179.491 1264.88 L179.491 1268.82 L165.417 1268.82 L165.417 1277.29 Q166.436 1276.94 167.454 1276.78 Q168.473 1276.6 169.491 1276.6 Q175.278 1276.6 178.658 1279.77 Q182.038 1282.94 182.038 1288.36 Q182.038 1293.93 178.565 1297.04 Q175.093 1300.12 168.774 1300.12 Q166.598 1300.12 164.329 1299.75 Q162.084 1299.37 159.677 1298.63 L159.677 1293.93 Q161.76 1295.07 163.982 1295.62 Q166.204 1296.18 168.681 1296.18 Q172.686 1296.18 175.024 1294.07 Q177.362 1291.97 177.362 1288.36 Q177.362 1284.75 175.024 1282.64 Q172.686 1280.53 168.681 1280.53 Q166.806 1280.53 164.931 1280.95 Q163.079 1281.37 161.135 1282.25 L161.135 1264.88 Z" fill="#000000" fill-rule="nonzero" fill-opacity="1" /><path clip-path="url(#clip760)" d="M201.25 1267.96 Q197.639 1267.96 195.811 1271.53 Q194.005 1275.07 194.005 1282.2 Q194.005 1289.31 195.811 1292.87 Q197.639 1296.41 201.25 1296.41 Q204.885 1296.41 206.69 1292.87 Q208.519 1289.31 208.519 1282.2 Q208.519 1275.07 206.69 1271.53 Q204.885 1267.96 201.25 1267.96 M201.25 1264.26 Q207.061 1264.26 210.116 1268.87 Q213.195 1273.45 213.195 1282.2 Q213.195 1290.93 210.116 1295.53 Q207.061 1300.12 201.25 1300.12 Q195.44 1300.12 192.362 1295.53 Q189.306 1290.93 189.306 1282.2 Q189.306 1273.45 192.362 1268.87 Q195.44 1264.26 201.25 1264.26 Z" fill="#000000" fill-rule="nonzero" fill-opacity="1" /><path clip-path="url(#clip760)" d="M249.584 1273.98 L239.005 1284.61 L249.584 1295.18 L246.829 1297.99 L236.204 1287.36 L225.579 1297.99 L222.848 1295.18 L233.403 1284.61 L222.848 1273.98 L225.579 1271.18 L236.204 1281.81 L246.829 1271.18 L249.584 1273.98 Z" fill="#000000" fill-rule="nonzero" fill-opacity="1" /><path clip-path="url(#clip760)" d="M261.945 1295.51 L269.583 1295.51 L269.583 1269.14 L261.273 1270.81 L261.273 1266.55 L269.537 1264.88 L274.213 1264.88 L274.213 1295.51 L281.852 1295.51 L281.852 1299.44 L261.945 1299.44 L261.945 1295.51 Z" fill="#000000" fill-rule="nonzero" fill-opacity="1" /><path clip-path="url(#clip760)" d="M301.296 1267.96 Q297.685 1267.96 295.856 1271.53 Q294.051 1275.07 294.051 1282.2 Q294.051 1289.31 295.856 1292.87 Q297.685 1296.41 301.296 1296.41 Q304.93 1296.41 306.736 1292.87 Q308.565 1289.31 308.565 1282.2 Q308.565 1275.07 306.736 1271.53 Q304.93 1267.96 301.296 1267.96 M301.296 1264.26 Q307.106 1264.26 310.162 1268.87 Q313.241 1273.45 313.241 1282.2 Q313.241 1290.93 310.162 1295.53 Q307.106 1300.12 301.296 1300.12 Q295.486 1300.12 292.407 1295.53 Q289.352 1290.93 289.352 1282.2 Q289.352 1273.45 292.407 1268.87 Q295.486 1264.26 301.296 1264.26 Z" fill="#000000" fill-rule="nonzero" fill-opacity="1" /><path clip-path="url(#clip760)" d="M313.241 1258.36 L337.352 1258.36 L337.352 1261.56 L313.241 1261.56 L313.241 1258.36 Z" fill="#000000" fill-rule="nonzero" fill-opacity="1" /><path clip-path="url(#clip760)" d="M346.211 1268.84 L352.417 1268.84 L352.417 1247.41 L345.665 1248.77 L345.665 1245.31 L352.38 1243.95 L356.179 1243.95 L356.179 1268.84 L362.385 1268.84 L362.385 1272.03 L346.211 1272.03 L346.211 1268.84 Z" fill="#000000" fill-rule="nonzero" fill-opacity="1" /><path clip-path="url(#clip760)" d="M378.184 1246.46 Q375.25 1246.46 373.764 1249.35 Q372.297 1252.23 372.297 1258.02 Q372.297 1263.8 373.764 1266.69 Q375.25 1269.57 378.184 1269.57 Q381.137 1269.57 382.604 1266.69 Q384.089 1263.8 384.089 1258.02 Q384.089 1252.23 382.604 1249.35 Q381.137 1246.46 378.184 1246.46 M378.184 1243.45 Q382.905 1243.45 385.387 1247.19 Q387.889 1250.91 387.889 1258.02 Q387.889 1265.11 385.387 1268.86 Q382.905 1272.58 378.184 1272.58 Q373.463 1272.58 370.962 1268.86 Q368.479 1265.11 368.479 1258.02 Q368.479 1250.91 370.962 1247.19 Q373.463 1243.45 378.184 1243.45 Z" fill="#000000" fill-rule="nonzero" fill-opacity="1" /><path clip-path="url(#clip760)" d="M115.904 1134.62 L134.26 1134.62 L134.26 1138.55 L120.186 1138.55 L120.186 1147.02 Q121.205 1146.68 122.223 1146.51 Q123.242 1146.33 124.26 1146.33 Q130.047 1146.33 133.427 1149.5 Q136.806 1152.67 136.806 1158.09 Q136.806 1163.67 133.334 1166.77 Q129.862 1169.85 123.543 1169.85 Q121.367 1169.85 119.098 1169.48 Q116.853 1169.11 114.445 1168.37 L114.445 1163.67 Q116.529 1164.8 118.751 1165.36 Q120.973 1165.91 123.45 1165.91 Q127.455 1165.91 129.792 1163.81 Q132.13 1161.7 132.13 1158.09 Q132.13 1154.48 129.792 1152.37 Q127.455 1150.26 123.45 1150.26 Q121.575 1150.26 119.7 1150.68 Q117.848 1151.1 115.904 1151.98 L115.904 1134.62 Z" fill="#000000" fill-rule="nonzero" fill-opacity="1" /><path clip-path="url(#clip760)" d="M146.019 1163.3 L150.903 1163.3 L150.903 1169.18 L146.019 1169.18 L146.019 1163.3 Z" fill="#000000" fill-rule="nonzero" fill-opacity="1" /><path clip-path="url(#clip760)" d="M171.089 1137.69 Q167.477 1137.69 165.649 1141.26 Q163.843 1144.8 163.843 1151.93 Q163.843 1159.04 165.649 1162.6 Q167.477 1166.14 171.089 1166.14 Q174.723 1166.14 176.528 1162.6 Q178.357 1159.04 178.357 1151.93 Q178.357 1144.8 176.528 1141.26 Q174.723 1137.69 171.089 1137.69 M171.089 1133.99 Q176.899 1133.99 179.954 1138.6 Q183.033 1143.18 183.033 1151.93 Q183.033 1160.66 179.954 1165.26 Q176.899 1169.85 171.089 1169.85 Q165.278 1169.85 162.2 1165.26 Q159.144 1160.66 159.144 1151.93 Q159.144 1143.18 162.2 1138.6 Q165.278 1133.99 171.089 1133.99 Z" fill="#000000" fill-rule="nonzero" fill-opacity="1" /><path clip-path="url(#clip760)" d="M201.25 1137.69 Q197.639 1137.69 195.811 1141.26 Q194.005 1144.8 194.005 1151.93 Q194.005 1159.04 195.811 1162.6 Q197.639 1166.14 201.25 1166.14 Q204.885 1166.14 206.69 1162.6 Q208.519 1159.04 208.519 1151.93 Q208.519 1144.8 206.69 1141.26 Q204.885 1137.69 201.25 1137.69 M201.25 1133.99 Q207.061 1133.99 210.116 1138.6 Q213.195 1143.18 213.195 1151.93 Q213.195 1160.66 210.116 1165.26 Q207.061 1169.85 201.25 1169.85 Q195.44 1169.85 192.362 1165.26 Q189.306 1160.66 189.306 1151.93 Q189.306 1143.18 192.362 1138.6 Q195.44 1133.99 201.25 1133.99 Z" fill="#000000" fill-rule="nonzero" fill-opacity="1" /><path clip-path="url(#clip760)" d="M249.584 1143.71 L239.005 1154.34 L249.584 1164.92 L246.829 1167.72 L236.204 1157.09 L225.579 1167.72 L222.848 1164.92 L233.403 1154.34 L222.848 1143.71 L225.579 1140.91 L236.204 1151.54 L246.829 1140.91 L249.584 1143.71 Z" fill="#000000" fill-rule="nonzero" fill-opacity="1" /><path clip-path="url(#clip760)" d="M261.945 1165.24 L269.583 1165.24 L269.583 1138.88 L261.273 1140.54 L261.273 1136.28 L269.537 1134.62 L274.213 1134.62 L274.213 1165.24 L281.852 1165.24 L281.852 1169.18 L261.945 1169.18 L261.945 1165.24 Z" fill="#000000" fill-rule="nonzero" fill-opacity="1" /><path clip-path="url(#clip760)" d="M301.296 1137.69 Q297.685 1137.69 295.856 1141.26 Q294.051 1144.8 294.051 1151.93 Q294.051 1159.04 295.856 1162.6 Q297.685 1166.14 301.296 1166.14 Q304.93 1166.14 306.736 1162.6 Q308.565 1159.04 308.565 1151.93 Q308.565 1144.8 306.736 1141.26 Q304.93 1137.69 301.296 1137.69 M301.296 1133.99 Q307.106 1133.99 310.162 1138.6 Q313.241 1143.18 313.241 1151.93 Q313.241 1160.66 310.162 1165.26 Q307.106 1169.85 301.296 1169.85 Q295.486 1169.85 292.407 1165.26 Q289.352 1160.66 289.352 1151.93 Q289.352 1143.18 292.407 1138.6 Q295.486 1133.99 301.296 1133.99 Z" fill="#000000" fill-rule="nonzero" fill-opacity="1" /><path clip-path="url(#clip760)" d="M313.241 1128.09 L337.352 1128.09 L337.352 1131.29 L313.241 1131.29 L313.241 1128.09 Z" fill="#000000" fill-rule="nonzero" fill-opacity="1" /><path clip-path="url(#clip760)" d="M346.211 1138.57 L352.417 1138.57 L352.417 1117.15 L345.665 1118.5 L345.665 1115.04 L352.38 1113.69 L356.179 1113.69 L356.179 1138.57 L362.385 1138.57 L362.385 1141.77 L346.211 1141.77 L346.211 1138.57 Z" fill="#000000" fill-rule="nonzero" fill-opacity="1" /><path clip-path="url(#clip760)" d="M378.184 1116.19 Q375.25 1116.19 373.764 1119.08 Q372.297 1121.96 372.297 1127.75 Q372.297 1133.53 373.764 1136.42 Q375.25 1139.3 378.184 1139.3 Q381.137 1139.3 382.604 1136.42 Q384.089 1133.53 384.089 1127.75 Q384.089 1121.96 382.604 1119.08 Q381.137 1116.19 378.184 1116.19 M378.184 1113.18 Q382.905 1113.18 385.387 1116.92 Q387.889 1120.64 387.889 1127.75 Q387.889 1134.84 385.387 1138.59 Q382.905 1142.31 378.184 1142.31 Q373.463 1142.31 370.962 1138.59 Q368.479 1134.84 368.479 1127.75 Q368.479 1120.64 370.962 1116.92 Q373.463 1113.18 378.184 1113.18 Z" fill="#000000" fill-rule="nonzero" fill-opacity="1" /><path clip-path="url(#clip760)" d="M114.677 1004.35 L136.899 1004.35 L136.899 1006.34 L124.353 1038.91 L119.468 1038.91 L131.274 1008.28 L114.677 1008.28 L114.677 1004.35 Z" fill="#000000" fill-rule="nonzero" fill-opacity="1" /><path clip-path="url(#clip760)" d="M146.019 1033.03 L150.903 1033.03 L150.903 1038.91 L146.019 1038.91 L146.019 1033.03 Z" fill="#000000" fill-rule="nonzero" fill-opacity="1" /><path clip-path="url(#clip760)" d="M161.135 1004.35 L179.491 1004.35 L179.491 1008.28 L165.417 1008.28 L165.417 1016.76 Q166.436 1016.41 167.454 1016.25 Q168.473 1016.06 169.491 1016.06 Q175.278 1016.06 178.658 1019.23 Q182.038 1022.4 182.038 1027.82 Q182.038 1033.4 178.565 1036.5 Q175.093 1039.58 168.774 1039.58 Q166.598 1039.58 164.329 1039.21 Q162.084 1038.84 159.677 1038.1 L159.677 1033.4 Q161.76 1034.53 163.982 1035.09 Q166.204 1035.64 168.681 1035.64 Q172.686 1035.64 175.024 1033.54 Q177.362 1031.43 177.362 1027.82 Q177.362 1024.21 175.024 1022.1 Q172.686 1020 168.681 1020 Q166.806 1020 164.931 1020.41 Q163.079 1020.83 161.135 1021.71 L161.135 1004.35 Z" fill="#000000" fill-rule="nonzero" fill-opacity="1" /><path clip-path="url(#clip760)" d="M201.25 1007.43 Q197.639 1007.43 195.811 1010.99 Q194.005 1014.53 194.005 1021.66 Q194.005 1028.77 195.811 1032.33 Q197.639 1035.88 201.25 1035.88 Q204.885 1035.88 206.69 1032.33 Q208.519 1028.77 208.519 1021.66 Q208.519 1014.53 206.69 1010.99 Q204.885 1007.43 201.25 1007.43 M201.25 1003.72 Q207.061 1003.72 210.116 1008.33 Q213.195 1012.91 213.195 1021.66 Q213.195 1030.39 210.116 1035 Q207.061 1039.58 201.25 1039.58 Q195.44 1039.58 192.362 1035 Q189.306 1030.39 189.306 1021.66 Q189.306 1012.91 192.362 1008.33 Q195.44 1003.72 201.25 1003.72 Z" fill="#000000" fill-rule="nonzero" fill-opacity="1" /><path clip-path="url(#clip760)" d="M249.584 1013.45 L239.005 1024.07 L249.584 1034.65 L246.829 1037.45 L236.204 1026.82 L225.579 1037.45 L222.848 1034.65 L233.403 1024.07 L222.848 1013.45 L225.579 1010.64 L236.204 1021.27 L246.829 1010.64 L249.584 1013.45 Z" fill="#000000" fill-rule="nonzero" fill-opacity="1" /><path clip-path="url(#clip760)" d="M261.945 1034.97 L269.583 1034.97 L269.583 1008.61 L261.273 1010.27 L261.273 1006.01 L269.537 1004.35 L274.213 1004.35 L274.213 1034.97 L281.852 1034.97 L281.852 1038.91 L261.945 1038.91 L261.945 1034.97 Z" fill="#000000" fill-rule="nonzero" fill-opacity="1" /><path clip-path="url(#clip760)" d="M301.296 1007.43 Q297.685 1007.43 295.856 1010.99 Q294.051 1014.53 294.051 1021.66 Q294.051 1028.77 295.856 1032.33 Q297.685 1035.88 301.296 1035.88 Q304.93 1035.88 306.736 1032.33 Q308.565 1028.77 308.565 1021.66 Q308.565 1014.53 306.736 1010.99 Q304.93 1007.43 301.296 1007.43 M301.296 1003.72 Q307.106 1003.72 310.162 1008.33 Q313.241 1012.91 313.241 1021.66 Q313.241 1030.39 310.162 1035 Q307.106 1039.58 301.296 1039.58 Q295.486 1039.58 292.407 1035 Q289.352 1030.39 289.352 1021.66 Q289.352 1012.91 292.407 1008.33 Q295.486 1003.72 301.296 1003.72 Z" fill="#000000" fill-rule="nonzero" fill-opacity="1" /><path clip-path="url(#clip760)" d="M313.241 997.825 L337.352 997.825 L337.352 1001.02 L313.241 1001.02 L313.241 997.825 Z" fill="#000000" fill-rule="nonzero" fill-opacity="1" /><path clip-path="url(#clip760)" d="M346.211 1008.3 L352.417 1008.3 L352.417 986.878 L345.665 988.233 L345.665 984.772 L352.38 983.418 L356.179 983.418 L356.179 1008.3 L362.385 1008.3 L362.385 1011.5 L346.211 1011.5 L346.211 1008.3 Z" fill="#000000" fill-rule="nonzero" fill-opacity="1" /><path clip-path="url(#clip760)" d="M378.184 985.919 Q375.25 985.919 373.764 988.816 Q372.297 991.693 372.297 997.486 Q372.297 1003.26 373.764 1006.16 Q375.25 1009.03 378.184 1009.03 Q381.137 1009.03 382.604 1006.16 Q384.089 1003.26 384.089 997.486 Q384.089 991.693 382.604 988.816 Q381.137 985.919 378.184 985.919 M378.184 982.91 Q382.905 982.91 385.387 986.653 Q387.889 990.377 387.889 997.486 Q387.889 1004.58 385.387 1008.32 Q382.905 1012.04 378.184 1012.04 Q373.463 1012.04 370.962 1008.32 Q368.479 1004.58 368.479 997.486 Q368.479 990.377 370.962 986.653 Q373.463 982.91 378.184 982.91 Z" fill="#000000" fill-rule="nonzero" fill-opacity="1" /><path clip-path="url(#clip760)" d="M141.325 904.705 L148.963 904.705 L148.963 878.34 L140.653 880.006 L140.653 875.747 L148.917 874.08 L153.593 874.08 L153.593 904.705 L161.232 904.705 L161.232 908.64 L141.325 908.64 L141.325 904.705 Z" fill="#000000" fill-rule="nonzero" fill-opacity="1" /><path clip-path="url(#clip760)" d="M170.676 902.761 L175.56 902.761 L175.56 908.64 L170.676 908.64 L170.676 902.761 Z" fill="#000000" fill-rule="nonzero" fill-opacity="1" /><path clip-path="url(#clip760)" d="M195.746 877.159 Q192.134 877.159 190.306 880.724 Q188.5 884.265 188.5 891.395 Q188.5 898.501 190.306 902.066 Q192.134 905.608 195.746 905.608 Q199.38 905.608 201.185 902.066 Q203.014 898.501 203.014 891.395 Q203.014 884.265 201.185 880.724 Q199.38 877.159 195.746 877.159 M195.746 873.455 Q201.556 873.455 204.611 878.062 Q207.69 882.645 207.69 891.395 Q207.69 900.122 204.611 904.728 Q201.556 909.312 195.746 909.312 Q189.935 909.312 186.857 904.728 Q183.801 900.122 183.801 891.395 Q183.801 882.645 186.857 878.062 Q189.935 873.455 195.746 873.455 Z" fill="#000000" fill-rule="nonzero" fill-opacity="1" /><path clip-path="url(#clip760)" d="M225.907 877.159 Q222.296 877.159 220.468 880.724 Q218.662 884.265 218.662 891.395 Q218.662 898.501 220.468 902.066 Q222.296 905.608 225.907 905.608 Q229.542 905.608 231.347 902.066 Q233.176 898.501 233.176 891.395 Q233.176 884.265 231.347 880.724 Q229.542 877.159 225.907 877.159 M225.907 873.455 Q231.718 873.455 234.773 878.062 Q237.852 882.645 237.852 891.395 Q237.852 900.122 234.773 904.728 Q231.718 909.312 225.907 909.312 Q220.097 909.312 217.019 904.728 Q213.963 900.122 213.963 891.395 Q213.963 882.645 217.019 878.062 Q220.097 873.455 225.907 873.455 Z" fill="#000000" fill-rule="nonzero" fill-opacity="1" /><path clip-path="url(#clip760)" d="M274.24 883.177 L263.662 893.802 L274.24 904.381 L271.486 907.182 L260.861 896.557 L250.236 907.182 L247.505 904.381 L258.06 893.802 L247.505 883.177 L250.236 880.377 L260.861 891.001 L271.486 880.377 L274.24 883.177 Z" fill="#000000" fill-rule="nonzero" fill-opacity="1" /><path clip-path="url(#clip760)" d="M286.602 904.705 L294.24 904.705 L294.24 878.34 L285.93 880.006 L285.93 875.747 L294.194 874.08 L298.87 874.08 L298.87 904.705 L306.509 904.705 L306.509 908.64 L286.602 908.64 L286.602 904.705 Z" fill="#000000" fill-rule="nonzero" fill-opacity="1" /><path clip-path="url(#clip760)" d="M325.953 877.159 Q322.342 877.159 320.513 880.724 Q318.708 884.265 318.708 891.395 Q318.708 898.501 320.513 902.066 Q322.342 905.608 325.953 905.608 Q329.587 905.608 331.393 902.066 Q333.222 898.501 333.222 891.395 Q333.222 884.265 331.393 880.724 Q329.587 877.159 325.953 877.159 M325.953 873.455 Q331.763 873.455 334.819 878.062 Q337.898 882.645 337.898 891.395 Q337.898 900.122 334.819 904.728 Q331.763 909.312 325.953 909.312 Q320.143 909.312 317.064 904.728 Q314.009 900.122 314.009 891.395 Q314.009 882.645 317.064 878.062 Q320.143 873.455 325.953 873.455 Z" fill="#000000" fill-rule="nonzero" fill-opacity="1" /><path clip-path="url(#clip760)" d="M337.898 867.557 L362.009 867.557 L362.009 870.754 L337.898 870.754 L337.898 867.557 Z" fill="#000000" fill-rule="nonzero" fill-opacity="1" /><path clip-path="url(#clip760)" d="M370.322 880.647 L370.322 877.186 Q371.752 877.863 373.219 878.221 Q374.686 878.578 376.096 878.578 Q379.858 878.578 381.833 876.058 Q383.826 873.519 384.108 868.365 Q383.017 869.983 381.344 870.848 Q379.67 871.713 377.638 871.713 Q373.425 871.713 370.962 869.174 Q368.517 866.616 368.517 862.196 Q368.517 857.871 371.074 855.256 Q373.632 852.642 377.883 852.642 Q382.754 852.642 385.312 856.385 Q387.889 860.109 387.889 867.218 Q387.889 873.857 384.729 877.826 Q381.588 881.775 376.265 881.775 Q374.836 881.775 373.369 881.493 Q371.902 881.211 370.322 880.647 M377.883 868.742 Q380.441 868.742 381.927 866.992 Q383.431 865.243 383.431 862.196 Q383.431 859.168 381.927 857.419 Q380.441 855.651 377.883 855.651 Q375.325 855.651 373.82 857.419 Q372.335 859.168 372.335 862.196 Q372.335 865.243 373.82 866.992 Q375.325 868.742 377.883 868.742 Z" fill="#000000" fill-rule="nonzero" fill-opacity="1" /><path clip-path="url(#clip760)" d="M28.3562 1208.51 L45.7028 1221.41 L64.0042 1207.85 L64.0042 1214.75 L49.9996 1225.13 L64.0042 1235.51 L64.0042 1242.41 L45.3526 1228.57 L28.3562 1241.23 L28.3562 1234.33 L41.0558 1224.87 L28.3562 1215.42 L28.3562 1208.51 Z" fill="#000000" fill-rule="nonzero" fill-opacity="1" /><path clip-path="url(#clip760)" d="M14.5426 1185.5 Q21.8632 1189.77 29.0246 1191.84 Q36.186 1193.91 43.5384 1193.91 Q50.8908 1193.91 58.1159 1191.84 Q65.3091 1189.74 72.5979 1185.5 L72.5979 1190.6 Q65.1182 1195.37 57.8931 1197.76 Q50.668 1200.11 43.5384 1200.11 Q36.4406 1200.11 29.2474 1197.76 Q22.0542 1195.4 14.5426 1190.6 L14.5426 1185.5 Z" fill="#000000" fill-rule="nonzero" fill-opacity="1" /><path clip-path="url(#clip760)" d="M18.2347 1168.35 L28.3562 1168.35 L28.3562 1156.28 L32.9077 1156.28 L32.9077 1168.35 L52.2594 1168.35 Q56.6199 1168.35 57.8613 1167.17 Q59.1026 1165.96 59.1026 1162.3 L59.1026 1156.28 L64.0042 1156.28 L64.0042 1162.3 Q64.0042 1169.08 61.4897 1171.66 Q58.9434 1174.24 52.2594 1174.24 L32.9077 1174.24 L32.9077 1178.53 L28.3562 1178.53 L28.3562 1174.24 L18.2347 1174.24 L18.2347 1168.35 Z" fill="#000000" fill-rule="nonzero" fill-opacity="1" /><path clip-path="url(#clip760)" d="M14.5426 1149.5 L14.5426 1144.41 Q22.0542 1139.64 29.2474 1137.28 Q36.4406 1134.9 43.5384 1134.9 Q50.668 1134.9 57.8931 1137.28 Q65.1182 1139.64 72.5979 1144.41 L72.5979 1149.5 Q65.3091 1145.27 58.1159 1143.2 Q50.8908 1141.1 43.5384 1141.1 Q36.186 1141.1 29.0246 1143.2 Q21.8632 1145.27 14.5426 1149.5 Z" fill="#000000" fill-rule="nonzero" fill-opacity="1" /><path clip-path="url(#clip760)" d="M43.5384 1126.11 L43.5384 1108.96 L48.7583 1108.96 L48.7583 1126.11 L43.5384 1126.11 Z" fill="#000000" fill-rule="nonzero" fill-opacity="1" /><path clip-path="url(#clip760)" d="M28.3562 1070 L45.7028 1082.89 L64.0042 1069.33 L64.0042 1076.24 L49.9996 1086.61 L64.0042 1096.99 L64.0042 1103.89 L45.3526 1090.05 L28.3562 1102.72 L28.3562 1095.81 L41.0558 1086.36 L28.3562 1076.9 L28.3562 1070 Z" fill="#000000" fill-rule="nonzero" fill-opacity="1" /><path clip-path="url(#clip760)" d="M11.869 1085.85 L11.869 1081.14 L23.8365 1073.34 L23.8365 1077.76 L16.0386 1083.49 L23.8365 1089.22 L23.8365 1093.65 L11.869 1085.85 M27.4968 1083.49 L27.4968 1083.49 Z" fill="#000000" fill-rule="nonzero" fill-opacity="1" /><path clip-path="url(#clip760)" d="M14.5426 1046.99 Q21.8632 1051.25 29.0246 1053.32 Q36.186 1055.39 43.5384 1055.39 Q50.8908 1055.39 58.1159 1053.32 Q65.3091 1051.22 72.5979 1046.99 L72.5979 1052.08 Q65.1182 1056.85 57.8931 1059.24 Q50.668 1061.59 43.5384 1061.59 Q36.4406 1061.59 29.2474 1059.24 Q22.0542 1056.88 14.5426 1052.08 L14.5426 1046.99 Z" fill="#000000" fill-rule="nonzero" fill-opacity="1" /><path clip-path="url(#clip760)" d="M18.2347 1029.83 L28.3562 1029.83 L28.3562 1017.77 L32.9077 1017.77 L32.9077 1029.83 L52.2594 1029.83 Q56.6199 1029.83 57.8613 1028.65 Q59.1026 1027.44 59.1026 1023.78 L59.1026 1017.77 L64.0042 1017.77 L64.0042 1023.78 Q64.0042 1030.56 61.4897 1033.14 Q58.9434 1035.72 52.2594 1035.72 L32.9077 1035.72 L32.9077 1040.01 L28.3562 1040.01 L28.3562 1035.72 L18.2347 1035.72 L18.2347 1029.83 Z" fill="#000000" fill-rule="nonzero" fill-opacity="1" /><path clip-path="url(#clip760)" d="M14.5426 1010.99 L14.5426 1005.89 Q22.0542 1001.12 29.2474 998.765 Q36.4406 996.378 43.5384 996.378 Q50.668 996.378 57.8931 998.765 Q65.1182 1001.12 72.5979 1005.89 L72.5979 1010.99 Q65.3091 1006.75 58.1159 1004.68 Q50.8908 1002.58 43.5384 1002.58 Q36.186 1002.58 29.0246 1004.68 Q21.8632 1006.75 14.5426 1010.99 Z" fill="#000000" fill-rule="nonzero" fill-opacity="1" /><polyline clip-path="url(#clip763)" style="stroke:#009af9; stroke-linecap:round; stroke-linejoin:round; stroke-width:4; stroke-opacity:1; fill:none" points="478.479,884.913 660.448,832.805 842.416,869.28 1024.39,918.783 1206.35,966.669 1388.32,1010.43 1570.29,1049.96 1752.26,1085.55 1934.23,1117.59 2116.2,1146.43 2298.17,1172.39 "/>
<polyline clip-path="url(#clip763)" style="stroke:#e26f46; stroke-linecap:round; stroke-linejoin:round; stroke-width:4; stroke-opacity:1; fill:none" points="478.479,1405.98 660.448,1405.98 842.416,1405.98 1024.39,1405.98 1206.35,1405.98 1388.32,1405.98 1570.29,1405.98 1752.26,1405.98 1934.23,1405.98 2116.2,1405.98 2298.17,1405.98 "/>
<path clip-path="url(#clip760)" d="M1998.51 991.382 L2288.46 991.382 L2288.46 835.862 L1998.51 835.862  Z" fill="#ffffff" fill-rule="evenodd" fill-opacity="1"/>
<polyline clip-path="url(#clip760)" style="stroke:#000000; stroke-linecap:round; stroke-linejoin:round; stroke-width:4; stroke-opacity:1; fill:none" points="1998.51,991.382 2288.46,991.382 2288.46,835.862 1998.51,835.862 1998.51,991.382 "/>
<polyline clip-path="url(#clip760)" style="stroke:#009af9; stroke-linecap:round; stroke-linejoin:round; stroke-width:4; stroke-opacity:1; fill:none" points="2019.95,887.702 2148.54,887.702 "/>
<path clip-path="url(#clip760)" d="M2194 890.955 L2194 893.038 L2174.41 893.038 Q2174.69 897.436 2177.05 899.751 Q2179.44 902.043 2183.67 902.043 Q2186.13 902.043 2188.42 901.441 Q2190.73 900.839 2193 899.635 L2193 903.663 Q2190.71 904.635 2188.3 905.144 Q2185.89 905.654 2183.42 905.654 Q2177.21 905.654 2173.58 902.043 Q2169.97 898.432 2169.97 892.274 Q2169.97 885.908 2173.39 882.182 Q2176.84 878.432 2182.68 878.432 Q2187.91 878.432 2190.94 881.811 Q2194 885.168 2194 890.955 M2189.74 889.705 Q2189.69 886.209 2187.77 884.126 Q2185.87 882.043 2182.72 882.043 Q2179.16 882.043 2177.01 884.057 Q2174.88 886.07 2174.55 889.728 L2189.74 889.705 Z" fill="#000000" fill-rule="nonzero" fill-opacity="1" /><path clip-path="url(#clip760)" d="M2200.13 902.436 L2204.85 902.436 L2204.85 888.293 L2199.69 889.242 L2199.69 886.557 L2205.01 885.654 L2208.19 885.654 L2208.19 902.436 L2212.93 902.436 L2212.93 904.982 L2200.13 904.982 L2200.13 902.436 Z" fill="#000000" fill-rule="nonzero" fill-opacity="1" /><path clip-path="url(#clip760)" d="M2230.22 869.01 Q2227.12 874.334 2225.62 879.543 Q2224.11 884.751 2224.11 890.098 Q2224.11 895.445 2225.62 900.7 Q2227.14 905.931 2230.22 911.232 L2226.52 911.232 Q2223.05 905.793 2221.31 900.538 Q2219.6 895.283 2219.6 890.098 Q2219.6 884.936 2221.31 879.705 Q2223.02 874.473 2226.52 869.01 L2230.22 869.01 Z" fill="#000000" fill-rule="nonzero" fill-opacity="1" /><path clip-path="url(#clip760)" d="M2242.7 871.696 L2242.7 879.057 L2251.47 879.057 L2251.47 882.367 L2242.7 882.367 L2242.7 896.441 Q2242.7 899.612 2243.56 900.515 Q2244.44 901.418 2247.1 901.418 L2251.47 901.418 L2251.47 904.982 L2247.1 904.982 Q2242.17 904.982 2240.29 903.154 Q2238.42 901.302 2238.42 896.441 L2238.42 882.367 L2235.29 882.367 L2235.29 879.057 L2238.42 879.057 L2238.42 871.696 L2242.7 871.696 Z" fill="#000000" fill-rule="nonzero" fill-opacity="1" /><path clip-path="url(#clip760)" d="M2256.4 869.01 L2260.11 869.01 Q2263.58 874.473 2265.29 879.705 Q2267.03 884.936 2267.03 890.098 Q2267.03 895.283 2265.29 900.538 Q2263.58 905.793 2260.11 911.232 L2256.4 911.232 Q2259.48 905.931 2260.99 900.7 Q2262.51 895.445 2262.51 890.098 Q2262.51 884.751 2260.99 879.543 Q2259.48 874.334 2256.4 869.01 Z" fill="#000000" fill-rule="nonzero" fill-opacity="1" /><polyline clip-path="url(#clip760)" style="stroke:#e26f46; stroke-linecap:round; stroke-linejoin:round; stroke-width:4; stroke-opacity:1; fill:none" points="2019.95,939.542 2148.54,939.542 "/>
<path clip-path="url(#clip760)" d="M2194 942.795 L2194 944.878 L2174.41 944.878 Q2174.69 949.276 2177.05 951.591 Q2179.44 953.883 2183.67 953.883 Q2186.13 953.883 2188.42 953.281 Q2190.73 952.679 2193 951.475 L2193 955.503 Q2190.71 956.475 2188.3 956.984 Q2185.89 957.494 2183.42 957.494 Q2177.21 957.494 2173.58 953.883 Q2169.97 950.272 2169.97 944.114 Q2169.97 937.748 2173.39 934.022 Q2176.84 930.272 2182.68 930.272 Q2187.91 930.272 2190.94 933.651 Q2194 937.008 2194 942.795 M2189.74 941.545 Q2189.69 938.049 2187.77 935.966 Q2185.87 933.883 2182.72 933.883 Q2179.16 933.883 2177.01 935.897 Q2174.88 937.91 2174.55 941.568 L2189.74 941.545 Z" fill="#000000" fill-rule="nonzero" fill-opacity="1" /><path clip-path="url(#clip760)" d="M2202.72 954.184 L2212.54 954.184 L2212.54 956.822 L2198.7 956.822 L2198.7 954.276 Q2199.48 953.559 2200.94 952.262 Q2208.9 945.202 2208.9 943.026 Q2208.9 941.498 2207.7 940.572 Q2206.5 939.623 2204.53 939.623 Q2203.33 939.623 2201.91 940.04 Q2200.5 940.434 2198.83 941.244 L2198.83 938.397 Q2200.62 937.748 2202.14 937.424 Q2203.7 937.1 2205.01 937.1 Q2208.37 937.1 2210.39 938.628 Q2212.4 940.156 2212.4 942.656 Q2212.4 945.873 2204.74 952.447 Q2203.44 953.559 2202.72 954.184 Z" fill="#000000" fill-rule="nonzero" fill-opacity="1" /><path clip-path="url(#clip760)" d="M2230.22 920.85 Q2227.12 926.174 2225.62 931.383 Q2224.11 936.591 2224.11 941.938 Q2224.11 947.285 2225.62 952.54 Q2227.14 957.771 2230.22 963.072 L2226.52 963.072 Q2223.05 957.633 2221.31 952.378 Q2219.6 947.123 2219.6 941.938 Q2219.6 936.776 2221.31 931.545 Q2223.02 926.313 2226.52 920.85 L2230.22 920.85 Z" fill="#000000" fill-rule="nonzero" fill-opacity="1" /><path clip-path="url(#clip760)" d="M2242.7 923.536 L2242.7 930.897 L2251.47 930.897 L2251.47 934.207 L2242.7 934.207 L2242.7 948.281 Q2242.7 951.452 2243.56 952.355 Q2244.44 953.258 2247.1 953.258 L2251.47 953.258 L2251.47 956.822 L2247.1 956.822 Q2242.17 956.822 2240.29 954.994 Q2238.42 953.142 2238.42 948.281 L2238.42 934.207 L2235.29 934.207 L2235.29 930.897 L2238.42 930.897 L2238.42 923.536 L2242.7 923.536 Z" fill="#000000" fill-rule="nonzero" fill-opacity="1" /><path clip-path="url(#clip760)" d="M2256.4 920.85 L2260.11 920.85 Q2263.58 926.313 2265.29 931.545 Q2267.03 936.776 2267.03 941.938 Q2267.03 947.123 2265.29 952.378 Q2263.58 957.633 2260.11 963.072 L2256.4 963.072 Q2259.48 957.771 2260.99 952.54 Q2262.51 947.285 2262.51 941.938 Q2262.51 936.591 2260.99 931.383 Q2259.48 926.174 2256.4 920.85 Z" fill="#000000" fill-rule="nonzero" fill-opacity="1" /></svg>
