<?xml version="1.0" encoding="utf-8"?>
<svg xmlns="http://www.w3.org/2000/svg" xmlns:xlink="http://www.w3.org/1999/xlink" width="600" height="400" viewBox="0 0 2400 1600">
<defs>
  <clipPath id="clip700">
    <rect x="0" y="0" width="2400" height="1600"/>
  </clipPath>
</defs>
<path clip-path="url(#clip700)" d="M0 1600 L2400 1600 L2400 0 L0 0  Z" fill="#ffffff" fill-rule="evenodd" fill-opacity="1"/>
<defs>
  <clipPath id="clip701">
    <rect x="480" y="0" width="1681" height="1600"/>
  </clipPath>
</defs>
<path clip-path="url(#clip700)" d="M242.135 1423.18 L2352.76 1423.18 L2352.76 47.2441 L242.135 47.2441  Z" fill="#ffffff" fill-rule="evenodd" fill-opacity="1"/>
<defs>
  <clipPath id="clip702">
    <rect x="242" y="47" width="2112" height="1377"/>
  </clipPath>
</defs>
<polyline clip-path="url(#clip702)" style="stroke:#000000; stroke-linecap:round; stroke-linejoin:round; stroke-width:2; stroke-opacity:0.1; fill:none" points="242.135,1423.18 242.135,47.2441 "/>
<polyline clip-path="url(#clip702)" style="stroke:#000000; stroke-linecap:round; stroke-linejoin:round; stroke-width:2; stroke-opacity:0.1; fill:none" points="721.821,1423.18 721.821,47.2441 "/>
<polyline clip-path="url(#clip702)" style="stroke:#000000; stroke-linecap:round; stroke-linejoin:round; stroke-width:2; stroke-opacity:0.1; fill:none" points="1201.51,1423.18 1201.51,47.2441 "/>
<polyline clip-path="url(#clip702)" style="stroke:#000000; stroke-linecap:round; stroke-linejoin:round; stroke-width:2; stroke-opacity:0.1; fill:none" points="1681.19,1423.18 1681.19,47.2441 "/>
<polyline clip-path="url(#clip702)" style="stroke:#000000; stroke-linecap:round; stroke-linejoin:round; stroke-width:2; stroke-opacity:0.1; fill:none" points="2160.88,1423.18 2160.88,47.2441 "/>
<polyline clip-path="url(#clip702)" style="stroke:#000000; stroke-linecap:round; stroke-linejoin:round; stroke-width:2; stroke-opacity:0.1; fill:none" points="242.135,1384.24 2352.76,1384.24 "/>
<polyline clip-path="url(#clip702)" style="stroke:#000000; stroke-linecap:round; stroke-linejoin:round; stroke-width:2; stroke-opacity:0.1; fill:none" points="242.135,1075.18 2352.76,1075.18 "/>
<polyline clip-path="url(#clip702)" style="stroke:#000000; stroke-linecap:round; stroke-linejoin:round; stroke-width:2; stroke-opacity:0.1; fill:none" points="242.135,766.118 2352.76,766.118 "/>
<polyline clip-path="url(#clip702)" style="stroke:#000000; stroke-linecap:round; stroke-linejoin:round; stroke-width:2; stroke-opacity:0.1; fill:none" points="242.135,457.058 2352.76,457.058 "/>
<polyline clip-path="url(#clip702)" style="stroke:#000000; stroke-linecap:round; stroke-linejoin:round; stroke-width:2; stroke-opacity:0.1; fill:none" points="242.135,147.998 2352.76,147.998 "/>
<polyline clip-path="url(#clip700)" style="stroke:#000000; stroke-linecap:round; stroke-linejoin:round; stroke-width:4; stroke-opacity:1; fill:none" points="242.135,1423.18 2352.76,1423.18 "/>
<polyline clip-path="url(#clip700)" style="stroke:#000000; stroke-linecap:round; stroke-linejoin:round; stroke-width:4; stroke-opacity:1; fill:none" points="242.135,1423.18 242.135,1404.28 "/>
<polyline clip-path="url(#clip700)" style="stroke:#000000; stroke-linecap:round; stroke-linejoin:round; stroke-width:4; stroke-opacity:1; fill:none" points="721.821,1423.18 721.821,1404.28 "/>
<polyline clip-path="url(#clip700)" style="stroke:#000000; stroke-linecap:round; stroke-linejoin:round; stroke-width:4; stroke-opacity:1; fill:none" points="1201.51,1423.18 1201.51,1404.28 "/>
<polyline clip-path="url(#clip700)" style="stroke:#000000; stroke-linecap:round; stroke-linejoin:round; stroke-width:4; stroke-opacity:1; fill:none" points="1681.19,1423.18 1681.19,1404.28 "/>
<polyline clip-path="url(#clip700)" style="stroke:#000000; stroke-linecap:round; stroke-linejoin:round; stroke-width:4; stroke-opacity:1; fill:none" points="2160.88,1423.18 2160.88,1404.28 "/>
<path clip-path="url(#clip700)" d="M219.519 1454.1 Q215.908 1454.1 214.079 1457.66 Q212.274 1461.2 212.274 1468.33 Q212.274 1475.44 214.079 1479.01 Q215.908 1482.55 219.519 1482.55 Q223.153 1482.55 224.959 1479.01 Q226.788 1475.44 226.788 1468.33 Q226.788 1461.2 224.959 1457.66 Q223.153 1454.1 219.519 1454.1 M219.519 1450.39 Q225.329 1450.39 228.385 1455 Q231.463 1459.58 231.463 1468.33 Q231.463 1477.06 228.385 1481.67 Q225.329 1486.25 219.519 1486.25 Q213.709 1486.25 210.63 1481.67 Q207.575 1477.06 207.575 1468.33 Q207.575 1459.58 210.63 1455 Q213.709 1450.39 219.519 1450.39 Z" fill="#000000" fill-rule="nonzero" fill-opacity="1" /><path clip-path="url(#clip700)" d="M239.681 1479.7 L244.565 1479.7 L244.565 1485.58 L239.681 1485.58 L239.681 1479.7 Z" fill="#000000" fill-rule="nonzero" fill-opacity="1" /><path clip-path="url(#clip700)" d="M264.75 1454.1 Q261.139 1454.1 259.31 1457.66 Q257.505 1461.2 257.505 1468.33 Q257.505 1475.44 259.31 1479.01 Q261.139 1482.55 264.75 1482.55 Q268.385 1482.55 270.19 1479.01 Q272.019 1475.44 272.019 1468.33 Q272.019 1461.2 270.19 1457.66 Q268.385 1454.1 264.75 1454.1 M264.75 1450.39 Q270.56 1450.39 273.616 1455 Q276.695 1459.58 276.695 1468.33 Q276.695 1477.06 273.616 1481.67 Q270.56 1486.25 264.75 1486.25 Q258.94 1486.25 255.861 1481.67 Q252.806 1477.06 252.806 1468.33 Q252.806 1459.58 255.861 1455 Q258.94 1450.39 264.75 1450.39 Z" fill="#000000" fill-rule="nonzero" fill-opacity="1" /><path clip-path="url(#clip700)" d="M693.558 1481.64 L709.877 1481.64 L709.877 1485.58 L687.933 1485.58 L687.933 1481.64 Q690.595 1478.89 695.178 1474.26 Q699.784 1469.61 700.965 1468.27 Q703.21 1465.74 704.09 1464.01 Q704.993 1462.25 704.993 1460.56 Q704.993 1457.8 703.048 1456.07 Q701.127 1454.33 698.025 1454.33 Q695.826 1454.33 693.372 1455.09 Q690.942 1455.86 688.164 1457.41 L688.164 1452.69 Q690.988 1451.55 693.442 1450.97 Q695.896 1450.39 697.933 1450.39 Q703.303 1450.39 706.497 1453.08 Q709.692 1455.77 709.692 1460.26 Q709.692 1462.39 708.882 1464.31 Q708.095 1466.2 705.988 1468.8 Q705.409 1469.47 702.308 1472.69 Q699.206 1475.88 693.558 1481.64 Z" fill="#000000" fill-rule="nonzero" fill-opacity="1" /><path clip-path="url(#clip700)" d="M719.692 1479.7 L724.576 1479.7 L724.576 1485.58 L719.692 1485.58 L719.692 1479.7 Z" fill="#000000" fill-rule="nonzero" fill-opacity="1" /><path clip-path="url(#clip700)" d="M734.807 1451.02 L753.164 1451.02 L753.164 1454.96 L739.09 1454.96 L739.09 1463.43 Q740.108 1463.08 741.127 1462.92 Q742.145 1462.73 743.164 1462.73 Q748.951 1462.73 752.33 1465.9 Q755.71 1469.08 755.71 1474.49 Q755.71 1480.07 752.238 1483.17 Q748.766 1486.25 742.446 1486.25 Q740.27 1486.25 738.002 1485.88 Q735.756 1485.51 733.349 1484.77 L733.349 1480.07 Q735.432 1481.2 737.655 1481.76 Q739.877 1482.32 742.354 1482.32 Q746.358 1482.32 748.696 1480.21 Q751.034 1478.1 751.034 1474.49 Q751.034 1470.88 748.696 1468.77 Q746.358 1466.67 742.354 1466.67 Q740.479 1466.67 738.604 1467.08 Q736.752 1467.5 734.807 1468.38 L734.807 1451.02 Z" fill="#000000" fill-rule="nonzero" fill-opacity="1" /><path clip-path="url(#clip700)" d="M1168.67 1451.02 L1187.03 1451.02 L1187.03 1454.96 L1172.95 1454.96 L1172.95 1463.43 Q1173.97 1463.08 1174.99 1462.92 Q1176.01 1462.73 1177.03 1462.73 Q1182.82 1462.73 1186.2 1465.9 Q1189.58 1469.08 1189.58 1474.49 Q1189.58 1480.07 1186.1 1483.17 Q1182.63 1486.25 1176.31 1486.25 Q1174.14 1486.25 1171.87 1485.88 Q1169.62 1485.51 1167.21 1484.77 L1167.21 1480.07 Q1169.3 1481.2 1171.52 1481.76 Q1173.74 1482.32 1176.22 1482.32 Q1180.22 1482.32 1182.56 1480.21 Q1184.9 1478.1 1184.9 1474.49 Q1184.9 1470.88 1182.56 1468.77 Q1180.22 1466.67 1176.22 1466.67 Q1174.34 1466.67 1172.47 1467.08 Q1170.62 1467.5 1168.67 1468.38 L1168.67 1451.02 Z" fill="#000000" fill-rule="nonzero" fill-opacity="1" /><path clip-path="url(#clip700)" d="M1198.79 1479.7 L1203.67 1479.7 L1203.67 1485.58 L1198.79 1485.58 L1198.79 1479.7 Z" fill="#000000" fill-rule="nonzero" fill-opacity="1" /><path clip-path="url(#clip700)" d="M1223.86 1454.1 Q1220.25 1454.1 1218.42 1457.66 Q1216.61 1461.2 1216.61 1468.33 Q1216.61 1475.44 1218.42 1479.01 Q1220.25 1482.55 1223.86 1482.55 Q1227.49 1482.55 1229.3 1479.01 Q1231.13 1475.44 1231.13 1468.33 Q1231.13 1461.2 1229.3 1457.66 Q1227.49 1454.1 1223.86 1454.1 M1223.86 1450.39 Q1229.67 1450.39 1232.72 1455 Q1235.8 1459.58 1235.8 1468.33 Q1235.8 1477.06 1232.72 1481.67 Q1229.67 1486.25 1223.86 1486.25 Q1218.05 1486.25 1214.97 1481.67 Q1211.91 1477.06 1211.91 1468.33 Q1211.91 1459.58 1214.97 1455 Q1218.05 1450.39 1223.86 1450.39 Z" fill="#000000" fill-rule="nonzero" fill-opacity="1" /><path clip-path="url(#clip700)" d="M1647.51 1451.02 L1669.74 1451.02 L1669.74 1453.01 L1657.19 1485.58 L1652.31 1485.58 L1664.11 1454.96 L1647.51 1454.96 L1647.51 1451.02 Z" fill="#000000" fill-rule="nonzero" fill-opacity="1" /><path clip-path="url(#clip700)" d="M1678.86 1479.7 L1683.74 1479.7 L1683.74 1485.58 L1678.86 1485.58 L1678.86 1479.7 Z" fill="#000000" fill-rule="nonzero" fill-opacity="1" /><path clip-path="url(#clip700)" d="M1693.97 1451.02 L1712.33 1451.02 L1712.33 1454.96 L1698.25 1454.96 L1698.25 1463.43 Q1699.27 1463.08 1700.29 1462.92 Q1701.31 1462.73 1702.33 1462.73 Q1708.12 1462.73 1711.5 1465.9 Q1714.87 1469.08 1714.87 1474.49 Q1714.87 1480.07 1711.4 1483.17 Q1707.93 1486.25 1701.61 1486.25 Q1699.44 1486.25 1697.17 1485.88 Q1694.92 1485.51 1692.51 1484.77 L1692.51 1480.07 Q1694.6 1481.2 1696.82 1481.76 Q1699.04 1482.32 1701.52 1482.32 Q1705.52 1482.32 1707.86 1480.21 Q1710.2 1478.1 1710.2 1474.49 Q1710.2 1470.88 1707.86 1468.77 Q1705.52 1466.67 1701.52 1466.67 Q1699.64 1466.67 1697.77 1467.08 Q1695.92 1467.5 1693.97 1468.38 L1693.97 1451.02 Z" fill="#000000" fill-rule="nonzero" fill-opacity="1" /><path clip-path="url(#clip700)" d="M2112.95 1481.64 L2120.59 1481.64 L2120.59 1455.28 L2112.28 1456.95 L2112.28 1452.69 L2120.55 1451.02 L2125.22 1451.02 L2125.22 1481.64 L2132.86 1481.64 L2132.86 1485.58 L2112.95 1485.58 L2112.95 1481.64 Z" fill="#000000" fill-rule="nonzero" fill-opacity="1" /><path clip-path="url(#clip700)" d="M2152.3 1454.1 Q2148.69 1454.1 2146.87 1457.66 Q2145.06 1461.2 2145.06 1468.33 Q2145.06 1475.44 2146.87 1479.01 Q2148.69 1482.55 2152.3 1482.55 Q2155.94 1482.55 2157.74 1479.01 Q2159.57 1475.44 2159.57 1468.33 Q2159.57 1461.2 2157.74 1457.66 Q2155.94 1454.1 2152.3 1454.1 M2152.3 1450.39 Q2158.12 1450.39 2161.17 1455 Q2164.25 1459.58 2164.25 1468.33 Q2164.25 1477.06 2161.17 1481.67 Q2158.12 1486.25 2152.3 1486.25 Q2146.49 1486.25 2143.42 1481.67 Q2140.36 1477.06 2140.36 1468.33 Q2140.36 1459.58 2143.42 1455 Q2146.49 1450.39 2152.3 1450.39 Z" fill="#000000" fill-rule="nonzero" fill-opacity="1" /><path clip-path="url(#clip700)" d="M2172.47 1479.7 L2177.35 1479.7 L2177.35 1485.58 L2172.47 1485.58 L2172.47 1479.7 Z" fill="#000000" fill-rule="nonzero" fill-opacity="1" /><path clip-path="url(#clip700)" d="M2197.54 1454.1 Q2193.93 1454.1 2192.1 1457.66 Q2190.29 1461.2 2190.29 1468.33 Q2190.29 1475.44 2192.1 1479.01 Q2193.93 1482.55 2197.54 1482.55 Q2201.17 1482.55 2202.98 1479.01 Q2204.8 1475.44 2204.8 1468.33 Q2204.8 1461.2 2202.98 1457.66 Q2201.17 1454.1 2197.54 1454.1 M2197.54 1450.39 Q2203.35 1450.39 2206.4 1455 Q2209.48 1459.58 2209.48 1468.33 Q2209.48 1477.06 2206.4 1481.67 Q2203.35 1486.25 2197.54 1486.25 Q2191.73 1486.25 2188.65 1481.67 Q2185.59 1477.06 2185.59 1468.33 Q2185.59 1459.58 2188.65 1455 Q2191.73 1450.39 2197.54 1450.39 Z" fill="#000000" fill-rule="nonzero" fill-opacity="1" /><path clip-path="url(#clip700)" d="M1296.51 1522.27 L1296.51 1532.4 L1308.57 1532.4 L1308.57 1536.95 L1296.51 1536.95 L1296.51 1556.3 Q1296.51 1560.66 1297.68 1561.9 Q1298.89 1563.14 1302.55 1563.14 L1308.57 1563.14 L1308.57 1568.04 L1302.55 1568.04 Q1295.77 1568.04 1293.2 1565.53 Q1290.62 1562.98 1290.62 1556.3 L1290.62 1536.95 L1286.32 1536.95 L1286.32 1532.4 L1290.62 1532.4 L1290.62 1522.27 L1296.51 1522.27 Z" fill="#000000" fill-rule="nonzero" fill-opacity="1" /><polyline clip-path="url(#clip700)" style="stroke:#000000; stroke-linecap:round; stroke-linejoin:round; stroke-width:4; stroke-opacity:1; fill:none" points="242.135,1423.18 242.135,47.2441 "/>
<polyline clip-path="url(#clip700)" style="stroke:#000000; stroke-linecap:round; stroke-linejoin:round; stroke-width:4; stroke-opacity:1; fill:none" points="242.135,1384.24 261.032,1384.24 "/>
<polyline clip-path="url(#clip700)" style="stroke:#000000; stroke-linecap:round; stroke-linejoin:round; stroke-width:4; stroke-opacity:1; fill:none" points="242.135,1075.18 261.032,1075.18 "/>
<polyline clip-path="url(#clip700)" style="stroke:#000000; stroke-linecap:round; stroke-linejoin:round; stroke-width:4; stroke-opacity:1; fill:none" points="242.135,766.118 261.032,766.118 "/>
<polyline clip-path="url(#clip700)" style="stroke:#000000; stroke-linecap:round; stroke-linejoin:round; stroke-width:4; stroke-opacity:1; fill:none" points="242.135,457.058 261.032,457.058 "/>
<polyline clip-path="url(#clip700)" style="stroke:#000000; stroke-linecap:round; stroke-linejoin:round; stroke-width:4; stroke-opacity:1; fill:none" points="242.135,147.998 261.032,147.998 "/>
<path clip-path="url(#clip700)" d="M114.26 1384.69 L143.936 1384.69 L143.936 1388.62 L114.26 1388.62 L114.26 1384.69 Z" fill="#000000" fill-rule="nonzero" fill-opacity="1" /><path clip-path="url(#clip700)" d="M154.839 1397.58 L162.477 1397.58 L162.477 1371.22 L154.167 1372.88 L154.167 1368.62 L162.431 1366.96 L167.107 1366.96 L167.107 1397.58 L174.746 1397.58 L174.746 1401.52 L154.839 1401.52 L154.839 1397.58 Z" fill="#000000" fill-rule="nonzero" fill-opacity="1" /><path clip-path="url(#clip700)" d="M194.19 1370.04 Q190.579 1370.04 188.75 1373.6 Q186.945 1377.14 186.945 1384.27 Q186.945 1391.38 188.75 1394.94 Q190.579 1398.49 194.19 1398.49 Q197.825 1398.49 199.63 1394.94 Q201.459 1391.38 201.459 1384.27 Q201.459 1377.14 199.63 1373.6 Q197.825 1370.04 194.19 1370.04 M194.19 1366.33 Q200 1366.33 203.056 1370.94 Q206.135 1375.52 206.135 1384.27 Q206.135 1393 203.056 1397.61 Q200 1402.19 194.19 1402.19 Q188.38 1402.19 185.301 1397.61 Q182.246 1393 182.246 1384.27 Q182.246 1375.52 185.301 1370.94 Q188.38 1366.33 194.19 1366.33 Z" fill="#000000" fill-rule="nonzero" fill-opacity="1" /><path clip-path="url(#clip700)" d="M145.417 1075.63 L175.093 1075.63 L175.093 1079.56 L145.417 1079.56 L145.417 1075.63 Z" fill="#000000" fill-rule="nonzero" fill-opacity="1" /><path clip-path="url(#clip700)" d="M185.232 1057.9 L203.588 1057.9 L203.588 1061.83 L189.514 1061.83 L189.514 1070.31 Q190.533 1069.96 191.551 1069.8 Q192.57 1069.61 193.588 1069.61 Q199.375 1069.61 202.755 1072.78 Q206.135 1075.95 206.135 1081.37 Q206.135 1086.95 202.662 1090.05 Q199.19 1093.13 192.871 1093.13 Q190.695 1093.13 188.426 1092.76 Q186.181 1092.39 183.774 1091.65 L183.774 1086.95 Q185.857 1088.08 188.079 1088.64 Q190.301 1089.19 192.778 1089.19 Q196.783 1089.19 199.121 1087.09 Q201.459 1084.98 201.459 1081.37 Q201.459 1077.76 199.121 1075.65 Q196.783 1073.55 192.778 1073.55 Q190.903 1073.55 189.028 1073.96 Q187.176 1074.38 185.232 1075.26 L185.232 1057.9 Z" fill="#000000" fill-rule="nonzero" fill-opacity="1" /><path clip-path="url(#clip700)" d="M194.19 751.917 Q190.579 751.917 188.75 755.481 Q186.945 759.023 186.945 766.153 Q186.945 773.259 188.75 776.824 Q190.579 780.366 194.19 780.366 Q197.825 780.366 199.63 776.824 Q201.459 773.259 201.459 766.153 Q201.459 759.023 199.63 755.481 Q197.825 751.917 194.19 751.917 M194.19 748.213 Q200 748.213 203.056 752.819 Q206.135 757.403 206.135 766.153 Q206.135 774.88 203.056 779.486 Q200 784.069 194.19 784.069 Q188.38 784.069 185.301 779.486 Q182.246 774.88 182.246 766.153 Q182.246 757.403 185.301 752.819 Q188.38 748.213 194.19 748.213 Z" fill="#000000" fill-rule="nonzero" fill-opacity="1" /><path clip-path="url(#clip700)" d="M185.232 439.778 L203.588 439.778 L203.588 443.713 L189.514 443.713 L189.514 452.185 Q190.533 451.838 191.551 451.676 Q192.57 451.491 193.588 451.491 Q199.375 451.491 202.755 454.662 Q206.135 457.833 206.135 463.25 Q206.135 468.829 202.662 471.93 Q199.19 475.009 192.871 475.009 Q190.695 475.009 188.426 474.639 Q186.181 474.268 183.774 473.528 L183.774 468.829 Q185.857 469.963 188.079 470.518 Q190.301 471.074 192.778 471.074 Q196.783 471.074 199.121 468.967 Q201.459 466.861 201.459 463.25 Q201.459 459.639 199.121 457.532 Q196.783 455.426 192.778 455.426 Q190.903 455.426 189.028 455.843 Q187.176 456.259 185.232 457.139 L185.232 439.778 Z" fill="#000000" fill-rule="nonzero" fill-opacity="1" /><path clip-path="url(#clip700)" d="M154.839 161.343 L162.477 161.343 L162.477 134.977 L154.167 136.644 L154.167 132.384 L162.431 130.718 L167.107 130.718 L167.107 161.343 L174.746 161.343 L174.746 165.278 L154.839 165.278 L154.839 161.343 Z" fill="#000000" fill-rule="nonzero" fill-opacity="1" /><path clip-path="url(#clip700)" d="M194.19 133.796 Q190.579 133.796 188.75 137.361 Q186.945 140.903 186.945 148.032 Q186.945 155.139 188.75 158.704 Q190.579 162.245 194.19 162.245 Q197.825 162.245 199.63 158.704 Q201.459 155.139 201.459 148.032 Q201.459 140.903 199.63 137.361 Q197.825 133.796 194.19 133.796 M194.19 130.093 Q200 130.093 203.056 134.699 Q206.135 139.282 206.135 148.032 Q206.135 156.759 203.056 161.366 Q200 165.949 194.19 165.949 Q188.38 165.949 185.301 161.366 Q182.246 156.759 182.246 148.032 Q182.246 139.282 185.301 134.699 Q188.38 130.093 194.19 130.093 Z" fill="#000000" fill-rule="nonzero" fill-opacity="1" /><path clip-path="url(#clip700)" d="M28.3562 718.597 L45.7028 731.488 L64.0042 717.929 L64.0042 724.836 L49.9996 735.212 L64.0042 745.588 L64.0042 752.495 L45.3526 738.649 L28.3562 751.317 L28.3562 744.41 L41.0558 734.957 L28.3562 725.504 L28.3562 718.597 Z" fill="#000000" fill-rule="nonzero" fill-opacity="1" /><polyline clip-path="url(#clip702)" style="stroke:#009af9; stroke-linecap:round; stroke-linejoin:round; stroke-width:4; stroke-opacity:1; fill:none" points="242.135,147.998 243.895,147.998 245.655,147.998 247.416,147.998 249.176,147.998 250.936,147.998 252.697,147.998 254.457,147.998 256.217,147.998 257.978,147.998 259.738,147.998 261.498,147.998 263.258,147.998 265.019,147.998 266.779,147.998 268.539,147.998 270.3,147.998 272.06,147.998 273.82,147.998 275.581,147.998 277.341,147.998 279.101,147.998 280.862,147.998 282.622,147.998 284.382,147.998 286.143,147.998 287.903,147.998 289.663,147.998 291.424,147.998 293.184,147.998 294.944,147.998 296.705,147.998 298.465,147.998 300.225,147.998 301.985,147.998 303.746,147.998 305.506,147.998 307.266,147.998 309.027,147.998 310.787,147.998 312.547,147.998 314.308,147.998 316.068,147.998 317.828,147.998 319.589,147.998 321.349,147.998 323.109,147.998 324.87,147.998 326.63,147.998 328.39,147.998 330.151,147.998 331.911,147.998 333.671,147.998 335.432,147.998 337.192,147.998 338.952,147.998 340.712,147.998 342.473,147.998 344.233,147.998 345.993,147.998 347.754,147.998 349.514,147.998 351.274,147.998 353.035,147.998 354.795,147.998 356.555,147.998 358.316,147.998 360.076,147.998 361.836,147.998 363.597,147.998 365.357,147.998 367.117,147.998 368.878,147.998 370.638,147.998 372.398,147.998 374.159,147.998 375.919,147.998 377.679,147.998 379.439,147.998 381.2,147.998 382.96,147.998 384.72,147.998 386.481,147.998 388.241,147.998 390.001,147.998 391.762,147.998 393.522,147.998 395.282,147.998 397.043,147.998 398.803,147.998 400.563,147.998 402.324,147.998 404.084,147.998 405.844,147.998 407.605,147.998 409.365,147.998 411.125,147.998 412.886,147.998 414.646,147.998 416.406,147.998 418.166,147.998 419.927,147.998 421.687,147.998 423.447,147.998 425.208,147.998 426.968,147.998 428.728,147.998 430.489,147.998 432.249,147.998 434.009,147.998 435.77,86.1857 437.53,86.1857 439.29,86.1857 441.051,86.1857 442.811,86.1857 444.571,86.1857 446.332,86.1857 448.092,86.1857 449.852,86.1857 451.613,86.1857 453.373,86.1857 455.133,86.1857 456.893,86.1857 458.654,86.1857 460.414,86.1857 462.174,86.1857 463.935,86.1857 465.695,86.1857 467.455,86.1857 469.216,86.1857 470.976,86.1857 472.736,86.1857 474.497,86.1857 476.257,86.1857 478.017,86.1857 479.778,86.1857 481.538,86.1857 483.298,86.1857 485.059,86.1857 486.819,86.1857 488.579,86.1857 490.339,86.1857 492.1,86.1857 493.86,86.1857 495.62,86.1857 497.381,86.1857 499.141,86.1857 500.901,86.1857 502.662,86.1857 504.422,86.1857 506.182,86.1857 507.943,86.1857 509.703,86.1857 511.463,86.1857 513.224,86.1857 514.984,86.1857 516.744,86.1857 518.505,86.1857 520.265,86.1857 522.025,86.1857 523.786,86.1857 525.546,86.1857 527.306,86.1857 529.066,86.1857 530.827,86.1857 532.587,86.1857 534.347,86.1857 536.108,86.1857 537.868,86.1857 539.628,86.1857 541.389,86.1857 543.149,86.1857 544.909,86.1857 546.67,86.1857 548.43,86.1857 550.19,86.1857 551.951,86.1857 553.711,86.1857 555.471,86.1857 557.232,86.1857 558.992,86.1857 560.752,86.1857 562.513,86.1857 564.273,86.1857 566.033,86.1857 567.793,86.1857 569.554,86.1857 571.314,86.1857 573.074,86.1857 574.835,86.1857 576.595,86.1857 578.355,86.1857 580.116,86.1857 581.876,86.1857 583.636,86.1857 585.397,86.1857 587.157,86.1857 588.917,86.1857 590.678,86.1857 592.438,86.1857 594.198,86.1857 595.959,86.1857 597.719,86.1857 599.479,86.1857 601.24,86.1857 603,86.1857 604.76,86.1857 606.52,86.1857 608.281,86.1857 610.041,86.1857 611.801,86.1857 613.562,86.1857 615.322,86.1857 617.082,86.1857 618.843,86.1857 620.603,86.1857 622.363,86.1857 624.124,86.1857 625.884,86.1857 627.644,129.454 629.405,129.454 631.165,129.454 632.925,129.454 634.686,129.454 636.446,129.454 638.206,129.454 639.967,129.454 641.727,129.454 643.487,129.454 645.247,129.454 647.008,129.454 648.768,129.454 650.528,129.454 652.289,129.454 654.049,129.454 655.809,129.454 657.57,129.454 659.33,129.454 661.09,129.454 662.851,129.454 664.611,129.454 666.371,129.454 668.132,129.454 669.892,129.454 671.652,129.454 673.413,129.454 675.173,129.454 676.933,129.454 678.694,129.454 680.454,129.454 682.214,129.454 683.974,129.454 685.735,129.454 687.495,129.454 689.255,129.454 691.016,129.454 692.776,129.454 694.536,129.454 696.297,129.454 698.057,129.454 699.817,129.454 701.578,129.454 703.338,129.454 705.098,129.454 706.859,129.454 708.619,129.454 710.379,129.454 712.14,129.454 713.9,129.454 715.66,129.454 717.421,129.454 719.181,129.454 720.941,129.454 722.701,129.454 724.462,129.454 726.222,129.454 727.982,129.454 729.743,129.454 731.503,129.454 733.263,129.454 735.024,129.454 736.784,129.454 738.544,129.454 740.305,129.454 742.065,129.454 743.825,129.454 745.586,129.454 747.346,129.454 749.106,129.454 750.867,129.454 752.627,129.454 754.387,129.454 756.148,129.454 757.908,129.454 759.668,129.454 761.428,129.454 763.189,129.454 764.949,129.454 766.709,129.454 768.47,129.454 770.23,129.454 771.99,129.454 773.751,129.454 775.511,129.454 777.271,129.454 779.032,129.454 780.792,129.454 782.552,129.454 784.313,129.454 786.073,129.454 787.833,129.454 789.594,129.454 791.354,129.454 793.114,129.454 794.875,129.454 796.635,129.454 798.395,129.454 800.155,129.454 801.916,129.454 803.676,129.454 805.436,129.454 807.197,129.454 808.957,129.454 810.717,129.454 812.478,129.454 814.238,129.454 815.998,129.454 817.759,129.454 819.519,188.176 821.279,188.176 823.04,188.176 824.8,188.176 826.56,188.176 828.321,188.176 830.081,188.176 831.841,188.176 833.602,188.176 835.362,188.176 837.122,188.176 838.882,188.176 840.643,188.176 842.403,188.176 844.163,188.176 845.924,188.176 847.684,188.176 849.444,188.176 851.205,188.176 852.965,188.176 854.725,188.176 856.486,188.176 858.246,188.176 860.006,188.176 861.767,188.176 863.527,188.176 865.287,188.176 867.048,188.176 868.808,188.176 870.568,188.176 872.328,188.176 874.089,188.176 875.849,188.176 877.609,188.176 879.37,188.176 881.13,188.176 882.89,188.176 884.651,188.176 886.411,188.176 888.171,188.176 889.932,188.176 891.692,188.176 893.452,188.176 895.213,188.176 896.973,188.176 898.733,188.176 900.494,188.176 902.254,188.176 904.014,188.176 905.775,188.176 907.535,188.176 909.295,188.176 911.055,188.176 912.816,188.176 914.576,188.176 916.336,188.176 918.097,188.176 919.857,188.176 921.617,188.176 923.378,188.176 925.138,188.176 926.898,188.176 928.659,188.176 930.419,188.176 932.179,188.176 933.94,188.176 935.7,188.176 937.46,188.176 939.221,188.176 940.981,188.176 942.741,188.176 944.502,188.176 946.262,188.176 948.022,188.176 949.782,188.176 951.543,188.176 953.303,188.176 955.063,188.176 956.824,188.176 958.584,188.176 960.344,188.176 962.105,188.176 963.865,188.176 965.625,188.176 967.386,188.176 969.146,188.176 970.906,188.176 972.667,188.176 974.427,188.176 976.187,188.176 977.948,188.176 979.708,188.176 981.468,188.176 983.229,188.176 984.989,188.176 986.749,188.176 988.509,188.176 990.27,188.176 992.03,188.176 993.79,188.176 995.551,188.176 997.311,188.176 999.071,188.176 1000.83,188.176 1002.59,188.176 1004.35,188.176 1006.11,188.176 1007.87,188.176 1009.63,188.176 1011.39,244.981 1013.15,244.981 1014.91,244.981 1016.67,244.981 1018.43,244.981 1020.2,244.981 1021.96,244.981 1023.72,244.981 1025.48,244.981 1027.24,244.981 1029,244.981 1030.76,244.981 1032.52,244.981 1034.28,244.981 1036.04,244.981 1037.8,244.981 1039.56,244.981 1041.32,244.981 1043.08,244.981 1044.84,244.981 1046.6,244.981 1048.36,244.981 1050.12,244.981 1051.88,244.981 1053.64,244.981 1055.4,244.981 1057.16,244.981 1058.92,244.981 1060.68,244.981 1062.44,244.981 1064.2,244.981 1065.96,244.981 1067.72,244.981 1069.48,244.981 1071.24,244.981 1073,244.981 1074.77,244.981 1076.53,244.981 1078.29,244.981 1080.05,244.981 1081.81,244.981 1083.57,244.981 1085.33,244.981 1087.09,244.981 1088.85,244.981 1090.61,244.981 1092.37,244.981 1094.13,244.981 1095.89,244.981 1097.65,244.981 1099.41,244.981 1101.17,244.981 1102.93,244.981 1104.69,244.981 1106.45,244.981 1108.21,244.981 1109.97,244.981 1111.73,244.981 1113.49,244.981 1115.25,244.981 1117.01,244.981 1118.77,244.981 1120.53,244.981 1122.29,244.981 1124.05,244.981 1125.81,244.981 1127.57,244.981 1129.33,244.981 1131.1,244.981 1132.86,244.981 1134.62,244.981 1136.38,244.981 1138.14,244.981 1139.9,244.981 1141.66,244.981 1143.42,244.981 1145.18,244.981 1146.94,244.981 1148.7,244.981 1150.46,244.981 1152.22,244.981 1153.98,244.981 1155.74,244.981 1157.5,244.981 1159.26,244.981 1161.02,244.981 1162.78,244.981 1164.54,244.981 1166.3,244.981 1168.06,244.981 1169.82,244.981 1171.58,244.981 1173.34,244.981 1175.1,244.981 1176.86,244.981 1178.62,244.981 1180.38,244.981 1182.14,244.981 1183.9,244.981 1185.67,244.981 1187.43,244.981 1189.19,244.981 1190.95,244.981 1192.71,244.981 1194.47,244.981 1196.23,244.981 1197.99,244.981 1199.75,244.981 1201.51,244.981 1203.27,296.897 1205.03,296.897 1206.79,296.897 1208.55,296.897 1210.31,296.897 1212.07,296.897 1213.83,296.897 1215.59,296.897 1217.35,296.897 1219.11,296.897 1220.87,296.897 1222.63,296.897 1224.39,296.897 1226.15,296.897 1227.91,296.897 1229.67,296.897 1231.43,296.897 1233.19,296.897 1234.95,296.897 1236.71,296.897 1238.47,296.897 1240.23,296.897 1242,296.897 1243.76,296.897 1245.52,296.897 1247.28,296.897 1249.04,296.897 1250.8,296.897 1252.56,296.897 1254.32,296.897 1256.08,296.897 1257.84,296.897 1259.6,296.897 1261.36,296.897 1263.12,296.897 1264.88,296.897 1266.64,296.897 1268.4,296.897 1270.16,296.897 1271.92,296.897 1273.68,296.897 1275.44,296.897 1277.2,296.897 1278.96,296.897 1280.72,296.897 1282.48,296.897 1284.24,296.897 1286,296.897 1287.76,296.897 1289.52,296.897 1291.28,296.897 1293.04,296.897 1294.8,296.897 1296.57,296.897 1298.33,296.897 1300.09,296.897 1301.85,296.897 1303.61,296.897 1305.37,296.897 1307.13,296.897 1308.89,296.897 1310.65,296.897 1312.41,296.897 1314.17,296.897 1315.93,296.897 1317.69,296.897 1319.45,296.897 1321.21,296.897 1322.97,296.897 1324.73,296.897 1326.49,296.897 1328.25,296.897 1330.01,296.897 1331.77,296.897 1333.53,296.897 1335.29,296.897 1337.05,296.897 1338.81,296.897 1340.57,296.897 1342.33,296.897 1344.09,296.897 1345.85,296.897 1347.61,296.897 1349.37,296.897 1351.13,296.897 1352.9,296.897 1354.66,296.897 1356.42,296.897 1358.18,296.897 1359.94,296.897 1361.7,296.897 1363.46,296.897 1365.22,296.897 1366.98,296.897 1368.74,296.897 1370.5,296.897 1372.26,296.897 1374.02,296.897 1375.78,296.897 1377.54,296.897 1379.3,296.897 1381.06,296.897 1382.82,296.897 1384.58,296.897 1386.34,296.897 1388.1,296.897 1389.86,296.897 1391.62,296.897 1393.38,296.897 1395.14,343.779 1396.9,343.779 1398.66,343.779 1400.42,343.779 1402.18,343.779 1403.94,343.779 1405.7,343.779 1407.47,343.779 1409.23,343.779 1410.99,343.779 1412.75,343.779 1414.51,343.779 1416.27,343.779 1418.03,343.779 1419.79,343.779 1421.55,343.779 1423.31,343.779 1425.07,343.779 1426.83,343.779 1428.59,343.779 1430.35,343.779 1432.11,343.779 1433.87,343.779 1435.63,343.779 1437.39,343.779 1439.15,343.779 1440.91,343.779 1442.67,343.779 1444.43,343.779 1446.19,343.779 1447.95,343.779 1449.71,343.779 1451.47,343.779 1453.23,343.779 1454.99,343.779 1456.75,343.779 1458.51,343.779 1460.27,343.779 1462.04,343.779 1463.8,343.779 1465.56,343.779 1467.32,343.779 1469.08,343.779 1470.84,343.779 1472.6,343.779 1474.36,343.779 1476.12,343.779 1477.88,343.779 1479.64,343.779 1481.4,343.779 1483.16,343.779 1484.92,343.779 1486.68,343.779 1488.44,343.779 1490.2,343.779 1491.96,343.779 1493.72,343.779 1495.48,343.779 1497.24,343.779 1499,343.779 1500.76,343.779 1502.52,343.779 1504.28,343.779 1506.04,343.779 1507.8,343.779 1509.56,343.779 1511.32,343.779 1513.08,343.779 1514.84,343.779 1516.6,343.779 1518.37,343.779 1520.13,343.779 1521.89,343.779 1523.65,343.779 1525.41,343.779 1527.17,343.779 1528.93,343.779 1530.69,343.779 1532.45,343.779 1534.21,343.779 1535.97,343.779 1537.73,343.779 1539.49,343.779 1541.25,343.779 1543.01,343.779 1544.77,343.779 1546.53,343.779 1548.29,343.779 1550.05,343.779 1551.81,343.779 1553.57,343.779 1555.33,343.779 1557.09,343.779 1558.85,343.779 1560.61,343.779 1562.37,343.779 1564.13,343.779 1565.89,343.779 1567.65,343.779 1569.41,343.779 1571.17,343.779 1572.94,343.779 1574.7,343.779 1576.46,343.779 1578.22,343.779 1579.98,343.779 1581.74,343.779 1583.5,343.779 1585.26,343.779 1587.02,386.005 1588.78,386.005 1590.54,386.005 1592.3,386.005 1594.06,386.005 1595.82,386.005 1597.58,386.005 1599.34,386.005 1601.1,386.005 1602.86,386.005 1604.62,386.005 1606.38,386.005 1608.14,386.005 1609.9,386.005 1611.66,386.005 1613.42,386.005 1615.18,386.005 1616.94,386.005 1618.7,386.005 1620.46,386.005 1622.22,386.005 1623.98,386.005 1625.74,386.005 1627.5,386.005 1629.27,386.005 1631.03,386.005 1632.79,386.005 1634.55,386.005 1636.31,386.005 1638.07,386.005 1639.83,386.005 1641.59,386.005 1643.35,386.005 1645.11,386.005 1646.87,386.005 1648.63,386.005 1650.39,386.005 1652.15,386.005 1653.91,386.005 1655.67,386.005 1657.43,386.005 1659.19,386.005 1660.95,386.005 1662.71,386.005 1664.47,386.005 1666.23,386.005 1667.99,386.005 1669.75,386.005 1671.51,386.005 1673.27,386.005 1675.03,386.005 1676.79,386.005 1678.55,386.005 1680.31,386.005 1682.07,386.005 1683.84,386.005 1685.6,386.005 1687.36,386.005 1689.12,386.005 1690.88,386.005 1692.64,386.005 1694.4,386.005 1696.16,386.005 1697.92,386.005 1699.68,386.005 1701.44,386.005 1703.2,386.005 1704.96,386.005 1706.72,386.005 1708.48,386.005 1710.24,386.005 1712,386.005 1713.76,386.005 1715.52,386.005 1717.28,386.005 1719.04,386.005 1720.8,386.005 1722.56,386.005 1724.32,386.005 1726.08,386.005 1727.84,386.005 1729.6,386.005 1731.36,386.005 1733.12,386.005 1734.88,386.005 1736.64,386.005 1738.4,386.005 1740.17,386.005 1741.93,386.005 1743.69,386.005 1745.45,386.005 1747.21,386.005 1748.97,386.005 1750.73,386.005 1752.49,386.005 1754.25,386.005 1756.01,386.005 1757.77,386.005 1759.53,386.005 1761.29,386.005 1763.05,386.005 1764.81,386.005 1766.57,386.005 1768.33,386.005 1770.09,386.005 1771.85,386.005 1773.61,386.005 1775.37,386.005 1777.13,386.005 1778.89,424.015 1780.65,424.015 1782.41,424.015 1784.17,424.015 1785.93,424.015 1787.69,424.015 1789.45,424.015 1791.21,424.015 1792.97,424.015 1794.74,424.015 1796.5,424.015 1798.26,424.015 1800.02,424.015 1801.78,424.015 1803.54,424.015 1805.3,424.015 1807.06,424.015 1808.82,424.015 1810.58,424.015 1812.34,424.015 1814.1,424.015 1815.86,424.015 1817.62,424.015 1819.38,424.015 1821.14,424.015 1822.9,424.015 1824.66,424.015 1826.42,424.015 1828.18,424.015 1829.94,424.015 1831.7,424.015 1833.46,424.015 1835.22,424.015 1836.98,424.015 1838.74,424.015 1840.5,424.015 1842.26,424.015 1844.02,424.015 1845.78,424.015 1847.54,424.015 1849.3,424.015 1851.07,424.015 1852.83,424.015 1854.59,424.015 1856.35,424.015 1858.11,424.015 1859.87,424.015 1861.63,424.015 1863.39,424.015 1865.15,424.015 1866.91,424.015 1868.67,424.015 1870.43,424.015 1872.19,424.015 1873.95,424.015 1875.71,424.015 1877.47,424.015 1879.23,424.015 1880.99,424.015 1882.75,424.015 1884.51,424.015 1886.27,424.015 1888.03,424.015 1889.79,424.015 1891.55,424.015 1893.31,424.015 1895.07,424.015 1896.83,424.015 1898.59,424.015 1900.35,424.015 1902.11,424.015 1903.87,424.015 1905.64,424.015 1907.4,424.015 1909.16,424.015 1910.92,424.015 1912.68,424.015 1914.44,424.015 1916.2,424.015 1917.96,424.015 1919.72,424.015 1921.48,424.015 1923.24,424.015 1925,424.015 1926.76,424.015 1928.52,424.015 1930.28,424.015 1932.04,424.015 1933.8,424.015 1935.56,424.015 1937.32,424.015 1939.08,424.015 1940.84,424.015 1942.6,424.015 1944.36,424.015 1946.12,424.015 1947.88,424.015 1949.64,424.015 1951.4,424.015 1953.16,424.015 1954.92,424.015 1956.68,424.015 1958.44,424.015 1960.2,424.015 1961.97,424.015 1963.73,424.015 1965.49,424.015 1967.25,424.015 1969.01,424.015 1970.77,458.225 1972.53,458.225 1974.29,458.225 1976.05,458.225 1977.81,458.225 1979.57,458.225 1981.33,458.225 1983.09,458.225 1984.85,458.225 1986.61,458.225 1988.37,458.225 1990.13,458.225 1991.89,458.225 1993.65,458.225 1995.41,458.225 1997.17,458.225 1998.93,458.225 2000.69,458.225 2002.45,458.225 2004.21,458.225 2005.97,458.225 2007.73,458.225 2009.49,458.225 2011.25,458.225 2013.01,458.225 2014.77,458.225 2016.54,458.225 2018.3,458.225 2020.06,458.225 2021.82,458.225 2023.58,458.225 2025.34,458.225 2027.1,458.225 2028.86,458.225 2030.62,458.225 2032.38,458.225 2034.14,458.225 2035.9,458.225 2037.66,458.225 2039.42,458.225 2041.18,458.225 2042.94,458.225 2044.7,458.225 2046.46,458.225 2048.22,458.225 2049.98,458.225 2051.74,458.225 2053.5,458.225 2055.26,458.225 2057.02,458.225 2058.78,458.225 2060.54,458.225 2062.3,458.225 2064.06,458.225 2065.82,458.225 2067.58,458.225 2069.34,458.225 2071.11,458.225 2072.87,458.225 2074.63,458.225 2076.39,458.225 2078.15,458.225 2079.91,458.225 2081.67,458.225 2083.43,458.225 2085.19,458.225 2086.95,458.225 2088.71,458.225 2090.47,458.225 2092.23,458.225 2093.99,458.225 2095.75,458.225 2097.51,458.225 2099.27,458.225 2101.03,458.225 2102.79,458.225 2104.55,458.225 2106.31,458.225 2108.07,458.225 2109.83,458.225 2111.59,458.225 2113.35,458.225 2115.11,458.225 2116.87,458.225 2118.63,458.225 2120.39,458.225 2122.15,458.225 2123.91,458.225 2125.67,458.225 2127.44,458.225 2129.2,458.225 2130.96,458.225 2132.72,458.225 2134.48,458.225 2136.24,458.225 2138,458.225 2139.76,458.225 2141.52,458.225 2143.28,458.225 2145.04,458.225 2146.8,458.225 2148.56,458.225 2150.32,458.225 2152.08,458.225 2153.84,458.225 2155.6,458.225 2157.36,458.225 2159.12,458.225 2160.88,458.225 2162.64,489.014 2164.4,489.014 2166.16,489.014 2167.92,489.014 2169.68,489.014 2171.44,489.014 2173.2,489.014 2174.96,489.014 2176.72,489.014 2178.48,489.014 2180.24,489.014 2182.01,489.014 2183.77,489.014 2185.53,489.014 2187.29,489.014 2189.05,489.014 2190.81,489.014 2192.57,489.014 2194.33,489.014 2196.09,489.014 2197.85,489.014 2199.61,489.014 2201.37,489.014 2203.13,489.014 2204.89,489.014 2206.65,489.014 2208.41,489.014 2210.17,489.014 2211.93,489.014 2213.69,489.014 2215.45,489.014 2217.21,489.014 2218.97,489.014 2220.73,489.014 2222.49,489.014 2224.25,489.014 2226.01,489.014 2227.77,489.014 2229.53,489.014 2231.29,489.014 2233.05,489.014 2234.81,489.014 2236.57,489.014 2238.34,489.014 2240.1,489.014 2241.86,489.014 2243.62,489.014 2245.38,489.014 2247.14,489.014 2248.9,489.014 2250.66,489.014 2252.42,489.014 2254.18,489.014 2255.94,489.014 2257.7,489.014 2259.46,489.014 2261.22,489.014 2262.98,489.014 2264.74,489.014 2266.5,489.014 2268.26,489.014 2270.02,489.014 2271.78,489.014 2273.54,489.014 2275.3,489.014 2277.06,489.014 2278.82,489.014 2280.58,489.014 2282.34,489.014 2284.1,489.014 2285.86,489.014 2287.62,489.014 2289.38,489.014 2291.14,489.014 2292.91,489.014 2294.67,489.014 2296.43,489.014 2298.19,489.014 2299.95,489.014 2301.71,489.014 2303.47,489.014 2305.23,489.014 2306.99,489.014 2308.75,489.014 2310.51,489.014 2312.27,489.014 2314.03,489.014 2315.79,489.014 2317.55,489.014 2319.31,489.014 2321.07,489.014 2322.83,489.014 2324.59,489.014 2326.35,489.014 2328.11,489.014 2329.87,489.014 2331.63,489.014 2333.39,489.014 2335.15,489.014 2336.91,489.014 2338.67,489.014 2340.43,489.014 2342.19,489.014 2343.95,489.014 2345.71,489.014 2347.47,489.014 2349.24,489.014 2351,489.014 2352.76,489.014 "/>
<polyline clip-path="url(#clip702)" style="stroke:#e26f46; stroke-linecap:round; stroke-linejoin:round; stroke-width:4; stroke-opacity:1; fill:none" points="242.135,1384.24 243.895,1384.24 245.655,1384.24 247.416,1384.24 249.176,1384.24 250.936,1384.24 252.697,1384.24 254.457,1384.24 256.217,1384.24 257.978,1384.24 259.738,1384.24 261.498,1384.24 263.258,1384.24 265.019,1384.24 266.779,1384.24 268.539,1384.24 270.3,1384.24 272.06,1384.24 273.82,1384.24 275.581,1384.24 277.341,1384.24 279.101,1384.24 280.862,1384.24 282.622,1384.24 284.382,1384.24 286.143,1384.24 287.903,1384.24 289.663,1384.24 291.424,1384.24 293.184,1384.24 294.944,1384.24 296.705,1384.24 298.465,1384.24 300.225,1384.24 301.985,1384.24 303.746,1384.24 305.506,1384.24 307.266,1384.24 309.027,1384.24 310.787,1384.24 312.547,1384.24 314.308,1384.24 316.068,1384.24 317.828,1384.24 319.589,1384.24 321.349,1384.24 323.109,1384.24 324.87,1384.24 326.63,1384.24 328.39,1384.24 330.151,1384.24 331.911,1384.24 333.671,1384.24 335.432,1384.24 337.192,1384.24 338.952,1384.24 340.712,1384.24 342.473,1384.24 344.233,1384.24 345.993,1384.24 347.754,1384.24 349.514,1384.24 351.274,1384.24 353.035,1384.24 354.795,1384.24 356.555,1384.24 358.316,1384.24 360.076,1384.24 361.836,1384.24 363.597,1384.24 365.357,1384.24 367.117,1384.24 368.878,1384.24 370.638,1384.24 372.398,1384.24 374.159,1384.24 375.919,1384.24 377.679,1384.24 379.439,1384.24 381.2,1384.24 382.96,1384.24 384.72,1384.24 386.481,1384.24 388.241,1384.24 390.001,1384.24 391.762,1384.24 393.522,1384.24 395.282,1384.24 397.043,1384.24 398.803,1384.24 400.563,1384.24 402.324,1384.24 404.084,1384.24 405.844,1384.24 407.605,1384.24 409.365,1384.24 411.125,1384.24 412.886,1384.24 414.646,1384.24 416.406,1384.24 418.166,1384.24 419.927,1384.24 421.687,1384.24 423.447,1384.24 425.208,1384.24 426.968,1384.24 428.728,1384.24 430.489,1384.24 432.249,1384.24 434.009,1384.24 435.77,889.742 437.53,889.742 439.29,889.742 441.051,889.742 442.811,889.742 444.571,889.742 446.332,889.742 448.092,889.742 449.852,889.742 451.613,889.742 453.373,889.742 455.133,889.742 456.893,889.742 458.654,889.742 460.414,889.742 462.174,889.742 463.935,889.742 465.695,889.742 467.455,889.742 469.216,889.742 470.976,889.742 472.736,889.742 474.497,889.742 476.257,889.742 478.017,889.742 479.778,889.742 481.538,889.742 483.298,889.742 485.059,889.742 486.819,889.742 488.579,889.742 490.339,889.742 492.1,889.742 493.86,889.742 495.62,889.742 497.381,889.742 499.141,889.742 500.901,889.742 502.662,889.742 504.422,889.742 506.182,889.742 507.943,889.742 509.703,889.742 511.463,889.742 513.224,889.742 514.984,889.742 516.744,889.742 518.505,889.742 520.265,889.742 522.025,889.742 523.786,889.742 525.546,889.742 527.306,889.742 529.066,889.742 530.827,889.742 532.587,889.742 534.347,889.742 536.108,889.742 537.868,889.742 539.628,889.742 541.389,889.742 543.149,889.742 544.909,889.742 546.67,889.742 548.43,889.742 550.19,889.742 551.951,889.742 553.711,889.742 555.471,889.742 557.232,889.742 558.992,889.742 560.752,889.742 562.513,889.742 564.273,889.742 566.033,889.742 567.793,889.742 569.554,889.742 571.314,889.742 573.074,889.742 574.835,889.742 576.595,889.742 578.355,889.742 580.116,889.742 581.876,889.742 583.636,889.742 585.397,889.742 587.157,889.742 588.917,889.742 590.678,889.742 592.438,889.742 594.198,889.742 595.959,889.742 597.719,889.742 599.479,889.742 601.24,889.742 603,889.742 604.76,889.742 606.52,889.742 608.281,889.742 610.041,889.742 611.801,889.742 613.562,889.742 615.322,889.742 617.082,889.742 618.843,889.742 620.603,889.742 622.363,889.742 624.124,889.742 625.884,889.742 627.644,790.843 629.405,790.843 631.165,790.843 632.925,790.843 634.686,790.843 636.446,790.843 638.206,790.843 639.967,790.843 641.727,790.843 643.487,790.843 645.247,790.843 647.008,790.843 648.768,790.843 650.528,790.843 652.289,790.843 654.049,790.843 655.809,790.843 657.57,790.843 659.33,790.843 661.09,790.843 662.851,790.843 664.611,790.843 666.371,790.843 668.132,790.843 669.892,790.843 671.652,790.843 673.413,790.843 675.173,790.843 676.933,790.843 678.694,790.843 680.454,790.843 682.214,790.843 683.974,790.843 685.735,790.843 687.495,790.843 689.255,790.843 691.016,790.843 692.776,790.843 694.536,790.843 696.297,790.843 698.057,790.843 699.817,790.843 701.578,790.843 703.338,790.843 705.098,790.843 706.859,790.843 708.619,790.843 710.379,790.843 712.14,790.843 713.9,790.843 715.66,790.843 717.421,790.843 719.181,790.843 720.941,790.843 722.701,790.843 724.462,790.843 726.222,790.843 727.982,790.843 729.743,790.843 731.503,790.843 733.263,790.843 735.024,790.843 736.784,790.843 738.544,790.843 740.305,790.843 742.065,790.843 743.825,790.843 745.586,790.843 747.346,790.843 749.106,790.843 750.867,790.843 752.627,790.843 754.387,790.843 756.148,790.843 757.908,790.843 759.668,790.843 761.428,790.843 763.189,790.843 764.949,790.843 766.709,790.843 768.47,790.843 770.23,790.843 771.99,790.843 773.751,790.843 775.511,790.843 777.271,790.843 779.032,790.843 780.792,790.843 782.552,790.843 784.313,790.843 786.073,790.843 787.833,790.843 789.594,790.843 791.354,790.843 793.114,790.843 794.875,790.843 796.635,790.843 798.395,790.843 800.155,790.843 801.916,790.843 803.676,790.843 805.436,790.843 807.197,790.843 808.957,790.843 810.717,790.843 812.478,790.843 814.238,790.843 815.998,790.843 817.759,790.843 819.519,771.063 821.279,771.063 823.04,771.063 824.8,771.063 826.56,771.063 828.321,771.063 830.081,771.063 831.841,771.063 833.602,771.063 835.362,771.063 837.122,771.063 838.882,771.063 840.643,771.063 842.403,771.063 844.163,771.063 845.924,771.063 847.684,771.063 849.444,771.063 851.205,771.063 852.965,771.063 854.725,771.063 856.486,771.063 858.246,771.063 860.006,771.063 861.767,771.063 863.527,771.063 865.287,771.063 867.048,771.063 868.808,771.063 870.568,771.063 872.328,771.063 874.089,771.063 875.849,771.063 877.609,771.063 879.37,771.063 881.13,771.063 882.89,771.063 884.651,771.063 886.411,771.063 888.171,771.063 889.932,771.063 891.692,771.063 893.452,771.063 895.213,771.063 896.973,771.063 898.733,771.063 900.494,771.063 902.254,771.063 904.014,771.063 905.775,771.063 907.535,771.063 909.295,771.063 911.055,771.063 912.816,771.063 914.576,771.063 916.336,771.063 918.097,771.063 919.857,771.063 921.617,771.063 923.378,771.063 925.138,771.063 926.898,771.063 928.659,771.063 930.419,771.063 932.179,771.063 933.94,771.063 935.7,771.063 937.46,771.063 939.221,771.063 940.981,771.063 942.741,771.063 944.502,771.063 946.262,771.063 948.022,771.063 949.782,771.063 951.543,771.063 953.303,771.063 955.063,771.063 956.824,771.063 958.584,771.063 960.344,771.063 962.105,771.063 963.865,771.063 965.625,771.063 967.386,771.063 969.146,771.063 970.906,771.063 972.667,771.063 974.427,771.063 976.187,771.063 977.948,771.063 979.708,771.063 981.468,771.063 983.229,771.063 984.989,771.063 986.749,771.063 988.509,771.063 990.27,771.063 992.03,771.063 993.79,771.063 995.551,771.063 997.311,771.063 999.071,771.063 1000.83,771.063 1002.59,771.063 1004.35,771.063 1006.11,771.063 1007.87,771.063 1009.63,771.063 1011.39,767.107 1013.15,767.107 1014.91,767.107 1016.67,767.107 1018.43,767.107 1020.2,767.107 1021.96,767.107 1023.72,767.107 1025.48,767.107 1027.24,767.107 1029,767.107 1030.76,767.107 1032.52,767.107 1034.28,767.107 1036.04,767.107 1037.8,767.107 1039.56,767.107 1041.32,767.107 1043.08,767.107 1044.84,767.107 1046.6,767.107 1048.36,767.107 1050.12,767.107 1051.88,767.107 1053.64,767.107 1055.4,767.107 1057.16,767.107 1058.92,767.107 1060.68,767.107 1062.44,767.107 1064.2,767.107 1065.96,767.107 1067.72,767.107 1069.48,767.107 1071.24,767.107 1073,767.107 1074.77,767.107 1076.53,767.107 1078.29,767.107 1080.05,767.107 1081.81,767.107 1083.57,767.107 1085.33,767.107 1087.09,767.107 1088.85,767.107 1090.61,767.107 1092.37,767.107 1094.13,767.107 1095.89,767.107 1097.65,767.107 1099.41,767.107 1101.17,767.107 1102.93,767.107 1104.69,767.107 1106.45,767.107 1108.21,767.107 1109.97,767.107 1111.73,767.107 1113.49,767.107 1115.25,767.107 1117.01,767.107 1118.77,767.107 1120.53,767.107 1122.29,767.107 1124.05,767.107 1125.81,767.107 1127.57,767.107 1129.33,767.107 1131.1,767.107 1132.86,767.107 1134.62,767.107 1136.38,767.107 1138.14,767.107 1139.9,767.107 1141.66,767.107 1143.42,767.107 1145.18,767.107 1146.94,767.107 1148.7,767.107 1150.46,767.107 1152.22,767.107 1153.98,767.107 1155.74,767.107 1157.5,767.107 1159.26,767.107 1161.02,767.107 1162.78,767.107 1164.54,767.107 1166.3,767.107 1168.06,767.107 1169.82,767.107 1171.58,767.107 1173.34,767.107 1175.1,767.107 1176.86,767.107 1178.62,767.107 1180.38,767.107 1182.14,767.107 1183.9,767.107 1185.67,767.107 1187.43,767.107 1189.19,767.107 1190.95,767.107 1192.71,767.107 1194.47,767.107 1196.23,767.107 1197.99,767.107 1199.75,767.107 1201.51,767.107 1203.27,766.316 1205.03,766.316 1206.79,766.316 1208.55,766.316 1210.31,766.316 1212.07,766.316 1213.83,766.316 1215.59,766.316 1217.35,766.316 1219.11,766.316 1220.87,766.316 1222.63,766.316 1224.39,766.316 1226.15,766.316 1227.91,766.316 1229.67,766.316 1231.43,766.316 1233.19,766.316 1234.95,766.316 1236.71,766.316 1238.47,766.316 1240.23,766.316 1242,766.316 1243.76,766.316 1245.52,766.316 1247.28,766.316 1249.04,766.316 1250.8,766.316 1252.56,766.316 1254.32,766.316 1256.08,766.316 1257.84,766.316 1259.6,766.316 1261.36,766.316 1263.12,766.316 1264.88,766.316 1266.64,766.316 1268.4,766.316 1270.16,766.316 1271.92,766.316 1273.68,766.316 1275.44,766.316 1277.2,766.316 1278.96,766.316 1280.72,766.316 1282.48,766.316 1284.24,766.316 1286,766.316 1287.76,766.316 1289.52,766.316 1291.28,766.316 1293.04,766.316 1294.8,766.316 1296.57,766.316 1298.33,766.316 1300.09,766.316 1301.85,766.316 1303.61,766.316 1305.37,766.316 1307.13,766.316 1308.89,766.316 1310.65,766.316 1312.41,766.316 1314.17,766.316 1315.93,766.316 1317.69,766.316 1319.45,766.316 1321.21,766.316 1322.97,766.316 1324.73,766.316 1326.49,766.316 1328.25,766.316 1330.01,766.316 1331.77,766.316 1333.53,766.316 1335.29,766.316 1337.05,766.316 1338.81,766.316 1340.57,766.316 1342.33,766.316 1344.09,766.316 1345.85,766.316 1347.61,766.316 1349.37,766.316 1351.13,766.316 1352.9,766.316 1354.66,766.316 1356.42,766.316 1358.18,766.316 1359.94,766.316 1361.7,766.316 1363.46,766.316 1365.22,766.316 1366.98,766.316 1368.74,766.316 1370.5,766.316 1372.26,766.316 1374.02,766.316 1375.78,766.316 1377.54,766.316 1379.3,766.316 1381.06,766.316 1382.82,766.316 1384.58,766.316 1386.34,766.316 1388.1,766.316 1389.86,766.316 1391.62,766.316 1393.38,766.316 1395.14,766.158 1396.9,766.158 1398.66,766.158 1400.42,766.158 1402.18,766.158 1403.94,766.158 1405.7,766.158 1407.47,766.158 1409.23,766.158 1410.99,766.158 1412.75,766.158 1414.51,766.158 1416.27,766.158 1418.03,766.158 1419.79,766.158 1421.55,766.158 1423.31,766.158 1425.07,766.158 1426.83,766.158 1428.59,766.158 1430.35,766.158 1432.11,766.158 1433.87,766.158 1435.63,766.158 1437.39,766.158 1439.15,766.158 1440.91,766.158 1442.67,766.158 1444.43,766.158 1446.19,766.158 1447.95,766.158 1449.71,766.158 1451.47,766.158 1453.23,766.158 1454.99,766.158 1456.75,766.158 1458.51,766.158 1460.27,766.158 1462.04,766.158 1463.8,766.158 1465.56,766.158 1467.32,766.158 1469.08,766.158 1470.84,766.158 1472.6,766.158 1474.36,766.158 1476.12,766.158 1477.88,766.158 1479.64,766.158 1481.4,766.158 1483.16,766.158 1484.92,766.158 1486.68,766.158 1488.44,766.158 1490.2,766.158 1491.96,766.158 1493.72,766.158 1495.48,766.158 1497.24,766.158 1499,766.158 1500.76,766.158 1502.52,766.158 1504.28,766.158 1506.04,766.158 1507.8,766.158 1509.56,766.158 1511.32,766.158 1513.08,766.158 1514.84,766.158 1516.6,766.158 1518.37,766.158 1520.13,766.158 1521.89,766.158 1523.65,766.158 1525.41,766.158 1527.17,766.158 1528.93,766.158 1530.69,766.158 1532.45,766.158 1534.21,766.158 1535.97,766.158 1537.73,766.158 1539.49,766.158 1541.25,766.158 1543.01,766.158 1544.77,766.158 1546.53,766.158 1548.29,766.158 1550.05,766.158 1551.81,766.158 1553.57,766.158 1555.33,766.158 1557.09,766.158 1558.85,766.158 1560.61,766.158 1562.37,766.158 1564.13,766.158 1565.89,766.158 1567.65,766.158 1569.41,766.158 1571.17,766.158 1572.94,766.158 1574.7,766.158 1576.46,766.158 1578.22,766.158 1579.98,766.158 1581.74,766.158 1583.5,766.158 1585.26,766.158 1587.02,766.126 1588.78,766.126 1590.54,766.126 1592.3,766.126 1594.06,766.126 1595.82,766.126 1597.58,766.126 1599.34,766.126 1601.1,766.126 1602.86,766.126 1604.62,766.126 1606.38,766.126 1608.14,766.126 1609.9,766.126 1611.66,766.126 1613.42,766.126 1615.18,766.126 1616.94,766.126 1618.7,766.126 1620.46,766.126 1622.22,766.126 1623.98,766.126 1625.74,766.126 1627.5,766.126 1629.27,766.126 1631.03,766.126 1632.79,766.126 1634.55,766.126 1636.31,766.126 1638.07,766.126 1639.83,766.126 1641.59,766.126 1643.35,766.126 1645.11,766.126 1646.87,766.126 1648.63,766.126 1650.39,766.126 1652.15,766.126 1653.91,766.126 1655.67,766.126 1657.43,766.126 1659.19,766.126 1660.95,766.126 1662.71,766.126 1664.47,766.126 1666.23,766.126 1667.99,766.126 1669.75,766.126 1671.51,766.126 1673.27,766.126 1675.03,766.126 1676.79,766.126 1678.55,766.126 1680.31,766.126 1682.07,766.126 1683.84,766.126 1685.6,766.126 1687.36,766.126 1689.12,766.126 1690.88,766.126 1692.64,766.126 1694.4,766.126 1696.16,766.126 1697.92,766.126 1699.68,766.126 1701.44,766.126 1703.2,766.126 1704.96,766.126 1706.72,766.126 1708.48,766.126 1710.24,766.126 1712,766.126 1713.76,766.126 1715.52,766.126 1717.28,766.126 1719.04,766.126 1720.8,766.126 1722.56,766.126 1724.32,766.126 1726.08,766.126 1727.84,766.126 1729.6,766.126 1731.36,766.126 1733.12,766.126 1734.88,766.126 1736.64,766.126 1738.4,766.126 1740.17,766.126 1741.93,766.126 1743.69,766.126 1745.45,766.126 1747.21,766.126 1748.97,766.126 1750.73,766.126 1752.49,766.126 1754.25,766.126 1756.01,766.126 1757.77,766.126 1759.53,766.126 1761.29,766.126 1763.05,766.126 1764.81,766.126 1766.57,766.126 1768.33,766.126 1770.09,766.126 1771.85,766.126 1773.61,766.126 1775.37,766.126 1777.13,766.126 1778.89,766.12 1780.65,766.12 1782.41,766.12 1784.17,766.12 1785.93,766.12 1787.69,766.12 1789.45,766.12 1791.21,766.12 1792.97,766.12 1794.74,766.12 1796.5,766.12 1798.26,766.12 1800.02,766.12 1801.78,766.12 1803.54,766.12 1805.3,766.12 1807.06,766.12 1808.82,766.12 1810.58,766.12 1812.34,766.12 1814.1,766.12 1815.86,766.12 1817.62,766.12 1819.38,766.12 1821.14,766.12 1822.9,766.12 1824.66,766.12 1826.42,766.12 1828.18,766.12 1829.94,766.12 1831.7,766.12 1833.46,766.12 1835.22,766.12 1836.98,766.12 1838.74,766.12 1840.5,766.12 1842.26,766.12 1844.02,766.12 1845.78,766.12 1847.54,766.12 1849.3,766.12 1851.07,766.12 1852.83,766.12 1854.59,766.12 1856.35,766.12 1858.11,766.12 1859.87,766.12 1861.63,766.12 1863.39,766.12 1865.15,766.12 1866.91,766.12 1868.67,766.12 1870.43,766.12 1872.19,766.12 1873.95,766.12 1875.71,766.12 1877.47,766.12 1879.23,766.12 1880.99,766.12 1882.75,766.12 1884.51,766.12 1886.27,766.12 1888.03,766.12 1889.79,766.12 1891.55,766.12 1893.31,766.12 1895.07,766.12 1896.83,766.12 1898.59,766.12 1900.35,766.12 1902.11,766.12 1903.87,766.12 1905.64,766.12 1907.4,766.12 1909.16,766.12 1910.92,766.12 1912.68,766.12 1914.44,766.12 1916.2,766.12 1917.96,766.12 1919.72,766.12 1921.48,766.12 1923.24,766.12 1925,766.12 1926.76,766.12 1928.52,766.12 1930.28,766.12 1932.04,766.12 1933.8,766.12 1935.56,766.12 1937.32,766.12 1939.08,766.12 1940.84,766.12 1942.6,766.12 1944.36,766.12 1946.12,766.12 1947.88,766.12 1949.64,766.12 1951.4,766.12 1953.16,766.12 1954.92,766.12 1956.68,766.12 1958.44,766.12 1960.2,766.12 1961.97,766.12 1963.73,766.12 1965.49,766.12 1967.25,766.12 1969.01,766.12 1970.77,766.118 1972.53,766.118 1974.29,766.118 1976.05,766.118 1977.81,766.118 1979.57,766.118 1981.33,766.118 1983.09,766.118 1984.85,766.118 1986.61,766.118 1988.37,766.118 1990.13,766.118 1991.89,766.118 1993.65,766.118 1995.41,766.118 1997.17,766.118 1998.93,766.118 2000.69,766.118 2002.45,766.118 2004.21,766.118 2005.97,766.118 2007.73,766.118 2009.49,766.118 2011.25,766.118 2013.01,766.118 2014.77,766.118 2016.54,766.118 2018.3,766.118 2020.06,766.118 2021.82,766.118 2023.58,766.118 2025.34,766.118 2027.1,766.118 2028.86,766.118 2030.62,766.118 2032.38,766.118 2034.14,766.118 2035.9,766.118 2037.66,766.118 2039.42,766.118 2041.18,766.118 2042.94,766.118 2044.7,766.118 2046.46,766.118 2048.22,766.118 2049.98,766.118 2051.74,766.118 2053.5,766.118 2055.26,766.118 2057.02,766.118 2058.78,766.118 2060.54,766.118 2062.3,766.118 2064.06,766.118 2065.82,766.118 2067.58,766.118 2069.34,766.118 2071.11,766.118 2072.87,766.118 2074.63,766.118 2076.39,766.118 2078.15,766.118 2079.91,766.118 2081.67,766.118 2083.43,766.118 2085.19,766.118 2086.95,766.118 2088.71,766.118 2090.47,766.118 2092.23,766.118 2093.99,766.118 2095.75,766.118 2097.51,766.118 2099.27,766.118 2101.03,766.118 2102.79,766.118 2104.55,766.118 2106.31,766.118 2108.07,766.118 2109.83,766.118 2111.59,766.118 2113.35,766.118 2115.11,766.118 2116.87,766.118 2118.63,766.118 2120.39,766.118 2122.15,766.118 2123.91,766.118 2125.67,766.118 2127.44,766.118 2129.2,766.118 2130.96,766.118 2132.72,766.118 2134.48,766.118 2136.24,766.118 2138,766.118 2139.76,766.118 2141.52,766.118 2143.28,766.118 2145.04,766.118 2146.8,766.118 2148.56,766.118 2150.32,766.118 2152.08,766.118 2153.84,766.118 2155.6,766.118 2157.36,766.118 2159.12,766.118 2160.88,766.118 2162.64,766.118 2164.4,766.118 2166.16,766.118 2167.92,766.118 2169.68,766.118 2171.44,766.118 2173.2,766.118 2174.96,766.118 2176.72,766.118 2178.48,766.118 2180.24,766.118 2182.01,766.118 2183.77,766.118 2185.53,766.118 2187.29,766.118 2189.05,766.118 2190.81,766.118 2192.57,766.118 2194.33,766.118 2196.09,766.118 2197.85,766.118 2199.61,766.118 2201.37,766.118 2203.13,766.118 2204.89,766.118 2206.65,766.118 2208.41,766.118 2210.17,766.118 2211.93,766.118 2213.69,766.118 2215.45,766.118 2217.21,766.118 2218.97,766.118 2220.73,766.118 2222.49,766.118 2224.25,766.118 2226.01,766.118 2227.77,766.118 2229.53,766.118 2231.29,766.118 2233.05,766.118 2234.81,766.118 2236.57,766.118 2238.34,766.118 2240.1,766.118 2241.86,766.118 2243.62,766.118 2245.38,766.118 2247.14,766.118 2248.9,766.118 2250.66,766.118 2252.42,766.118 2254.18,766.118 2255.94,766.118 2257.7,766.118 2259.46,766.118 2261.22,766.118 2262.98,766.118 2264.74,766.118 2266.5,766.118 2268.26,766.118 2270.02,766.118 2271.78,766.118 2273.54,766.118 2275.3,766.118 2277.06,766.118 2278.82,766.118 2280.58,766.118 2282.34,766.118 2284.1,766.118 2285.86,766.118 2287.62,766.118 2289.38,766.118 2291.14,766.118 2292.91,766.118 2294.67,766.118 2296.43,766.118 2298.19,766.118 2299.95,766.118 2301.71,766.118 2303.47,766.118 2305.23,766.118 2306.99,766.118 2308.75,766.118 2310.51,766.118 2312.27,766.118 2314.03,766.118 2315.79,766.118 2317.55,766.118 2319.31,766.118 2321.07,766.118 2322.83,766.118 2324.59,766.118 2326.35,766.118 2328.11,766.118 2329.87,766.118 2331.63,766.118 2333.39,766.118 2335.15,766.118 2336.91,766.118 2338.67,766.118 2340.43,766.118 2342.19,766.118 2343.95,766.118 2345.71,766.118 2347.47,766.118 2349.24,766.118 2351,766.118 2352.76,766.118 "/>
<circle clip-path="url(#clip702)" cx="242.135" cy="147.998" r="14.4" fill="#3da44d" fill-rule="evenodd" fill-opacity="1" stroke="#000000" stroke-opacity="1" stroke-width="3.2"/>
<circle clip-path="url(#clip702)" cx="434.009" cy="86.1857" r="14.4" fill="#3da44d" fill-rule="evenodd" fill-opacity="1" stroke="#000000" stroke-opacity="1" stroke-width="3.2"/>
<circle clip-path="url(#clip702)" cx="625.884" cy="129.454" r="14.4" fill="#3da44d" fill-rule="evenodd" fill-opacity="1" stroke="#000000" stroke-opacity="1" stroke-width="3.2"/>
<circle clip-path="url(#clip702)" cx="817.759" cy="188.176" r="14.4" fill="#3da44d" fill-rule="evenodd" fill-opacity="1" stroke="#000000" stroke-opacity="1" stroke-width="3.2"/>
<circle clip-path="url(#clip702)" cx="1009.63" cy="244.981" r="14.4" fill="#3da44d" fill-rule="evenodd" fill-opacity="1" stroke="#000000" stroke-opacity="1" stroke-width="3.2"/>
<circle clip-path="url(#clip702)" cx="1201.51" cy="296.897" r="14.4" fill="#3da44d" fill-rule="evenodd" fill-opacity="1" stroke="#000000" stroke-opacity="1" stroke-width="3.2"/>
<circle clip-path="url(#clip702)" cx="1393.38" cy="343.779" r="14.4" fill="#3da44d" fill-rule="evenodd" fill-opacity="1" stroke="#000000" stroke-opacity="1" stroke-width="3.2"/>
<circle clip-path="url(#clip702)" cx="1585.26" cy="386.005" r="14.4" fill="#3da44d" fill-rule="evenodd" fill-opacity="1" stroke="#000000" stroke-opacity="1" stroke-width="3.2"/>
<circle clip-path="url(#clip702)" cx="1777.13" cy="424.015" r="14.4" fill="#3da44d" fill-rule="evenodd" fill-opacity="1" stroke="#000000" stroke-opacity="1" stroke-width="3.2"/>
<circle clip-path="url(#clip702)" cx="1969.01" cy="458.225" r="14.4" fill="#3da44d" fill-rule="evenodd" fill-opacity="1" stroke="#000000" stroke-opacity="1" stroke-width="3.2"/>
<circle clip-path="url(#clip702)" cx="2160.88" cy="489.014" r="14.4" fill="#3da44d" fill-rule="evenodd" fill-opacity="1" stroke="#000000" stroke-opacity="1" stroke-width="3.2"/>
<circle clip-path="url(#clip702)" cx="2352.76" cy="516.725" r="14.4" fill="#3da44d" fill-rule="evenodd" fill-opacity="1" stroke="#000000" stroke-opacity="1" stroke-width="3.2"/>
<circle clip-path="url(#clip702)" cx="242.135" cy="1384.24" r="14.4" fill="#c271d2" fill-rule="evenodd" fill-opacity="1" stroke="#000000" stroke-opacity="1" stroke-width="3.2"/>
<circle clip-path="url(#clip702)" cx="434.009" cy="889.742" r="14.4" fill="#c271d2" fill-rule="evenodd" fill-opacity="1" stroke="#000000" stroke-opacity="1" stroke-width="3.2"/>
<circle clip-path="url(#clip702)" cx="625.884" cy="790.843" r="14.4" fill="#c271d2" fill-rule="evenodd" fill-opacity="1" stroke="#000000" stroke-opacity="1" stroke-width="3.2"/>
<circle clip-path="url(#clip702)" cx="817.759" cy="771.063" r="14.4" fill="#c271d2" fill-rule="evenodd" fill-opacity="1" stroke="#000000" stroke-opacity="1" stroke-width="3.2"/>
<circle clip-path="url(#clip702)" cx="1009.63" cy="767.107" r="14.4" fill="#c271d2" fill-rule="evenodd" fill-opacity="1" stroke="#000000" stroke-opacity="1" stroke-width="3.2"/>
<circle clip-path="url(#clip702)" cx="1201.51" cy="766.316" r="14.4" fill="#c271d2" fill-rule="evenodd" fill-opacity="1" stroke="#000000" stroke-opacity="1" stroke-width="3.2"/>
<circle clip-path="url(#clip702)" cx="1393.38" cy="766.158" r="14.4" fill="#c271d2" fill-rule="evenodd" fill-opacity="1" stroke="#000000" stroke-opacity="1" stroke-width="3.2"/>
<circle clip-path="url(#clip702)" cx="1585.26" cy="766.126" r="14.4" fill="#c271d2" fill-rule="evenodd" fill-opacity="1" stroke="#000000" stroke-opacity="1" stroke-width="3.2"/>
<circle clip-path="url(#clip702)" cx="1777.13" cy="766.12" r="14.4" fill="#c271d2" fill-rule="evenodd" fill-opacity="1" stroke="#000000" stroke-opacity="1" stroke-width="3.2"/>
<circle clip-path="url(#clip702)" cx="1969.01" cy="766.118" r="14.4" fill="#c271d2" fill-rule="evenodd" fill-opacity="1" stroke="#000000" stroke-opacity="1" stroke-width="3.2"/>
<circle clip-path="url(#clip702)" cx="2160.88" cy="766.118" r="14.4" fill="#c271d2" fill-rule="evenodd" fill-opacity="1" stroke="#000000" stroke-opacity="1" stroke-width="3.2"/>
<circle clip-path="url(#clip702)" cx="2352.76" cy="766.118" r="14.4" fill="#c271d2" fill-rule="evenodd" fill-opacity="1" stroke="#000000" stroke-opacity="1" stroke-width="3.2"/>
<path clip-path="url(#clip700)" d="M1974.14 352.309 L2282.4 352.309 L2282.4 93.1086 L1974.14 93.1086  Z" fill="#ffffff" fill-rule="evenodd" fill-opacity="1"/>
<polyline clip-path="url(#clip700)" style="stroke:#000000; stroke-linecap:round; stroke-linejoin:round; stroke-width:4; stroke-opacity:1; fill:none" points="1974.14,352.309 2282.4,352.309 2282.4,93.1086 1974.14,93.1086 1974.14,352.309 "/>
<polyline clip-path="url(#clip700)" style="stroke:#009af9; stroke-linecap:round; stroke-linejoin:round; stroke-width:4; stroke-opacity:1; fill:none" points="1997.59,144.949 2138.3,144.949 "/>
<path clip-path="url(#clip700)" d="M2186.4 136.303 L2177.03 148.919 L2186.89 162.229 L2181.87 162.229 L2174.32 152.043 L2166.78 162.229 L2161.75 162.229 L2171.82 148.664 L2162.61 136.303 L2167.63 136.303 L2174.51 145.539 L2181.38 136.303 L2186.4 136.303 Z" fill="#000000" fill-rule="nonzero" fill-opacity="1" /><path clip-path="url(#clip700)" d="M2192.05 159.682 L2196.77 159.682 L2196.77 145.539 L2191.61 146.488 L2191.61 143.803 L2196.94 142.9 L2200.11 142.9 L2200.11 159.682 L2204.85 159.682 L2204.85 162.229 L2192.05 162.229 L2192.05 159.682 Z" fill="#000000" fill-rule="nonzero" fill-opacity="1" /><polyline clip-path="url(#clip700)" style="stroke:#e26f46; stroke-linecap:round; stroke-linejoin:round; stroke-width:4; stroke-opacity:1; fill:none" points="1997.59,196.789 2138.3,196.789 "/>
<path clip-path="url(#clip700)" d="M2186.4 188.143 L2177.03 200.759 L2186.89 214.069 L2181.87 214.069 L2174.32 203.883 L2166.78 214.069 L2161.75 214.069 L2171.82 200.504 L2162.61 188.143 L2167.63 188.143 L2174.51 197.379 L2181.38 188.143 L2186.4 188.143 Z" fill="#000000" fill-rule="nonzero" fill-opacity="1" /><path clip-path="url(#clip700)" d="M2194.65 211.43 L2204.46 211.43 L2204.46 214.069 L2190.62 214.069 L2190.62 211.522 Q2191.4 210.805 2192.86 209.508 Q2200.83 202.448 2200.83 200.272 Q2200.83 198.745 2199.62 197.819 Q2198.42 196.87 2196.45 196.87 Q2195.25 196.87 2193.84 197.286 Q2192.42 197.68 2190.76 198.49 L2190.76 195.643 Q2192.54 194.995 2194.07 194.671 Q2195.62 194.347 2196.94 194.347 Q2200.29 194.347 2202.31 195.874 Q2204.32 197.402 2204.32 199.902 Q2204.32 203.12 2196.66 209.694 Q2195.36 210.805 2194.65 211.43 Z" fill="#000000" fill-rule="nonzero" fill-opacity="1" /><circle clip-path="url(#clip700)" cx="2067.95" cy="248.629" r="20.48" fill="#3da44d" fill-rule="evenodd" fill-opacity="1" stroke="#000000" stroke-opacity="1" stroke-width="4.55111"/>
<path clip-path="url(#clip700)" d="M2186.4 239.983 L2177.03 252.599 L2186.89 265.909 L2181.87 265.909 L2174.32 255.723 L2166.78 265.909 L2161.75 265.909 L2171.82 252.344 L2162.61 239.983 L2167.63 239.983 L2174.51 249.219 L2181.38 239.983 L2186.4 239.983 Z" fill="#000000" fill-rule="nonzero" fill-opacity="1" /><path clip-path="url(#clip700)" d="M2192.05 263.362 L2196.77 263.362 L2196.77 249.219 L2191.61 250.168 L2191.61 247.483 L2196.94 246.58 L2200.11 246.58 L2200.11 263.362 L2204.85 263.362 L2204.85 265.909 L2192.05 265.909 L2192.05 263.362 Z" fill="#000000" fill-rule="nonzero" fill-opacity="1" /><path clip-path="url(#clip700)" d="M2222.15 229.937 Q2219.04 235.261 2217.54 240.469 Q2216.03 245.677 2216.03 251.024 Q2216.03 256.372 2217.54 261.626 Q2219.07 266.858 2222.15 272.159 L2218.44 272.159 Q2214.97 266.719 2213.23 261.464 Q2211.52 256.21 2211.52 251.024 Q2211.52 245.862 2213.23 240.631 Q2214.95 235.4 2218.44 229.937 L2222.15 229.937 Z" fill="#000000" fill-rule="nonzero" fill-opacity="1" /><path clip-path="url(#clip700)" d="M2234.62 232.622 L2234.62 239.983 L2243.4 239.983 L2243.4 243.293 L2234.62 243.293 L2234.62 257.367 Q2234.62 260.538 2235.48 261.441 Q2236.36 262.344 2239.02 262.344 L2243.4 262.344 L2243.4 265.909 L2239.02 265.909 Q2234.09 265.909 2232.21 264.08 Q2230.34 262.228 2230.34 257.367 L2230.34 243.293 L2227.21 243.293 L2227.21 239.983 L2230.34 239.983 L2230.34 232.622 L2234.62 232.622 Z" fill="#000000" fill-rule="nonzero" fill-opacity="1" /><path clip-path="url(#clip700)" d="M2248.33 229.937 L2252.03 229.937 Q2255.5 235.4 2257.21 240.631 Q2258.95 245.862 2258.95 251.024 Q2258.95 256.21 2257.21 261.464 Q2255.5 266.719 2252.03 272.159 L2248.33 272.159 Q2251.4 266.858 2252.91 261.626 Q2254.44 256.372 2254.44 251.024 Q2254.44 245.677 2252.91 240.469 Q2251.4 235.261 2248.33 229.937 Z" fill="#000000" fill-rule="nonzero" fill-opacity="1" /><circle clip-path="url(#clip700)" cx="2067.95" cy="300.469" r="20.48" fill="#c271d2" fill-rule="evenodd" fill-opacity="1" stroke="#000000" stroke-opacity="1" stroke-width="4.55111"/>
<path clip-path="url(#clip700)" d="M2186.4 291.823 L2177.03 304.439 L2186.89 317.749 L2181.87 317.749 L2174.32 307.563 L2166.78 317.749 L2161.75 317.749 L2171.82 304.184 L2162.61 291.823 L2167.63 291.823 L2174.51 301.059 L2181.38 291.823 L2186.4 291.823 Z" fill="#000000" fill-rule="nonzero" fill-opacity="1" /><path clip-path="url(#clip700)" d="M2194.65 315.11 L2204.46 315.11 L2204.46 317.749 L2190.62 317.749 L2190.62 315.202 Q2191.4 314.485 2192.86 313.188 Q2200.83 306.128 2200.83 303.952 Q2200.83 302.425 2199.62 301.499 Q2198.42 300.55 2196.45 300.55 Q2195.25 300.55 2193.84 300.966 Q2192.42 301.36 2190.76 302.17 L2190.76 299.323 Q2192.54 298.675 2194.07 298.351 Q2195.62 298.027 2196.94 298.027 Q2200.29 298.027 2202.31 299.554 Q2204.32 301.082 2204.32 303.582 Q2204.32 306.8 2196.66 313.374 Q2195.36 314.485 2194.65 315.11 Z" fill="#000000" fill-rule="nonzero" fill-opacity="1" /><path clip-path="url(#clip700)" d="M2222.15 281.777 Q2219.04 287.101 2217.54 292.309 Q2216.03 297.517 2216.03 302.864 Q2216.03 308.212 2217.54 313.466 Q2219.07 318.698 2222.15 323.999 L2218.44 323.999 Q2214.97 318.559 2213.23 313.304 Q2211.52 308.05 2211.52 302.864 Q2211.52 297.702 2213.23 292.471 Q2214.95 287.24 2218.44 281.777 L2222.15 281.777 Z" fill="#000000" fill-rule="nonzero" fill-opacity="1" /><path clip-path="url(#clip700)" d="M2234.62 284.462 L2234.62 291.823 L2243.4 291.823 L2243.4 295.133 L2234.62 295.133 L2234.62 309.207 Q2234.62 312.378 2235.48 313.281 Q2236.36 314.184 2239.02 314.184 L2243.4 314.184 L2243.4 317.749 L2239.02 317.749 Q2234.09 317.749 2232.21 315.92 Q2230.34 314.068 2230.34 309.207 L2230.34 295.133 L2227.21 295.133 L2227.21 291.823 L2230.34 291.823 L2230.34 284.462 L2234.62 284.462 Z" fill="#000000" fill-rule="nonzero" fill-opacity="1" /><path clip-path="url(#clip700)" d="M2248.33 281.777 L2252.03 281.777 Q2255.5 287.24 2257.21 292.471 Q2258.95 297.702 2258.95 302.864 Q2258.95 308.05 2257.21 313.304 Q2255.5 318.559 2252.03 323.999 L2248.33 323.999 Q2251.4 318.698 2252.91 313.466 Q2254.44 308.212 2254.44 302.864 Q2254.44 297.517 2252.91 292.309 Q2251.4 287.101 2248.33 281.777 Z" fill="#000000" fill-rule="nonzero" fill-opacity="1" /></svg>
