<?xml version="1.0" encoding="utf-8"?>
<svg xmlns="http://www.w3.org/2000/svg" xmlns:xlink="http://www.w3.org/1999/xlink" width="600" height="400" viewBox="0 0 2400 1600">
<defs>
  <clipPath id="clip820">
    <rect x="0" y="0" width="2400" height="1600"/>
  </clipPath>
</defs>
<path clip-path="url(#clip820)" d="M0 1600 L2400 1600 L2400 0 L0 0  Z" fill="#ffffff" fill-rule="evenodd" fill-opacity="1"/>
<defs>
  <clipPath id="clip821">
    <rect x="480" y="0" width="1681" height="1600"/>
  </clipPath>
</defs>
<path clip-path="url(#clip820)" d="M287.366 654.814 L2352.76 654.814 L2352.76 47.2441 L287.366 47.2441  Z" fill="#ffffff" fill-rule="evenodd" fill-opacity="1"/>
<defs>
  <clipPath id="clip822">
    <rect x="287" y="47" width="2066" height="609"/>
  </clipPath>
</defs>
<polyline clip-path="url(#clip822)" style="stroke:#000000; stroke-linecap:round; stroke-linejoin:round; stroke-width:2; stroke-opacity:0.1; fill:none" points="345.82,654.814 345.82,47.2441 "/>
<polyline clip-path="url(#clip822)" style="stroke:#000000; stroke-linecap:round; stroke-linejoin:round; stroke-width:2; stroke-opacity:0.1; fill:none" points="832.941,654.814 832.941,47.2441 "/>
<polyline clip-path="url(#clip822)" style="stroke:#000000; stroke-linecap:round; stroke-linejoin:round; stroke-width:2; stroke-opacity:0.1; fill:none" points="1320.06,654.814 1320.06,47.2441 "/>
<polyline clip-path="url(#clip822)" style="stroke:#000000; stroke-linecap:round; stroke-linejoin:round; stroke-width:2; stroke-opacity:0.1; fill:none" points="1807.18,654.814 1807.18,47.2441 "/>
<polyline clip-path="url(#clip822)" style="stroke:#000000; stroke-linecap:round; stroke-linejoin:round; stroke-width:2; stroke-opacity:0.1; fill:none" points="2294.3,654.814 2294.3,47.2441 "/>
<polyline clip-path="url(#clip822)" style="stroke:#000000; stroke-linecap:round; stroke-linejoin:round; stroke-width:2; stroke-opacity:0.1; fill:none" points="287.366,637.618 2352.76,637.618 "/>
<polyline clip-path="url(#clip822)" style="stroke:#000000; stroke-linecap:round; stroke-linejoin:round; stroke-width:2; stroke-opacity:0.1; fill:none" points="287.366,494.324 2352.76,494.324 "/>
<polyline clip-path="url(#clip822)" style="stroke:#000000; stroke-linecap:round; stroke-linejoin:round; stroke-width:2; stroke-opacity:0.1; fill:none" points="287.366,351.029 2352.76,351.029 "/>
<polyline clip-path="url(#clip822)" style="stroke:#000000; stroke-linecap:round; stroke-linejoin:round; stroke-width:2; stroke-opacity:0.1; fill:none" points="287.366,207.734 2352.76,207.734 "/>
<polyline clip-path="url(#clip822)" style="stroke:#000000; stroke-linecap:round; stroke-linejoin:round; stroke-width:2; stroke-opacity:0.1; fill:none" points="287.366,64.4395 2352.76,64.4395 "/>
<polyline clip-path="url(#clip820)" style="stroke:#000000; stroke-linecap:round; stroke-linejoin:round; stroke-width:4; stroke-opacity:1; fill:none" points="287.366,654.814 2352.76,654.814 "/>
<polyline clip-path="url(#clip820)" style="stroke:#000000; stroke-linecap:round; stroke-linejoin:round; stroke-width:4; stroke-opacity:1; fill:none" points="345.82,654.814 345.82,635.916 "/>
<polyline clip-path="url(#clip820)" style="stroke:#000000; stroke-linecap:round; stroke-linejoin:round; stroke-width:4; stroke-opacity:1; fill:none" points="832.941,654.814 832.941,635.916 "/>
<polyline clip-path="url(#clip820)" style="stroke:#000000; stroke-linecap:round; stroke-linejoin:round; stroke-width:4; stroke-opacity:1; fill:none" points="1320.06,654.814 1320.06,635.916 "/>
<polyline clip-path="url(#clip820)" style="stroke:#000000; stroke-linecap:round; stroke-linejoin:round; stroke-width:4; stroke-opacity:1; fill:none" points="1807.18,654.814 1807.18,635.916 "/>
<polyline clip-path="url(#clip820)" style="stroke:#000000; stroke-linecap:round; stroke-linejoin:round; stroke-width:4; stroke-opacity:1; fill:none" points="2294.3,654.814 2294.3,635.916 "/>
<path clip-path="url(#clip820)" d="M323.205 685.733 Q319.594 685.733 317.765 689.297 Q315.959 692.839 315.959 699.969 Q315.959 707.075 317.765 710.64 Q319.594 714.181 323.205 714.181 Q326.839 714.181 328.645 710.64 Q330.473 707.075 330.473 699.969 Q330.473 692.839 328.645 689.297 Q326.839 685.733 323.205 685.733 M323.205 682.029 Q329.015 682.029 332.07 686.635 Q335.149 691.219 335.149 699.969 Q335.149 708.695 332.07 713.302 Q329.015 717.885 323.205 717.885 Q317.395 717.885 314.316 713.302 Q311.26 708.695 311.26 699.969 Q311.26 691.219 314.316 686.635 Q317.395 682.029 323.205 682.029 Z" fill="#000000" fill-rule="nonzero" fill-opacity="1" /><path clip-path="url(#clip820)" d="M343.367 711.334 L348.251 711.334 L348.251 717.214 L343.367 717.214 L343.367 711.334 Z" fill="#000000" fill-rule="nonzero" fill-opacity="1" /><path clip-path="url(#clip820)" d="M368.436 685.733 Q364.825 685.733 362.996 689.297 Q361.191 692.839 361.191 699.969 Q361.191 707.075 362.996 710.64 Q364.825 714.181 368.436 714.181 Q372.07 714.181 373.876 710.64 Q375.704 707.075 375.704 699.969 Q375.704 692.839 373.876 689.297 Q372.07 685.733 368.436 685.733 M368.436 682.029 Q374.246 682.029 377.302 686.635 Q380.38 691.219 380.38 699.969 Q380.38 708.695 377.302 713.302 Q374.246 717.885 368.436 717.885 Q362.626 717.885 359.547 713.302 Q356.492 708.695 356.492 699.969 Q356.492 691.219 359.547 686.635 Q362.626 682.029 368.436 682.029 Z" fill="#000000" fill-rule="nonzero" fill-opacity="1" /><path clip-path="url(#clip820)" d="M804.677 713.279 L820.996 713.279 L820.996 717.214 L799.052 717.214 L799.052 713.279 Q801.714 710.524 806.297 705.894 Q810.904 701.242 812.084 699.899 Q814.33 697.376 815.209 695.64 Q816.112 693.881 816.112 692.191 Q816.112 689.436 814.168 687.7 Q812.246 685.964 809.144 685.964 Q806.945 685.964 804.492 686.728 Q802.061 687.492 799.283 689.043 L799.283 684.321 Q802.107 683.186 804.561 682.608 Q807.015 682.029 809.052 682.029 Q814.422 682.029 817.617 684.714 Q820.811 687.399 820.811 691.89 Q820.811 694.02 820.001 695.941 Q819.214 697.839 817.107 700.432 Q816.529 701.103 813.427 704.32 Q810.325 707.515 804.677 713.279 Z" fill="#000000" fill-rule="nonzero" fill-opacity="1" /><path clip-path="url(#clip820)" d="M830.811 711.334 L835.695 711.334 L835.695 717.214 L830.811 717.214 L830.811 711.334 Z" fill="#000000" fill-rule="nonzero" fill-opacity="1" /><path clip-path="url(#clip820)" d="M845.927 682.654 L864.283 682.654 L864.283 686.589 L850.209 686.589 L850.209 695.061 Q851.228 694.714 852.246 694.552 Q853.265 694.367 854.283 694.367 Q860.07 694.367 863.45 697.538 Q866.829 700.709 866.829 706.126 Q866.829 711.705 863.357 714.806 Q859.885 717.885 853.566 717.885 Q851.39 717.885 849.121 717.515 Q846.876 717.144 844.468 716.404 L844.468 711.705 Q846.552 712.839 848.774 713.394 Q850.996 713.95 853.473 713.95 Q857.478 713.95 859.815 711.844 Q862.153 709.737 862.153 706.126 Q862.153 702.515 859.815 700.408 Q857.478 698.302 853.473 698.302 Q851.598 698.302 849.723 698.719 Q847.871 699.135 845.927 700.015 L845.927 682.654 Z" fill="#000000" fill-rule="nonzero" fill-opacity="1" /><path clip-path="url(#clip820)" d="M1287.23 682.654 L1305.58 682.654 L1305.58 686.589 L1291.51 686.589 L1291.51 695.061 Q1292.53 694.714 1293.54 694.552 Q1294.56 694.367 1295.58 694.367 Q1301.37 694.367 1304.75 697.538 Q1308.13 700.709 1308.13 706.126 Q1308.13 711.705 1304.66 714.806 Q1301.18 717.885 1294.86 717.885 Q1292.69 717.885 1290.42 717.515 Q1288.17 717.144 1285.77 716.404 L1285.77 711.705 Q1287.85 712.839 1290.07 713.394 Q1292.29 713.95 1294.77 713.95 Q1298.78 713.95 1301.11 711.844 Q1303.45 709.737 1303.45 706.126 Q1303.45 702.515 1301.11 700.408 Q1298.78 698.302 1294.77 698.302 Q1292.9 698.302 1291.02 698.719 Q1289.17 699.135 1287.23 700.015 L1287.23 682.654 Z" fill="#000000" fill-rule="nonzero" fill-opacity="1" /><path clip-path="url(#clip820)" d="M1317.34 711.334 L1322.23 711.334 L1322.23 717.214 L1317.34 717.214 L1317.34 711.334 Z" fill="#000000" fill-rule="nonzero" fill-opacity="1" /><path clip-path="url(#clip820)" d="M1342.41 685.733 Q1338.8 685.733 1336.97 689.297 Q1335.16 692.839 1335.16 699.969 Q1335.16 707.075 1336.97 710.64 Q1338.8 714.181 1342.41 714.181 Q1346.04 714.181 1347.85 710.64 Q1349.68 707.075 1349.68 699.969 Q1349.68 692.839 1347.85 689.297 Q1346.04 685.733 1342.41 685.733 M1342.41 682.029 Q1348.22 682.029 1351.28 686.635 Q1354.35 691.219 1354.35 699.969 Q1354.35 708.695 1351.28 713.302 Q1348.22 717.885 1342.41 717.885 Q1336.6 717.885 1333.52 713.302 Q1330.47 708.695 1330.47 699.969 Q1330.47 691.219 1333.52 686.635 Q1336.6 682.029 1342.41 682.029 Z" fill="#000000" fill-rule="nonzero" fill-opacity="1" /><path clip-path="url(#clip820)" d="M1773.5 682.654 L1795.72 682.654 L1795.72 684.645 L1783.18 717.214 L1778.29 717.214 L1790.1 686.589 L1773.5 686.589 L1773.5 682.654 Z" fill="#000000" fill-rule="nonzero" fill-opacity="1" /><path clip-path="url(#clip820)" d="M1804.84 711.334 L1809.73 711.334 L1809.73 717.214 L1804.84 717.214 L1804.84 711.334 Z" fill="#000000" fill-rule="nonzero" fill-opacity="1" /><path clip-path="url(#clip820)" d="M1819.96 682.654 L1838.32 682.654 L1838.32 686.589 L1824.24 686.589 L1824.24 695.061 Q1825.26 694.714 1826.28 694.552 Q1827.3 694.367 1828.32 694.367 Q1834.1 694.367 1837.48 697.538 Q1840.86 700.709 1840.86 706.126 Q1840.86 711.705 1837.39 714.806 Q1833.92 717.885 1827.6 717.885 Q1825.42 717.885 1823.15 717.515 Q1820.91 717.144 1818.5 716.404 L1818.5 711.705 Q1820.58 712.839 1822.81 713.394 Q1825.03 713.95 1827.51 713.95 Q1831.51 713.95 1833.85 711.844 Q1836.19 709.737 1836.19 706.126 Q1836.19 702.515 1833.85 700.408 Q1831.51 698.302 1827.51 698.302 Q1825.63 698.302 1823.76 698.719 Q1821.9 699.135 1819.96 700.015 L1819.96 682.654 Z" fill="#000000" fill-rule="nonzero" fill-opacity="1" /><path clip-path="url(#clip820)" d="M2246.37 713.279 L2254.01 713.279 L2254.01 686.913 L2245.7 688.58 L2245.7 684.321 L2253.97 682.654 L2258.64 682.654 L2258.64 713.279 L2266.28 713.279 L2266.28 717.214 L2246.37 717.214 L2246.37 713.279 Z" fill="#000000" fill-rule="nonzero" fill-opacity="1" /><path clip-path="url(#clip820)" d="M2285.73 685.733 Q2282.11 685.733 2280.29 689.297 Q2278.48 692.839 2278.48 699.969 Q2278.48 707.075 2280.29 710.64 Q2282.11 714.181 2285.73 714.181 Q2289.36 714.181 2291.16 710.64 Q2292.99 707.075 2292.99 699.969 Q2292.99 692.839 2291.16 689.297 Q2289.36 685.733 2285.73 685.733 M2285.73 682.029 Q2291.54 682.029 2294.59 686.635 Q2297.67 691.219 2297.67 699.969 Q2297.67 708.695 2294.59 713.302 Q2291.54 717.885 2285.73 717.885 Q2279.91 717.885 2276.84 713.302 Q2273.78 708.695 2273.78 699.969 Q2273.78 691.219 2276.84 686.635 Q2279.91 682.029 2285.73 682.029 Z" fill="#000000" fill-rule="nonzero" fill-opacity="1" /><path clip-path="url(#clip820)" d="M2305.89 711.334 L2310.77 711.334 L2310.77 717.214 L2305.89 717.214 L2305.89 711.334 Z" fill="#000000" fill-rule="nonzero" fill-opacity="1" /><path clip-path="url(#clip820)" d="M2330.96 685.733 Q2327.35 685.733 2325.52 689.297 Q2323.71 692.839 2323.71 699.969 Q2323.71 707.075 2325.52 710.64 Q2327.35 714.181 2330.96 714.181 Q2334.59 714.181 2336.4 710.64 Q2338.22 707.075 2338.22 699.969 Q2338.22 692.839 2336.4 689.297 Q2334.59 685.733 2330.96 685.733 M2330.96 682.029 Q2336.77 682.029 2339.82 686.635 Q2342.9 691.219 2342.9 699.969 Q2342.9 708.695 2339.82 713.302 Q2336.77 717.885 2330.96 717.885 Q2325.15 717.885 2322.07 713.302 Q2319.01 708.695 2319.01 699.969 Q2319.01 691.219 2322.07 686.635 Q2325.15 682.029 2330.96 682.029 Z" fill="#000000" fill-rule="nonzero" fill-opacity="1" /><polyline clip-path="url(#clip820)" style="stroke:#000000; stroke-linecap:round; stroke-linejoin:round; stroke-width:4; stroke-opacity:1; fill:none" points="287.366,654.814 287.366,47.2441 "/>
<polyline clip-path="url(#clip820)" style="stroke:#000000; stroke-linecap:round; stroke-linejoin:round; stroke-width:4; stroke-opacity:1; fill:none" points="287.366,637.618 306.264,637.618 "/>
<polyline clip-path="url(#clip820)" style="stroke:#000000; stroke-linecap:round; stroke-linejoin:round; stroke-width:4; stroke-opacity:1; fill:none" points="287.366,494.324 306.264,494.324 "/>
<polyline clip-path="url(#clip820)" style="stroke:#000000; stroke-linecap:round; stroke-linejoin:round; stroke-width:4; stroke-opacity:1; fill:none" points="287.366,351.029 306.264,351.029 "/>
<polyline clip-path="url(#clip820)" style="stroke:#000000; stroke-linecap:round; stroke-linejoin:round; stroke-width:4; stroke-opacity:1; fill:none" points="287.366,207.734 306.264,207.734 "/>
<polyline clip-path="url(#clip820)" style="stroke:#000000; stroke-linecap:round; stroke-linejoin:round; stroke-width:4; stroke-opacity:1; fill:none" points="287.366,64.4395 306.264,64.4395 "/>
<path clip-path="url(#clip820)" d="M159.491 638.07 L189.167 638.07 L189.167 642.005 L159.491 642.005 L159.491 638.07 Z" fill="#000000" fill-rule="nonzero" fill-opacity="1" /><path clip-path="url(#clip820)" d="M200.07 650.963 L207.709 650.963 L207.709 624.598 L199.399 626.264 L199.399 622.005 L207.662 620.338 L212.338 620.338 L212.338 650.963 L219.977 650.963 L219.977 654.898 L200.07 654.898 L200.07 650.963 Z" fill="#000000" fill-rule="nonzero" fill-opacity="1" /><path clip-path="url(#clip820)" d="M239.422 623.417 Q235.81 623.417 233.982 626.982 Q232.176 630.524 232.176 637.653 Q232.176 644.76 233.982 648.324 Q235.81 651.866 239.422 651.866 Q243.056 651.866 244.861 648.324 Q246.69 644.76 246.69 637.653 Q246.69 630.524 244.861 626.982 Q243.056 623.417 239.422 623.417 M239.422 619.713 Q245.232 619.713 248.287 624.32 Q251.366 628.903 251.366 637.653 Q251.366 646.38 248.287 650.986 Q245.232 655.57 239.422 655.57 Q233.611 655.57 230.533 650.986 Q227.477 646.38 227.477 637.653 Q227.477 628.903 230.533 624.32 Q233.611 619.713 239.422 619.713 Z" fill="#000000" fill-rule="nonzero" fill-opacity="1" /><path clip-path="url(#clip820)" d="M190.649 494.775 L220.324 494.775 L220.324 498.71 L190.649 498.71 L190.649 494.775 Z" fill="#000000" fill-rule="nonzero" fill-opacity="1" /><path clip-path="url(#clip820)" d="M230.463 477.044 L248.82 477.044 L248.82 480.979 L234.746 480.979 L234.746 489.451 Q235.764 489.104 236.783 488.942 Q237.801 488.757 238.82 488.757 Q244.607 488.757 247.986 491.928 Q251.366 495.099 251.366 500.516 Q251.366 506.095 247.894 509.196 Q244.421 512.275 238.102 512.275 Q235.926 512.275 233.658 511.905 Q231.412 511.534 229.005 510.794 L229.005 506.095 Q231.088 507.229 233.31 507.784 Q235.533 508.34 238.009 508.34 Q242.014 508.34 244.352 506.233 Q246.69 504.127 246.69 500.516 Q246.69 496.905 244.352 494.798 Q242.014 492.692 238.009 492.692 Q236.135 492.692 234.26 493.108 Q232.408 493.525 230.463 494.405 L230.463 477.044 Z" fill="#000000" fill-rule="nonzero" fill-opacity="1" /><path clip-path="url(#clip820)" d="M239.422 336.828 Q235.81 336.828 233.982 340.392 Q232.176 343.934 232.176 351.064 Q232.176 358.17 233.982 361.735 Q235.81 365.277 239.422 365.277 Q243.056 365.277 244.861 361.735 Q246.69 358.17 246.69 351.064 Q246.69 343.934 244.861 340.392 Q243.056 336.828 239.422 336.828 M239.422 333.124 Q245.232 333.124 248.287 337.73 Q251.366 342.314 251.366 351.064 Q251.366 359.791 248.287 364.397 Q245.232 368.98 239.422 368.98 Q233.611 368.98 230.533 364.397 Q227.477 359.791 227.477 351.064 Q227.477 342.314 230.533 337.73 Q233.611 333.124 239.422 333.124 Z" fill="#000000" fill-rule="nonzero" fill-opacity="1" /><path clip-path="url(#clip820)" d="M230.463 190.454 L248.82 190.454 L248.82 194.389 L234.746 194.389 L234.746 202.862 Q235.764 202.514 236.783 202.352 Q237.801 202.167 238.82 202.167 Q244.607 202.167 247.986 205.338 Q251.366 208.51 251.366 213.926 Q251.366 219.505 247.894 222.607 Q244.421 225.686 238.102 225.686 Q235.926 225.686 233.658 225.315 Q231.412 224.945 229.005 224.204 L229.005 219.505 Q231.088 220.639 233.31 221.195 Q235.533 221.75 238.009 221.75 Q242.014 221.75 244.352 219.644 Q246.69 217.537 246.69 213.926 Q246.69 210.315 244.352 208.209 Q242.014 206.102 238.009 206.102 Q236.135 206.102 234.26 206.519 Q232.408 206.936 230.463 207.815 L230.463 190.454 Z" fill="#000000" fill-rule="nonzero" fill-opacity="1" /><path clip-path="url(#clip820)" d="M200.07 77.7843 L207.709 77.7843 L207.709 51.4187 L199.399 53.0854 L199.399 48.8261 L207.662 47.1595 L212.338 47.1595 L212.338 77.7843 L219.977 77.7843 L219.977 81.7195 L200.07 81.7195 L200.07 77.7843 Z" fill="#000000" fill-rule="nonzero" fill-opacity="1" /><path clip-path="url(#clip820)" d="M239.422 50.2382 Q235.81 50.2382 233.982 53.8029 Q232.176 57.3446 232.176 64.4742 Q232.176 71.5806 233.982 75.1454 Q235.81 78.6871 239.422 78.6871 Q243.056 78.6871 244.861 75.1454 Q246.69 71.5806 246.69 64.4742 Q246.69 57.3446 244.861 53.8029 Q243.056 50.2382 239.422 50.2382 M239.422 46.5345 Q245.232 46.5345 248.287 51.1409 Q251.366 55.7242 251.366 64.4742 Q251.366 73.201 248.287 77.8074 Q245.232 82.3908 239.422 82.3908 Q233.611 82.3908 230.533 77.8074 Q227.477 73.201 227.477 64.4742 Q227.477 55.7242 230.533 51.1409 Q233.611 46.5345 239.422 46.5345 Z" fill="#000000" fill-rule="nonzero" fill-opacity="1" /><path clip-path="url(#clip820)" d="M73.5874 334.414 L90.934 347.305 L109.235 333.746 L109.235 340.653 L95.2308 351.029 L109.235 361.405 L109.235 368.312 L90.5839 354.466 L73.5874 367.134 L73.5874 360.227 L86.287 350.774 L73.5874 341.321 L73.5874 334.414 Z" fill="#000000" fill-rule="nonzero" fill-opacity="1" /><polyline clip-path="url(#clip822)" style="stroke:#009af9; stroke-linecap:round; stroke-linejoin:round; stroke-width:4; stroke-opacity:1; fill:none" points="345.82,64.4395 355.563,79.8384 365.305,94.532 375.048,108.552 384.79,121.927 394.532,134.687 404.275,146.859 414.017,158.469 423.76,169.542 433.502,180.102 443.244,190.171 452.987,199.773 462.729,208.926 472.472,217.652 482.214,225.969 491.956,233.896 501.699,241.45 511.441,248.648 521.184,255.506 530.926,262.038 540.668,268.259 550.411,274.184 560.153,279.826 569.896,285.196 579.638,290.309 589.38,295.174 599.123,299.804 608.865,304.208 618.608,308.396 628.35,312.38 638.093,316.166 647.835,319.766 657.577,323.187 667.32,326.436 677.062,329.523 686.805,332.455 696.547,335.237 706.289,337.877 716.032,340.382 725.774,342.757 735.517,345.009 745.259,347.142 755.001,349.164 764.744,351.078 774.486,352.89 784.229,354.604 793.971,356.224 803.713,357.756 813.456,359.203 823.198,360.568 832.941,361.857 842.683,363.071 852.425,364.216 862.168,365.293 871.91,366.307 881.653,367.259 891.395,368.154 901.137,368.993 910.88,369.78 920.622,370.516 930.365,371.204 940.107,371.846 949.849,372.445 959.592,373.003 969.334,373.521 979.077,374.001 988.819,374.446 998.562,374.857 1008.3,375.235 1018.05,375.583 1027.79,375.901 1037.53,376.192 1047.27,376.455 1057.02,376.694 1066.76,376.908 1076.5,377.099 1086.24,377.269 1095.99,377.418 1105.73,377.548 1115.47,377.659 1125.21,377.753 1134.96,377.83 1144.7,377.891 1154.44,377.937 1164.18,377.969 1173.92,377.988 1183.67,377.993 1193.41,377.987 1203.15,377.969 1212.89,377.94 1222.64,377.9 1232.38,377.852 1242.12,377.793 1251.86,377.727 1261.61,377.652 1271.35,377.57 1281.09,377.48 1290.83,377.384 1300.58,377.282 1310.32,377.173 1320.06,377.059 1329.8,376.939 1339.55,376.815 1349.29,376.686 1359.03,376.552 1368.77,376.415 1378.52,376.273 1388.26,376.128 1398,375.98 1407.74,375.829 1417.48,375.675 1427.23,375.519 1436.97,375.36 1446.71,375.199 1456.45,375.036 1466.2,374.872 1475.94,374.706 1485.68,374.538 1495.42,374.369 1505.17,374.199 1514.91,374.028 1524.65,373.856 1534.39,373.683 1544.14,373.509 1553.88,373.335 1563.62,373.16 1573.36,372.985 1583.11,372.81 1592.85,372.634 1602.59,372.459 1612.33,372.283 1622.08,372.108 1631.82,371.933 1641.56,371.758 1651.3,371.583 1661.05,371.409 1670.79,371.235 1680.53,371.062 1690.27,370.889 1700.01,370.716 1709.76,370.545 1719.5,370.374 1729.24,370.203 1738.98,370.033 1748.73,369.864 1758.47,369.696 1768.21,369.529 1777.95,369.362 1787.7,369.196 1797.44,369.032 1807.18,368.868 1816.92,368.705 1826.67,368.543 1836.41,368.382 1846.15,368.222 1855.89,368.064 1865.64,367.906 1875.38,367.749 1885.12,367.594 1894.86,367.439 1904.61,367.286 1914.35,367.133 1924.09,366.982 1933.83,366.832 1943.57,366.683 1953.32,366.535 1963.06,366.388 1972.8,366.243 1982.54,366.098 1992.29,365.955 2002.03,365.812 2011.77,365.671 2021.51,365.531 2031.26,365.392 2041,365.254 2050.74,365.118 2060.48,364.982 2070.23,364.848 2079.97,364.715 2089.71,364.583 2099.45,364.452 2109.2,364.322 2118.94,364.194 2128.68,364.066 2138.42,363.94 2148.17,363.814 2157.91,363.69 2167.65,363.567 2177.39,363.445 2187.14,363.324 2196.88,363.205 2206.62,363.086 2216.36,362.968 2226.1,362.852 2235.85,362.736 2245.59,362.622 2255.33,362.508 2265.07,362.396 2274.82,362.285 2284.56,362.174 2294.3,362.065 "/>
<polyline clip-path="url(#clip822)" style="stroke:#e26f46; stroke-linecap:round; stroke-linejoin:round; stroke-width:4; stroke-opacity:1; fill:none" points="345.82,637.618 355.563,634.767 365.305,631.944 375.048,629.148 384.79,626.381 394.532,623.641 404.275,620.929 414.017,618.243 423.76,615.584 433.502,612.952 443.244,610.346 452.987,607.766 462.729,605.211 472.472,602.682 482.214,600.178 491.956,597.699 501.699,595.244 511.441,592.814 521.184,590.409 530.926,588.027 540.668,585.669 550.411,583.334 560.153,581.022 569.896,578.734 579.638,576.468 589.38,574.225 599.123,572.004 608.865,569.806 618.608,567.629 628.35,565.473 638.093,563.34 647.835,561.227 657.577,559.136 667.32,557.065 677.062,555.015 686.805,552.985 696.547,550.976 706.289,548.986 716.032,547.016 725.774,545.066 735.517,543.136 745.259,541.224 755.001,539.332 764.744,537.458 774.486,535.603 784.229,533.767 793.971,531.948 803.713,530.148 813.456,528.366 823.198,526.601 832.941,524.854 842.683,523.125 852.425,521.412 862.168,519.717 871.91,518.039 881.653,516.377 891.395,514.732 901.137,513.103 910.88,511.49 920.622,509.893 930.365,508.313 940.107,506.748 949.849,505.198 959.592,503.664 969.334,502.145 979.077,500.642 988.819,499.153 998.562,497.679 1008.3,496.22 1018.05,494.775 1027.79,493.345 1037.53,491.929 1047.27,490.527 1057.02,489.139 1066.76,487.765 1076.5,486.404 1086.24,485.057 1095.99,483.724 1105.73,482.403 1115.47,481.096 1125.21,479.802 1134.96,478.521 1144.7,477.252 1154.44,475.996 1164.18,474.753 1173.92,473.522 1183.67,472.303 1193.41,471.096 1203.15,469.901 1212.89,468.719 1222.64,467.548 1232.38,466.388 1242.12,465.24 1251.86,464.104 1261.61,462.979 1271.35,461.865 1281.09,460.762 1290.83,459.67 1300.58,458.589 1310.32,457.519 1320.06,456.459 1329.8,455.41 1339.55,454.372 1349.29,453.343 1359.03,452.325 1368.77,451.317 1378.52,450.32 1388.26,449.332 1398,448.353 1407.74,447.385 1417.48,446.426 1427.23,445.477 1436.97,444.537 1446.71,443.607 1456.45,442.686 1466.2,441.774 1475.94,440.871 1485.68,439.977 1495.42,439.092 1505.17,438.216 1514.91,437.348 1524.65,436.489 1534.39,435.639 1544.14,434.797 1553.88,433.963 1563.62,433.138 1573.36,432.321 1583.11,431.512 1592.85,430.712 1602.59,429.919 1612.33,429.134 1622.08,428.357 1631.82,427.587 1641.56,426.825 1651.3,426.071 1661.05,425.325 1670.79,424.585 1680.53,423.853 1690.27,423.129 1700.01,422.411 1709.76,421.701 1719.5,420.998 1729.24,420.302 1738.98,419.612 1748.73,418.93 1758.47,418.254 1768.21,417.585 1777.95,416.923 1787.7,416.268 1797.44,415.618 1807.18,414.976 1816.92,414.339 1826.67,413.71 1836.41,413.086 1846.15,412.468 1855.89,411.857 1865.64,411.252 1875.38,410.653 1885.12,410.059 1894.86,409.472 1904.61,408.89 1914.35,408.315 1924.09,407.745 1933.83,407.18 1943.57,406.622 1953.32,406.068 1963.06,405.521 1972.8,404.979 1982.54,404.442 1992.29,403.91 2002.03,403.384 2011.77,402.863 2021.51,402.347 2031.26,401.837 2041,401.331 2050.74,400.831 2060.48,400.335 2070.23,399.845 2079.97,399.359 2089.71,398.878 2099.45,398.402 2109.2,397.931 2118.94,397.464 2128.68,397.002 2138.42,396.544 2148.17,396.091 2157.91,395.643 2167.65,395.199 2177.39,394.76 2187.14,394.325 2196.88,393.894 2206.62,393.467 2216.36,393.045 2226.1,392.627 2235.85,392.213 2245.59,391.803 2255.33,391.398 2265.07,390.996 2274.82,390.598 2284.56,390.204 2294.3,389.815 "/>
<path clip-path="url(#clip820)" d="M1980.17 223.016 L2283.91 223.016 L2283.91 67.4964 L1980.17 67.4964  Z" fill="#ffffff" fill-rule="evenodd" fill-opacity="1"/>
<polyline clip-path="url(#clip820)" style="stroke:#000000; stroke-linecap:round; stroke-linejoin:round; stroke-width:4; stroke-opacity:1; fill:none" points="1980.17,223.016 2283.91,223.016 2283.91,67.4964 1980.17,67.4964 1980.17,223.016 "/>
<polyline clip-path="url(#clip820)" style="stroke:#009af9; stroke-linecap:round; stroke-linejoin:round; stroke-width:4; stroke-opacity:1; fill:none" points="2003.12,119.336 2140.81,119.336 "/>
<path clip-path="url(#clip820)" d="M2188.41 110.691 L2179.04 123.306 L2188.9 136.616 L2183.88 136.616 L2176.33 126.431 L2168.79 136.616 L2163.76 136.616 L2173.83 123.052 L2164.62 110.691 L2169.64 110.691 L2176.52 119.927 L2183.39 110.691 L2188.41 110.691 Z" fill="#000000" fill-rule="nonzero" fill-opacity="1" /><path clip-path="url(#clip820)" d="M2194.06 134.07 L2198.79 134.07 L2198.79 119.927 L2193.62 120.876 L2193.62 118.191 L2198.95 117.288 L2202.12 117.288 L2202.12 134.07 L2206.86 134.07 L2206.86 136.616 L2194.06 136.616 L2194.06 134.07 Z" fill="#000000" fill-rule="nonzero" fill-opacity="1" /><path clip-path="url(#clip820)" d="M2224.16 100.644 Q2221.05 105.968 2219.55 111.177 Q2218.04 116.385 2218.04 121.732 Q2218.04 127.079 2219.55 132.334 Q2221.08 137.565 2224.16 142.866 L2220.45 142.866 Q2216.98 137.427 2215.24 132.172 Q2213.53 126.917 2213.53 121.732 Q2213.53 116.57 2215.24 111.339 Q2216.96 106.107 2220.45 100.644 L2224.16 100.644 Z" fill="#000000" fill-rule="nonzero" fill-opacity="1" /><path clip-path="url(#clip820)" d="M2236.63 103.33 L2236.63 110.691 L2245.41 110.691 L2245.41 114.001 L2236.63 114.001 L2236.63 128.075 Q2236.63 131.246 2237.49 132.149 Q2238.37 133.052 2241.03 133.052 L2245.41 133.052 L2245.41 136.616 L2241.03 136.616 Q2236.1 136.616 2234.22 134.788 Q2232.35 132.936 2232.35 128.075 L2232.35 114.001 L2229.22 114.001 L2229.22 110.691 L2232.35 110.691 L2232.35 103.33 L2236.63 103.33 Z" fill="#000000" fill-rule="nonzero" fill-opacity="1" /><path clip-path="url(#clip820)" d="M2250.34 100.644 L2254.04 100.644 Q2257.51 106.107 2259.22 111.339 Q2260.96 116.57 2260.96 121.732 Q2260.96 126.917 2259.22 132.172 Q2257.51 137.427 2254.04 142.866 L2250.34 142.866 Q2253.41 137.565 2254.92 132.334 Q2256.45 127.079 2256.45 121.732 Q2256.45 116.385 2254.92 111.177 Q2253.41 105.968 2250.34 100.644 Z" fill="#000000" fill-rule="nonzero" fill-opacity="1" /><polyline clip-path="url(#clip820)" style="stroke:#e26f46; stroke-linecap:round; stroke-linejoin:round; stroke-width:4; stroke-opacity:1; fill:none" points="2003.12,171.176 2140.81,171.176 "/>
<path clip-path="url(#clip820)" d="M2188.41 162.531 L2179.04 175.146 L2188.9 188.456 L2183.88 188.456 L2176.33 178.271 L2168.79 188.456 L2163.76 188.456 L2173.83 174.892 L2164.62 162.531 L2169.64 162.531 L2176.52 171.767 L2183.39 162.531 L2188.41 162.531 Z" fill="#000000" fill-rule="nonzero" fill-opacity="1" /><path clip-path="url(#clip820)" d="M2196.66 185.818 L2206.47 185.818 L2206.47 188.456 L2192.63 188.456 L2192.63 185.91 Q2193.41 185.193 2194.87 183.896 Q2202.84 176.836 2202.84 174.66 Q2202.84 173.132 2201.63 172.207 Q2200.43 171.257 2198.46 171.257 Q2197.26 171.257 2195.85 171.674 Q2194.43 172.068 2192.77 172.878 L2192.77 170.031 Q2194.55 169.382 2196.08 169.058 Q2197.63 168.734 2198.95 168.734 Q2202.3 168.734 2204.32 170.262 Q2206.33 171.79 2206.33 174.29 Q2206.33 177.507 2198.67 184.081 Q2197.37 185.193 2196.66 185.818 Z" fill="#000000" fill-rule="nonzero" fill-opacity="1" /><path clip-path="url(#clip820)" d="M2224.16 152.484 Q2221.05 157.808 2219.55 163.017 Q2218.04 168.225 2218.04 173.572 Q2218.04 178.919 2219.55 184.174 Q2221.08 189.405 2224.16 194.706 L2220.45 194.706 Q2216.98 189.267 2215.24 184.012 Q2213.53 178.757 2213.53 173.572 Q2213.53 168.41 2215.24 163.179 Q2216.96 157.947 2220.45 152.484 L2224.16 152.484 Z" fill="#000000" fill-rule="nonzero" fill-opacity="1" /><path clip-path="url(#clip820)" d="M2236.63 155.17 L2236.63 162.531 L2245.41 162.531 L2245.41 165.841 L2236.63 165.841 L2236.63 179.915 Q2236.63 183.086 2237.49 183.989 Q2238.37 184.892 2241.03 184.892 L2245.41 184.892 L2245.41 188.456 L2241.03 188.456 Q2236.1 188.456 2234.22 186.628 Q2232.35 184.776 2232.35 179.915 L2232.35 165.841 L2229.22 165.841 L2229.22 162.531 L2232.35 162.531 L2232.35 155.17 L2236.63 155.17 Z" fill="#000000" fill-rule="nonzero" fill-opacity="1" /><path clip-path="url(#clip820)" d="M2250.34 152.484 L2254.04 152.484 Q2257.51 157.947 2259.22 163.179 Q2260.96 168.41 2260.96 173.572 Q2260.96 178.757 2259.22 184.012 Q2257.51 189.267 2254.04 194.706 L2250.34 194.706 Q2253.41 189.405 2254.92 184.174 Q2256.45 178.919 2256.45 173.572 Q2256.45 168.225 2254.92 163.017 Q2253.41 157.808 2250.34 152.484 Z" fill="#000000" fill-rule="nonzero" fill-opacity="1" /><path clip-path="url(#clip820)" d="M287.366 1423.18 L2352.76 1423.18 L2352.76 815.61 L287.366 815.61  Z" fill="#ffffff" fill-rule="evenodd" fill-opacity="1"/>
<defs>
  <clipPath id="clip823">
    <rect x="287" y="815" width="2066" height="609"/>
  </clipPath>
</defs>
<polyline clip-path="url(#clip823)" style="stroke:#000000; stroke-linecap:round; stroke-linejoin:round; stroke-width:2; stroke-opacity:0.1; fill:none" points="345.82,1423.18 345.82,815.61 "/>
<polyline clip-path="url(#clip823)" style="stroke:#000000; stroke-linecap:round; stroke-linejoin:round; stroke-width:2; stroke-opacity:0.1; fill:none" points="832.941,1423.18 832.941,815.61 "/>
<polyline clip-path="url(#clip823)" style="stroke:#000000; stroke-linecap:round; stroke-linejoin:round; stroke-width:2; stroke-opacity:0.1; fill:none" points="1320.06,1423.18 1320.06,815.61 "/>
<polyline clip-path="url(#clip823)" style="stroke:#000000; stroke-linecap:round; stroke-linejoin:round; stroke-width:2; stroke-opacity:0.1; fill:none" points="1807.18,1423.18 1807.18,815.61 "/>
<polyline clip-path="url(#clip823)" style="stroke:#000000; stroke-linecap:round; stroke-linejoin:round; stroke-width:2; stroke-opacity:0.1; fill:none" points="2294.3,1423.18 2294.3,815.61 "/>
<polyline clip-path="url(#clip823)" style="stroke:#000000; stroke-linecap:round; stroke-linejoin:round; stroke-width:2; stroke-opacity:0.1; fill:none" points="287.366,1372.4 2352.76,1372.4 "/>
<polyline clip-path="url(#clip823)" style="stroke:#000000; stroke-linecap:round; stroke-linejoin:round; stroke-width:2; stroke-opacity:0.1; fill:none" points="287.366,1259.89 2352.76,1259.89 "/>
<polyline clip-path="url(#clip823)" style="stroke:#000000; stroke-linecap:round; stroke-linejoin:round; stroke-width:2; stroke-opacity:0.1; fill:none" points="287.366,1147.38 2352.76,1147.38 "/>
<polyline clip-path="url(#clip823)" style="stroke:#000000; stroke-linecap:round; stroke-linejoin:round; stroke-width:2; stroke-opacity:0.1; fill:none" points="287.366,1034.87 2352.76,1034.87 "/>
<polyline clip-path="url(#clip823)" style="stroke:#000000; stroke-linecap:round; stroke-linejoin:round; stroke-width:2; stroke-opacity:0.1; fill:none" points="287.366,922.363 2352.76,922.363 "/>
<polyline clip-path="url(#clip820)" style="stroke:#000000; stroke-linecap:round; stroke-linejoin:round; stroke-width:4; stroke-opacity:1; fill:none" points="287.366,1423.18 2352.76,1423.18 "/>
<polyline clip-path="url(#clip820)" style="stroke:#000000; stroke-linecap:round; stroke-linejoin:round; stroke-width:4; stroke-opacity:1; fill:none" points="345.82,1423.18 345.82,1404.28 "/>
<polyline clip-path="url(#clip820)" style="stroke:#000000; stroke-linecap:round; stroke-linejoin:round; stroke-width:4; stroke-opacity:1; fill:none" points="832.941,1423.18 832.941,1404.28 "/>
<polyline clip-path="url(#clip820)" style="stroke:#000000; stroke-linecap:round; stroke-linejoin:round; stroke-width:4; stroke-opacity:1; fill:none" points="1320.06,1423.18 1320.06,1404.28 "/>
<polyline clip-path="url(#clip820)" style="stroke:#000000; stroke-linecap:round; stroke-linejoin:round; stroke-width:4; stroke-opacity:1; fill:none" points="1807.18,1423.18 1807.18,1404.28 "/>
<polyline clip-path="url(#clip820)" style="stroke:#000000; stroke-linecap:round; stroke-linejoin:round; stroke-width:4; stroke-opacity:1; fill:none" points="2294.3,1423.18 2294.3,1404.28 "/>
<path clip-path="url(#clip820)" d="M323.205 1454.1 Q319.594 1454.1 317.765 1457.66 Q315.959 1461.2 315.959 1468.33 Q315.959 1475.44 317.765 1479.01 Q319.594 1482.55 323.205 1482.55 Q326.839 1482.55 328.645 1479.01 Q330.473 1475.44 330.473 1468.33 Q330.473 1461.2 328.645 1457.66 Q326.839 1454.1 323.205 1454.1 M323.205 1450.39 Q329.015 1450.39 332.07 1455 Q335.149 1459.58 335.149 1468.33 Q335.149 1477.06 332.07 1481.67 Q329.015 1486.25 323.205 1486.25 Q317.395 1486.25 314.316 1481.67 Q311.26 1477.06 311.26 1468.33 Q311.26 1459.58 314.316 1455 Q317.395 1450.39 323.205 1450.39 Z" fill="#000000" fill-rule="nonzero" fill-opacity="1" /><path clip-path="url(#clip820)" d="M343.367 1479.7 L348.251 1479.7 L348.251 1485.58 L343.367 1485.58 L343.367 1479.7 Z" fill="#000000" fill-rule="nonzero" fill-opacity="1" /><path clip-path="url(#clip820)" d="M368.436 1454.1 Q364.825 1454.1 362.996 1457.66 Q361.191 1461.2 361.191 1468.33 Q361.191 1475.44 362.996 1479.01 Q364.825 1482.55 368.436 1482.55 Q372.07 1482.55 373.876 1479.01 Q375.704 1475.44 375.704 1468.33 Q375.704 1461.2 373.876 1457.66 Q372.07 1454.1 368.436 1454.1 M368.436 1450.39 Q374.246 1450.39 377.302 1455 Q380.38 1459.58 380.38 1468.33 Q380.38 1477.06 377.302 1481.67 Q374.246 1486.25 368.436 1486.25 Q362.626 1486.25 359.547 1481.67 Q356.492 1477.06 356.492 1468.33 Q356.492 1459.58 359.547 1455 Q362.626 1450.39 368.436 1450.39 Z" fill="#000000" fill-rule="nonzero" fill-opacity="1" /><path clip-path="url(#clip820)" d="M804.677 1481.64 L820.996 1481.64 L820.996 1485.58 L799.052 1485.58 L799.052 1481.64 Q801.714 1478.89 806.297 1474.26 Q810.904 1469.61 812.084 1468.27 Q814.33 1465.74 815.209 1464.01 Q816.112 1462.25 816.112 1460.56 Q816.112 1457.8 814.168 1456.07 Q812.246 1454.33 809.144 1454.33 Q806.945 1454.33 804.492 1455.09 Q802.061 1455.86 799.283 1457.41 L799.283 1452.69 Q802.107 1451.55 804.561 1450.97 Q807.015 1450.39 809.052 1450.39 Q814.422 1450.39 817.617 1453.08 Q820.811 1455.77 820.811 1460.26 Q820.811 1462.39 820.001 1464.31 Q819.214 1466.2 817.107 1468.8 Q816.529 1469.47 813.427 1472.69 Q810.325 1475.88 804.677 1481.64 Z" fill="#000000" fill-rule="nonzero" fill-opacity="1" /><path clip-path="url(#clip820)" d="M830.811 1479.7 L835.695 1479.7 L835.695 1485.58 L830.811 1485.58 L830.811 1479.7 Z" fill="#000000" fill-rule="nonzero" fill-opacity="1" /><path clip-path="url(#clip820)" d="M845.927 1451.02 L864.283 1451.02 L864.283 1454.96 L850.209 1454.96 L850.209 1463.43 Q851.228 1463.08 852.246 1462.92 Q853.265 1462.73 854.283 1462.73 Q860.07 1462.73 863.45 1465.9 Q866.829 1469.08 866.829 1474.49 Q866.829 1480.07 863.357 1483.17 Q859.885 1486.25 853.566 1486.25 Q851.39 1486.25 849.121 1485.88 Q846.876 1485.51 844.468 1484.77 L844.468 1480.07 Q846.552 1481.2 848.774 1481.76 Q850.996 1482.32 853.473 1482.32 Q857.478 1482.32 859.815 1480.21 Q862.153 1478.1 862.153 1474.49 Q862.153 1470.88 859.815 1468.77 Q857.478 1466.67 853.473 1466.67 Q851.598 1466.67 849.723 1467.08 Q847.871 1467.5 845.927 1468.38 L845.927 1451.02 Z" fill="#000000" fill-rule="nonzero" fill-opacity="1" /><path clip-path="url(#clip820)" d="M1287.23 1451.02 L1305.58 1451.02 L1305.58 1454.96 L1291.51 1454.96 L1291.51 1463.43 Q1292.53 1463.08 1293.54 1462.92 Q1294.56 1462.73 1295.58 1462.73 Q1301.37 1462.73 1304.75 1465.9 Q1308.13 1469.08 1308.13 1474.49 Q1308.13 1480.07 1304.66 1483.17 Q1301.18 1486.25 1294.86 1486.25 Q1292.69 1486.25 1290.42 1485.88 Q1288.17 1485.51 1285.77 1484.77 L1285.77 1480.07 Q1287.85 1481.2 1290.07 1481.76 Q1292.29 1482.32 1294.77 1482.32 Q1298.78 1482.32 1301.11 1480.21 Q1303.45 1478.1 1303.45 1474.49 Q1303.45 1470.88 1301.11 1468.77 Q1298.78 1466.67 1294.77 1466.67 Q1292.9 1466.67 1291.02 1467.08 Q1289.17 1467.5 1287.23 1468.38 L1287.23 1451.02 Z" fill="#000000" fill-rule="nonzero" fill-opacity="1" /><path clip-path="url(#clip820)" d="M1317.34 1479.7 L1322.23 1479.7 L1322.23 1485.58 L1317.34 1485.58 L1317.34 1479.7 Z" fill="#000000" fill-rule="nonzero" fill-opacity="1" /><path clip-path="url(#clip820)" d="M1342.41 1454.1 Q1338.8 1454.1 1336.97 1457.66 Q1335.16 1461.2 1335.16 1468.33 Q1335.16 1475.44 1336.97 1479.01 Q1338.8 1482.55 1342.41 1482.55 Q1346.04 1482.55 1347.85 1479.01 Q1349.68 1475.44 1349.68 1468.33 Q1349.68 1461.2 1347.85 1457.66 Q1346.04 1454.1 1342.41 1454.1 M1342.41 1450.39 Q1348.22 1450.39 1351.28 1455 Q1354.35 1459.58 1354.35 1468.33 Q1354.35 1477.06 1351.28 1481.67 Q1348.22 1486.25 1342.41 1486.25 Q1336.6 1486.25 1333.52 1481.67 Q1330.47 1477.06 1330.47 1468.33 Q1330.47 1459.58 1333.52 1455 Q1336.6 1450.39 1342.41 1450.39 Z" fill="#000000" fill-rule="nonzero" fill-opacity="1" /><path clip-path="url(#clip820)" d="M1773.5 1451.02 L1795.72 1451.02 L1795.72 1453.01 L1783.18 1485.58 L1778.29 1485.58 L1790.1 1454.96 L1773.5 1454.96 L1773.5 1451.02 Z" fill="#000000" fill-rule="nonzero" fill-opacity="1" /><path clip-path="url(#clip820)" d="M1804.84 1479.7 L1809.73 1479.7 L1809.73 1485.58 L1804.84 1485.58 L1804.84 1479.7 Z" fill="#000000" fill-rule="nonzero" fill-opacity="1" /><path clip-path="url(#clip820)" d="M1819.96 1451.02 L1838.32 1451.02 L1838.32 1454.96 L1824.24 1454.96 L1824.24 1463.43 Q1825.26 1463.08 1826.28 1462.92 Q1827.3 1462.73 1828.32 1462.73 Q1834.1 1462.73 1837.48 1465.9 Q1840.86 1469.08 1840.86 1474.49 Q1840.86 1480.07 1837.39 1483.17 Q1833.92 1486.25 1827.6 1486.25 Q1825.42 1486.25 1823.15 1485.88 Q1820.91 1485.51 1818.5 1484.77 L1818.5 1480.07 Q1820.58 1481.2 1822.81 1481.76 Q1825.03 1482.32 1827.51 1482.32 Q1831.51 1482.32 1833.85 1480.21 Q1836.19 1478.1 1836.19 1474.49 Q1836.19 1470.88 1833.85 1468.77 Q1831.51 1466.67 1827.51 1466.67 Q1825.63 1466.67 1823.76 1467.08 Q1821.9 1467.5 1819.96 1468.38 L1819.96 1451.02 Z" fill="#000000" fill-rule="nonzero" fill-opacity="1" /><path clip-path="url(#clip820)" d="M2246.37 1481.64 L2254.01 1481.64 L2254.01 1455.28 L2245.7 1456.95 L2245.7 1452.69 L2253.97 1451.02 L2258.64 1451.02 L2258.64 1481.64 L2266.28 1481.64 L2266.28 1485.58 L2246.37 1485.58 L2246.37 1481.64 Z" fill="#000000" fill-rule="nonzero" fill-opacity="1" /><path clip-path="url(#clip820)" d="M2285.73 1454.1 Q2282.11 1454.1 2280.29 1457.66 Q2278.48 1461.2 2278.48 1468.33 Q2278.48 1475.44 2280.29 1479.01 Q2282.11 1482.55 2285.73 1482.55 Q2289.36 1482.55 2291.16 1479.01 Q2292.99 1475.44 2292.99 1468.33 Q2292.99 1461.2 2291.16 1457.66 Q2289.36 1454.1 2285.73 1454.1 M2285.73 1450.39 Q2291.54 1450.39 2294.59 1455 Q2297.67 1459.58 2297.67 1468.33 Q2297.67 1477.06 2294.59 1481.67 Q2291.54 1486.25 2285.73 1486.25 Q2279.91 1486.25 2276.84 1481.67 Q2273.78 1477.06 2273.78 1468.33 Q2273.78 1459.58 2276.84 1455 Q2279.91 1450.39 2285.73 1450.39 Z" fill="#000000" fill-rule="nonzero" fill-opacity="1" /><path clip-path="url(#clip820)" d="M2305.89 1479.7 L2310.77 1479.7 L2310.77 1485.58 L2305.89 1485.58 L2305.89 1479.7 Z" fill="#000000" fill-rule="nonzero" fill-opacity="1" /><path clip-path="url(#clip820)" d="M2330.96 1454.1 Q2327.35 1454.1 2325.52 1457.66 Q2323.71 1461.2 2323.71 1468.33 Q2323.71 1475.44 2325.52 1479.01 Q2327.35 1482.55 2330.96 1482.55 Q2334.59 1482.55 2336.4 1479.01 Q2338.22 1475.44 2338.22 1468.33 Q2338.22 1461.2 2336.4 1457.66 Q2334.59 1454.1 2330.96 1454.1 M2330.96 1450.39 Q2336.77 1450.39 2339.82 1455 Q2342.9 1459.58 2342.9 1468.33 Q2342.9 1477.06 2339.82 1481.67 Q2336.77 1486.25 2330.96 1486.25 Q2325.15 1486.25 2322.07 1481.67 Q2319.01 1477.06 2319.01 1468.33 Q2319.01 1459.58 2322.07 1455 Q2325.15 1450.39 2330.96 1450.39 Z" fill="#000000" fill-rule="nonzero" fill-opacity="1" /><path clip-path="url(#clip820)" d="M1319.12 1522.27 L1319.12 1532.4 L1331.18 1532.4 L1331.18 1536.95 L1319.12 1536.95 L1319.12 1556.3 Q1319.12 1560.66 1320.3 1561.9 Q1321.51 1563.14 1325.17 1563.14 L1331.18 1563.14 L1331.18 1568.04 L1325.17 1568.04 Q1318.39 1568.04 1315.81 1565.53 Q1313.23 1562.98 1313.23 1556.3 L1313.23 1536.95 L1308.94 1536.95 L1308.94 1532.4 L1313.23 1532.4 L1313.23 1522.27 L1319.12 1522.27 Z" fill="#000000" fill-rule="nonzero" fill-opacity="1" /><polyline clip-path="url(#clip820)" style="stroke:#000000; stroke-linecap:round; stroke-linejoin:round; stroke-width:4; stroke-opacity:1; fill:none" points="287.366,1423.18 287.366,815.61 "/>
<polyline clip-path="url(#clip820)" style="stroke:#000000; stroke-linecap:round; stroke-linejoin:round; stroke-width:4; stroke-opacity:1; fill:none" points="287.366,1372.4 306.264,1372.4 "/>
<polyline clip-path="url(#clip820)" style="stroke:#000000; stroke-linecap:round; stroke-linejoin:round; stroke-width:4; stroke-opacity:1; fill:none" points="287.366,1259.89 306.264,1259.89 "/>
<polyline clip-path="url(#clip820)" style="stroke:#000000; stroke-linecap:round; stroke-linejoin:round; stroke-width:4; stroke-opacity:1; fill:none" points="287.366,1147.38 306.264,1147.38 "/>
<polyline clip-path="url(#clip820)" style="stroke:#000000; stroke-linecap:round; stroke-linejoin:round; stroke-width:4; stroke-opacity:1; fill:none" points="287.366,1034.87 306.264,1034.87 "/>
<polyline clip-path="url(#clip820)" style="stroke:#000000; stroke-linecap:round; stroke-linejoin:round; stroke-width:4; stroke-opacity:1; fill:none" points="287.366,922.363 306.264,922.363 "/>
<path clip-path="url(#clip820)" d="M114.26 1372.85 L143.936 1372.85 L143.936 1376.78 L114.26 1376.78 L114.26 1372.85 Z" fill="#000000" fill-rule="nonzero" fill-opacity="1" /><path clip-path="url(#clip820)" d="M154.839 1385.74 L162.477 1385.74 L162.477 1359.38 L154.167 1361.04 L154.167 1356.78 L162.431 1355.12 L167.107 1355.12 L167.107 1385.74 L174.746 1385.74 L174.746 1389.68 L154.839 1389.68 L154.839 1385.74 Z" fill="#000000" fill-rule="nonzero" fill-opacity="1" /><path clip-path="url(#clip820)" d="M194.19 1358.19 Q190.579 1358.19 188.75 1361.76 Q186.945 1365.3 186.945 1372.43 Q186.945 1379.54 188.75 1383.1 Q190.579 1386.64 194.19 1386.64 Q197.825 1386.64 199.63 1383.1 Q201.459 1379.54 201.459 1372.43 Q201.459 1365.3 199.63 1361.76 Q197.825 1358.19 194.19 1358.19 M194.19 1354.49 Q200 1354.49 203.056 1359.1 Q206.135 1363.68 206.135 1372.43 Q206.135 1381.16 203.056 1385.76 Q200 1390.35 194.19 1390.35 Q188.38 1390.35 185.301 1385.76 Q182.246 1381.16 182.246 1372.43 Q182.246 1363.68 185.301 1359.1 Q188.38 1354.49 194.19 1354.49 Z" fill="#000000" fill-rule="nonzero" fill-opacity="1" /><path clip-path="url(#clip820)" d="M214.352 1383.8 L219.236 1383.8 L219.236 1389.68 L214.352 1389.68 L214.352 1383.8 Z" fill="#000000" fill-rule="nonzero" fill-opacity="1" /><path clip-path="url(#clip820)" d="M239.422 1358.19 Q235.81 1358.19 233.982 1361.76 Q232.176 1365.3 232.176 1372.43 Q232.176 1379.54 233.982 1383.1 Q235.81 1386.64 239.422 1386.64 Q243.056 1386.64 244.861 1383.1 Q246.69 1379.54 246.69 1372.43 Q246.69 1365.3 244.861 1361.76 Q243.056 1358.19 239.422 1358.19 M239.422 1354.49 Q245.232 1354.49 248.287 1359.1 Q251.366 1363.68 251.366 1372.43 Q251.366 1381.16 248.287 1385.76 Q245.232 1390.35 239.422 1390.35 Q233.611 1390.35 230.533 1385.76 Q227.477 1381.16 227.477 1372.43 Q227.477 1363.68 230.533 1359.1 Q233.611 1354.49 239.422 1354.49 Z" fill="#000000" fill-rule="nonzero" fill-opacity="1" /><path clip-path="url(#clip820)" d="M145.417 1260.34 L175.093 1260.34 L175.093 1264.27 L145.417 1264.27 L145.417 1260.34 Z" fill="#000000" fill-rule="nonzero" fill-opacity="1" /><path clip-path="url(#clip820)" d="M184.005 1242.61 L206.227 1242.61 L206.227 1244.6 L193.681 1277.17 L188.797 1277.17 L200.602 1246.54 L184.005 1246.54 L184.005 1242.61 Z" fill="#000000" fill-rule="nonzero" fill-opacity="1" /><path clip-path="url(#clip820)" d="M215.348 1271.29 L220.232 1271.29 L220.232 1277.17 L215.348 1277.17 L215.348 1271.29 Z" fill="#000000" fill-rule="nonzero" fill-opacity="1" /><path clip-path="url(#clip820)" d="M230.463 1242.61 L248.82 1242.61 L248.82 1246.54 L234.746 1246.54 L234.746 1255.02 Q235.764 1254.67 236.783 1254.51 Q237.801 1254.32 238.82 1254.32 Q244.607 1254.32 247.986 1257.49 Q251.366 1260.66 251.366 1266.08 Q251.366 1271.66 247.894 1274.76 Q244.421 1277.84 238.102 1277.84 Q235.926 1277.84 233.658 1277.47 Q231.412 1277.1 229.005 1276.36 L229.005 1271.66 Q231.088 1272.79 233.31 1273.35 Q235.533 1273.9 238.009 1273.9 Q242.014 1273.9 244.352 1271.8 Q246.69 1269.69 246.69 1266.08 Q246.69 1262.47 244.352 1260.36 Q242.014 1258.26 238.009 1258.26 Q236.135 1258.26 234.26 1258.67 Q232.408 1259.09 230.463 1259.97 L230.463 1242.61 Z" fill="#000000" fill-rule="nonzero" fill-opacity="1" /><path clip-path="url(#clip820)" d="M144.422 1147.83 L174.098 1147.83 L174.098 1151.77 L144.422 1151.77 L144.422 1147.83 Z" fill="#000000" fill-rule="nonzero" fill-opacity="1" /><path clip-path="url(#clip820)" d="M184.237 1130.1 L202.593 1130.1 L202.593 1134.03 L188.519 1134.03 L188.519 1142.51 Q189.538 1142.16 190.556 1142 Q191.575 1141.81 192.593 1141.81 Q198.38 1141.81 201.76 1144.98 Q205.139 1148.16 205.139 1153.57 Q205.139 1159.15 201.667 1162.25 Q198.195 1165.33 191.875 1165.33 Q189.7 1165.33 187.431 1164.96 Q185.186 1164.59 182.778 1163.85 L182.778 1159.15 Q184.862 1160.28 187.084 1160.84 Q189.306 1161.4 191.783 1161.4 Q195.787 1161.4 198.125 1159.29 Q200.463 1157.18 200.463 1153.57 Q200.463 1149.96 198.125 1147.85 Q195.787 1145.75 191.783 1145.75 Q189.908 1145.75 188.033 1146.16 Q186.181 1146.58 184.237 1147.46 L184.237 1130.1 Z" fill="#000000" fill-rule="nonzero" fill-opacity="1" /><path clip-path="url(#clip820)" d="M214.352 1158.78 L219.236 1158.78 L219.236 1164.66 L214.352 1164.66 L214.352 1158.78 Z" fill="#000000" fill-rule="nonzero" fill-opacity="1" /><path clip-path="url(#clip820)" d="M239.422 1133.18 Q235.81 1133.18 233.982 1136.74 Q232.176 1140.28 232.176 1147.41 Q232.176 1154.52 233.982 1158.09 Q235.81 1161.63 239.422 1161.63 Q243.056 1161.63 244.861 1158.09 Q246.69 1154.52 246.69 1147.41 Q246.69 1140.28 244.861 1136.74 Q243.056 1133.18 239.422 1133.18 M239.422 1129.47 Q245.232 1129.47 248.287 1134.08 Q251.366 1138.66 251.366 1147.41 Q251.366 1156.14 248.287 1160.75 Q245.232 1165.33 239.422 1165.33 Q233.611 1165.33 230.533 1160.75 Q227.477 1156.14 227.477 1147.41 Q227.477 1138.66 230.533 1134.08 Q233.611 1129.47 239.422 1129.47 Z" fill="#000000" fill-rule="nonzero" fill-opacity="1" /><path clip-path="url(#clip820)" d="M145.417 1035.32 L175.093 1035.32 L175.093 1039.26 L145.417 1039.26 L145.417 1035.32 Z" fill="#000000" fill-rule="nonzero" fill-opacity="1" /><path clip-path="url(#clip820)" d="M189.213 1048.22 L205.533 1048.22 L205.533 1052.15 L183.588 1052.15 L183.588 1048.22 Q186.251 1045.46 190.834 1040.83 Q195.44 1036.18 196.621 1034.84 Q198.866 1032.31 199.746 1030.58 Q200.649 1028.82 200.649 1027.13 Q200.649 1024.37 198.704 1022.64 Q196.783 1020.9 193.681 1020.9 Q191.482 1020.9 189.028 1021.67 Q186.598 1022.43 183.82 1023.98 L183.82 1019.26 Q186.644 1018.12 189.098 1017.55 Q191.551 1016.97 193.588 1016.97 Q198.959 1016.97 202.153 1019.65 Q205.348 1022.34 205.348 1026.83 Q205.348 1028.96 204.537 1030.88 Q203.75 1032.78 201.644 1035.37 Q201.065 1036.04 197.963 1039.26 Q194.862 1042.45 189.213 1048.22 Z" fill="#000000" fill-rule="nonzero" fill-opacity="1" /><path clip-path="url(#clip820)" d="M215.348 1046.27 L220.232 1046.27 L220.232 1052.15 L215.348 1052.15 L215.348 1046.27 Z" fill="#000000" fill-rule="nonzero" fill-opacity="1" /><path clip-path="url(#clip820)" d="M230.463 1017.59 L248.82 1017.59 L248.82 1021.53 L234.746 1021.53 L234.746 1030 Q235.764 1029.65 236.783 1029.49 Q237.801 1029.3 238.82 1029.3 Q244.607 1029.3 247.986 1032.48 Q251.366 1035.65 251.366 1041.06 Q251.366 1046.64 247.894 1049.74 Q244.421 1052.82 238.102 1052.82 Q235.926 1052.82 233.658 1052.45 Q231.412 1052.08 229.005 1051.34 L229.005 1046.64 Q231.088 1047.78 233.31 1048.33 Q235.533 1048.89 238.009 1048.89 Q242.014 1048.89 244.352 1046.78 Q246.69 1044.67 246.69 1041.06 Q246.69 1037.45 244.352 1035.35 Q242.014 1033.24 238.009 1033.24 Q236.135 1033.24 234.26 1033.66 Q232.408 1034.07 230.463 1034.95 L230.463 1017.59 Z" fill="#000000" fill-rule="nonzero" fill-opacity="1" /><path clip-path="url(#clip820)" d="M194.19 908.162 Q190.579 908.162 188.75 911.727 Q186.945 915.269 186.945 922.398 Q186.945 929.505 188.75 933.069 Q190.579 936.611 194.19 936.611 Q197.825 936.611 199.63 933.069 Q201.459 929.505 201.459 922.398 Q201.459 915.269 199.63 911.727 Q197.825 908.162 194.19 908.162 M194.19 904.458 Q200 904.458 203.056 909.065 Q206.135 913.648 206.135 922.398 Q206.135 931.125 203.056 935.731 Q200 940.315 194.19 940.315 Q188.38 940.315 185.301 935.731 Q182.246 931.125 182.246 922.398 Q182.246 913.648 185.301 909.065 Q188.38 904.458 194.19 904.458 Z" fill="#000000" fill-rule="nonzero" fill-opacity="1" /><path clip-path="url(#clip820)" d="M214.352 933.764 L219.236 933.764 L219.236 939.643 L214.352 939.643 L214.352 933.764 Z" fill="#000000" fill-rule="nonzero" fill-opacity="1" /><path clip-path="url(#clip820)" d="M239.422 908.162 Q235.81 908.162 233.982 911.727 Q232.176 915.269 232.176 922.398 Q232.176 929.505 233.982 933.069 Q235.81 936.611 239.422 936.611 Q243.056 936.611 244.861 933.069 Q246.69 929.505 246.69 922.398 Q246.69 915.269 244.861 911.727 Q243.056 908.162 239.422 908.162 M239.422 904.458 Q245.232 904.458 248.287 909.065 Q251.366 913.648 251.366 922.398 Q251.366 931.125 248.287 935.731 Q245.232 940.315 239.422 940.315 Q233.611 940.315 230.533 935.731 Q227.477 931.125 227.477 922.398 Q227.477 913.648 230.533 909.065 Q233.611 904.458 239.422 904.458 Z" fill="#000000" fill-rule="nonzero" fill-opacity="1" /><path clip-path="url(#clip820)" d="M64.9272 1151.69 Q64.9272 1156.17 62.2218 1159.1 Q59.0071 1162.57 53.1825 1162.57 Q47.135 1162.57 42.4244 1159.51 Q37.5865 1156.36 37.5865 1150.7 Q37.5865 1146.97 39.91 1144.05 Q41.2786 1142.33 43.5702 1141.15 Q40.9921 1140.74 38.0639 1140.74 Q33.7671 1140.74 31.2844 1141.75 Q25.7781 1144.01 25.7781 1150 Q25.7781 1152.26 27.1785 1155.76 L21.8314 1155.76 Q20.8447 1152.07 20.8447 1148.76 Q20.8447 1140.23 28.6745 1136.6 Q32.3666 1134.91 37.8729 1134.91 Q41.4696 1134.91 45.6391 1135.71 Q56.0789 1137.71 61.0441 1142.9 Q64.9272 1146.97 64.9272 1151.69 M54.1373 1157.13 Q57.3202 1157.13 59.0389 1155.73 Q60.8531 1154.23 60.8531 1151.94 Q60.8531 1149.9 59.4208 1148.28 Q57.4475 1145.99 54.2328 1144.3 Q51.591 1142.9 48.7583 1142.2 Q41.9152 1145.03 41.9152 1149.93 Q41.9152 1154.14 47.4533 1155.98 Q50.8908 1157.13 54.1373 1157.13 Z" fill="#000000" fill-rule="nonzero" fill-opacity="1" /><path clip-path="url(#clip820)" d="M38.3822 1124.38 L44.0477 1124.38 L44.0477 1116.77 L46.5939 1116.77 L46.5939 1124.38 L57.4157 1124.38 Q59.8664 1124.38 60.5667 1123.61 Q61.2669 1122.85 61.2669 1120.56 L61.2669 1116.77 L64.0042 1116.77 L64.0042 1120.56 Q64.0042 1124.82 62.5719 1126.44 Q61.1714 1128.07 57.4157 1128.07 L46.5939 1128.07 L46.5939 1130.77 L44.0477 1130.77 L44.0477 1128.07 L38.3822 1128.07 L38.3822 1124.38 Z" fill="#000000" fill-rule="nonzero" fill-opacity="1" /><path clip-path="url(#clip820)" d="M28.3562 1076.89 L45.7028 1089.78 L64.0042 1076.22 L64.0042 1083.13 L49.9996 1093.5 L64.0042 1103.88 L64.0042 1110.79 L45.3526 1096.94 L28.3562 1109.61 L28.3562 1102.7 L41.0558 1093.25 L28.3562 1083.79 L28.3562 1076.89 Z" fill="#000000" fill-rule="nonzero" fill-opacity="1" /><polyline clip-path="url(#clip823)" style="stroke:#009af9; stroke-linecap:round; stroke-linejoin:round; stroke-width:4; stroke-opacity:1; fill:none" points="345.82,1405.98 355.563,1405.98 365.305,1383.83 375.048,1362.67 384.79,1342.44 394.532,1323.11 404.275,1304.63 414.017,1286.98 423.76,1270.12 433.502,1254.01 443.244,1238.61 452.987,1223.9 462.729,1209.84 472.472,1196.41 482.214,1183.58 491.956,1171.32 501.699,1159.61 511.441,1148.42 521.184,1137.73 530.926,1127.51 540.668,1117.76 550.411,1108.44 560.153,1099.54 569.896,1091.04 579.638,1082.92 589.38,1075.17 599.123,1067.76 608.865,1060.68 618.608,1053.91 628.35,1047.46 638.093,1041.29 647.835,1035.41 657.577,1029.79 667.32,1024.43 677.062,1019.31 686.805,1014.42 696.547,1009.75 706.289,1005.28 716.032,1001.02 725.774,996.959 735.517,993.079 745.259,989.378 755.001,985.847 764.744,982.477 774.486,979.263 784.229,976.195 793.971,973.265 803.713,970.468 813.456,967.799 823.198,965.252 832.941,962.825 842.683,960.51 852.425,958.303 862.168,956.2 871.91,954.194 881.653,952.284 891.395,950.462 901.137,948.722 910.88,947.063 920.622,945.482 930.365,943.975 940.107,942.539 949.849,941.173 959.592,939.871 969.334,938.633 979.077,937.454 988.819,936.332 998.562,935.266 1008.3,934.25 1018.05,933.281 1027.79,932.358 1037.53,931.48 1047.27,930.644 1057.02,929.849 1066.76,929.094 1076.5,928.377 1086.24,927.696 1095.99,927.05 1105.73,926.437 1115.47,925.856 1125.21,925.305 1134.96,924.783 1144.7,924.287 1154.44,923.815 1164.18,923.366 1173.92,922.941 1183.67,922.538 1193.41,922.156 1203.15,921.795 1212.89,921.454 1222.64,921.132 1232.38,920.828 1242.12,920.541 1251.86,920.271 1261.61,920.017 1271.35,919.778 1281.09,919.554 1290.83,919.343 1300.58,919.143 1310.32,918.954 1320.06,918.777 1329.8,918.61 1339.55,918.453 1349.29,918.306 1359.03,918.169 1368.77,918.042 1378.52,917.923 1388.26,917.813 1398,917.711 1407.74,917.617 1417.48,917.53 1427.23,917.451 1436.97,917.378 1446.71,917.312 1456.45,917.252 1466.2,917.196 1475.94,917.146 1485.68,917.099 1495.42,917.057 1505.17,917.02 1514.91,916.986 1524.65,916.957 1534.39,916.931 1544.14,916.91 1553.88,916.892 1563.62,916.877 1573.36,916.866 1583.11,916.858 1592.85,916.853 1602.59,916.851 1612.33,916.851 1622.08,916.855 1631.82,916.861 1641.56,916.87 1651.3,916.88 1661.05,916.891 1670.79,916.904 1680.53,916.919 1690.27,916.934 1700.01,916.952 1709.76,916.97 1719.5,916.99 1729.24,917.011 1738.98,917.033 1748.73,917.056 1758.47,917.08 1768.21,917.106 1777.95,917.132 1787.7,917.16 1797.44,917.188 1807.18,917.218 1816.92,917.248 1826.67,917.279 1836.41,917.311 1846.15,917.343 1855.89,917.377 1865.64,917.41 1875.38,917.444 1885.12,917.477 1894.86,917.511 1904.61,917.545 1914.35,917.58 1924.09,917.614 1933.83,917.649 1943.57,917.683 1953.32,917.718 1963.06,917.753 1972.8,917.788 1982.54,917.823 1992.29,917.859 2002.03,917.894 2011.77,917.93 2021.51,917.965 2031.26,918.001 2041,918.037 2050.74,918.073 2060.48,918.109 2070.23,918.145 2079.97,918.181 2089.71,918.217 2099.45,918.253 2109.2,918.289 2118.94,918.324 2128.68,918.359 2138.42,918.394 2148.17,918.429 2157.91,918.464 2167.65,918.499 2177.39,918.533 2187.14,918.567 2196.88,918.601 2206.62,918.635 2216.36,918.669 2226.1,918.702 2235.85,918.736 2245.59,918.769 2255.33,918.802 2265.07,918.834 2274.82,918.867 2284.56,918.899 2294.3,918.932 "/>
<polyline clip-path="url(#clip823)" style="stroke:#e26f46; stroke-linecap:round; stroke-linejoin:round; stroke-width:4; stroke-opacity:1; fill:none" points="345.82,832.805 355.563,832.805 365.305,833.697 375.048,834.579 384.79,835.452 394.532,836.317 404.275,837.173 414.017,838.021 423.76,838.86 433.502,839.691 443.244,840.514 452.987,841.328 462.729,842.134 472.472,842.933 482.214,843.723 491.956,844.505 501.699,845.28 511.441,846.047 521.184,846.807 530.926,847.558 540.668,848.303 550.411,849.04 560.153,849.769 569.896,850.491 579.638,851.207 589.38,851.915 599.123,852.616 608.865,853.31 618.608,853.997 628.35,854.677 638.093,855.35 647.835,856.017 657.577,856.677 667.32,857.331 677.062,857.978 686.805,858.619 696.547,859.253 706.289,859.881 716.032,860.503 725.774,861.118 735.517,861.728 745.259,862.331 755.001,862.928 764.744,863.52 774.486,864.105 784.229,864.685 793.971,865.259 803.713,865.827 813.456,866.39 823.198,866.946 832.941,867.498 842.683,868.044 852.425,868.584 862.168,869.119 871.91,869.649 881.653,870.174 891.395,870.693 901.137,871.207 910.88,871.716 920.622,872.22 930.365,872.719 940.107,873.213 949.849,873.702 959.592,874.186 969.334,874.666 979.077,875.14 988.819,875.61 998.562,876.075 1008.3,876.536 1018.05,876.992 1027.79,877.443 1037.53,877.89 1047.27,878.333 1057.02,878.771 1066.76,879.205 1076.5,879.634 1086.24,880.059 1095.99,880.48 1105.73,880.897 1115.47,881.31 1125.21,881.718 1134.96,882.122 1144.7,882.523 1154.44,882.919 1164.18,883.312 1173.92,883.7 1183.67,884.085 1193.41,884.466 1203.15,884.843 1212.89,885.216 1222.64,885.586 1232.38,885.952 1242.12,886.314 1251.86,886.673 1261.61,887.028 1271.35,887.38 1281.09,887.728 1290.83,888.072 1300.58,888.414 1310.32,888.751 1320.06,889.086 1329.8,889.417 1339.55,889.745 1349.29,890.069 1359.03,890.391 1368.77,890.709 1378.52,891.024 1388.26,891.336 1398,891.644 1407.74,891.95 1417.48,892.253 1427.23,892.552 1436.97,892.849 1446.71,893.142 1456.45,893.433 1466.2,893.721 1475.94,894.006 1485.68,894.288 1495.42,894.568 1505.17,894.844 1514.91,895.118 1524.65,895.389 1534.39,895.658 1544.14,895.923 1553.88,896.186 1563.62,896.447 1573.36,896.705 1583.11,896.96 1592.85,897.213 1602.59,897.463 1612.33,897.711 1622.08,897.956 1631.82,898.199 1641.56,898.439 1651.3,898.677 1661.05,898.913 1670.79,899.146 1680.53,899.377 1690.27,899.606 1700.01,899.833 1709.76,900.057 1719.5,900.279 1729.24,900.498 1738.98,900.716 1748.73,900.931 1758.47,901.145 1768.21,901.356 1777.95,901.565 1787.7,901.772 1797.44,901.977 1807.18,902.18 1816.92,902.38 1826.67,902.579 1836.41,902.776 1846.15,902.971 1855.89,903.164 1865.64,903.355 1875.38,903.544 1885.12,903.731 1894.86,903.917 1904.61,904.1 1914.35,904.282 1924.09,904.462 1933.83,904.64 1943.57,904.816 1953.32,904.991 1963.06,905.164 1972.8,905.335 1982.54,905.504 1992.29,905.672 2002.03,905.838 2011.77,906.003 2021.51,906.166 2031.26,906.327 2041,906.486 2050.74,906.644 2060.48,906.801 2070.23,906.955 2079.97,907.109 2089.71,907.261 2099.45,907.411 2109.2,907.56 2118.94,907.707 2128.68,907.853 2138.42,907.997 2148.17,908.14 2157.91,908.282 2167.65,908.422 2177.39,908.56 2187.14,908.698 2196.88,908.834 2206.62,908.968 2216.36,909.102 2226.1,909.234 2235.85,909.364 2245.59,909.494 2255.33,909.622 2265.07,909.748 2274.82,909.874 2284.56,909.998 2294.3,910.121 "/>
<path clip-path="url(#clip820)" d="M1942.51 1402.93 L2283.91 1402.93 L2283.91 1247.41 L1942.51 1247.41  Z" fill="#ffffff" fill-rule="evenodd" fill-opacity="1"/>
<polyline clip-path="url(#clip820)" style="stroke:#000000; stroke-linecap:round; stroke-linejoin:round; stroke-width:4; stroke-opacity:1; fill:none" points="1942.51,1402.93 2283.91,1402.93 2283.91,1247.41 1942.51,1247.41 1942.51,1402.93 "/>
<polyline clip-path="url(#clip820)" style="stroke:#009af9; stroke-linecap:round; stroke-linejoin:round; stroke-width:4; stroke-opacity:1; fill:none" points="1965.46,1299.25 2103.15,1299.25 "/>
<path clip-path="url(#clip820)" d="M2134.02 1317.2 Q2130.75 1317.2 2128.62 1315.23 Q2126.1 1312.89 2126.1 1308.66 Q2126.1 1304.26 2128.32 1300.83 Q2130.61 1297.31 2134.73 1297.31 Q2137.44 1297.31 2139.57 1299 Q2140.82 1300 2141.68 1301.67 Q2141.98 1299.79 2141.98 1297.66 Q2141.98 1294.54 2141.24 1292.73 Q2139.6 1288.73 2135.24 1288.73 Q2133.6 1288.73 2131.05 1289.75 L2131.05 1285.86 Q2133.74 1285.14 2136.15 1285.14 Q2142.35 1285.14 2144.99 1290.83 Q2146.22 1293.52 2146.22 1297.52 Q2146.22 1300.14 2145.64 1303.17 Q2144.18 1310.76 2140.41 1314.37 Q2137.44 1317.2 2134.02 1317.2 M2130.06 1309.35 Q2130.06 1311.67 2131.08 1312.92 Q2132.17 1314.24 2133.83 1314.24 Q2135.31 1314.24 2136.49 1313.19 Q2138.16 1311.76 2139.39 1309.42 Q2140.41 1307.5 2140.92 1305.44 Q2138.85 1300.46 2135.29 1300.46 Q2132.23 1300.46 2130.89 1304.49 Q2130.06 1306.99 2130.06 1309.35 Z" fill="#000000" fill-rule="nonzero" fill-opacity="1" /><path clip-path="url(#clip820)" d="M2153.88 1297.89 L2153.88 1302.01 L2159.41 1302.01 L2159.41 1303.87 L2153.88 1303.87 L2153.88 1311.74 Q2153.88 1313.52 2154.43 1314.03 Q2154.99 1314.54 2156.66 1314.54 L2159.41 1314.54 L2159.41 1316.53 L2156.66 1316.53 Q2153.55 1316.53 2152.37 1315.49 Q2151.19 1314.47 2151.19 1311.74 L2151.19 1303.87 L2149.23 1303.87 L2149.23 1302.01 L2151.19 1302.01 L2151.19 1297.89 L2153.88 1297.89 Z" fill="#000000" fill-rule="nonzero" fill-opacity="1" /><path clip-path="url(#clip820)" d="M2188.41 1290.6 L2179.04 1303.22 L2188.9 1316.53 L2183.88 1316.53 L2176.33 1306.34 L2168.79 1316.53 L2163.76 1316.53 L2173.83 1302.96 L2164.62 1290.6 L2169.64 1290.6 L2176.52 1299.84 L2183.39 1290.6 L2188.41 1290.6 Z" fill="#000000" fill-rule="nonzero" fill-opacity="1" /><path clip-path="url(#clip820)" d="M2194.06 1313.98 L2198.79 1313.98 L2198.79 1299.84 L2193.62 1300.79 L2193.62 1298.1 L2198.95 1297.2 L2202.12 1297.2 L2202.12 1313.98 L2206.86 1313.98 L2206.86 1316.53 L2194.06 1316.53 L2194.06 1313.98 Z" fill="#000000" fill-rule="nonzero" fill-opacity="1" /><path clip-path="url(#clip820)" d="M2224.16 1280.56 Q2221.05 1285.88 2219.55 1291.09 Q2218.04 1296.3 2218.04 1301.64 Q2218.04 1306.99 2219.55 1312.25 Q2221.08 1317.48 2224.16 1322.78 L2220.45 1322.78 Q2216.98 1317.34 2215.24 1312.08 Q2213.53 1306.83 2213.53 1301.64 Q2213.53 1296.48 2215.24 1291.25 Q2216.96 1286.02 2220.45 1280.56 L2224.16 1280.56 Z" fill="#000000" fill-rule="nonzero" fill-opacity="1" /><path clip-path="url(#clip820)" d="M2236.63 1283.24 L2236.63 1290.6 L2245.41 1290.6 L2245.41 1293.91 L2236.63 1293.91 L2236.63 1307.99 Q2236.63 1311.16 2237.49 1312.06 Q2238.37 1312.96 2241.03 1312.96 L2245.41 1312.96 L2245.41 1316.53 L2241.03 1316.53 Q2236.1 1316.53 2234.22 1314.7 Q2232.35 1312.85 2232.35 1307.99 L2232.35 1293.91 L2229.22 1293.91 L2229.22 1290.6 L2232.35 1290.6 L2232.35 1283.24 L2236.63 1283.24 Z" fill="#000000" fill-rule="nonzero" fill-opacity="1" /><path clip-path="url(#clip820)" d="M2250.34 1280.56 L2254.04 1280.56 Q2257.51 1286.02 2259.22 1291.25 Q2260.96 1296.48 2260.96 1301.64 Q2260.96 1306.83 2259.22 1312.08 Q2257.51 1317.34 2254.04 1322.78 L2250.34 1322.78 Q2253.41 1317.48 2254.92 1312.25 Q2256.45 1306.99 2256.45 1301.64 Q2256.45 1296.3 2254.92 1291.09 Q2253.41 1285.88 2250.34 1280.56 Z" fill="#000000" fill-rule="nonzero" fill-opacity="1" /><polyline clip-path="url(#clip820)" style="stroke:#e26f46; stroke-linecap:round; stroke-linejoin:round; stroke-width:4; stroke-opacity:1; fill:none" points="1965.46,1351.09 2103.15,1351.09 "/>
<path clip-path="url(#clip820)" d="M2134.02 1369.04 Q2130.75 1369.04 2128.62 1367.07 Q2126.1 1364.73 2126.1 1360.5 Q2126.1 1356.1 2128.32 1352.67 Q2130.61 1349.15 2134.73 1349.15 Q2137.44 1349.15 2139.57 1350.84 Q2140.82 1351.84 2141.68 1353.51 Q2141.98 1351.63 2141.98 1349.5 Q2141.98 1346.38 2141.24 1344.57 Q2139.6 1340.57 2135.24 1340.57 Q2133.6 1340.57 2131.05 1341.59 L2131.05 1337.7 Q2133.74 1336.98 2136.15 1336.98 Q2142.35 1336.98 2144.99 1342.67 Q2146.22 1345.36 2146.22 1349.36 Q2146.22 1351.98 2145.64 1355.01 Q2144.18 1362.6 2140.41 1366.21 Q2137.44 1369.04 2134.02 1369.04 M2130.06 1361.19 Q2130.06 1363.51 2131.08 1364.76 Q2132.17 1366.08 2133.83 1366.08 Q2135.31 1366.08 2136.49 1365.03 Q2138.16 1363.6 2139.39 1361.26 Q2140.41 1359.34 2140.92 1357.28 Q2138.85 1352.3 2135.29 1352.3 Q2132.23 1352.3 2130.89 1356.33 Q2130.06 1358.83 2130.06 1361.19 Z" fill="#000000" fill-rule="nonzero" fill-opacity="1" /><path clip-path="url(#clip820)" d="M2153.88 1349.73 L2153.88 1353.85 L2159.41 1353.85 L2159.41 1355.71 L2153.88 1355.71 L2153.88 1363.58 Q2153.88 1365.36 2154.43 1365.87 Q2154.99 1366.38 2156.66 1366.38 L2159.41 1366.38 L2159.41 1368.37 L2156.66 1368.37 Q2153.55 1368.37 2152.37 1367.33 Q2151.19 1366.31 2151.19 1363.58 L2151.19 1355.71 L2149.23 1355.71 L2149.23 1353.85 L2151.19 1353.85 L2151.19 1349.73 L2153.88 1349.73 Z" fill="#000000" fill-rule="nonzero" fill-opacity="1" /><path clip-path="url(#clip820)" d="M2188.41 1342.44 L2179.04 1355.06 L2188.9 1368.37 L2183.88 1368.37 L2176.33 1358.18 L2168.79 1368.37 L2163.76 1368.37 L2173.83 1354.8 L2164.62 1342.44 L2169.64 1342.44 L2176.52 1351.68 L2183.39 1342.44 L2188.41 1342.44 Z" fill="#000000" fill-rule="nonzero" fill-opacity="1" /><path clip-path="url(#clip820)" d="M2196.66 1365.73 L2206.47 1365.73 L2206.47 1368.37 L2192.63 1368.37 L2192.63 1365.82 Q2193.41 1365.1 2194.87 1363.81 Q2202.84 1356.75 2202.84 1354.57 Q2202.84 1353.04 2201.63 1352.12 Q2200.43 1351.17 2198.46 1351.17 Q2197.26 1351.17 2195.85 1351.59 Q2194.43 1351.98 2192.77 1352.79 L2192.77 1349.94 Q2194.55 1349.29 2196.08 1348.97 Q2197.63 1348.65 2198.95 1348.65 Q2202.3 1348.65 2204.32 1350.17 Q2206.33 1351.7 2206.33 1354.2 Q2206.33 1357.42 2198.67 1363.99 Q2197.37 1365.1 2196.66 1365.73 Z" fill="#000000" fill-rule="nonzero" fill-opacity="1" /><path clip-path="url(#clip820)" d="M2224.16 1332.4 Q2221.05 1337.72 2219.55 1342.93 Q2218.04 1348.14 2218.04 1353.48 Q2218.04 1358.83 2219.55 1364.09 Q2221.08 1369.32 2224.16 1374.62 L2220.45 1374.62 Q2216.98 1369.18 2215.24 1363.92 Q2213.53 1358.67 2213.53 1353.48 Q2213.53 1348.32 2215.24 1343.09 Q2216.96 1337.86 2220.45 1332.4 L2224.16 1332.4 Z" fill="#000000" fill-rule="nonzero" fill-opacity="1" /><path clip-path="url(#clip820)" d="M2236.63 1335.08 L2236.63 1342.44 L2245.41 1342.44 L2245.41 1345.75 L2236.63 1345.75 L2236.63 1359.83 Q2236.63 1363 2237.49 1363.9 Q2238.37 1364.8 2241.03 1364.8 L2245.41 1364.8 L2245.41 1368.37 L2241.03 1368.37 Q2236.1 1368.37 2234.22 1366.54 Q2232.35 1364.69 2232.35 1359.83 L2232.35 1345.75 L2229.22 1345.75 L2229.22 1342.44 L2232.35 1342.44 L2232.35 1335.08 L2236.63 1335.08 Z" fill="#000000" fill-rule="nonzero" fill-opacity="1" /><path clip-path="url(#clip820)" d="M2250.34 1332.4 L2254.04 1332.4 Q2257.51 1337.86 2259.22 1343.09 Q2260.96 1348.32 2260.96 1353.48 Q2260.96 1358.67 2259.22 1363.92 Q2257.51 1369.18 2254.04 1374.62 L2250.34 1374.62 Q2253.41 1369.32 2254.92 1364.09 Q2256.45 1358.83 2256.45 1353.48 Q2256.45 1348.14 2254.92 1342.93 Q2253.41 1337.72 2250.34 1332.4 Z" fill="#000000" fill-rule="nonzero" fill-opacity="1" /></svg>
