<?xml version="1.0" encoding="utf-8"?>
<svg xmlns="http://www.w3.org/2000/svg" xmlns:xlink="http://www.w3.org/1999/xlink" width="600" height="400" viewBox="0 0 2400 1600">
<defs>
  <clipPath id="clip660">
    <rect x="0" y="0" width="2400" height="1600"/>
  </clipPath>
</defs>
<path clip-path="url(#clip660)" d="M0 1600 L2400 1600 L2400 0 L0 0  Z" fill="#ffffff" fill-rule="evenodd" fill-opacity="1"/>
<defs>
  <clipPath id="clip661">
    <rect x="257" y="1071" width="2096" height="352"/>
  </clipPath>
</defs>
<path clip-path="url(#clip660)" d="M257.69 398.692 L2352.76 398.692 L2352.76 47.2441 L257.69 47.2441  Z" fill="#ffffff" fill-rule="evenodd" fill-opacity="1"/>
<defs>
  <clipPath id="clip662">
    <rect x="257" y="47" width="2096" height="352"/>
  </clipPath>
</defs>
<polyline clip-path="url(#clip662)" style="stroke:#000000; stroke-linecap:round; stroke-linejoin:round; stroke-width:2; stroke-opacity:0.1; fill:none" points="316.984,398.692 316.984,47.2441 "/>
<polyline clip-path="url(#clip662)" style="stroke:#000000; stroke-linecap:round; stroke-linejoin:round; stroke-width:2; stroke-opacity:0.1; fill:none" points="712.28,398.692 712.28,47.2441 "/>
<polyline clip-path="url(#clip662)" style="stroke:#000000; stroke-linecap:round; stroke-linejoin:round; stroke-width:2; stroke-opacity:0.1; fill:none" points="1107.58,398.692 1107.58,47.2441 "/>
<polyline clip-path="url(#clip662)" style="stroke:#000000; stroke-linecap:round; stroke-linejoin:round; stroke-width:2; stroke-opacity:0.1; fill:none" points="1502.87,398.692 1502.87,47.2441 "/>
<polyline clip-path="url(#clip662)" style="stroke:#000000; stroke-linecap:round; stroke-linejoin:round; stroke-width:2; stroke-opacity:0.1; fill:none" points="1898.17,398.692 1898.17,47.2441 "/>
<polyline clip-path="url(#clip662)" style="stroke:#000000; stroke-linecap:round; stroke-linejoin:round; stroke-width:2; stroke-opacity:0.1; fill:none" points="2293.46,398.692 2293.46,47.2441 "/>
<polyline clip-path="url(#clip662)" style="stroke:#000000; stroke-linecap:round; stroke-linejoin:round; stroke-width:2; stroke-opacity:0.1; fill:none" points="257.69,369.235 2352.76,369.235 "/>
<polyline clip-path="url(#clip662)" style="stroke:#000000; stroke-linecap:round; stroke-linejoin:round; stroke-width:2; stroke-opacity:0.1; fill:none" points="257.69,320.648 2352.76,320.648 "/>
<polyline clip-path="url(#clip662)" style="stroke:#000000; stroke-linecap:round; stroke-linejoin:round; stroke-width:2; stroke-opacity:0.1; fill:none" points="257.69,272.061 2352.76,272.061 "/>
<polyline clip-path="url(#clip662)" style="stroke:#000000; stroke-linecap:round; stroke-linejoin:round; stroke-width:2; stroke-opacity:0.1; fill:none" points="257.69,223.474 2352.76,223.474 "/>
<polyline clip-path="url(#clip662)" style="stroke:#000000; stroke-linecap:round; stroke-linejoin:round; stroke-width:2; stroke-opacity:0.1; fill:none" points="257.69,174.887 2352.76,174.887 "/>
<polyline clip-path="url(#clip662)" style="stroke:#000000; stroke-linecap:round; stroke-linejoin:round; stroke-width:2; stroke-opacity:0.1; fill:none" points="257.69,126.3 2352.76,126.3 "/>
<polyline clip-path="url(#clip662)" style="stroke:#000000; stroke-linecap:round; stroke-linejoin:round; stroke-width:2; stroke-opacity:0.1; fill:none" points="257.69,77.7131 2352.76,77.7131 "/>
<polyline clip-path="url(#clip660)" style="stroke:#000000; stroke-linecap:round; stroke-linejoin:round; stroke-width:4; stroke-opacity:1; fill:none" points="257.69,398.692 2352.76,398.692 "/>
<polyline clip-path="url(#clip660)" style="stroke:#000000; stroke-linecap:round; stroke-linejoin:round; stroke-width:4; stroke-opacity:1; fill:none" points="316.984,398.692 316.984,379.794 "/>
<polyline clip-path="url(#clip660)" style="stroke:#000000; stroke-linecap:round; stroke-linejoin:round; stroke-width:4; stroke-opacity:1; fill:none" points="712.28,398.692 712.28,379.794 "/>
<polyline clip-path="url(#clip660)" style="stroke:#000000; stroke-linecap:round; stroke-linejoin:round; stroke-width:4; stroke-opacity:1; fill:none" points="1107.58,398.692 1107.58,379.794 "/>
<polyline clip-path="url(#clip660)" style="stroke:#000000; stroke-linecap:round; stroke-linejoin:round; stroke-width:4; stroke-opacity:1; fill:none" points="1502.87,398.692 1502.87,379.794 "/>
<polyline clip-path="url(#clip660)" style="stroke:#000000; stroke-linecap:round; stroke-linejoin:round; stroke-width:4; stroke-opacity:1; fill:none" points="1898.17,398.692 1898.17,379.794 "/>
<polyline clip-path="url(#clip660)" style="stroke:#000000; stroke-linecap:round; stroke-linejoin:round; stroke-width:4; stroke-opacity:1; fill:none" points="2293.46,398.692 2293.46,379.794 "/>
<path clip-path="url(#clip660)" d="M316.984 429.611 Q313.373 429.611 311.545 433.175 Q309.739 436.717 309.739 443.847 Q309.739 450.953 311.545 454.518 Q313.373 458.059 316.984 458.059 Q320.619 458.059 322.424 454.518 Q324.253 450.953 324.253 443.847 Q324.253 436.717 322.424 433.175 Q320.619 429.611 316.984 429.611 M316.984 425.907 Q322.795 425.907 325.85 430.513 Q328.929 435.097 328.929 443.847 Q328.929 452.573 325.85 457.18 Q322.795 461.763 316.984 461.763 Q311.174 461.763 308.096 457.18 Q305.04 452.573 305.04 443.847 Q305.04 435.097 308.096 430.513 Q311.174 425.907 316.984 425.907 Z" fill="#000000" fill-rule="nonzero" fill-opacity="1" /><path clip-path="url(#clip660)" d="M702.662 457.157 L710.301 457.157 L710.301 430.791 L701.991 432.458 L701.991 428.199 L710.254 426.532 L714.93 426.532 L714.93 457.157 L722.569 457.157 L722.569 461.092 L702.662 461.092 L702.662 457.157 Z" fill="#000000" fill-rule="nonzero" fill-opacity="1" /><path clip-path="url(#clip660)" d="M1102.23 457.157 L1118.55 457.157 L1118.55 461.092 L1096.6 461.092 L1096.6 457.157 Q1099.27 454.402 1103.85 449.772 Q1108.45 445.12 1109.64 443.777 Q1111.88 441.254 1112.76 439.518 Q1113.66 437.759 1113.66 436.069 Q1113.66 433.314 1111.72 431.578 Q1109.8 429.842 1106.7 429.842 Q1104.5 429.842 1102.04 430.606 Q1099.61 431.37 1096.83 432.921 L1096.83 428.199 Q1099.66 427.064 1102.11 426.486 Q1104.57 425.907 1106.6 425.907 Q1111.97 425.907 1115.17 428.592 Q1118.36 431.277 1118.36 435.768 Q1118.36 437.898 1117.55 439.819 Q1116.77 441.717 1114.66 444.31 Q1114.08 444.981 1110.98 448.198 Q1107.88 451.393 1102.23 457.157 Z" fill="#000000" fill-rule="nonzero" fill-opacity="1" /><path clip-path="url(#clip660)" d="M1507.12 442.458 Q1510.47 443.175 1512.35 445.444 Q1514.25 447.712 1514.25 451.046 Q1514.25 456.161 1510.73 458.962 Q1507.21 461.763 1500.73 461.763 Q1498.55 461.763 1496.24 461.323 Q1493.95 460.907 1491.49 460.05 L1491.49 455.536 Q1493.44 456.671 1495.75 457.249 Q1498.07 457.828 1500.59 457.828 Q1504.99 457.828 1507.28 456.092 Q1509.6 454.356 1509.6 451.046 Q1509.6 447.99 1507.44 446.277 Q1505.31 444.541 1501.49 444.541 L1497.47 444.541 L1497.47 440.698 L1501.68 440.698 Q1505.13 440.698 1506.96 439.333 Q1508.79 437.944 1508.79 435.351 Q1508.79 432.689 1506.89 431.277 Q1505.01 429.842 1501.49 429.842 Q1499.57 429.842 1497.37 430.259 Q1495.17 430.675 1492.54 431.555 L1492.54 427.388 Q1495.2 426.648 1497.51 426.277 Q1499.85 425.907 1501.91 425.907 Q1507.23 425.907 1510.34 428.337 Q1513.44 430.745 1513.44 434.865 Q1513.44 437.736 1511.79 439.726 Q1510.15 441.694 1507.12 442.458 Z" fill="#000000" fill-rule="nonzero" fill-opacity="1" /><path clip-path="url(#clip660)" d="M1901.18 430.606 L1889.37 449.055 L1901.18 449.055 L1901.18 430.606 M1899.95 426.532 L1905.83 426.532 L1905.83 449.055 L1910.76 449.055 L1910.76 452.944 L1905.83 452.944 L1905.83 461.092 L1901.18 461.092 L1901.18 452.944 L1885.57 452.944 L1885.57 448.43 L1899.95 426.532 Z" fill="#000000" fill-rule="nonzero" fill-opacity="1" /><path clip-path="url(#clip660)" d="M2283.74 426.532 L2302.1 426.532 L2302.1 430.467 L2288.02 430.467 L2288.02 438.939 Q2289.04 438.592 2290.06 438.43 Q2291.08 438.245 2292.1 438.245 Q2297.88 438.245 2301.26 441.416 Q2304.64 444.587 2304.64 450.004 Q2304.64 455.583 2301.17 458.684 Q2297.7 461.763 2291.38 461.763 Q2289.2 461.763 2286.93 461.393 Q2284.69 461.022 2282.28 460.282 L2282.28 455.583 Q2284.36 456.717 2286.59 457.272 Q2288.81 457.828 2291.29 457.828 Q2295.29 457.828 2297.63 455.722 Q2299.97 453.615 2299.97 450.004 Q2299.97 446.393 2297.63 444.286 Q2295.29 442.18 2291.29 442.18 Q2289.41 442.18 2287.54 442.597 Q2285.68 443.013 2283.74 443.893 L2283.74 426.532 Z" fill="#000000" fill-rule="nonzero" fill-opacity="1" /><polyline clip-path="url(#clip660)" style="stroke:#000000; stroke-linecap:round; stroke-linejoin:round; stroke-width:4; stroke-opacity:1; fill:none" points="257.69,398.692 257.69,47.2441 "/>
<polyline clip-path="url(#clip660)" style="stroke:#000000; stroke-linecap:round; stroke-linejoin:round; stroke-width:4; stroke-opacity:1; fill:none" points="257.69,369.235 276.588,369.235 "/>
<polyline clip-path="url(#clip660)" style="stroke:#000000; stroke-linecap:round; stroke-linejoin:round; stroke-width:4; stroke-opacity:1; fill:none" points="257.69,320.648 276.588,320.648 "/>
<polyline clip-path="url(#clip660)" style="stroke:#000000; stroke-linecap:round; stroke-linejoin:round; stroke-width:4; stroke-opacity:1; fill:none" points="257.69,272.061 276.588,272.061 "/>
<polyline clip-path="url(#clip660)" style="stroke:#000000; stroke-linecap:round; stroke-linejoin:round; stroke-width:4; stroke-opacity:1; fill:none" points="257.69,223.474 276.588,223.474 "/>
<polyline clip-path="url(#clip660)" style="stroke:#000000; stroke-linecap:round; stroke-linejoin:round; stroke-width:4; stroke-opacity:1; fill:none" points="257.69,174.887 276.588,174.887 "/>
<polyline clip-path="url(#clip660)" style="stroke:#000000; stroke-linecap:round; stroke-linejoin:round; stroke-width:4; stroke-opacity:1; fill:none" points="257.69,126.3 276.588,126.3 "/>
<polyline clip-path="url(#clip660)" style="stroke:#000000; stroke-linecap:round; stroke-linejoin:round; stroke-width:4; stroke-opacity:1; fill:none" points="257.69,77.7131 276.588,77.7131 "/>
<path clip-path="url(#clip660)" d="M115.742 369.686 L145.417 369.686 L145.417 373.621 L115.742 373.621 L115.742 369.686 Z" fill="#000000" fill-rule="nonzero" fill-opacity="1" /><path clip-path="url(#clip660)" d="M156.32 382.579 L163.959 382.579 L163.959 356.214 L155.649 357.88 L155.649 353.621 L163.913 351.955 L168.589 351.955 L168.589 382.579 L176.227 382.579 L176.227 386.515 L156.32 386.515 L156.32 382.579 Z" fill="#000000" fill-rule="nonzero" fill-opacity="1" /><path clip-path="url(#clip660)" d="M185.672 380.635 L190.556 380.635 L190.556 386.515 L185.672 386.515 L185.672 380.635 Z" fill="#000000" fill-rule="nonzero" fill-opacity="1" /><path clip-path="url(#clip660)" d="M200.787 351.955 L219.144 351.955 L219.144 355.89 L205.07 355.89 L205.07 364.362 Q206.088 364.015 207.107 363.853 Q208.125 363.667 209.144 363.667 Q214.931 363.667 218.311 366.839 Q221.69 370.01 221.69 375.427 Q221.69 381.005 218.218 384.107 Q214.746 387.186 208.426 387.186 Q206.25 387.186 203.982 386.815 Q201.737 386.445 199.329 385.704 L199.329 381.005 Q201.412 382.14 203.635 382.695 Q205.857 383.251 208.334 383.251 Q212.338 383.251 214.676 381.144 Q217.014 379.038 217.014 375.427 Q217.014 371.816 214.676 369.709 Q212.338 367.603 208.334 367.603 Q206.459 367.603 204.584 368.019 Q202.732 368.436 200.787 369.316 L200.787 351.955 Z" fill="#000000" fill-rule="nonzero" fill-opacity="1" /><path clip-path="url(#clip660)" d="M114.746 321.099 L144.422 321.099 L144.422 325.034 L114.746 325.034 L114.746 321.099 Z" fill="#000000" fill-rule="nonzero" fill-opacity="1" /><path clip-path="url(#clip660)" d="M155.325 333.992 L162.964 333.992 L162.964 307.627 L154.653 309.293 L154.653 305.034 L162.917 303.368 L167.593 303.368 L167.593 333.992 L175.232 333.992 L175.232 337.928 L155.325 337.928 L155.325 333.992 Z" fill="#000000" fill-rule="nonzero" fill-opacity="1" /><path clip-path="url(#clip660)" d="M184.676 332.048 L189.561 332.048 L189.561 337.928 L184.676 337.928 L184.676 332.048 Z" fill="#000000" fill-rule="nonzero" fill-opacity="1" /><path clip-path="url(#clip660)" d="M209.746 306.446 Q206.135 306.446 204.306 310.011 Q202.5 313.553 202.5 320.682 Q202.5 327.789 204.306 331.354 Q206.135 334.895 209.746 334.895 Q213.38 334.895 215.186 331.354 Q217.014 327.789 217.014 320.682 Q217.014 313.553 215.186 310.011 Q213.38 306.446 209.746 306.446 M209.746 302.743 Q215.556 302.743 218.611 307.349 Q221.69 311.932 221.69 320.682 Q221.69 329.409 218.611 334.016 Q215.556 338.599 209.746 338.599 Q203.936 338.599 200.857 334.016 Q197.801 329.409 197.801 320.682 Q197.801 311.932 200.857 307.349 Q203.936 302.743 209.746 302.743 Z" fill="#000000" fill-rule="nonzero" fill-opacity="1" /><path clip-path="url(#clip660)" d="M115.742 272.512 L145.417 272.512 L145.417 276.447 L115.742 276.447 L115.742 272.512 Z" fill="#000000" fill-rule="nonzero" fill-opacity="1" /><path clip-path="url(#clip660)" d="M165.51 257.859 Q161.899 257.859 160.07 261.424 Q158.265 264.966 158.265 272.095 Q158.265 279.202 160.07 282.767 Q161.899 286.308 165.51 286.308 Q169.144 286.308 170.95 282.767 Q172.778 279.202 172.778 272.095 Q172.778 264.966 170.95 261.424 Q169.144 257.859 165.51 257.859 M165.51 254.156 Q171.32 254.156 174.376 258.762 Q177.454 263.345 177.454 272.095 Q177.454 280.822 174.376 285.429 Q171.32 290.012 165.51 290.012 Q159.7 290.012 156.621 285.429 Q153.566 280.822 153.566 272.095 Q153.566 263.345 156.621 258.762 Q159.7 254.156 165.51 254.156 Z" fill="#000000" fill-rule="nonzero" fill-opacity="1" /><path clip-path="url(#clip660)" d="M185.672 283.461 L190.556 283.461 L190.556 289.341 L185.672 289.341 L185.672 283.461 Z" fill="#000000" fill-rule="nonzero" fill-opacity="1" /><path clip-path="url(#clip660)" d="M200.787 254.781 L219.144 254.781 L219.144 258.716 L205.07 258.716 L205.07 267.188 Q206.088 266.841 207.107 266.679 Q208.125 266.494 209.144 266.494 Q214.931 266.494 218.311 269.665 Q221.69 272.836 221.69 278.253 Q221.69 283.831 218.218 286.933 Q214.746 290.012 208.426 290.012 Q206.25 290.012 203.982 289.642 Q201.737 289.271 199.329 288.531 L199.329 283.831 Q201.412 284.966 203.635 285.521 Q205.857 286.077 208.334 286.077 Q212.338 286.077 214.676 283.97 Q217.014 281.864 217.014 278.253 Q217.014 274.642 214.676 272.535 Q212.338 270.429 208.334 270.429 Q206.459 270.429 204.584 270.845 Q202.732 271.262 200.787 272.142 L200.787 254.781 Z" fill="#000000" fill-rule="nonzero" fill-opacity="1" /><path clip-path="url(#clip660)" d="M164.515 209.272 Q160.903 209.272 159.075 212.837 Q157.269 216.379 157.269 223.509 Q157.269 230.615 159.075 234.18 Q160.903 237.721 164.515 237.721 Q168.149 237.721 169.954 234.18 Q171.783 230.615 171.783 223.509 Q171.783 216.379 169.954 212.837 Q168.149 209.272 164.515 209.272 M164.515 205.569 Q170.325 205.569 173.38 210.175 Q176.459 214.759 176.459 223.509 Q176.459 232.235 173.38 236.842 Q170.325 241.425 164.515 241.425 Q158.704 241.425 155.626 236.842 Q152.57 232.235 152.57 223.509 Q152.57 214.759 155.626 210.175 Q158.704 205.569 164.515 205.569 Z" fill="#000000" fill-rule="nonzero" fill-opacity="1" /><path clip-path="url(#clip660)" d="M184.676 234.874 L189.561 234.874 L189.561 240.754 L184.676 240.754 L184.676 234.874 Z" fill="#000000" fill-rule="nonzero" fill-opacity="1" /><path clip-path="url(#clip660)" d="M209.746 209.272 Q206.135 209.272 204.306 212.837 Q202.5 216.379 202.5 223.509 Q202.5 230.615 204.306 234.18 Q206.135 237.721 209.746 237.721 Q213.38 237.721 215.186 234.18 Q217.014 230.615 217.014 223.509 Q217.014 216.379 215.186 212.837 Q213.38 209.272 209.746 209.272 M209.746 205.569 Q215.556 205.569 218.611 210.175 Q221.69 214.759 221.69 223.509 Q221.69 232.235 218.611 236.842 Q215.556 241.425 209.746 241.425 Q203.936 241.425 200.857 236.842 Q197.801 232.235 197.801 223.509 Q197.801 214.759 200.857 210.175 Q203.936 205.569 209.746 205.569 Z" fill="#000000" fill-rule="nonzero" fill-opacity="1" /><path clip-path="url(#clip660)" d="M165.51 160.686 Q161.899 160.686 160.07 164.25 Q158.265 167.792 158.265 174.922 Q158.265 182.028 160.07 185.593 Q161.899 189.134 165.51 189.134 Q169.144 189.134 170.95 185.593 Q172.778 182.028 172.778 174.922 Q172.778 167.792 170.95 164.25 Q169.144 160.686 165.51 160.686 M165.51 156.982 Q171.32 156.982 174.376 161.588 Q177.454 166.172 177.454 174.922 Q177.454 183.648 174.376 188.255 Q171.32 192.838 165.51 192.838 Q159.7 192.838 156.621 188.255 Q153.566 183.648 153.566 174.922 Q153.566 166.172 156.621 161.588 Q159.7 156.982 165.51 156.982 Z" fill="#000000" fill-rule="nonzero" fill-opacity="1" /><path clip-path="url(#clip660)" d="M185.672 186.287 L190.556 186.287 L190.556 192.167 L185.672 192.167 L185.672 186.287 Z" fill="#000000" fill-rule="nonzero" fill-opacity="1" /><path clip-path="url(#clip660)" d="M200.787 157.607 L219.144 157.607 L219.144 161.542 L205.07 161.542 L205.07 170.014 Q206.088 169.667 207.107 169.505 Q208.125 169.32 209.144 169.32 Q214.931 169.32 218.311 172.491 Q221.69 175.662 221.69 181.079 Q221.69 186.658 218.218 189.759 Q214.746 192.838 208.426 192.838 Q206.25 192.838 203.982 192.468 Q201.737 192.097 199.329 191.357 L199.329 186.658 Q201.412 187.792 203.635 188.347 Q205.857 188.903 208.334 188.903 Q212.338 188.903 214.676 186.797 Q217.014 184.69 217.014 181.079 Q217.014 177.468 214.676 175.361 Q212.338 173.255 208.334 173.255 Q206.459 173.255 204.584 173.672 Q202.732 174.088 200.787 174.968 L200.787 157.607 Z" fill="#000000" fill-rule="nonzero" fill-opacity="1" /><path clip-path="url(#clip660)" d="M155.325 139.645 L162.964 139.645 L162.964 113.279 L154.653 114.946 L154.653 110.687 L162.917 109.02 L167.593 109.02 L167.593 139.645 L175.232 139.645 L175.232 143.58 L155.325 143.58 L155.325 139.645 Z" fill="#000000" fill-rule="nonzero" fill-opacity="1" /><path clip-path="url(#clip660)" d="M184.676 137.7 L189.561 137.7 L189.561 143.58 L184.676 143.58 L184.676 137.7 Z" fill="#000000" fill-rule="nonzero" fill-opacity="1" /><path clip-path="url(#clip660)" d="M209.746 112.099 Q206.135 112.099 204.306 115.663 Q202.5 119.205 202.5 126.335 Q202.5 133.441 204.306 137.006 Q206.135 140.548 209.746 140.548 Q213.38 140.548 215.186 137.006 Q217.014 133.441 217.014 126.335 Q217.014 119.205 215.186 115.663 Q213.38 112.099 209.746 112.099 M209.746 108.395 Q215.556 108.395 218.611 113.001 Q221.69 117.585 221.69 126.335 Q221.69 135.061 218.611 139.668 Q215.556 144.251 209.746 144.251 Q203.936 144.251 200.857 139.668 Q197.801 135.061 197.801 126.335 Q197.801 117.585 200.857 113.001 Q203.936 108.395 209.746 108.395 Z" fill="#000000" fill-rule="nonzero" fill-opacity="1" /><path clip-path="url(#clip660)" d="M156.32 91.0579 L163.959 91.0579 L163.959 64.6923 L155.649 66.359 L155.649 62.0997 L163.913 60.4331 L168.589 60.4331 L168.589 91.0579 L176.227 91.0579 L176.227 94.9931 L156.32 94.9931 L156.32 91.0579 Z" fill="#000000" fill-rule="nonzero" fill-opacity="1" /><path clip-path="url(#clip660)" d="M185.672 89.1135 L190.556 89.1135 L190.556 94.9931 L185.672 94.9931 L185.672 89.1135 Z" fill="#000000" fill-rule="nonzero" fill-opacity="1" /><path clip-path="url(#clip660)" d="M200.787 60.4331 L219.144 60.4331 L219.144 64.3682 L205.07 64.3682 L205.07 72.8404 Q206.088 72.4932 207.107 72.3311 Q208.125 72.146 209.144 72.146 Q214.931 72.146 218.311 75.3172 Q221.69 78.4885 221.69 83.9052 Q221.69 89.4838 218.218 92.5857 Q214.746 95.6643 208.426 95.6643 Q206.25 95.6643 203.982 95.294 Q201.737 94.9236 199.329 94.1829 L199.329 89.4838 Q201.412 90.6181 203.635 91.1736 Q205.857 91.7292 208.334 91.7292 Q212.338 91.7292 214.676 89.6227 Q217.014 87.5162 217.014 83.9052 Q217.014 80.2941 214.676 78.1876 Q212.338 76.0811 208.334 76.0811 Q206.459 76.0811 204.584 76.4978 Q202.732 76.9144 200.787 77.7941 L200.787 60.4331 Z" fill="#000000" fill-rule="nonzero" fill-opacity="1" /><path clip-path="url(#clip660)" d="M28.8423 206.353 L46.1889 219.244 L64.4903 205.685 L64.4903 212.592 L50.4857 222.968 L64.4903 233.344 L64.4903 240.251 L45.8387 226.405 L28.8423 239.073 L28.8423 232.166 L41.5419 222.713 L28.8423 213.26 L28.8423 206.353 Z" fill="#000000" fill-rule="nonzero" fill-opacity="1" /><polyline clip-path="url(#clip662)" style="stroke:#009af9; stroke-linecap:round; stroke-linejoin:round; stroke-width:4; stroke-opacity:1; fill:none" points="316.984,194.322 336.749,190.148 356.514,187.435 376.279,186.272 396.044,186.707 415.808,188.746 435.573,192.35 455.338,197.427 475.103,203.807 494.867,211.225 514.632,219.304 534.397,227.584 554.162,235.573 573.926,242.811 593.691,248.939 613.456,253.707 633.221,256.958 652.986,258.603 672.75,258.618 692.515,257.019 712.28,253.862 732.045,249.257 751.809,243.38 771.574,236.488 791.339,228.927 811.104,221.119 830.869,213.504 850.633,206.482 870.398,200.4 890.163,195.495 909.928,191.914 929.692,189.734 949.457,188.98 969.222,189.646 988.987,191.683 1008.75,195.01 1028.52,199.507 1048.28,205.001 1068.05,211.264 1087.81,218.004 1107.58,224.898 1127.34,231.62 1147.1,237.836 1166.87,243.267 1186.63,247.719 1206.4,251.05 1226.16,253.176 1245.93,254.044 1265.69,253.624 1285.46,251.927 1305.22,249.002 1324.99,244.921 1344.75,239.802 1364.52,233.829 1384.28,227.247 1404.05,220.363 1423.81,213.506 1443.58,207.011 1463.34,201.205 1483.11,196.331 1502.87,192.58 1522.64,190.085 1542.4,188.941 1562.17,189.216 1581.93,190.931 1601.69,194.063 1621.46,198.553 1641.22,204.281 1660.99,211.039 1680.75,218.522 1700.52,226.334 1720.28,234.056 1740.05,241.258 1759.81,247.526 1779.58,252.588 1799.34,256.244 1819.11,258.37 1838.87,258.894 1858.64,257.775 1878.4,255.031 1898.17,250.736 1917.93,245.019 1937.7,238.097 1957.46,230.297 1977.23,222.053 1996.99,213.852 2016.75,206.153 2036.52,199.369 2056.28,193.833 2076.05,189.727 2095.81,187.166 2115.58,186.197 2135.34,186.833 2155.11,189.044 2174.87,192.749 2194.64,197.817 2214.4,204.054 2234.17,211.176 2253.93,218.822 2273.7,226.566 2293.46,233.976 "/>
<polyline clip-path="url(#clip662)" style="stroke:#e26f46; stroke-linecap:round; stroke-linejoin:round; stroke-width:4; stroke-opacity:1; fill:none" points="316.984,223.474 336.749,223.806 356.514,224.84 376.279,226.614 396.044,229.154 415.808,232.475 435.573,236.58 455.338,241.449 475.103,247.019 494.867,253.161 514.632,259.671 534.397,266.279 554.162,272.696 573.926,278.652 593.691,283.954 613.456,288.484 633.221,292.182 652.986,295.029 672.75,297.031 692.515,298.205 712.28,298.578 732.045,298.196 751.809,297.141 771.574,295.542 791.339,293.588 811.104,291.517 830.869,289.582 850.633,288.002 870.398,286.958 890.163,286.55 909.928,286.819 929.692,287.766 949.457,289.371 969.222,291.609 988.987,294.443 1008.75,297.833 1028.52,301.729 1048.28,306.056 1068.05,310.709 1087.81,315.545 1107.58,320.402 1127.34,325.115 1147.1,329.52 1166.87,333.487 1186.63,336.945 1206.4,339.852 1226.16,342.195 1245.93,343.966 1265.69,345.159 1285.46,345.776 1305.22,345.823 1324.99,345.311 1344.75,344.268 1364.52,342.762 1384.28,340.895 1404.05,338.817 1423.81,336.692 1443.58,334.69 1463.34,332.977 1483.11,331.668 1502.87,330.845 1522.64,330.565 1542.4,330.87 1562.17,331.804 1581.93,333.397 1601.69,335.664 1621.46,338.614 1641.22,342.221 1660.99,346.404 1680.75,351.015 1700.52,355.837 1720.28,360.634 1740.05,365.162 1759.81,369.185 1779.58,372.563 1799.34,375.204 1819.11,377.055 1838.87,378.085 1858.64,378.266 1878.4,377.592 1898.17,376.08 1917.93,373.77 1937.7,370.759 1957.46,367.22 1977.23,363.399 1996.99,359.586 2016.75,356.045 2036.52,353.011 2056.28,350.66 2076.05,349.058 2095.81,348.24 2115.58,348.203 2135.34,348.936 2155.11,350.421 2174.87,352.62 2194.64,355.479 2214.4,358.905 2234.17,362.755 2253.93,366.831 2273.7,370.892 2293.46,374.693 "/>
<polyline clip-path="url(#clip662)" style="stroke:#3da44d; stroke-linecap:round; stroke-linejoin:round; stroke-width:4; stroke-opacity:1; fill:none" points="316.984,126.3 336.749,154.211 356.514,184.489 376.279,216.115 396.044,248.258 415.808,280.107 435.573,310.704 455.338,338.758 475.103,362.519 494.867,379.874 514.632,388.745 534.397,387.78 554.162,377.091 573.926,358.154 593.691,333.097 613.456,304.019 633.221,272.602 652.986,240.122 672.75,207.526 692.515,175.643 712.28,145.399 732.045,117.935 751.809,94.7694 771.574,77.6659 791.339,68.272 811.104,67.6981 830.869,75.8188 850.633,91.5672 870.398,113.031 890.163,138.258 909.928,165.687 929.692,194.124 949.457,222.697 969.222,250.696 988.987,277.437 1008.75,302.195 1028.52,324.046 1048.28,341.913 1068.05,354.621 1087.81,361.132 1107.58,360.792 1127.34,353.676 1147.1,340.603 1166.87,322.855 1186.63,301.696 1206.4,278.255 1226.16,253.441 1245.93,227.928 1265.69,202.293 1285.46,177.14 1305.22,153.096 1324.99,130.977 1344.75,111.862 1364.52,96.9868 1384.28,87.6344 1404.05,84.807 1423.81,88.9255 1443.58,99.6483 1463.34,115.956 1483.11,136.674 1502.87,160.66 1522.64,186.926 1542.4,214.697 1562.17,243.294 1581.93,271.983 1601.69,299.967 1621.46,326.191 1641.22,349.165 1660.99,367.086 1680.75,378.033 1700.52,380.501 1720.28,373.955 1740.05,359.057 1759.81,337.534 1779.58,311.183 1799.34,281.602 1819.11,250.059 1838.87,217.508 1858.64,184.785 1878.4,152.849 1898.17,122.803 1917.93,96.1747 1937.7,74.9951 1957.46,61.3901 1977.23,57.1907 1996.99,62.8387 2016.75,77.596 2036.52,99.6569 2056.28,126.568 2076.05,156.528 2095.81,188.097 2115.58,220.228 2135.34,252.112 2155.11,282.927 2174.87,311.717 2194.64,337.327 2214.4,358.142 2234.17,372.49 2253.93,378.843 2273.7,376.418 2293.46,365.607 "/>
<polyline clip-path="url(#clip662)" style="stroke:#c271d2; stroke-linecap:round; stroke-linejoin:round; stroke-width:4; stroke-opacity:1; fill:none" points="316.984,223.474 336.749,236.971 356.514,251.459 376.279,266.552 396.044,282.045 415.808,297.751 435.573,313.341 455.338,328.167 475.103,341.141 494.867,350.807 514.632,355.655 534.397,354.679 554.162,347.958 573.926,336.577 593.691,322.067 613.456,305.849 633.221,288.932 652.986,271.937 672.75,255.171 692.515,238.829 712.28,223.195 732.045,208.766 751.809,196.4 771.574,187.22 791.339,182.342 811.104,182.533 830.869,187.64 850.633,196.848 870.398,208.762 890.163,222.024 909.928,235.667 929.692,249.091 949.457,262.009 969.222,274.299 988.987,285.858 1008.75,296.538 1028.52,305.993 1048.28,313.687 1068.05,318.938 1087.81,321.097 1107.58,319.762 1127.34,315.015 1147.1,307.438 1166.87,297.908 1186.63,287.222 1206.4,275.986 1226.16,264.57 1245.93,253.1 1265.69,241.606 1285.46,230.137 1305.22,218.77 1324.99,207.781 1344.75,197.713 1364.52,189.309 1384.28,183.428 1404.05,180.779 1423.81,181.685 1443.58,185.952 1463.34,192.932 1483.11,201.916 1502.87,212.297 1522.64,223.654 1542.4,235.789 1562.17,248.608 1581.93,261.966 1601.69,275.654 1621.46,289.207 1641.22,301.741 1660.99,312.046 1680.75,318.73 1700.52,320.665 1720.28,317.418 1740.05,309.418 1759.81,297.849 1779.58,283.899 1799.34,268.515 1819.11,252.313 1838.87,235.607 1858.64,218.593 1878.4,201.585 1898.17,185.044 1917.93,169.827 1937.7,157.276 1957.46,148.891 1977.23,146.024 1996.99,148.978 2016.75,157.2 2036.52,169.382 2056.28,183.783 2076.05,199.236 2095.81,214.952 2115.58,230.514 2135.34,245.737 2155.11,260.43 2174.87,274.262 2194.64,286.71 2214.4,296.811 2234.17,303.486 2253.93,305.686 2273.7,302.882 2293.46,295.403 "/>
<path clip-path="url(#clip660)" d="M327.526 318.159 L634.231 318.159 L634.231 58.959 L327.526 58.959  Z" fill="#ffffff" fill-rule="evenodd" fill-opacity="1"/>
<polyline clip-path="url(#clip660)" style="stroke:#000000; stroke-linecap:round; stroke-linejoin:round; stroke-width:4; stroke-opacity:1; fill:none" points="327.526,318.159 634.231,318.159 634.231,58.959 327.526,58.959 327.526,318.159 "/>
<polyline clip-path="url(#clip660)" style="stroke:#009af9; stroke-linecap:round; stroke-linejoin:round; stroke-width:4; stroke-opacity:1; fill:none" points="350.804,110.799 490.475,110.799 "/>
<path clip-path="url(#clip660)" d="M538.406 102.153 L529.031 114.769 L538.892 128.079 L533.869 128.079 L526.323 117.894 L518.777 128.079 L513.754 128.079 L523.823 114.514 L514.61 102.153 L519.633 102.153 L526.508 111.389 L533.383 102.153 L538.406 102.153 Z" fill="#000000" fill-rule="nonzero" fill-opacity="1" /><path clip-path="url(#clip660)" d="M544.054 125.533 L548.777 125.533 L548.777 111.389 L543.615 112.338 L543.615 109.653 L548.939 108.75 L552.11 108.75 L552.11 125.533 L556.855 125.533 L556.855 128.079 L544.054 128.079 L544.054 125.533 Z" fill="#000000" fill-rule="nonzero" fill-opacity="1" /><path clip-path="url(#clip660)" d="M574.147 92.107 Q571.045 97.431 569.54 102.639 Q568.036 107.848 568.036 113.195 Q568.036 118.542 569.54 123.797 Q571.068 129.028 574.147 134.329 L570.443 134.329 Q566.971 128.889 565.235 123.635 Q563.522 118.38 563.522 113.195 Q563.522 108.033 565.235 102.801 Q566.948 97.5699 570.443 92.107 L574.147 92.107 Z" fill="#000000" fill-rule="nonzero" fill-opacity="1" /><path clip-path="url(#clip660)" d="M586.624 94.7922 L586.624 102.153 L595.397 102.153 L595.397 105.463 L586.624 105.463 L586.624 119.537 Q586.624 122.709 587.48 123.611 Q588.36 124.514 591.022 124.514 L595.397 124.514 L595.397 128.079 L591.022 128.079 Q586.091 128.079 584.216 126.25 Q582.341 124.398 582.341 119.537 L582.341 105.463 L579.216 105.463 L579.216 102.153 L582.341 102.153 L582.341 94.7922 L586.624 94.7922 Z" fill="#000000" fill-rule="nonzero" fill-opacity="1" /><path clip-path="url(#clip660)" d="M600.327 92.107 L604.031 92.107 Q607.503 97.5699 609.216 102.801 Q610.952 108.033 610.952 113.195 Q610.952 118.38 609.216 123.635 Q607.503 128.889 604.031 134.329 L600.327 134.329 Q603.406 129.028 604.911 123.797 Q606.438 118.542 606.438 113.195 Q606.438 107.848 604.911 102.639 Q603.406 97.431 600.327 92.107 Z" fill="#000000" fill-rule="nonzero" fill-opacity="1" /><polyline clip-path="url(#clip660)" style="stroke:#e26f46; stroke-linecap:round; stroke-linejoin:round; stroke-width:4; stroke-opacity:1; fill:none" points="350.804,162.639 490.475,162.639 "/>
<path clip-path="url(#clip660)" d="M538.406 153.993 L529.031 166.609 L538.892 179.919 L533.869 179.919 L526.323 169.734 L518.777 179.919 L513.754 179.919 L523.823 166.354 L514.61 153.993 L519.633 153.993 L526.508 163.229 L533.383 153.993 L538.406 153.993 Z" fill="#000000" fill-rule="nonzero" fill-opacity="1" /><path clip-path="url(#clip660)" d="M546.647 177.28 L556.462 177.28 L556.462 179.919 L542.619 179.919 L542.619 177.373 Q543.406 176.655 544.865 175.359 Q552.828 168.299 552.828 166.123 Q552.828 164.595 551.624 163.669 Q550.42 162.72 548.453 162.72 Q547.249 162.72 545.837 163.137 Q544.425 163.53 542.758 164.34 L542.758 161.493 Q544.541 160.845 546.068 160.521 Q547.619 160.197 548.939 160.197 Q552.295 160.197 554.309 161.725 Q556.323 163.252 556.323 165.752 Q556.323 168.97 548.661 175.544 Q547.365 176.655 546.647 177.28 Z" fill="#000000" fill-rule="nonzero" fill-opacity="1" /><path clip-path="url(#clip660)" d="M574.147 143.947 Q571.045 149.271 569.54 154.479 Q568.036 159.688 568.036 165.035 Q568.036 170.382 569.54 175.637 Q571.068 180.868 574.147 186.169 L570.443 186.169 Q566.971 180.729 565.235 175.475 Q563.522 170.22 563.522 165.035 Q563.522 159.873 565.235 154.641 Q566.948 149.41 570.443 143.947 L574.147 143.947 Z" fill="#000000" fill-rule="nonzero" fill-opacity="1" /><path clip-path="url(#clip660)" d="M586.624 146.632 L586.624 153.993 L595.397 153.993 L595.397 157.303 L586.624 157.303 L586.624 171.377 Q586.624 174.549 587.48 175.451 Q588.36 176.354 591.022 176.354 L595.397 176.354 L595.397 179.919 L591.022 179.919 Q586.091 179.919 584.216 178.09 Q582.341 176.238 582.341 171.377 L582.341 157.303 L579.216 157.303 L579.216 153.993 L582.341 153.993 L582.341 146.632 L586.624 146.632 Z" fill="#000000" fill-rule="nonzero" fill-opacity="1" /><path clip-path="url(#clip660)" d="M600.327 143.947 L604.031 143.947 Q607.503 149.41 609.216 154.641 Q610.952 159.873 610.952 165.035 Q610.952 170.22 609.216 175.475 Q607.503 180.729 604.031 186.169 L600.327 186.169 Q603.406 180.868 604.911 175.637 Q606.438 170.382 606.438 165.035 Q606.438 159.688 604.911 154.479 Q603.406 149.271 600.327 143.947 Z" fill="#000000" fill-rule="nonzero" fill-opacity="1" /><polyline clip-path="url(#clip660)" style="stroke:#3da44d; stroke-linecap:round; stroke-linejoin:round; stroke-width:4; stroke-opacity:1; fill:none" points="350.804,214.479 490.475,214.479 "/>
<path clip-path="url(#clip660)" d="M538.406 205.833 L529.031 218.449 L538.892 231.759 L533.869 231.759 L526.323 221.574 L518.777 231.759 L513.754 231.759 L523.823 218.194 L514.61 205.833 L519.633 205.833 L526.508 215.069 L533.383 205.833 L538.406 205.833 Z" fill="#000000" fill-rule="nonzero" fill-opacity="1" /><path clip-path="url(#clip660)" d="M552.573 221.296 Q554.703 221.713 555.86 222.986 Q557.041 224.236 557.041 226.134 Q557.041 229.004 554.841 230.555 Q552.642 232.106 548.545 232.106 Q547.226 232.106 545.767 231.852 Q544.332 231.62 542.712 231.157 L542.712 228.356 Q543.916 228.981 545.281 229.282 Q546.67 229.583 548.221 229.583 Q550.744 229.583 552.133 228.68 Q553.522 227.754 553.522 226.134 Q553.522 224.421 552.226 223.541 Q550.953 222.662 548.453 222.662 L546.462 222.662 L546.462 220.162 L548.638 220.162 Q550.814 220.162 551.925 219.444 Q553.059 218.704 553.059 217.315 Q553.059 215.972 551.902 215.278 Q550.744 214.56 548.545 214.56 Q547.619 214.56 546.439 214.768 Q545.258 214.977 543.383 215.509 L543.383 212.847 Q545.073 212.454 546.554 212.245 Q548.036 212.037 549.309 212.037 Q552.642 212.037 554.587 213.403 Q556.554 214.768 556.554 217.06 Q556.554 218.657 555.513 219.768 Q554.471 220.879 552.573 221.296 Z" fill="#000000" fill-rule="nonzero" fill-opacity="1" /><path clip-path="url(#clip660)" d="M574.147 195.787 Q571.045 201.111 569.54 206.319 Q568.036 211.528 568.036 216.875 Q568.036 222.222 569.54 227.477 Q571.068 232.708 574.147 238.009 L570.443 238.009 Q566.971 232.569 565.235 227.315 Q563.522 222.06 563.522 216.875 Q563.522 211.713 565.235 206.481 Q566.948 201.25 570.443 195.787 L574.147 195.787 Z" fill="#000000" fill-rule="nonzero" fill-opacity="1" /><path clip-path="url(#clip660)" d="M586.624 198.472 L586.624 205.833 L595.397 205.833 L595.397 209.143 L586.624 209.143 L586.624 223.217 Q586.624 226.389 587.48 227.291 Q588.36 228.194 591.022 228.194 L595.397 228.194 L595.397 231.759 L591.022 231.759 Q586.091 231.759 584.216 229.93 Q582.341 228.078 582.341 223.217 L582.341 209.143 L579.216 209.143 L579.216 205.833 L582.341 205.833 L582.341 198.472 L586.624 198.472 Z" fill="#000000" fill-rule="nonzero" fill-opacity="1" /><path clip-path="url(#clip660)" d="M600.327 195.787 L604.031 195.787 Q607.503 201.25 609.216 206.481 Q610.952 211.713 610.952 216.875 Q610.952 222.06 609.216 227.315 Q607.503 232.569 604.031 238.009 L600.327 238.009 Q603.406 232.708 604.911 227.477 Q606.438 222.222 606.438 216.875 Q606.438 211.528 604.911 206.319 Q603.406 201.111 600.327 195.787 Z" fill="#000000" fill-rule="nonzero" fill-opacity="1" /><polyline clip-path="url(#clip660)" style="stroke:#c271d2; stroke-linecap:round; stroke-linejoin:round; stroke-width:4; stroke-opacity:1; fill:none" points="350.804,266.319 490.475,266.319 "/>
<path clip-path="url(#clip660)" d="M538.406 257.673 L529.031 270.289 L538.892 283.599 L533.869 283.599 L526.323 273.414 L518.777 283.599 L513.754 283.599 L523.823 270.034 L514.61 257.673 L519.633 257.673 L526.508 266.909 L533.383 257.673 L538.406 257.673 Z" fill="#000000" fill-rule="nonzero" fill-opacity="1" /><path clip-path="url(#clip660)" d="M551.485 267.071 L544.332 276.77 L551.485 276.77 L551.485 267.071 M550.976 264.27 L554.818 264.27 L554.818 276.77 L557.943 276.77 L557.943 279.293 L554.818 279.293 L554.818 283.599 L551.485 283.599 L551.485 279.293 L541.902 279.293 L541.902 276.493 L550.976 264.27 Z" fill="#000000" fill-rule="nonzero" fill-opacity="1" /><path clip-path="url(#clip660)" d="M574.147 247.627 Q571.045 252.951 569.54 258.159 Q568.036 263.368 568.036 268.715 Q568.036 274.062 569.54 279.317 Q571.068 284.548 574.147 289.849 L570.443 289.849 Q566.971 284.409 565.235 279.155 Q563.522 273.9 563.522 268.715 Q563.522 263.553 565.235 258.321 Q566.948 253.09 570.443 247.627 L574.147 247.627 Z" fill="#000000" fill-rule="nonzero" fill-opacity="1" /><path clip-path="url(#clip660)" d="M586.624 250.312 L586.624 257.673 L595.397 257.673 L595.397 260.983 L586.624 260.983 L586.624 275.057 Q586.624 278.229 587.48 279.131 Q588.36 280.034 591.022 280.034 L595.397 280.034 L595.397 283.599 L591.022 283.599 Q586.091 283.599 584.216 281.77 Q582.341 279.918 582.341 275.057 L582.341 260.983 L579.216 260.983 L579.216 257.673 L582.341 257.673 L582.341 250.312 L586.624 250.312 Z" fill="#000000" fill-rule="nonzero" fill-opacity="1" /><path clip-path="url(#clip660)" d="M600.327 247.627 L604.031 247.627 Q607.503 253.09 609.216 258.321 Q610.952 263.553 610.952 268.715 Q610.952 273.9 609.216 279.155 Q607.503 284.409 604.031 289.849 L600.327 289.849 Q603.406 284.548 604.911 279.317 Q606.438 274.062 606.438 268.715 Q606.438 263.368 604.911 258.159 Q603.406 252.951 600.327 247.627 Z" fill="#000000" fill-rule="nonzero" fill-opacity="1" /><path clip-path="url(#clip660)" d="M257.69 910.936 L2352.76 910.936 L2352.76 559.488 L257.69 559.488  Z" fill="#ffffff" fill-rule="evenodd" fill-opacity="1"/>
<defs>
  <clipPath id="clip663">
    <rect x="257" y="559" width="2096" height="352"/>
  </clipPath>
</defs>
<polyline clip-path="url(#clip663)" style="stroke:#000000; stroke-linecap:round; stroke-linejoin:round; stroke-width:2; stroke-opacity:0.1; fill:none" points="316.984,910.936 316.984,559.488 "/>
<polyline clip-path="url(#clip663)" style="stroke:#000000; stroke-linecap:round; stroke-linejoin:round; stroke-width:2; stroke-opacity:0.1; fill:none" points="712.28,910.936 712.28,559.488 "/>
<polyline clip-path="url(#clip663)" style="stroke:#000000; stroke-linecap:round; stroke-linejoin:round; stroke-width:2; stroke-opacity:0.1; fill:none" points="1107.58,910.936 1107.58,559.488 "/>
<polyline clip-path="url(#clip663)" style="stroke:#000000; stroke-linecap:round; stroke-linejoin:round; stroke-width:2; stroke-opacity:0.1; fill:none" points="1502.87,910.936 1502.87,559.488 "/>
<polyline clip-path="url(#clip663)" style="stroke:#000000; stroke-linecap:round; stroke-linejoin:round; stroke-width:2; stroke-opacity:0.1; fill:none" points="1898.17,910.936 1898.17,559.488 "/>
<polyline clip-path="url(#clip663)" style="stroke:#000000; stroke-linecap:round; stroke-linejoin:round; stroke-width:2; stroke-opacity:0.1; fill:none" points="2293.46,910.936 2293.46,559.488 "/>
<polyline clip-path="url(#clip663)" style="stroke:#000000; stroke-linecap:round; stroke-linejoin:round; stroke-width:2; stroke-opacity:0.1; fill:none" points="257.69,860.904 2352.76,860.904 "/>
<polyline clip-path="url(#clip663)" style="stroke:#000000; stroke-linecap:round; stroke-linejoin:round; stroke-width:2; stroke-opacity:0.1; fill:none" points="257.69,798.855 2352.76,798.855 "/>
<polyline clip-path="url(#clip663)" style="stroke:#000000; stroke-linecap:round; stroke-linejoin:round; stroke-width:2; stroke-opacity:0.1; fill:none" points="257.69,736.806 2352.76,736.806 "/>
<polyline clip-path="url(#clip663)" style="stroke:#000000; stroke-linecap:round; stroke-linejoin:round; stroke-width:2; stroke-opacity:0.1; fill:none" points="257.69,674.757 2352.76,674.757 "/>
<polyline clip-path="url(#clip663)" style="stroke:#000000; stroke-linecap:round; stroke-linejoin:round; stroke-width:2; stroke-opacity:0.1; fill:none" points="257.69,612.708 2352.76,612.708 "/>
<polyline clip-path="url(#clip660)" style="stroke:#000000; stroke-linecap:round; stroke-linejoin:round; stroke-width:4; stroke-opacity:1; fill:none" points="257.69,910.936 2352.76,910.936 "/>
<polyline clip-path="url(#clip660)" style="stroke:#000000; stroke-linecap:round; stroke-linejoin:round; stroke-width:4; stroke-opacity:1; fill:none" points="316.984,910.936 316.984,892.038 "/>
<polyline clip-path="url(#clip660)" style="stroke:#000000; stroke-linecap:round; stroke-linejoin:round; stroke-width:4; stroke-opacity:1; fill:none" points="712.28,910.936 712.28,892.038 "/>
<polyline clip-path="url(#clip660)" style="stroke:#000000; stroke-linecap:round; stroke-linejoin:round; stroke-width:4; stroke-opacity:1; fill:none" points="1107.58,910.936 1107.58,892.038 "/>
<polyline clip-path="url(#clip660)" style="stroke:#000000; stroke-linecap:round; stroke-linejoin:round; stroke-width:4; stroke-opacity:1; fill:none" points="1502.87,910.936 1502.87,892.038 "/>
<polyline clip-path="url(#clip660)" style="stroke:#000000; stroke-linecap:round; stroke-linejoin:round; stroke-width:4; stroke-opacity:1; fill:none" points="1898.17,910.936 1898.17,892.038 "/>
<polyline clip-path="url(#clip660)" style="stroke:#000000; stroke-linecap:round; stroke-linejoin:round; stroke-width:4; stroke-opacity:1; fill:none" points="2293.46,910.936 2293.46,892.038 "/>
<path clip-path="url(#clip660)" d="M316.984 941.855 Q313.373 941.855 311.545 945.419 Q309.739 948.961 309.739 956.091 Q309.739 963.197 311.545 966.762 Q313.373 970.303 316.984 970.303 Q320.619 970.303 322.424 966.762 Q324.253 963.197 324.253 956.091 Q324.253 948.961 322.424 945.419 Q320.619 941.855 316.984 941.855 M316.984 938.151 Q322.795 938.151 325.85 942.757 Q328.929 947.341 328.929 956.091 Q328.929 964.817 325.85 969.424 Q322.795 974.007 316.984 974.007 Q311.174 974.007 308.096 969.424 Q305.04 964.817 305.04 956.091 Q305.04 947.341 308.096 942.757 Q311.174 938.151 316.984 938.151 Z" fill="#000000" fill-rule="nonzero" fill-opacity="1" /><path clip-path="url(#clip660)" d="M702.662 969.401 L710.301 969.401 L710.301 943.035 L701.991 944.702 L701.991 940.443 L710.254 938.776 L714.93 938.776 L714.93 969.401 L722.569 969.401 L722.569 973.336 L702.662 973.336 L702.662 969.401 Z" fill="#000000" fill-rule="nonzero" fill-opacity="1" /><path clip-path="url(#clip660)" d="M1102.23 969.401 L1118.55 969.401 L1118.55 973.336 L1096.6 973.336 L1096.6 969.401 Q1099.27 966.646 1103.85 962.016 Q1108.45 957.364 1109.64 956.021 Q1111.88 953.498 1112.76 951.762 Q1113.66 950.003 1113.66 948.313 Q1113.66 945.558 1111.72 943.822 Q1109.8 942.086 1106.7 942.086 Q1104.5 942.086 1102.04 942.85 Q1099.61 943.614 1096.83 945.165 L1096.83 940.443 Q1099.66 939.308 1102.11 938.73 Q1104.57 938.151 1106.6 938.151 Q1111.97 938.151 1115.17 940.836 Q1118.36 943.521 1118.36 948.012 Q1118.36 950.142 1117.55 952.063 Q1116.77 953.961 1114.66 956.554 Q1114.08 957.225 1110.98 960.442 Q1107.88 963.637 1102.23 969.401 Z" fill="#000000" fill-rule="nonzero" fill-opacity="1" /><path clip-path="url(#clip660)" d="M1507.12 954.702 Q1510.47 955.419 1512.35 957.688 Q1514.25 959.956 1514.25 963.29 Q1514.25 968.405 1510.73 971.206 Q1507.21 974.007 1500.73 974.007 Q1498.55 974.007 1496.24 973.567 Q1493.95 973.151 1491.49 972.294 L1491.49 967.78 Q1493.44 968.915 1495.75 969.493 Q1498.07 970.072 1500.59 970.072 Q1504.99 970.072 1507.28 968.336 Q1509.6 966.6 1509.6 963.29 Q1509.6 960.234 1507.44 958.521 Q1505.31 956.785 1501.49 956.785 L1497.47 956.785 L1497.47 952.942 L1501.68 952.942 Q1505.13 952.942 1506.96 951.577 Q1508.79 950.188 1508.79 947.595 Q1508.79 944.933 1506.89 943.521 Q1505.01 942.086 1501.49 942.086 Q1499.57 942.086 1497.37 942.503 Q1495.17 942.919 1492.54 943.799 L1492.54 939.632 Q1495.2 938.892 1497.51 938.521 Q1499.85 938.151 1501.91 938.151 Q1507.23 938.151 1510.34 940.581 Q1513.44 942.989 1513.44 947.109 Q1513.44 949.979 1511.79 951.97 Q1510.15 953.938 1507.12 954.702 Z" fill="#000000" fill-rule="nonzero" fill-opacity="1" /><path clip-path="url(#clip660)" d="M1901.18 942.85 L1889.37 961.299 L1901.18 961.299 L1901.18 942.85 M1899.95 938.776 L1905.83 938.776 L1905.83 961.299 L1910.76 961.299 L1910.76 965.188 L1905.83 965.188 L1905.83 973.336 L1901.18 973.336 L1901.18 965.188 L1885.57 965.188 L1885.57 960.674 L1899.95 938.776 Z" fill="#000000" fill-rule="nonzero" fill-opacity="1" /><path clip-path="url(#clip660)" d="M2283.74 938.776 L2302.1 938.776 L2302.1 942.711 L2288.02 942.711 L2288.02 951.183 Q2289.04 950.836 2290.06 950.674 Q2291.08 950.489 2292.1 950.489 Q2297.88 950.489 2301.26 953.66 Q2304.64 956.831 2304.64 962.248 Q2304.64 967.827 2301.17 970.928 Q2297.7 974.007 2291.38 974.007 Q2289.2 974.007 2286.93 973.637 Q2284.69 973.266 2282.28 972.526 L2282.28 967.827 Q2284.36 968.961 2286.59 969.516 Q2288.81 970.072 2291.29 970.072 Q2295.29 970.072 2297.63 967.966 Q2299.97 965.859 2299.97 962.248 Q2299.97 958.637 2297.63 956.53 Q2295.29 954.424 2291.29 954.424 Q2289.41 954.424 2287.54 954.841 Q2285.68 955.257 2283.74 956.137 L2283.74 938.776 Z" fill="#000000" fill-rule="nonzero" fill-opacity="1" /><polyline clip-path="url(#clip660)" style="stroke:#000000; stroke-linecap:round; stroke-linejoin:round; stroke-width:4; stroke-opacity:1; fill:none" points="257.69,910.936 257.69,559.488 "/>
<polyline clip-path="url(#clip660)" style="stroke:#000000; stroke-linecap:round; stroke-linejoin:round; stroke-width:4; stroke-opacity:1; fill:none" points="257.69,860.904 276.588,860.904 "/>
<polyline clip-path="url(#clip660)" style="stroke:#000000; stroke-linecap:round; stroke-linejoin:round; stroke-width:4; stroke-opacity:1; fill:none" points="257.69,798.855 276.588,798.855 "/>
<polyline clip-path="url(#clip660)" style="stroke:#000000; stroke-linecap:round; stroke-linejoin:round; stroke-width:4; stroke-opacity:1; fill:none" points="257.69,736.806 276.588,736.806 "/>
<polyline clip-path="url(#clip660)" style="stroke:#000000; stroke-linecap:round; stroke-linejoin:round; stroke-width:4; stroke-opacity:1; fill:none" points="257.69,674.757 276.588,674.757 "/>
<polyline clip-path="url(#clip660)" style="stroke:#000000; stroke-linecap:round; stroke-linejoin:round; stroke-width:4; stroke-opacity:1; fill:none" points="257.69,612.708 276.588,612.708 "/>
<path clip-path="url(#clip660)" d="M114.746 861.356 L144.422 861.356 L144.422 865.291 L114.746 865.291 L114.746 861.356 Z" fill="#000000" fill-rule="nonzero" fill-opacity="1" /><path clip-path="url(#clip660)" d="M154.561 843.624 L172.917 843.624 L172.917 847.56 L158.843 847.56 L158.843 856.032 Q159.862 855.685 160.88 855.523 Q161.899 855.337 162.917 855.337 Q168.704 855.337 172.084 858.509 Q175.464 861.68 175.464 867.097 Q175.464 872.675 171.991 875.777 Q168.519 878.856 162.2 878.856 Q160.024 878.856 157.755 878.485 Q155.51 878.115 153.103 877.374 L153.103 872.675 Q155.186 873.809 157.408 874.365 Q159.63 874.921 162.107 874.921 Q166.112 874.921 168.45 872.814 Q170.788 870.708 170.788 867.097 Q170.788 863.485 168.45 861.379 Q166.112 859.272 162.107 859.272 Q160.232 859.272 158.357 859.689 Q156.505 860.106 154.561 860.985 L154.561 843.624 Z" fill="#000000" fill-rule="nonzero" fill-opacity="1" /><path clip-path="url(#clip660)" d="M184.676 872.305 L189.561 872.305 L189.561 878.184 L184.676 878.184 L184.676 872.305 Z" fill="#000000" fill-rule="nonzero" fill-opacity="1" /><path clip-path="url(#clip660)" d="M209.746 846.703 Q206.135 846.703 204.306 850.268 Q202.5 853.81 202.5 860.939 Q202.5 868.046 204.306 871.61 Q206.135 875.152 209.746 875.152 Q213.38 875.152 215.186 871.61 Q217.014 868.046 217.014 860.939 Q217.014 853.81 215.186 850.268 Q213.38 846.703 209.746 846.703 M209.746 842.999 Q215.556 842.999 218.611 847.606 Q221.69 852.189 221.69 860.939 Q221.69 869.666 218.611 874.272 Q215.556 878.856 209.746 878.856 Q203.936 878.856 200.857 874.272 Q197.801 869.666 197.801 860.939 Q197.801 852.189 200.857 847.606 Q203.936 842.999 209.746 842.999 Z" fill="#000000" fill-rule="nonzero" fill-opacity="1" /><path clip-path="url(#clip660)" d="M115.742 799.307 L145.417 799.307 L145.417 803.242 L115.742 803.242 L115.742 799.307 Z" fill="#000000" fill-rule="nonzero" fill-opacity="1" /><path clip-path="url(#clip660)" d="M159.538 812.2 L175.857 812.2 L175.857 816.135 L153.913 816.135 L153.913 812.2 Q156.575 809.446 161.158 804.816 Q165.765 800.163 166.945 798.821 Q169.19 796.297 170.07 794.561 Q170.973 792.802 170.973 791.112 Q170.973 788.358 169.028 786.622 Q167.107 784.885 164.005 784.885 Q161.806 784.885 159.353 785.649 Q156.922 786.413 154.144 787.964 L154.144 783.242 Q156.968 782.108 159.422 781.529 Q161.876 780.95 163.913 780.95 Q169.283 780.95 172.477 783.635 Q175.672 786.321 175.672 790.811 Q175.672 792.941 174.862 794.862 Q174.075 796.76 171.968 799.353 Q171.389 800.024 168.288 803.242 Q165.186 806.436 159.538 812.2 Z" fill="#000000" fill-rule="nonzero" fill-opacity="1" /><path clip-path="url(#clip660)" d="M185.672 810.256 L190.556 810.256 L190.556 816.135 L185.672 816.135 L185.672 810.256 Z" fill="#000000" fill-rule="nonzero" fill-opacity="1" /><path clip-path="url(#clip660)" d="M200.787 781.575 L219.144 781.575 L219.144 785.51 L205.07 785.51 L205.07 793.983 Q206.088 793.635 207.107 793.473 Q208.125 793.288 209.144 793.288 Q214.931 793.288 218.311 796.459 Q221.69 799.631 221.69 805.047 Q221.69 810.626 218.218 813.728 Q214.746 816.807 208.426 816.807 Q206.25 816.807 203.982 816.436 Q201.737 816.066 199.329 815.325 L199.329 810.626 Q201.412 811.76 203.635 812.316 Q205.857 812.871 208.334 812.871 Q212.338 812.871 214.676 810.765 Q217.014 808.659 217.014 805.047 Q217.014 801.436 214.676 799.33 Q212.338 797.223 208.334 797.223 Q206.459 797.223 204.584 797.64 Q202.732 798.057 200.787 798.936 L200.787 781.575 Z" fill="#000000" fill-rule="nonzero" fill-opacity="1" /><path clip-path="url(#clip660)" d="M164.515 722.605 Q160.903 722.605 159.075 726.17 Q157.269 729.711 157.269 736.841 Q157.269 743.947 159.075 747.512 Q160.903 751.054 164.515 751.054 Q168.149 751.054 169.954 747.512 Q171.783 743.947 171.783 736.841 Q171.783 729.711 169.954 726.17 Q168.149 722.605 164.515 722.605 M164.515 718.901 Q170.325 718.901 173.38 723.508 Q176.459 728.091 176.459 736.841 Q176.459 745.568 173.38 750.174 Q170.325 754.758 164.515 754.758 Q158.704 754.758 155.626 750.174 Q152.57 745.568 152.57 736.841 Q152.57 728.091 155.626 723.508 Q158.704 718.901 164.515 718.901 Z" fill="#000000" fill-rule="nonzero" fill-opacity="1" /><path clip-path="url(#clip660)" d="M184.676 748.207 L189.561 748.207 L189.561 754.086 L184.676 754.086 L184.676 748.207 Z" fill="#000000" fill-rule="nonzero" fill-opacity="1" /><path clip-path="url(#clip660)" d="M209.746 722.605 Q206.135 722.605 204.306 726.17 Q202.5 729.711 202.5 736.841 Q202.5 743.947 204.306 747.512 Q206.135 751.054 209.746 751.054 Q213.38 751.054 215.186 747.512 Q217.014 743.947 217.014 736.841 Q217.014 729.711 215.186 726.17 Q213.38 722.605 209.746 722.605 M209.746 718.901 Q215.556 718.901 218.611 723.508 Q221.69 728.091 221.69 736.841 Q221.69 745.568 218.611 750.174 Q215.556 754.758 209.746 754.758 Q203.936 754.758 200.857 750.174 Q197.801 745.568 197.801 736.841 Q197.801 728.091 200.857 723.508 Q203.936 718.901 209.746 718.901 Z" fill="#000000" fill-rule="nonzero" fill-opacity="1" /><path clip-path="url(#clip660)" d="M159.538 688.102 L175.857 688.102 L175.857 692.037 L153.913 692.037 L153.913 688.102 Q156.575 685.347 161.158 680.718 Q165.765 676.065 166.945 674.722 Q169.19 672.199 170.07 670.463 Q170.973 668.704 170.973 667.014 Q170.973 664.259 169.028 662.523 Q167.107 660.787 164.005 660.787 Q161.806 660.787 159.353 661.551 Q156.922 662.315 154.144 663.866 L154.144 659.144 Q156.968 658.01 159.422 657.431 Q161.876 656.852 163.913 656.852 Q169.283 656.852 172.477 659.537 Q175.672 662.222 175.672 666.713 Q175.672 668.843 174.862 670.764 Q174.075 672.662 171.968 675.255 Q171.389 675.926 168.288 679.144 Q165.186 682.338 159.538 688.102 Z" fill="#000000" fill-rule="nonzero" fill-opacity="1" /><path clip-path="url(#clip660)" d="M185.672 686.158 L190.556 686.158 L190.556 692.037 L185.672 692.037 L185.672 686.158 Z" fill="#000000" fill-rule="nonzero" fill-opacity="1" /><path clip-path="url(#clip660)" d="M200.787 657.477 L219.144 657.477 L219.144 661.412 L205.07 661.412 L205.07 669.884 Q206.088 669.537 207.107 669.375 Q208.125 669.19 209.144 669.19 Q214.931 669.19 218.311 672.361 Q221.69 675.533 221.69 680.949 Q221.69 686.528 218.218 689.63 Q214.746 692.708 208.426 692.708 Q206.25 692.708 203.982 692.338 Q201.737 691.968 199.329 691.227 L199.329 686.528 Q201.412 687.662 203.635 688.218 Q205.857 688.773 208.334 688.773 Q212.338 688.773 214.676 686.667 Q217.014 684.56 217.014 680.949 Q217.014 677.338 214.676 675.232 Q212.338 673.125 208.334 673.125 Q206.459 673.125 204.584 673.542 Q202.732 673.958 200.787 674.838 L200.787 657.477 Z" fill="#000000" fill-rule="nonzero" fill-opacity="1" /><path clip-path="url(#clip660)" d="M154.561 595.428 L172.917 595.428 L172.917 599.363 L158.843 599.363 L158.843 607.835 Q159.862 607.488 160.88 607.326 Q161.899 607.141 162.917 607.141 Q168.704 607.141 172.084 610.312 Q175.464 613.483 175.464 618.9 Q175.464 624.479 171.991 627.581 Q168.519 630.659 162.2 630.659 Q160.024 630.659 157.755 630.289 Q155.51 629.919 153.103 629.178 L153.103 624.479 Q155.186 625.613 157.408 626.169 Q159.63 626.724 162.107 626.724 Q166.112 626.724 168.45 624.618 Q170.788 622.511 170.788 618.9 Q170.788 615.289 168.45 613.183 Q166.112 611.076 162.107 611.076 Q160.232 611.076 158.357 611.493 Q156.505 611.909 154.561 612.789 L154.561 595.428 Z" fill="#000000" fill-rule="nonzero" fill-opacity="1" /><path clip-path="url(#clip660)" d="M184.676 624.108 L189.561 624.108 L189.561 629.988 L184.676 629.988 L184.676 624.108 Z" fill="#000000" fill-rule="nonzero" fill-opacity="1" /><path clip-path="url(#clip660)" d="M209.746 598.507 Q206.135 598.507 204.306 602.071 Q202.5 605.613 202.5 612.743 Q202.5 619.849 204.306 623.414 Q206.135 626.956 209.746 626.956 Q213.38 626.956 215.186 623.414 Q217.014 619.849 217.014 612.743 Q217.014 605.613 215.186 602.071 Q213.38 598.507 209.746 598.507 M209.746 594.803 Q215.556 594.803 218.611 599.409 Q221.69 603.993 221.69 612.743 Q221.69 621.47 218.611 626.076 Q215.556 630.659 209.746 630.659 Q203.936 630.659 200.857 626.076 Q197.801 621.47 197.801 612.743 Q197.801 603.993 200.857 599.409 Q203.936 594.803 209.746 594.803 Z" fill="#000000" fill-rule="nonzero" fill-opacity="1" /><path clip-path="url(#clip660)" d="M65.4133 767.502 Q65.4133 771.99 62.7079 774.918 Q59.4932 778.387 53.6686 778.387 Q47.6211 778.387 42.9105 775.332 Q38.0726 772.181 38.0726 766.515 Q38.0726 762.791 40.3961 759.863 Q41.7647 758.144 44.0563 756.967 Q41.4782 756.553 38.55 756.553 Q34.2532 756.553 31.7705 757.572 Q26.2642 759.831 26.2642 765.815 Q26.2642 768.075 27.6647 771.576 L22.3175 771.576 Q21.3308 767.884 21.3308 764.574 Q21.3308 756.044 29.1606 752.415 Q32.8527 750.728 38.359 750.728 Q41.9557 750.728 46.1252 751.524 Q56.565 753.529 61.5302 758.717 Q65.4133 762.791 65.4133 767.502 M54.6234 772.945 Q57.8063 772.945 59.525 771.544 Q61.3392 770.048 61.3392 767.757 Q61.3392 765.72 59.907 764.096 Q57.9336 761.805 54.7189 760.118 Q52.0771 758.717 49.2444 758.017 Q42.4013 760.85 42.4013 765.751 Q42.4013 769.953 47.9394 771.799 Q51.3769 772.945 54.6234 772.945 Z" fill="#000000" fill-rule="nonzero" fill-opacity="1" /><path clip-path="url(#clip660)" d="M38.8683 740.193 L44.5338 740.193 L44.5338 732.586 L47.0801 732.586 L47.0801 740.193 L57.9018 740.193 Q60.3526 740.193 61.0528 739.429 Q61.753 738.665 61.753 736.374 L61.753 732.586 L64.4903 732.586 L64.4903 736.374 Q64.4903 740.639 63.058 742.262 Q61.6575 743.885 57.9018 743.885 L47.0801 743.885 L47.0801 746.591 L44.5338 746.591 L44.5338 743.885 L38.8683 743.885 L38.8683 740.193 Z" fill="#000000" fill-rule="nonzero" fill-opacity="1" /><path clip-path="url(#clip660)" d="M28.8423 692.705 L46.1889 705.596 L64.4903 692.037 L64.4903 698.943 L50.4857 709.319 L64.4903 719.696 L64.4903 726.602 L45.8387 712.757 L28.8423 725.425 L28.8423 718.518 L41.5419 709.065 L28.8423 699.612 L28.8423 692.705 Z" fill="#000000" fill-rule="nonzero" fill-opacity="1" /><polyline clip-path="url(#clip663)" style="stroke:#009af9; stroke-linecap:round; stroke-linejoin:round; stroke-width:4; stroke-opacity:1; fill:none" points="316.984,871.238 336.749,886.409 356.514,895.68 376.279,900.352 396.044,900.976 415.808,897.233 435.573,887.882 455.338,870.84 475.103,843.724 494.867,805.3 514.632,757.522 534.397,706.357 554.162,659.504 573.926,622.537 593.691,596.894 613.456,581.081 633.221,572.71 652.986,569.833 672.75,571.381 692.515,577.273 712.28,588.333 732.045,606.1 751.809,632.325 771.574,667.811 791.339,710.905 811.104,756.815 830.869,799.253 850.633,833.401 870.398,857.487 890.163,872.471 909.928,880.372 929.692,883.081 949.457,881.852 969.222,877.207 988.987,869.039 1008.75,856.716 1028.52,839.266 1048.28,815.845 1068.05,786.428 1087.81,752.555 1107.58,717.326 1127.34,684.48 1147.1,657.073 1166.87,636.388 1186.63,622.023 1206.4,612.867 1226.16,607.713 1245.93,605.735 1265.69,606.608 1285.46,610.507 1305.22,618.086 1324.99,630.456 1344.75,648.851 1364.52,673.984 1384.28,705.251 1404.05,740.214 1423.81,775.218 1443.58,806.69 1463.34,832.384 1483.11,851.905 1502.87,865.924 1522.64,875.454 1542.4,881.286 1562.17,883.698 1581.93,882.384 1601.69,876.361 1621.46,863.916 1641.22,842.945 1660.99,811.969 1680.75,771.668 1700.52,725.992 1720.28,681.039 1740.05,642.434 1759.81,613.087 1779.58,592.728 1799.34,579.718 1819.11,572.32 1838.87,569.435 1858.64,570.867 1878.4,577.346 1898.17,590.53 1917.93,612.782 1937.7,646.11 1957.46,690.23 1977.23,740.859 1996.99,790.583 2016.75,832.57 2036.52,863.419 2056.28,883.454 2076.05,894.99 2095.81,900.312 2115.58,900.989 2135.34,897.626 2155.11,889.945 2174.87,876.887 2194.64,856.825 2214.4,828.184 2234.17,790.744 2253.93,746.971 2273.7,702.159 2293.46,662.327 "/>
<polyline clip-path="url(#clip663)" style="stroke:#e26f46; stroke-linecap:round; stroke-linejoin:round; stroke-width:4; stroke-opacity:1; fill:none" points="316.984,802.205 336.749,808.724 356.514,812.588 376.279,815.065 396.044,816.685 415.808,817.133 435.573,815.212 455.338,808.93 475.103,795.99 494.867,774.993 514.632,747.088 534.397,716.634 554.162,689.375 573.926,669.337 593.691,657.257 613.456,651.524 633.221,649.847 652.986,650.36 672.75,652.049 692.515,654.829 712.28,659.49 732.045,667.524 751.809,680.68 771.574,699.994 791.339,724.543 811.104,750.919 830.869,774.514 850.633,791.881 870.398,802.045 890.163,806.188 909.928,806.312 929.692,804.255 949.457,801.244 969.222,797.807 988.987,793.821 1008.75,788.619 1028.52,781.163 1048.28,770.444 1068.05,756.068 1087.81,738.859 1107.58,720.893 1127.34,704.754 1147.1,692.446 1166.87,684.559 1186.63,680.398 1206.4,678.716 1226.16,678.27 1245.93,678.197 1265.69,678.145 1285.46,678.296 1305.22,679.346 1324.99,682.439 1344.75,688.896 1364.52,699.671 1384.28,714.686 1404.05,732.42 1423.81,750.358 1443.58,766.057 1463.34,778.156 1483.11,786.711 1502.87,792.609 1522.64,796.947 1542.4,800.553 1562.17,803.744 1581.93,806.216 1601.69,806.98 1621.46,804.367 1641.22,796.325 1660.99,781.261 1680.75,759.295 1700.52,733.157 1720.28,707.327 1740.05,685.895 1759.81,670.726 1779.58,661.224 1799.34,655.712 1819.11,652.512 1838.87,650.565 1858.64,649.667 1878.4,650.524 1898.17,654.739 1917.93,664.557 1937.7,681.994 1957.46,707.24 1977.23,737.299 1996.99,766.661 2016.75,790.246 2036.52,805.748 2056.28,813.891 2076.05,816.904 2095.81,816.971 2115.58,815.588 2135.34,813.357 2155.11,810.018 2174.87,804.535 2194.64,795.311 2214.4,780.722 2234.17,760.2 2253.93,735.318 2273.7,709.892 2293.46,688.307 "/>
<path clip-path="url(#clip660)" d="M1938.55 726.723 L2282.92 726.723 L2282.92 571.203 L1938.55 571.203  Z" fill="#ffffff" fill-rule="evenodd" fill-opacity="1"/>
<polyline clip-path="url(#clip660)" style="stroke:#000000; stroke-linecap:round; stroke-linejoin:round; stroke-width:4; stroke-opacity:1; fill:none" points="1938.55,726.723 2282.92,726.723 2282.92,571.203 1938.55,571.203 1938.55,726.723 "/>
<polyline clip-path="url(#clip660)" style="stroke:#009af9; stroke-linecap:round; stroke-linejoin:round; stroke-width:4; stroke-opacity:1; fill:none" points="1961.83,623.043 2101.5,623.043 "/>
<path clip-path="url(#clip660)" d="M2132.7 640.994 Q2129.43 640.994 2127.3 639.027 Q2124.78 636.689 2124.78 632.453 Q2124.78 628.055 2127 624.629 Q2129.3 621.11 2133.42 621.11 Q2136.12 621.11 2138.25 622.8 Q2139.5 623.795 2140.36 625.462 Q2140.66 623.587 2140.66 621.457 Q2140.66 618.332 2139.92 616.527 Q2138.28 612.522 2133.92 612.522 Q2132.28 612.522 2129.74 613.541 L2129.74 609.652 Q2132.42 608.934 2134.83 608.934 Q2141.03 608.934 2143.67 614.629 Q2144.9 617.314 2144.9 621.318 Q2144.9 623.934 2144.32 626.967 Q2142.86 634.559 2139.09 638.17 Q2136.12 640.994 2132.7 640.994 M2128.74 633.147 Q2128.74 635.462 2129.76 636.712 Q2130.85 638.031 2132.51 638.031 Q2133.99 638.031 2135.17 636.99 Q2136.84 635.555 2138.07 633.217 Q2139.09 631.295 2139.6 629.235 Q2137.54 624.258 2133.97 624.258 Q2130.92 624.258 2129.57 628.286 Q2128.74 630.786 2128.74 633.147 Z" fill="#000000" fill-rule="nonzero" fill-opacity="1" /><path clip-path="url(#clip660)" d="M2152.56 621.689 L2152.56 625.809 L2158.09 625.809 L2158.09 627.661 L2152.56 627.661 L2152.56 635.531 Q2152.56 637.314 2153.11 637.823 Q2153.67 638.332 2155.34 638.332 L2158.09 638.332 L2158.09 640.323 L2155.34 640.323 Q2152.24 640.323 2151.05 639.281 Q2149.87 638.263 2149.87 635.531 L2149.87 627.661 L2147.91 627.661 L2147.91 625.809 L2149.87 625.809 L2149.87 621.689 L2152.56 621.689 Z" fill="#000000" fill-rule="nonzero" fill-opacity="1" /><path clip-path="url(#clip660)" d="M2187.1 614.397 L2177.72 627.013 L2187.58 640.323 L2182.56 640.323 L2175.01 630.138 L2167.47 640.323 L2162.44 640.323 L2172.51 626.758 L2163.3 614.397 L2168.32 614.397 L2175.2 623.633 L2182.07 614.397 L2187.1 614.397 Z" fill="#000000" fill-rule="nonzero" fill-opacity="1" /><path clip-path="url(#clip660)" d="M2192.74 637.777 L2197.47 637.777 L2197.47 623.633 L2192.3 624.582 L2192.3 621.897 L2197.63 620.994 L2200.8 620.994 L2200.8 637.777 L2205.54 637.777 L2205.54 640.323 L2192.74 640.323 L2192.74 637.777 Z" fill="#000000" fill-rule="nonzero" fill-opacity="1" /><path clip-path="url(#clip660)" d="M2222.84 604.351 Q2219.73 609.675 2218.23 614.883 Q2216.73 620.092 2216.73 625.439 Q2216.73 630.786 2218.23 636.041 Q2219.76 641.272 2222.84 646.573 L2219.13 646.573 Q2215.66 641.133 2213.92 635.879 Q2212.21 630.624 2212.21 625.439 Q2212.21 620.277 2213.92 615.045 Q2215.64 609.814 2219.13 604.351 L2222.84 604.351 Z" fill="#000000" fill-rule="nonzero" fill-opacity="1" /><path clip-path="url(#clip660)" d="M2235.31 607.036 L2235.31 614.397 L2244.09 614.397 L2244.09 617.707 L2235.31 617.707 L2235.31 631.781 Q2235.31 634.953 2236.17 635.855 Q2237.05 636.758 2239.71 636.758 L2244.09 636.758 L2244.09 640.323 L2239.71 640.323 Q2234.78 640.323 2232.91 638.494 Q2231.03 636.642 2231.03 631.781 L2231.03 617.707 L2227.91 617.707 L2227.91 614.397 L2231.03 614.397 L2231.03 607.036 L2235.31 607.036 Z" fill="#000000" fill-rule="nonzero" fill-opacity="1" /><path clip-path="url(#clip660)" d="M2249.02 604.351 L2252.72 604.351 Q2256.19 609.814 2257.91 615.045 Q2259.64 620.277 2259.64 625.439 Q2259.64 630.624 2257.91 635.879 Q2256.19 641.133 2252.72 646.573 L2249.02 646.573 Q2252.1 641.272 2253.6 636.041 Q2255.13 630.786 2255.13 625.439 Q2255.13 620.092 2253.6 614.883 Q2252.1 609.675 2249.02 604.351 Z" fill="#000000" fill-rule="nonzero" fill-opacity="1" /><polyline clip-path="url(#clip660)" style="stroke:#e26f46; stroke-linecap:round; stroke-linejoin:round; stroke-width:4; stroke-opacity:1; fill:none" points="1961.83,674.883 2101.5,674.883 "/>
<path clip-path="url(#clip660)" d="M2132.7 692.834 Q2129.43 692.834 2127.3 690.867 Q2124.78 688.529 2124.78 684.293 Q2124.78 679.895 2127 676.469 Q2129.3 672.95 2133.42 672.95 Q2136.12 672.95 2138.25 674.64 Q2139.5 675.635 2140.36 677.302 Q2140.66 675.427 2140.66 673.297 Q2140.66 670.172 2139.92 668.367 Q2138.28 664.362 2133.92 664.362 Q2132.28 664.362 2129.74 665.381 L2129.74 661.492 Q2132.42 660.774 2134.83 660.774 Q2141.03 660.774 2143.67 666.469 Q2144.9 669.154 2144.9 673.158 Q2144.9 675.774 2144.32 678.807 Q2142.86 686.399 2139.09 690.01 Q2136.12 692.834 2132.7 692.834 M2128.74 684.987 Q2128.74 687.302 2129.76 688.552 Q2130.85 689.871 2132.51 689.871 Q2133.99 689.871 2135.17 688.83 Q2136.84 687.395 2138.07 685.057 Q2139.09 683.135 2139.6 681.075 Q2137.54 676.098 2133.97 676.098 Q2130.92 676.098 2129.57 680.126 Q2128.74 682.626 2128.74 684.987 Z" fill="#000000" fill-rule="nonzero" fill-opacity="1" /><path clip-path="url(#clip660)" d="M2152.56 673.529 L2152.56 677.649 L2158.09 677.649 L2158.09 679.501 L2152.56 679.501 L2152.56 687.371 Q2152.56 689.154 2153.11 689.663 Q2153.67 690.172 2155.34 690.172 L2158.09 690.172 L2158.09 692.163 L2155.34 692.163 Q2152.24 692.163 2151.05 691.121 Q2149.87 690.103 2149.87 687.371 L2149.87 679.501 L2147.91 679.501 L2147.91 677.649 L2149.87 677.649 L2149.87 673.529 L2152.56 673.529 Z" fill="#000000" fill-rule="nonzero" fill-opacity="1" /><path clip-path="url(#clip660)" d="M2187.1 666.237 L2177.72 678.853 L2187.58 692.163 L2182.56 692.163 L2175.01 681.978 L2167.47 692.163 L2162.44 692.163 L2172.51 678.598 L2163.3 666.237 L2168.32 666.237 L2175.2 675.473 L2182.07 666.237 L2187.1 666.237 Z" fill="#000000" fill-rule="nonzero" fill-opacity="1" /><path clip-path="url(#clip660)" d="M2195.34 689.524 L2205.15 689.524 L2205.15 692.163 L2191.31 692.163 L2191.31 689.617 Q2192.1 688.899 2193.55 687.603 Q2201.52 680.543 2201.52 678.367 Q2201.52 676.839 2200.31 675.913 Q2199.11 674.964 2197.14 674.964 Q2195.94 674.964 2194.53 675.381 Q2193.11 675.774 2191.45 676.584 L2191.45 673.737 Q2193.23 673.089 2194.76 672.765 Q2196.31 672.441 2197.63 672.441 Q2200.98 672.441 2203 673.969 Q2205.01 675.496 2205.01 677.996 Q2205.01 681.214 2197.35 687.788 Q2196.05 688.899 2195.34 689.524 Z" fill="#000000" fill-rule="nonzero" fill-opacity="1" /><path clip-path="url(#clip660)" d="M2222.84 656.191 Q2219.73 661.515 2218.23 666.723 Q2216.73 671.932 2216.73 677.279 Q2216.73 682.626 2218.23 687.881 Q2219.76 693.112 2222.84 698.413 L2219.13 698.413 Q2215.66 692.973 2213.92 687.719 Q2212.21 682.464 2212.21 677.279 Q2212.21 672.117 2213.92 666.885 Q2215.64 661.654 2219.13 656.191 L2222.84 656.191 Z" fill="#000000" fill-rule="nonzero" fill-opacity="1" /><path clip-path="url(#clip660)" d="M2235.31 658.876 L2235.31 666.237 L2244.09 666.237 L2244.09 669.547 L2235.31 669.547 L2235.31 683.621 Q2235.31 686.793 2236.17 687.695 Q2237.05 688.598 2239.71 688.598 L2244.09 688.598 L2244.09 692.163 L2239.71 692.163 Q2234.78 692.163 2232.91 690.334 Q2231.03 688.482 2231.03 683.621 L2231.03 669.547 L2227.91 669.547 L2227.91 666.237 L2231.03 666.237 L2231.03 658.876 L2235.31 658.876 Z" fill="#000000" fill-rule="nonzero" fill-opacity="1" /><path clip-path="url(#clip660)" d="M2249.02 656.191 L2252.72 656.191 Q2256.19 661.654 2257.91 666.885 Q2259.64 672.117 2259.64 677.279 Q2259.64 682.464 2257.91 687.719 Q2256.19 692.973 2252.72 698.413 L2249.02 698.413 Q2252.1 693.112 2253.6 687.881 Q2255.13 682.626 2255.13 677.279 Q2255.13 671.932 2253.6 666.723 Q2252.1 661.515 2249.02 656.191 Z" fill="#000000" fill-rule="nonzero" fill-opacity="1" /><path clip-path="url(#clip660)" d="M257.69 1423.18 L2352.76 1423.18 L2352.76 1071.73 L257.69 1071.73  Z" fill="#ffffff" fill-rule="evenodd" fill-opacity="1"/>
<polyline clip-path="url(#clip661)" style="stroke:#000000; stroke-linecap:round; stroke-linejoin:round; stroke-width:2; stroke-opacity:0.1; fill:none" points="316.984,1423.18 316.984,1071.73 "/>
<polyline clip-path="url(#clip661)" style="stroke:#000000; stroke-linecap:round; stroke-linejoin:round; stroke-width:2; stroke-opacity:0.1; fill:none" points="712.28,1423.18 712.28,1071.73 "/>
<polyline clip-path="url(#clip661)" style="stroke:#000000; stroke-linecap:round; stroke-linejoin:round; stroke-width:2; stroke-opacity:0.1; fill:none" points="1107.58,1423.18 1107.58,1071.73 "/>
<polyline clip-path="url(#clip661)" style="stroke:#000000; stroke-linecap:round; stroke-linejoin:round; stroke-width:2; stroke-opacity:0.1; fill:none" points="1502.87,1423.18 1502.87,1071.73 "/>
<polyline clip-path="url(#clip661)" style="stroke:#000000; stroke-linecap:round; stroke-linejoin:round; stroke-width:2; stroke-opacity:0.1; fill:none" points="1898.17,1423.18 1898.17,1071.73 "/>
<polyline clip-path="url(#clip661)" style="stroke:#000000; stroke-linecap:round; stroke-linejoin:round; stroke-width:2; stroke-opacity:0.1; fill:none" points="2293.46,1423.18 2293.46,1071.73 "/>
<polyline clip-path="url(#clip661)" style="stroke:#000000; stroke-linecap:round; stroke-linejoin:round; stroke-width:2; stroke-opacity:0.1; fill:none" points="257.69,1380.65 2352.76,1380.65 "/>
<polyline clip-path="url(#clip661)" style="stroke:#000000; stroke-linecap:round; stroke-linejoin:round; stroke-width:2; stroke-opacity:0.1; fill:none" points="257.69,1314.21 2352.76,1314.21 "/>
<polyline clip-path="url(#clip661)" style="stroke:#000000; stroke-linecap:round; stroke-linejoin:round; stroke-width:2; stroke-opacity:0.1; fill:none" points="257.69,1247.77 2352.76,1247.77 "/>
<polyline clip-path="url(#clip661)" style="stroke:#000000; stroke-linecap:round; stroke-linejoin:round; stroke-width:2; stroke-opacity:0.1; fill:none" points="257.69,1181.34 2352.76,1181.34 "/>
<polyline clip-path="url(#clip661)" style="stroke:#000000; stroke-linecap:round; stroke-linejoin:round; stroke-width:2; stroke-opacity:0.1; fill:none" points="257.69,1114.9 2352.76,1114.9 "/>
<polyline clip-path="url(#clip660)" style="stroke:#000000; stroke-linecap:round; stroke-linejoin:round; stroke-width:4; stroke-opacity:1; fill:none" points="257.69,1423.18 2352.76,1423.18 "/>
<polyline clip-path="url(#clip660)" style="stroke:#000000; stroke-linecap:round; stroke-linejoin:round; stroke-width:4; stroke-opacity:1; fill:none" points="316.984,1423.18 316.984,1404.28 "/>
<polyline clip-path="url(#clip660)" style="stroke:#000000; stroke-linecap:round; stroke-linejoin:round; stroke-width:4; stroke-opacity:1; fill:none" points="712.28,1423.18 712.28,1404.28 "/>
<polyline clip-path="url(#clip660)" style="stroke:#000000; stroke-linecap:round; stroke-linejoin:round; stroke-width:4; stroke-opacity:1; fill:none" points="1107.58,1423.18 1107.58,1404.28 "/>
<polyline clip-path="url(#clip660)" style="stroke:#000000; stroke-linecap:round; stroke-linejoin:round; stroke-width:4; stroke-opacity:1; fill:none" points="1502.87,1423.18 1502.87,1404.28 "/>
<polyline clip-path="url(#clip660)" style="stroke:#000000; stroke-linecap:round; stroke-linejoin:round; stroke-width:4; stroke-opacity:1; fill:none" points="1898.17,1423.18 1898.17,1404.28 "/>
<polyline clip-path="url(#clip660)" style="stroke:#000000; stroke-linecap:round; stroke-linejoin:round; stroke-width:4; stroke-opacity:1; fill:none" points="2293.46,1423.18 2293.46,1404.28 "/>
<path clip-path="url(#clip660)" d="M316.984 1454.1 Q313.373 1454.1 311.545 1457.66 Q309.739 1461.2 309.739 1468.33 Q309.739 1475.44 311.545 1479.01 Q313.373 1482.55 316.984 1482.55 Q320.619 1482.55 322.424 1479.01 Q324.253 1475.44 324.253 1468.33 Q324.253 1461.2 322.424 1457.66 Q320.619 1454.1 316.984 1454.1 M316.984 1450.39 Q322.795 1450.39 325.85 1455 Q328.929 1459.58 328.929 1468.33 Q328.929 1477.06 325.85 1481.67 Q322.795 1486.25 316.984 1486.25 Q311.174 1486.25 308.096 1481.67 Q305.04 1477.06 305.04 1468.33 Q305.04 1459.58 308.096 1455 Q311.174 1450.39 316.984 1450.39 Z" fill="#000000" fill-rule="nonzero" fill-opacity="1" /><path clip-path="url(#clip660)" d="M702.662 1481.64 L710.301 1481.64 L710.301 1455.28 L701.991 1456.95 L701.991 1452.69 L710.254 1451.02 L714.93 1451.02 L714.93 1481.64 L722.569 1481.64 L722.569 1485.58 L702.662 1485.58 L702.662 1481.64 Z" fill="#000000" fill-rule="nonzero" fill-opacity="1" /><path clip-path="url(#clip660)" d="M1102.23 1481.64 L1118.55 1481.64 L1118.55 1485.58 L1096.6 1485.58 L1096.6 1481.64 Q1099.27 1478.89 1103.85 1474.26 Q1108.45 1469.61 1109.64 1468.27 Q1111.88 1465.74 1112.76 1464.01 Q1113.66 1462.25 1113.66 1460.56 Q1113.66 1457.8 1111.72 1456.07 Q1109.8 1454.33 1106.7 1454.33 Q1104.5 1454.33 1102.04 1455.09 Q1099.61 1455.86 1096.83 1457.41 L1096.83 1452.69 Q1099.66 1451.55 1102.11 1450.97 Q1104.57 1450.39 1106.6 1450.39 Q1111.97 1450.39 1115.17 1453.08 Q1118.36 1455.77 1118.36 1460.26 Q1118.36 1462.39 1117.55 1464.31 Q1116.77 1466.2 1114.66 1468.8 Q1114.08 1469.47 1110.98 1472.69 Q1107.88 1475.88 1102.23 1481.64 Z" fill="#000000" fill-rule="nonzero" fill-opacity="1" /><path clip-path="url(#clip660)" d="M1507.12 1466.95 Q1510.47 1467.66 1512.35 1469.93 Q1514.25 1472.2 1514.25 1475.53 Q1514.25 1480.65 1510.73 1483.45 Q1507.21 1486.25 1500.73 1486.25 Q1498.55 1486.25 1496.24 1485.81 Q1493.95 1485.39 1491.49 1484.54 L1491.49 1480.02 Q1493.44 1481.16 1495.75 1481.74 Q1498.07 1482.32 1500.59 1482.32 Q1504.99 1482.32 1507.28 1480.58 Q1509.6 1478.84 1509.6 1475.53 Q1509.6 1472.48 1507.44 1470.77 Q1505.31 1469.03 1501.49 1469.03 L1497.47 1469.03 L1497.47 1465.19 L1501.68 1465.19 Q1505.13 1465.19 1506.96 1463.82 Q1508.79 1462.43 1508.79 1459.84 Q1508.79 1457.18 1506.89 1455.77 Q1505.01 1454.33 1501.49 1454.33 Q1499.57 1454.33 1497.37 1454.75 Q1495.17 1455.16 1492.54 1456.04 L1492.54 1451.88 Q1495.2 1451.14 1497.51 1450.77 Q1499.85 1450.39 1501.91 1450.39 Q1507.23 1450.39 1510.34 1452.83 Q1513.44 1455.23 1513.44 1459.35 Q1513.44 1462.22 1511.79 1464.21 Q1510.15 1466.18 1507.12 1466.95 Z" fill="#000000" fill-rule="nonzero" fill-opacity="1" /><path clip-path="url(#clip660)" d="M1901.18 1455.09 L1889.37 1473.54 L1901.18 1473.54 L1901.18 1455.09 M1899.95 1451.02 L1905.83 1451.02 L1905.83 1473.54 L1910.76 1473.54 L1910.76 1477.43 L1905.83 1477.43 L1905.83 1485.58 L1901.18 1485.58 L1901.18 1477.43 L1885.57 1477.43 L1885.57 1472.92 L1899.95 1451.02 Z" fill="#000000" fill-rule="nonzero" fill-opacity="1" /><path clip-path="url(#clip660)" d="M2283.74 1451.02 L2302.1 1451.02 L2302.1 1454.96 L2288.02 1454.96 L2288.02 1463.43 Q2289.04 1463.08 2290.06 1462.92 Q2291.08 1462.73 2292.1 1462.73 Q2297.88 1462.73 2301.26 1465.9 Q2304.64 1469.08 2304.64 1474.49 Q2304.64 1480.07 2301.17 1483.17 Q2297.7 1486.25 2291.38 1486.25 Q2289.2 1486.25 2286.93 1485.88 Q2284.69 1485.51 2282.28 1484.77 L2282.28 1480.07 Q2284.36 1481.2 2286.59 1481.76 Q2288.81 1482.32 2291.29 1482.32 Q2295.29 1482.32 2297.63 1480.21 Q2299.97 1478.1 2299.97 1474.49 Q2299.97 1470.88 2297.63 1468.77 Q2295.29 1466.67 2291.29 1466.67 Q2289.41 1466.67 2287.54 1467.08 Q2285.68 1467.5 2283.74 1468.38 L2283.74 1451.02 Z" fill="#000000" fill-rule="nonzero" fill-opacity="1" /><path clip-path="url(#clip660)" d="M1304.28 1522.27 L1304.28 1532.4 L1316.35 1532.4 L1316.35 1536.95 L1304.28 1536.95 L1304.28 1556.3 Q1304.28 1560.66 1305.46 1561.9 Q1306.67 1563.14 1310.33 1563.14 L1316.35 1563.14 L1316.35 1568.04 L1310.33 1568.04 Q1303.55 1568.04 1300.97 1565.53 Q1298.4 1562.98 1298.4 1556.3 L1298.4 1536.95 L1294.1 1536.95 L1294.1 1532.4 L1298.4 1532.4 L1298.4 1522.27 L1304.28 1522.27 Z" fill="#000000" fill-rule="nonzero" fill-opacity="1" /><polyline clip-path="url(#clip660)" style="stroke:#000000; stroke-linecap:round; stroke-linejoin:round; stroke-width:4; stroke-opacity:1; fill:none" points="257.69,1423.18 257.69,1071.73 "/>
<polyline clip-path="url(#clip660)" style="stroke:#000000; stroke-linecap:round; stroke-linejoin:round; stroke-width:4; stroke-opacity:1; fill:none" points="257.69,1380.65 276.588,1380.65 "/>
<polyline clip-path="url(#clip660)" style="stroke:#000000; stroke-linecap:round; stroke-linejoin:round; stroke-width:4; stroke-opacity:1; fill:none" points="257.69,1314.21 276.588,1314.21 "/>
<polyline clip-path="url(#clip660)" style="stroke:#000000; stroke-linecap:round; stroke-linejoin:round; stroke-width:4; stroke-opacity:1; fill:none" points="257.69,1247.77 276.588,1247.77 "/>
<polyline clip-path="url(#clip660)" style="stroke:#000000; stroke-linecap:round; stroke-linejoin:round; stroke-width:4; stroke-opacity:1; fill:none" points="257.69,1181.34 276.588,1181.34 "/>
<polyline clip-path="url(#clip660)" style="stroke:#000000; stroke-linecap:round; stroke-linejoin:round; stroke-width:4; stroke-opacity:1; fill:none" points="257.69,1114.9 276.588,1114.9 "/>
<path clip-path="url(#clip660)" d="M114.584 1381.1 L144.26 1381.1 L144.26 1385.04 L114.584 1385.04 L114.584 1381.1 Z" fill="#000000" fill-rule="nonzero" fill-opacity="1" /><path clip-path="url(#clip660)" d="M164.352 1366.45 Q160.741 1366.45 158.913 1370.01 Q157.107 1373.56 157.107 1380.69 Q157.107 1387.79 158.913 1391.36 Q160.741 1394.9 164.352 1394.9 Q167.987 1394.9 169.792 1391.36 Q171.621 1387.79 171.621 1380.69 Q171.621 1373.56 169.792 1370.01 Q167.987 1366.45 164.352 1366.45 M164.352 1362.75 Q170.163 1362.75 173.218 1367.35 Q176.297 1371.94 176.297 1380.69 Q176.297 1389.41 173.218 1394.02 Q170.163 1398.6 164.352 1398.6 Q158.542 1398.6 155.464 1394.02 Q152.408 1389.41 152.408 1380.69 Q152.408 1371.94 155.464 1367.35 Q158.542 1362.75 164.352 1362.75 Z" fill="#000000" fill-rule="nonzero" fill-opacity="1" /><path clip-path="url(#clip660)" d="M184.514 1392.05 L189.399 1392.05 L189.399 1397.93 L184.514 1397.93 L184.514 1392.05 Z" fill="#000000" fill-rule="nonzero" fill-opacity="1" /><path clip-path="url(#clip660)" d="M210.162 1378.79 Q207.014 1378.79 205.162 1380.94 Q203.334 1383.09 203.334 1386.84 Q203.334 1390.57 205.162 1392.75 Q207.014 1394.9 210.162 1394.9 Q213.311 1394.9 215.139 1392.75 Q216.991 1390.57 216.991 1386.84 Q216.991 1383.09 215.139 1380.94 Q213.311 1378.79 210.162 1378.79 M219.445 1364.13 L219.445 1368.39 Q217.686 1367.56 215.88 1367.12 Q214.098 1366.68 212.338 1366.68 Q207.709 1366.68 205.255 1369.81 Q202.824 1372.93 202.477 1379.25 Q203.843 1377.24 205.903 1376.17 Q207.963 1375.08 210.44 1375.08 Q215.649 1375.08 218.658 1378.26 Q221.69 1381.4 221.69 1386.84 Q221.69 1392.17 218.542 1395.38 Q215.394 1398.6 210.162 1398.6 Q204.167 1398.6 200.996 1394.02 Q197.825 1389.41 197.825 1380.69 Q197.825 1372.49 201.713 1367.63 Q205.602 1362.75 212.153 1362.75 Q213.912 1362.75 215.695 1363.09 Q217.5 1363.44 219.445 1364.13 Z" fill="#000000" fill-rule="nonzero" fill-opacity="1" /><path clip-path="url(#clip660)" d="M114.26 1314.66 L143.936 1314.66 L143.936 1318.6 L114.26 1318.6 L114.26 1314.66 Z" fill="#000000" fill-rule="nonzero" fill-opacity="1" /><path clip-path="url(#clip660)" d="M164.028 1300.01 Q160.417 1300.01 158.589 1303.58 Q156.783 1307.12 156.783 1314.25 Q156.783 1321.35 158.589 1324.92 Q160.417 1328.46 164.028 1328.46 Q167.663 1328.46 169.468 1324.92 Q171.297 1321.35 171.297 1314.25 Q171.297 1307.12 169.468 1303.58 Q167.663 1300.01 164.028 1300.01 M164.028 1296.31 Q169.839 1296.31 172.894 1300.91 Q175.973 1305.5 175.973 1314.25 Q175.973 1322.97 172.894 1327.58 Q169.839 1332.16 164.028 1332.16 Q158.218 1332.16 155.14 1327.58 Q152.084 1322.97 152.084 1314.25 Q152.084 1305.5 155.14 1300.91 Q158.218 1296.31 164.028 1296.31 Z" fill="#000000" fill-rule="nonzero" fill-opacity="1" /><path clip-path="url(#clip660)" d="M184.19 1325.61 L189.075 1325.61 L189.075 1331.49 L184.19 1331.49 L184.19 1325.61 Z" fill="#000000" fill-rule="nonzero" fill-opacity="1" /><path clip-path="url(#clip660)" d="M212.107 1301.01 L200.301 1319.46 L212.107 1319.46 L212.107 1301.01 M210.88 1296.93 L216.76 1296.93 L216.76 1319.46 L221.69 1319.46 L221.69 1323.34 L216.76 1323.34 L216.76 1331.49 L212.107 1331.49 L212.107 1323.34 L196.505 1323.34 L196.505 1318.83 L210.88 1296.93 Z" fill="#000000" fill-rule="nonzero" fill-opacity="1" /><path clip-path="url(#clip660)" d="M116.343 1248.23 L146.019 1248.23 L146.019 1252.16 L116.343 1252.16 L116.343 1248.23 Z" fill="#000000" fill-rule="nonzero" fill-opacity="1" /><path clip-path="url(#clip660)" d="M166.112 1233.57 Q162.501 1233.57 160.672 1237.14 Q158.866 1240.68 158.866 1247.81 Q158.866 1254.92 160.672 1258.48 Q162.501 1262.02 166.112 1262.02 Q169.746 1262.02 171.552 1258.48 Q173.38 1254.92 173.38 1247.81 Q173.38 1240.68 171.552 1237.14 Q169.746 1233.57 166.112 1233.57 M166.112 1229.87 Q171.922 1229.87 174.977 1234.48 Q178.056 1239.06 178.056 1247.81 Q178.056 1256.54 174.977 1261.14 Q171.922 1265.73 166.112 1265.73 Q160.302 1265.73 157.223 1261.14 Q154.167 1256.54 154.167 1247.81 Q154.167 1239.06 157.223 1234.48 Q160.302 1229.87 166.112 1229.87 Z" fill="#000000" fill-rule="nonzero" fill-opacity="1" /><path clip-path="url(#clip660)" d="M186.274 1259.17 L191.158 1259.17 L191.158 1265.05 L186.274 1265.05 L186.274 1259.17 Z" fill="#000000" fill-rule="nonzero" fill-opacity="1" /><path clip-path="url(#clip660)" d="M205.371 1261.12 L221.69 1261.12 L221.69 1265.05 L199.746 1265.05 L199.746 1261.12 Q202.408 1258.36 206.991 1253.73 Q211.598 1249.08 212.778 1247.74 Q215.024 1245.22 215.903 1243.48 Q216.806 1241.72 216.806 1240.03 Q216.806 1237.28 214.861 1235.54 Q212.94 1233.8 209.838 1233.8 Q207.639 1233.8 205.186 1234.57 Q202.755 1235.33 199.977 1236.88 L199.977 1232.16 Q202.801 1231.03 205.255 1230.45 Q207.709 1229.87 209.746 1229.87 Q215.116 1229.87 218.311 1232.55 Q221.505 1235.24 221.505 1239.73 Q221.505 1241.86 220.695 1243.78 Q219.908 1245.68 217.801 1248.27 Q217.223 1248.94 214.121 1252.16 Q211.019 1255.35 205.371 1261.12 Z" fill="#000000" fill-rule="nonzero" fill-opacity="1" /><path clip-path="url(#clip660)" d="M164.515 1167.13 Q160.903 1167.13 159.075 1170.7 Q157.269 1174.24 157.269 1181.37 Q157.269 1188.48 159.075 1192.04 Q160.903 1195.58 164.515 1195.58 Q168.149 1195.58 169.954 1192.04 Q171.783 1188.48 171.783 1181.37 Q171.783 1174.24 169.954 1170.7 Q168.149 1167.13 164.515 1167.13 M164.515 1163.43 Q170.325 1163.43 173.38 1168.04 Q176.459 1172.62 176.459 1181.37 Q176.459 1190.1 173.38 1194.7 Q170.325 1199.29 164.515 1199.29 Q158.704 1199.29 155.626 1194.7 Q152.57 1190.1 152.57 1181.37 Q152.57 1172.62 155.626 1168.04 Q158.704 1163.43 164.515 1163.43 Z" fill="#000000" fill-rule="nonzero" fill-opacity="1" /><path clip-path="url(#clip660)" d="M184.676 1192.74 L189.561 1192.74 L189.561 1198.62 L184.676 1198.62 L184.676 1192.74 Z" fill="#000000" fill-rule="nonzero" fill-opacity="1" /><path clip-path="url(#clip660)" d="M209.746 1167.13 Q206.135 1167.13 204.306 1170.7 Q202.5 1174.24 202.5 1181.37 Q202.5 1188.48 204.306 1192.04 Q206.135 1195.58 209.746 1195.58 Q213.38 1195.58 215.186 1192.04 Q217.014 1188.48 217.014 1181.37 Q217.014 1174.24 215.186 1170.7 Q213.38 1167.13 209.746 1167.13 M209.746 1163.43 Q215.556 1163.43 218.611 1168.04 Q221.69 1172.62 221.69 1181.37 Q221.69 1190.1 218.611 1194.7 Q215.556 1199.29 209.746 1199.29 Q203.936 1199.29 200.857 1194.7 Q197.801 1190.1 197.801 1181.37 Q197.801 1172.62 200.857 1168.04 Q203.936 1163.43 209.746 1163.43 Z" fill="#000000" fill-rule="nonzero" fill-opacity="1" /><path clip-path="url(#clip660)" d="M166.112 1100.7 Q162.501 1100.7 160.672 1104.26 Q158.866 1107.8 158.866 1114.93 Q158.866 1122.04 160.672 1125.6 Q162.501 1129.14 166.112 1129.14 Q169.746 1129.14 171.552 1125.6 Q173.38 1122.04 173.38 1114.93 Q173.38 1107.8 171.552 1104.26 Q169.746 1100.7 166.112 1100.7 M166.112 1096.99 Q171.922 1096.99 174.977 1101.6 Q178.056 1106.18 178.056 1114.93 Q178.056 1123.66 174.977 1128.26 Q171.922 1132.85 166.112 1132.85 Q160.302 1132.85 157.223 1128.26 Q154.167 1123.66 154.167 1114.93 Q154.167 1106.18 157.223 1101.6 Q160.302 1096.99 166.112 1096.99 Z" fill="#000000" fill-rule="nonzero" fill-opacity="1" /><path clip-path="url(#clip660)" d="M186.274 1126.3 L191.158 1126.3 L191.158 1132.18 L186.274 1132.18 L186.274 1126.3 Z" fill="#000000" fill-rule="nonzero" fill-opacity="1" /><path clip-path="url(#clip660)" d="M205.371 1128.24 L221.69 1128.24 L221.69 1132.18 L199.746 1132.18 L199.746 1128.24 Q202.408 1125.49 206.991 1120.86 Q211.598 1116.2 212.778 1114.86 Q215.024 1112.34 215.903 1110.6 Q216.806 1108.84 216.806 1107.15 Q216.806 1104.4 214.861 1102.66 Q212.94 1100.93 209.838 1100.93 Q207.639 1100.93 205.186 1101.69 Q202.755 1102.45 199.977 1104.01 L199.977 1099.28 Q202.801 1098.15 205.255 1097.57 Q207.709 1096.99 209.746 1096.99 Q215.116 1096.99 218.311 1099.68 Q221.505 1102.36 221.505 1106.85 Q221.505 1108.98 220.695 1110.9 Q219.908 1112.8 217.801 1115.39 Q217.223 1116.07 214.121 1119.28 Q211.019 1122.48 205.371 1128.24 Z" fill="#000000" fill-rule="nonzero" fill-opacity="1" /><path clip-path="url(#clip660)" d="M49.9359 1262.38 L28.3562 1262.38 L28.3562 1256.53 L49.7131 1256.53 Q54.7739 1256.53 57.3202 1254.55 Q59.8346 1252.58 59.8346 1248.63 Q59.8346 1243.89 56.8109 1241.15 Q53.7872 1238.38 48.5673 1238.38 L28.3562 1238.38 L28.3562 1232.53 L64.0042 1232.53 L64.0042 1238.38 L58.5296 1238.38 Q61.7762 1240.52 63.3676 1243.35 Q64.9272 1246.15 64.9272 1249.87 Q64.9272 1256.02 61.1078 1259.2 Q57.2883 1262.38 49.9359 1262.38 M27.4968 1247.65 L27.4968 1247.65 Z" fill="#000000" fill-rule="nonzero" fill-opacity="1" /><polyline clip-path="url(#clip661)" style="stroke:#009af9; stroke-linecap:round; stroke-linejoin:round; stroke-width:4; stroke-opacity:1; fill:none" points="316.984,1247.77 336.749,1198.69 356.514,1153.99 376.279,1117.67 396.044,1092.97 415.808,1082.09 435.573,1086.02 455.338,1104.4 475.103,1135.58 494.867,1176.79 514.632,1224.33 534.397,1273.97 554.162,1321.27 573.926,1362.01 593.691,1392.54 613.456,1410.14 633.221,1413.23 652.986,1401.55 672.75,1376.13 692.515,1339.24 712.28,1294.18 732.045,1244.98 751.809,1196.03 771.574,1151.7 791.339,1115.95 811.104,1091.98 830.869,1081.92 850.633,1086.68 870.398,1105.83 890.163,1137.66 909.928,1179.32 929.692,1227.1 949.457,1276.73 969.222,1323.77 988.987,1364.02 1008.75,1393.89 1028.52,1410.7 1048.28,1412.97 1068.05,1400.47 1087.81,1374.34 1107.58,1336.9 1127.34,1291.5 1147.1,1242.19 1166.87,1193.38 1186.63,1149.43 1206.4,1114.27 1226.16,1091.03 1245.93,1081.79 1265.69,1087.38 1285.46,1107.3 1305.22,1139.76 1324.99,1181.88 1344.75,1229.88 1364.52,1279.47 1384.28,1326.24 1404.05,1366 1423.81,1395.2 1443.58,1411.22 1463.34,1412.65 1483.11,1399.35 1502.87,1372.51 1522.64,1334.53 1542.4,1288.8 1562.17,1239.4 1581.93,1190.75 1601.69,1147.2 1621.46,1112.63 1641.22,1090.13 1660.99,1081.71 1680.75,1088.13 1700.52,1108.81 1720.28,1141.9 1740.05,1184.45 1759.81,1232.66 1779.58,1282.21 1799.34,1328.69 1819.11,1367.94 1838.87,1396.46 1858.64,1411.7 1878.4,1412.29 1898.17,1398.19 1917.93,1370.65 1937.7,1332.13 1957.46,1286.08 1977.23,1236.61 1996.99,1188.14 2016.75,1144.99 2036.52,1111.02 2056.28,1089.27 2076.05,1081.68 2095.81,1088.92 2115.58,1110.36 2135.34,1144.07 2155.11,1187.04 2174.87,1235.44 2194.64,1284.94 2214.4,1331.12 2234.17,1369.85 2253.93,1397.68 2273.7,1412.12 2293.46,1411.88 "/>
<path clip-path="url(#clip660)" d="M327.526 1411.46 L633.56 1411.46 L633.56 1307.78 L327.526 1307.78  Z" fill="#ffffff" fill-rule="evenodd" fill-opacity="1"/>
<polyline clip-path="url(#clip660)" style="stroke:#000000; stroke-linecap:round; stroke-linejoin:round; stroke-width:4; stroke-opacity:1; fill:none" points="327.526,1411.46 633.56,1411.46 633.56,1307.78 327.526,1307.78 327.526,1411.46 "/>
<polyline clip-path="url(#clip660)" style="stroke:#009af9; stroke-linecap:round; stroke-linejoin:round; stroke-width:4; stroke-opacity:1; fill:none" points="350.804,1359.62 490.475,1359.62 "/>
<path clip-path="url(#clip660)" d="M513.754 1366.67 L513.754 1350.98 L518.013 1350.98 L518.013 1366.51 Q518.013 1370.19 519.448 1372.04 Q520.883 1373.87 523.754 1373.87 Q527.203 1373.87 529.193 1371.67 Q531.207 1369.47 531.207 1365.68 L531.207 1350.98 L535.467 1350.98 L535.467 1376.9 L531.207 1376.9 L531.207 1372.92 Q529.656 1375.28 527.596 1376.44 Q525.559 1377.58 522.851 1377.58 Q518.383 1377.58 516.069 1374.8 Q513.754 1372.02 513.754 1366.67 M524.471 1350.35 L524.471 1350.35 Z" fill="#000000" fill-rule="nonzero" fill-opacity="1" /><path clip-path="url(#clip660)" d="M543.383 1374.36 L548.105 1374.36 L548.105 1360.22 L542.943 1361.16 L542.943 1358.48 L548.267 1357.58 L551.439 1357.58 L551.439 1374.36 L556.184 1374.36 L556.184 1376.9 L543.383 1376.9 L543.383 1374.36 Z" fill="#000000" fill-rule="nonzero" fill-opacity="1" /><path clip-path="url(#clip660)" d="M573.476 1340.93 Q570.374 1346.26 568.869 1351.47 Q567.365 1356.67 567.365 1362.02 Q567.365 1367.37 568.869 1372.62 Q570.397 1377.85 573.476 1383.15 L569.772 1383.15 Q566.3 1377.72 564.564 1372.46 Q562.851 1367.21 562.851 1362.02 Q562.851 1356.86 564.564 1351.63 Q566.277 1346.4 569.772 1340.93 L573.476 1340.93 Z" fill="#000000" fill-rule="nonzero" fill-opacity="1" /><path clip-path="url(#clip660)" d="M585.952 1343.62 L585.952 1350.98 L594.726 1350.98 L594.726 1354.29 L585.952 1354.29 L585.952 1368.36 Q585.952 1371.53 586.809 1372.44 Q587.689 1373.34 590.351 1373.34 L594.726 1373.34 L594.726 1376.9 L590.351 1376.9 Q585.42 1376.9 583.545 1375.08 Q581.67 1373.22 581.67 1368.36 L581.67 1354.29 L578.545 1354.29 L578.545 1350.98 L581.67 1350.98 L581.67 1343.62 L585.952 1343.62 Z" fill="#000000" fill-rule="nonzero" fill-opacity="1" /><path clip-path="url(#clip660)" d="M599.656 1340.93 L603.36 1340.93 Q606.832 1346.4 608.545 1351.63 Q610.281 1356.86 610.281 1362.02 Q610.281 1367.21 608.545 1372.46 Q606.832 1377.72 603.36 1383.15 L599.656 1383.15 Q602.735 1377.85 604.239 1372.62 Q605.767 1367.37 605.767 1362.02 Q605.767 1356.67 604.239 1351.47 Q602.735 1346.26 599.656 1340.93 Z" fill="#000000" fill-rule="nonzero" fill-opacity="1" /></svg>
