<?xml version="1.0" encoding="utf-8"?>
<svg xmlns="http://www.w3.org/2000/svg" xmlns:xlink="http://www.w3.org/1999/xlink" width="600" height="400" viewBox="0 0 2400 1600">
<defs>
  <clipPath id="clip330">
    <rect x="0" y="0" width="2400" height="1600"/>
  </clipPath>
</defs>
<path clip-path="url(#clip330)" d="M0 1600 L2400 1600 L2400 0 L0 0  Z" fill="#ffffff" fill-rule="evenodd" fill-opacity="1"/>
<defs>
  <clipPath id="clip331">
    <rect x="462" y="815" width="1892" height="609"/>
  </clipPath>
</defs>
<path clip-path="url(#clip330)" d="M462.06 654.814 L2352.76 654.814 L2352.76 47.2441 L462.06 47.2441  Z" fill="#ffffff" fill-rule="evenodd" fill-opacity="1"/>
<defs>
  <clipPath id="clip332">
    <rect x="462" y="47" width="1892" height="609"/>
  </clipPath>
</defs>
<polyline clip-path="url(#clip332)" style="stroke:#000000; stroke-linecap:round; stroke-linejoin:round; stroke-width:2; stroke-opacity:0.1; fill:none" points="515.57,654.814 515.57,47.2441 "/>
<polyline clip-path="url(#clip332)" style="stroke:#000000; stroke-linecap:round; stroke-linejoin:round; stroke-width:2; stroke-opacity:0.1; fill:none" points="872.305,654.814 872.305,47.2441 "/>
<polyline clip-path="url(#clip332)" style="stroke:#000000; stroke-linecap:round; stroke-linejoin:round; stroke-width:2; stroke-opacity:0.1; fill:none" points="1229.04,654.814 1229.04,47.2441 "/>
<polyline clip-path="url(#clip332)" style="stroke:#000000; stroke-linecap:round; stroke-linejoin:round; stroke-width:2; stroke-opacity:0.1; fill:none" points="1585.78,654.814 1585.78,47.2441 "/>
<polyline clip-path="url(#clip332)" style="stroke:#000000; stroke-linecap:round; stroke-linejoin:round; stroke-width:2; stroke-opacity:0.1; fill:none" points="1942.51,654.814 1942.51,47.2441 "/>
<polyline clip-path="url(#clip332)" style="stroke:#000000; stroke-linecap:round; stroke-linejoin:round; stroke-width:2; stroke-opacity:0.1; fill:none" points="2299.25,654.814 2299.25,47.2441 "/>
<polyline clip-path="url(#clip332)" style="stroke:#000000; stroke-linecap:round; stroke-linejoin:round; stroke-width:2; stroke-opacity:0.1; fill:none" points="462.06,643.294 2352.76,643.294 "/>
<polyline clip-path="url(#clip332)" style="stroke:#000000; stroke-linecap:round; stroke-linejoin:round; stroke-width:2; stroke-opacity:0.1; fill:none" points="462.06,501.418 2352.76,501.418 "/>
<polyline clip-path="url(#clip332)" style="stroke:#000000; stroke-linecap:round; stroke-linejoin:round; stroke-width:2; stroke-opacity:0.1; fill:none" points="462.06,359.542 2352.76,359.542 "/>
<polyline clip-path="url(#clip332)" style="stroke:#000000; stroke-linecap:round; stroke-linejoin:round; stroke-width:2; stroke-opacity:0.1; fill:none" points="462.06,217.666 2352.76,217.666 "/>
<polyline clip-path="url(#clip332)" style="stroke:#000000; stroke-linecap:round; stroke-linejoin:round; stroke-width:2; stroke-opacity:0.1; fill:none" points="462.06,75.7895 2352.76,75.7895 "/>
<polyline clip-path="url(#clip330)" style="stroke:#000000; stroke-linecap:round; stroke-linejoin:round; stroke-width:4; stroke-opacity:1; fill:none" points="462.06,654.814 2352.76,654.814 "/>
<polyline clip-path="url(#clip330)" style="stroke:#000000; stroke-linecap:round; stroke-linejoin:round; stroke-width:4; stroke-opacity:1; fill:none" points="515.57,654.814 515.57,635.916 "/>
<polyline clip-path="url(#clip330)" style="stroke:#000000; stroke-linecap:round; stroke-linejoin:round; stroke-width:4; stroke-opacity:1; fill:none" points="872.305,654.814 872.305,635.916 "/>
<polyline clip-path="url(#clip330)" style="stroke:#000000; stroke-linecap:round; stroke-linejoin:round; stroke-width:4; stroke-opacity:1; fill:none" points="1229.04,654.814 1229.04,635.916 "/>
<polyline clip-path="url(#clip330)" style="stroke:#000000; stroke-linecap:round; stroke-linejoin:round; stroke-width:4; stroke-opacity:1; fill:none" points="1585.78,654.814 1585.78,635.916 "/>
<polyline clip-path="url(#clip330)" style="stroke:#000000; stroke-linecap:round; stroke-linejoin:round; stroke-width:4; stroke-opacity:1; fill:none" points="1942.51,654.814 1942.51,635.916 "/>
<polyline clip-path="url(#clip330)" style="stroke:#000000; stroke-linecap:round; stroke-linejoin:round; stroke-width:4; stroke-opacity:1; fill:none" points="2299.25,654.814 2299.25,635.916 "/>
<path clip-path="url(#clip330)" d="M515.57 685.733 Q511.959 685.733 510.13 689.297 Q508.325 692.839 508.325 699.969 Q508.325 707.075 510.13 710.64 Q511.959 714.181 515.57 714.181 Q519.204 714.181 521.01 710.64 Q522.838 707.075 522.838 699.969 Q522.838 692.839 521.01 689.297 Q519.204 685.733 515.57 685.733 M515.57 682.029 Q521.38 682.029 524.436 686.635 Q527.514 691.219 527.514 699.969 Q527.514 708.695 524.436 713.302 Q521.38 717.885 515.57 717.885 Q509.76 717.885 506.681 713.302 Q503.626 708.695 503.626 699.969 Q503.626 691.219 506.681 686.635 Q509.76 682.029 515.57 682.029 Z" fill="#000000" fill-rule="nonzero" fill-opacity="1" /><path clip-path="url(#clip330)" d="M862.687 713.279 L870.326 713.279 L870.326 686.913 L862.016 688.58 L862.016 684.321 L870.28 682.654 L874.956 682.654 L874.956 713.279 L882.594 713.279 L882.594 717.214 L862.687 717.214 L862.687 713.279 Z" fill="#000000" fill-rule="nonzero" fill-opacity="1" /><path clip-path="url(#clip330)" d="M1223.69 713.279 L1240.01 713.279 L1240.01 717.214 L1218.07 717.214 L1218.07 713.279 Q1220.73 710.524 1225.31 705.894 Q1229.92 701.242 1231.1 699.899 Q1233.35 697.376 1234.23 695.64 Q1235.13 693.881 1235.13 692.191 Q1235.13 689.436 1233.18 687.7 Q1231.26 685.964 1228.16 685.964 Q1225.96 685.964 1223.51 686.728 Q1221.08 687.492 1218.3 689.043 L1218.3 684.321 Q1221.12 683.186 1223.58 682.608 Q1226.03 682.029 1228.07 682.029 Q1233.44 682.029 1236.63 684.714 Q1239.83 687.399 1239.83 691.89 Q1239.83 694.02 1239.02 695.941 Q1238.23 697.839 1236.12 700.432 Q1235.54 701.103 1232.44 704.32 Q1229.34 707.515 1223.69 713.279 Z" fill="#000000" fill-rule="nonzero" fill-opacity="1" /><path clip-path="url(#clip330)" d="M1590.02 698.58 Q1593.38 699.297 1595.25 701.566 Q1597.15 703.834 1597.15 707.168 Q1597.15 712.283 1593.63 715.084 Q1590.12 717.885 1583.63 717.885 Q1581.46 717.885 1579.14 717.445 Q1576.85 717.029 1574.4 716.172 L1574.4 711.658 Q1576.34 712.793 1578.66 713.371 Q1580.97 713.95 1583.5 713.95 Q1587.89 713.95 1590.19 712.214 Q1592.5 710.478 1592.5 707.168 Q1592.5 704.112 1590.35 702.399 Q1588.22 700.663 1584.4 700.663 L1580.37 700.663 L1580.37 696.82 L1584.58 696.82 Q1588.03 696.82 1589.86 695.455 Q1591.69 694.066 1591.69 691.473 Q1591.69 688.811 1589.79 687.399 Q1587.92 685.964 1584.4 685.964 Q1582.48 685.964 1580.28 686.381 Q1578.08 686.797 1575.44 687.677 L1575.44 683.51 Q1578.1 682.77 1580.42 682.399 Q1582.75 682.029 1584.81 682.029 Q1590.14 682.029 1593.24 684.459 Q1596.34 686.867 1596.34 690.987 Q1596.34 693.858 1594.7 695.848 Q1593.06 697.816 1590.02 698.58 Z" fill="#000000" fill-rule="nonzero" fill-opacity="1" /><path clip-path="url(#clip330)" d="M1945.52 686.728 L1933.71 705.177 L1945.52 705.177 L1945.52 686.728 M1944.29 682.654 L1950.17 682.654 L1950.17 705.177 L1955.1 705.177 L1955.1 709.066 L1950.17 709.066 L1950.17 717.214 L1945.52 717.214 L1945.52 709.066 L1929.92 709.066 L1929.92 704.552 L1944.29 682.654 Z" fill="#000000" fill-rule="nonzero" fill-opacity="1" /><path clip-path="url(#clip330)" d="M2289.52 682.654 L2307.88 682.654 L2307.88 686.589 L2293.81 686.589 L2293.81 695.061 Q2294.82 694.714 2295.84 694.552 Q2296.86 694.367 2297.88 694.367 Q2303.67 694.367 2307.05 697.538 Q2310.43 700.709 2310.43 706.126 Q2310.43 711.705 2306.95 714.806 Q2303.48 717.885 2297.16 717.885 Q2294.99 717.885 2292.72 717.515 Q2290.47 717.144 2288.07 716.404 L2288.07 711.705 Q2290.15 712.839 2292.37 713.394 Q2294.59 713.95 2297.07 713.95 Q2301.07 713.95 2303.41 711.844 Q2305.75 709.737 2305.75 706.126 Q2305.75 702.515 2303.41 700.408 Q2301.07 698.302 2297.07 698.302 Q2295.19 698.302 2293.32 698.719 Q2291.47 699.135 2289.52 700.015 L2289.52 682.654 Z" fill="#000000" fill-rule="nonzero" fill-opacity="1" /><polyline clip-path="url(#clip330)" style="stroke:#000000; stroke-linecap:round; stroke-linejoin:round; stroke-width:4; stroke-opacity:1; fill:none" points="462.06,654.814 462.06,47.2441 "/>
<polyline clip-path="url(#clip330)" style="stroke:#000000; stroke-linecap:round; stroke-linejoin:round; stroke-width:4; stroke-opacity:1; fill:none" points="462.06,643.294 480.957,643.294 "/>
<polyline clip-path="url(#clip330)" style="stroke:#000000; stroke-linecap:round; stroke-linejoin:round; stroke-width:4; stroke-opacity:1; fill:none" points="462.06,501.418 480.957,501.418 "/>
<polyline clip-path="url(#clip330)" style="stroke:#000000; stroke-linecap:round; stroke-linejoin:round; stroke-width:4; stroke-opacity:1; fill:none" points="462.06,359.542 480.957,359.542 "/>
<polyline clip-path="url(#clip330)" style="stroke:#000000; stroke-linecap:round; stroke-linejoin:round; stroke-width:4; stroke-opacity:1; fill:none" points="462.06,217.666 480.957,217.666 "/>
<polyline clip-path="url(#clip330)" style="stroke:#000000; stroke-linecap:round; stroke-linejoin:round; stroke-width:4; stroke-opacity:1; fill:none" points="462.06,75.7895 480.957,75.7895 "/>
<path clip-path="url(#clip330)" d="M320.111 643.745 L349.787 643.745 L349.787 647.68 L320.111 647.68 L320.111 643.745 Z" fill="#000000" fill-rule="nonzero" fill-opacity="1" /><path clip-path="url(#clip330)" d="M363.907 656.638 L380.227 656.638 L380.227 660.574 L358.282 660.574 L358.282 656.638 Q360.944 653.884 365.528 649.254 Q370.134 644.601 371.315 643.259 Q373.56 640.736 374.44 639 Q375.342 637.24 375.342 635.551 Q375.342 632.796 373.398 631.06 Q371.477 629.324 368.375 629.324 Q366.176 629.324 363.722 630.088 Q361.292 630.851 358.514 632.402 L358.514 627.68 Q361.338 626.546 363.792 625.967 Q366.245 625.389 368.282 625.389 Q373.653 625.389 376.847 628.074 Q380.041 630.759 380.041 635.25 Q380.041 637.379 379.231 639.3 Q378.444 641.199 376.338 643.791 Q375.759 644.463 372.657 647.68 Q369.555 650.875 363.907 656.638 Z" fill="#000000" fill-rule="nonzero" fill-opacity="1" /><path clip-path="url(#clip330)" d="M390.041 654.694 L394.926 654.694 L394.926 660.574 L390.041 660.574 L390.041 654.694 Z" fill="#000000" fill-rule="nonzero" fill-opacity="1" /><path clip-path="url(#clip330)" d="M405.157 626.014 L423.513 626.014 L423.513 629.949 L409.439 629.949 L409.439 638.421 Q410.458 638.074 411.476 637.912 Q412.495 637.726 413.513 637.726 Q419.3 637.726 422.68 640.898 Q426.06 644.069 426.06 649.486 Q426.06 655.064 422.587 658.166 Q419.115 661.245 412.796 661.245 Q410.62 661.245 408.351 660.874 Q406.106 660.504 403.699 659.763 L403.699 655.064 Q405.782 656.199 408.004 656.754 Q410.226 657.31 412.703 657.31 Q416.708 657.31 419.046 655.203 Q421.384 653.097 421.384 649.486 Q421.384 645.875 419.046 643.768 Q416.708 641.662 412.703 641.662 Q410.828 641.662 408.953 642.078 Q407.101 642.495 405.157 643.375 L405.157 626.014 Z" fill="#000000" fill-rule="nonzero" fill-opacity="1" /><path clip-path="url(#clip330)" d="M368.884 487.216 Q365.273 487.216 363.444 490.781 Q361.639 494.323 361.639 501.452 Q361.639 508.559 363.444 512.123 Q365.273 515.665 368.884 515.665 Q372.518 515.665 374.324 512.123 Q376.153 508.559 376.153 501.452 Q376.153 494.323 374.324 490.781 Q372.518 487.216 368.884 487.216 M368.884 483.513 Q374.694 483.513 377.75 488.119 Q380.828 492.702 380.828 501.452 Q380.828 510.179 377.75 514.786 Q374.694 519.369 368.884 519.369 Q363.074 519.369 359.995 514.786 Q356.94 510.179 356.94 501.452 Q356.94 492.702 359.995 488.119 Q363.074 483.513 368.884 483.513 Z" fill="#000000" fill-rule="nonzero" fill-opacity="1" /><path clip-path="url(#clip330)" d="M389.046 512.818 L393.93 512.818 L393.93 518.698 L389.046 518.698 L389.046 512.818 Z" fill="#000000" fill-rule="nonzero" fill-opacity="1" /><path clip-path="url(#clip330)" d="M414.115 487.216 Q410.504 487.216 408.676 490.781 Q406.87 494.323 406.87 501.452 Q406.87 508.559 408.676 512.123 Q410.504 515.665 414.115 515.665 Q417.75 515.665 419.555 512.123 Q421.384 508.559 421.384 501.452 Q421.384 494.323 419.555 490.781 Q417.75 487.216 414.115 487.216 M414.115 483.513 Q419.925 483.513 422.981 488.119 Q426.06 492.702 426.06 501.452 Q426.06 510.179 422.981 514.786 Q419.925 519.369 414.115 519.369 Q408.305 519.369 405.226 514.786 Q402.171 510.179 402.171 501.452 Q402.171 492.702 405.226 488.119 Q408.305 483.513 414.115 483.513 Z" fill="#000000" fill-rule="nonzero" fill-opacity="1" /><path clip-path="url(#clip330)" d="M363.907 372.886 L380.227 372.886 L380.227 376.822 L358.282 376.822 L358.282 372.886 Q360.944 370.132 365.528 365.502 Q370.134 360.849 371.315 359.507 Q373.56 356.984 374.44 355.248 Q375.342 353.488 375.342 351.799 Q375.342 349.044 373.398 347.308 Q371.477 345.572 368.375 345.572 Q366.176 345.572 363.722 346.336 Q361.292 347.099 358.514 348.65 L358.514 343.928 Q361.338 342.794 363.792 342.215 Q366.245 341.637 368.282 341.637 Q373.653 341.637 376.847 344.322 Q380.041 347.007 380.041 351.498 Q380.041 353.627 379.231 355.549 Q378.444 357.447 376.338 360.039 Q375.759 360.711 372.657 363.928 Q369.555 367.123 363.907 372.886 Z" fill="#000000" fill-rule="nonzero" fill-opacity="1" /><path clip-path="url(#clip330)" d="M390.041 370.942 L394.926 370.942 L394.926 376.822 L390.041 376.822 L390.041 370.942 Z" fill="#000000" fill-rule="nonzero" fill-opacity="1" /><path clip-path="url(#clip330)" d="M405.157 342.262 L423.513 342.262 L423.513 346.197 L409.439 346.197 L409.439 354.669 Q410.458 354.322 411.476 354.16 Q412.495 353.974 413.513 353.974 Q419.3 353.974 422.68 357.146 Q426.06 360.317 426.06 365.734 Q426.06 371.312 422.587 374.414 Q419.115 377.493 412.796 377.493 Q410.62 377.493 408.351 377.122 Q406.106 376.752 403.699 376.011 L403.699 371.312 Q405.782 372.447 408.004 373.002 Q410.226 373.558 412.703 373.558 Q416.708 373.558 419.046 371.451 Q421.384 369.345 421.384 365.734 Q421.384 362.123 419.046 360.016 Q416.708 357.91 412.703 357.91 Q410.828 357.91 408.953 358.326 Q407.101 358.743 405.157 359.623 L405.157 342.262 Z" fill="#000000" fill-rule="nonzero" fill-opacity="1" /><path clip-path="url(#clip330)" d="M358.93 200.386 L377.287 200.386 L377.287 204.321 L363.213 204.321 L363.213 212.793 Q364.231 212.446 365.25 212.284 Q366.268 212.098 367.287 212.098 Q373.074 212.098 376.453 215.27 Q379.833 218.441 379.833 223.858 Q379.833 229.436 376.361 232.538 Q372.889 235.617 366.569 235.617 Q364.393 235.617 362.125 235.246 Q359.88 234.876 357.472 234.135 L357.472 229.436 Q359.555 230.571 361.778 231.126 Q364 231.682 366.477 231.682 Q370.481 231.682 372.819 229.575 Q375.157 227.469 375.157 223.858 Q375.157 220.247 372.819 218.14 Q370.481 216.034 366.477 216.034 Q364.602 216.034 362.727 216.45 Q360.875 216.867 358.93 217.747 L358.93 200.386 Z" fill="#000000" fill-rule="nonzero" fill-opacity="1" /><path clip-path="url(#clip330)" d="M389.046 229.066 L393.93 229.066 L393.93 234.946 L389.046 234.946 L389.046 229.066 Z" fill="#000000" fill-rule="nonzero" fill-opacity="1" /><path clip-path="url(#clip330)" d="M414.115 203.464 Q410.504 203.464 408.676 207.029 Q406.87 210.571 406.87 217.7 Q406.87 224.807 408.676 228.372 Q410.504 231.913 414.115 231.913 Q417.75 231.913 419.555 228.372 Q421.384 224.807 421.384 217.7 Q421.384 210.571 419.555 207.029 Q417.75 203.464 414.115 203.464 M414.115 199.761 Q419.925 199.761 422.981 204.367 Q426.06 208.95 426.06 217.7 Q426.06 226.427 422.981 231.034 Q419.925 235.617 414.115 235.617 Q408.305 235.617 405.226 231.034 Q402.171 226.427 402.171 217.7 Q402.171 208.95 405.226 204.367 Q408.305 199.761 414.115 199.761 Z" fill="#000000" fill-rule="nonzero" fill-opacity="1" /><path clip-path="url(#clip330)" d="M358.699 58.5095 L380.921 58.5095 L380.921 60.5003 L368.375 93.0695 L363.491 93.0695 L375.296 62.4447 L358.699 62.4447 L358.699 58.5095 Z" fill="#000000" fill-rule="nonzero" fill-opacity="1" /><path clip-path="url(#clip330)" d="M390.041 87.1899 L394.926 87.1899 L394.926 93.0695 L390.041 93.0695 L390.041 87.1899 Z" fill="#000000" fill-rule="nonzero" fill-opacity="1" /><path clip-path="url(#clip330)" d="M405.157 58.5095 L423.513 58.5095 L423.513 62.4447 L409.439 62.4447 L409.439 70.9169 Q410.458 70.5697 411.476 70.4076 Q412.495 70.2224 413.513 70.2224 Q419.3 70.2224 422.68 73.3937 Q426.06 76.565 426.06 81.9816 Q426.06 87.5603 422.587 90.6622 Q419.115 93.7408 412.796 93.7408 Q410.62 93.7408 408.351 93.3705 Q406.106 93.0001 403.699 92.2594 L403.699 87.5603 Q405.782 88.6946 408.004 89.2501 Q410.226 89.8057 412.703 89.8057 Q416.708 89.8057 419.046 87.6992 Q421.384 85.5927 421.384 81.9816 Q421.384 78.3705 419.046 76.2641 Q416.708 74.1576 412.703 74.1576 Q410.828 74.1576 408.953 74.5743 Q407.101 74.9909 405.157 75.8706 L405.157 58.5095 Z" fill="#000000" fill-rule="nonzero" fill-opacity="1" /><path clip-path="url(#clip330)" d="M270.778 383.319 Q270.778 387.807 268.073 390.735 Q264.858 394.204 259.033 394.204 Q252.986 394.204 248.275 391.149 Q243.438 387.998 243.438 382.332 Q243.438 378.608 245.761 375.68 Q247.13 373.961 249.421 372.784 Q246.843 372.37 243.915 372.37 Q239.618 372.37 237.135 373.389 Q231.629 375.648 231.629 381.632 Q231.629 383.892 233.03 387.393 L227.682 387.393 Q226.696 383.701 226.696 380.391 Q226.696 371.861 234.526 368.232 Q238.218 366.545 243.724 366.545 Q247.321 366.545 251.49 367.341 Q261.93 369.346 266.895 374.534 Q270.778 378.608 270.778 383.319 M259.988 388.762 Q263.171 388.762 264.89 387.361 Q266.704 385.865 266.704 383.574 Q266.704 381.537 265.272 379.913 Q263.299 377.622 260.084 375.935 Q257.442 374.534 254.609 373.834 Q247.766 376.667 247.766 381.568 Q247.766 385.77 253.304 387.616 Q256.742 388.762 259.988 388.762 Z" fill="#000000" fill-rule="nonzero" fill-opacity="1" /><path clip-path="url(#clip330)" d="M244.233 356.01 L249.899 356.01 L249.899 348.403 L252.445 348.403 L252.445 356.01 L263.267 356.01 Q265.717 356.01 266.418 355.246 Q267.118 354.482 267.118 352.191 L267.118 348.403 L269.855 348.403 L269.855 352.191 Q269.855 356.456 268.423 358.079 Q267.022 359.702 263.267 359.702 L252.445 359.702 L252.445 362.408 L249.899 362.408 L249.899 359.702 L244.233 359.702 L244.233 356.01 Z" fill="#000000" fill-rule="nonzero" fill-opacity="1" /><path clip-path="url(#clip330)" d="M234.207 308.522 L251.554 321.413 L269.855 307.854 L269.855 314.76 L255.851 325.136 L269.855 335.513 L269.855 342.419 L251.204 328.574 L234.207 341.242 L234.207 334.335 L246.907 324.882 L234.207 315.429 L234.207 308.522 Z" fill="#000000" fill-rule="nonzero" fill-opacity="1" /><polyline clip-path="url(#clip332)" style="stroke:#009af9; stroke-linecap:round; stroke-linejoin:round; stroke-width:4; stroke-opacity:1; fill:none" points="515.57,637.618 551.243,627.147 586.917,617.48 622.591,608.557 658.264,600.32 693.938,592.716 729.611,585.696 765.285,579.217 800.958,573.235 836.632,567.714 872.305,562.617 907.979,557.911 943.652,553.568 979.326,549.558 1015,545.857 1050.67,542.44 1086.35,539.286 1122.02,536.375 1157.69,533.687 1193.37,531.206 1229.04,528.916 1264.71,526.802 1300.39,524.85 1336.06,523.049 1371.73,521.386 1407.41,519.85 1443.08,518.433 1478.75,517.125 1514.43,515.917 1550.1,514.802 1585.78,513.773 1621.45,512.823 1657.12,511.947 1692.8,511.137 1728.47,510.39 1764.14,509.7 1799.82,509.063 1835.49,508.475 1871.16,507.933 1906.84,507.432 1942.51,506.969 1978.18,506.543 2013.86,506.148 2049.53,505.785 2085.2,505.449 2120.88,505.139 2156.55,504.853 2192.23,504.589 2227.9,504.345 2263.57,504.12 2299.25,503.912 "/>
<polyline clip-path="url(#clip332)" style="stroke:#e26f46; stroke-linecap:round; stroke-linejoin:round; stroke-width:4; stroke-opacity:1; fill:none" points="515.57,64.4395 551.243,144.989 586.917,212.551 622.591,269.12 658.264,316.387 693.938,355.792 729.611,388.556 765.285,415.716 800.958,438.153 836.632,456.612 872.305,471.726 907.979,484.032 943.652,493.983 979.326,501.963 1015,508.298 1050.67,513.264 1086.35,517.091 1122.02,519.974 1157.69,522.079 1193.37,523.545 1229.04,524.489 1264.71,525.009 1300.39,525.186 1336.06,525.088 1371.73,524.774 1407.41,524.292 1443.08,523.68 1478.75,522.971 1514.43,522.192 1550.1,521.365 1585.78,520.509 1621.45,519.638 1657.12,518.764 1692.8,517.896 1728.47,517.042 1764.14,516.207 1799.82,515.396 1835.49,514.611 1871.16,513.856 1906.84,513.132 1942.51,512.439 1978.18,511.779 2013.86,511.151 2049.53,510.554 2085.2,509.989 2120.88,509.454 2156.55,508.949 2192.23,508.472 2227.9,508.023 2263.57,507.6 2299.25,507.202 "/>
<polyline clip-path="url(#clip332)" style="stroke:#000000; stroke-linecap:round; stroke-linejoin:round; stroke-width:4; stroke-opacity:1; fill:none" stroke-dasharray="16, 10" points="515.57,637.618 551.243,627.147 586.917,617.48 622.591,608.557 658.264,600.32 693.938,592.716 729.611,585.696 765.285,579.217 800.958,573.235 836.632,567.714 872.305,562.617 907.979,557.911 943.652,553.568 979.326,549.558 1015,545.857 1050.67,542.44 1086.35,539.286 1122.02,536.375 1157.69,533.687 1193.37,531.206 1229.04,528.916 1264.71,526.802 1300.39,524.85 1336.06,523.049 1371.73,521.386 1407.41,519.85 1443.08,518.433 1478.75,517.125 1514.43,515.917 1550.1,514.802 1585.78,513.773 1621.45,512.823 1657.12,511.947 1692.8,511.137 1728.47,510.39 1764.14,509.7 1799.82,509.063 1835.49,508.475 1871.16,507.933 1906.84,507.432 1942.51,506.969 1978.18,506.543 2013.86,506.148 2049.53,505.785 2085.2,505.449 2120.88,505.139 2156.55,504.853 2192.23,504.589 2227.9,504.345 2263.57,504.12 2299.25,503.912 "/>
<polyline clip-path="url(#clip332)" style="stroke:#000000; stroke-linecap:round; stroke-linejoin:round; stroke-width:4; stroke-opacity:1; fill:none" stroke-dasharray="16, 10" points="515.57,64.4395 551.243,144.989 586.917,212.551 622.591,269.12 658.264,316.387 693.938,355.792 729.611,388.556 765.285,415.716 800.958,438.153 836.632,456.612 872.305,471.726 907.979,484.032 943.652,493.983 979.326,501.963 1015,508.298 1050.67,513.264 1086.35,517.091 1122.02,519.974 1157.69,522.079 1193.37,523.545 1229.04,524.489 1264.71,525.009 1300.39,525.186 1336.06,525.088 1371.73,524.774 1407.41,524.292 1443.08,523.68 1478.75,522.971 1514.43,522.192 1550.1,521.365 1585.78,520.509 1621.45,519.638 1657.12,518.764 1692.8,517.896 1728.47,517.042 1764.14,516.207 1799.82,515.396 1835.49,514.611 1871.16,513.856 1906.84,513.132 1942.51,512.439 1978.18,511.779 2013.86,511.151 2049.53,510.554 2085.2,509.989 2120.88,509.454 2156.55,508.949 2192.23,508.472 2227.9,508.023 2263.57,507.6 2299.25,507.202 "/>
<path clip-path="url(#clip330)" d="M1965.8 223.016 L2289.73 223.016 L2289.73 67.4964 L1965.8 67.4964  Z" fill="#ffffff" fill-rule="evenodd" fill-opacity="1"/>
<polyline clip-path="url(#clip330)" style="stroke:#000000; stroke-linecap:round; stroke-linejoin:round; stroke-width:4; stroke-opacity:1; fill:none" points="1965.8,223.016 2289.73,223.016 2289.73,67.4964 1965.8,67.4964 1965.8,223.016 "/>
<polyline clip-path="url(#clip330)" style="stroke:#009af9; stroke-linecap:round; stroke-linejoin:round; stroke-width:4; stroke-opacity:1; fill:none" points="1986.81,119.336 2112.86,119.336 "/>
<path clip-path="url(#clip330)" d="M2141.78 137.288 Q2138.52 137.288 2136.39 135.32 Q2133.86 132.982 2133.86 128.746 Q2133.86 124.348 2136.09 120.922 Q2138.38 117.404 2142.5 117.404 Q2145.21 117.404 2147.34 119.093 Q2148.59 120.089 2149.44 121.755 Q2149.74 119.88 2149.74 117.751 Q2149.74 114.626 2149 112.82 Q2147.36 108.816 2143.01 108.816 Q2141.36 108.816 2138.82 109.834 L2138.82 105.945 Q2141.5 105.228 2143.91 105.228 Q2150.11 105.228 2152.75 110.922 Q2153.98 113.607 2153.98 117.612 Q2153.98 120.228 2153.4 123.26 Q2151.94 130.853 2148.17 134.464 Q2145.21 137.288 2141.78 137.288 M2137.82 129.441 Q2137.82 131.755 2138.84 133.005 Q2139.93 134.325 2141.6 134.325 Q2143.08 134.325 2144.26 133.283 Q2145.92 131.848 2147.15 129.51 Q2148.17 127.589 2148.68 125.529 Q2146.62 120.552 2143.05 120.552 Q2140 120.552 2138.66 124.579 Q2137.82 127.079 2137.82 129.441 Z" fill="#000000" fill-rule="nonzero" fill-opacity="1" /><path clip-path="url(#clip330)" d="M2161.64 117.982 L2161.64 122.103 L2167.17 122.103 L2167.17 123.954 L2161.64 123.954 L2161.64 131.825 Q2161.64 133.607 2162.2 134.116 Q2162.75 134.626 2164.42 134.626 L2167.17 134.626 L2167.17 136.616 L2164.42 136.616 Q2161.32 136.616 2160.14 135.575 Q2158.96 134.556 2158.96 131.825 L2158.96 123.954 L2156.99 123.954 L2156.99 122.103 L2158.96 122.103 L2158.96 117.982 L2161.64 117.982 Z" fill="#000000" fill-rule="nonzero" fill-opacity="1" /><path clip-path="url(#clip330)" d="M2196.18 110.691 L2186.8 123.306 L2196.67 136.616 L2191.64 136.616 L2184.1 126.431 L2176.55 136.616 L2171.53 136.616 L2181.6 123.052 L2172.38 110.691 L2177.41 110.691 L2184.28 119.927 L2191.16 110.691 L2196.18 110.691 Z" fill="#000000" fill-rule="nonzero" fill-opacity="1" /><path clip-path="url(#clip330)" d="M2184.65 98.7 L2188.08 98.7 L2193.75 107.404 L2190.53 107.404 L2186.36 101.732 L2182.2 107.404 L2178.98 107.404 L2184.65 98.7 M2186.36 110.066 L2186.36 110.066 Z" fill="#000000" fill-rule="nonzero" fill-opacity="1" /><path clip-path="url(#clip330)" d="M2201.83 134.07 L2206.55 134.07 L2206.55 119.927 L2201.39 120.876 L2201.39 118.191 L2206.71 117.288 L2209.88 117.288 L2209.88 134.07 L2214.63 134.07 L2214.63 136.616 L2201.83 136.616 L2201.83 134.07 Z" fill="#000000" fill-rule="nonzero" fill-opacity="1" /><path clip-path="url(#clip330)" d="M2231.92 100.644 Q2228.82 105.968 2227.31 111.177 Q2225.81 116.385 2225.81 121.732 Q2225.81 127.079 2227.31 132.334 Q2228.84 137.565 2231.92 142.866 L2228.22 142.866 Q2224.74 137.427 2223.01 132.172 Q2221.29 126.917 2221.29 121.732 Q2221.29 116.57 2223.01 111.339 Q2224.72 106.107 2228.22 100.644 L2231.92 100.644 Z" fill="#000000" fill-rule="nonzero" fill-opacity="1" /><path clip-path="url(#clip330)" d="M2244.4 103.33 L2244.4 110.691 L2253.17 110.691 L2253.17 114.001 L2244.4 114.001 L2244.4 128.075 Q2244.4 131.246 2245.25 132.149 Q2246.13 133.052 2248.79 133.052 L2253.17 133.052 L2253.17 136.616 L2248.79 136.616 Q2243.86 136.616 2241.99 134.788 Q2240.11 132.936 2240.11 128.075 L2240.11 114.001 L2236.99 114.001 L2236.99 110.691 L2240.11 110.691 L2240.11 103.33 L2244.4 103.33 Z" fill="#000000" fill-rule="nonzero" fill-opacity="1" /><path clip-path="url(#clip330)" d="M2258.1 100.644 L2261.8 100.644 Q2265.28 106.107 2266.99 111.339 Q2268.72 116.57 2268.72 121.732 Q2268.72 126.917 2266.99 132.172 Q2265.28 137.427 2261.8 142.866 L2258.1 142.866 Q2261.18 137.565 2262.68 132.334 Q2264.21 127.079 2264.21 121.732 Q2264.21 116.385 2262.68 111.177 Q2261.18 105.968 2258.1 100.644 Z" fill="#000000" fill-rule="nonzero" fill-opacity="1" /><polyline clip-path="url(#clip330)" style="stroke:#e26f46; stroke-linecap:round; stroke-linejoin:round; stroke-width:4; stroke-opacity:1; fill:none" points="1986.81,171.176 2112.86,171.176 "/>
<path clip-path="url(#clip330)" d="M2141.78 189.128 Q2138.52 189.128 2136.39 187.16 Q2133.86 184.822 2133.86 180.586 Q2133.86 176.188 2136.09 172.762 Q2138.38 169.244 2142.5 169.244 Q2145.21 169.244 2147.34 170.933 Q2148.59 171.929 2149.44 173.595 Q2149.74 171.72 2149.74 169.591 Q2149.74 166.466 2149 164.66 Q2147.36 160.656 2143.01 160.656 Q2141.36 160.656 2138.82 161.674 L2138.82 157.785 Q2141.5 157.068 2143.91 157.068 Q2150.11 157.068 2152.75 162.762 Q2153.98 165.447 2153.98 169.452 Q2153.98 172.068 2153.4 175.1 Q2151.94 182.693 2148.17 186.304 Q2145.21 189.128 2141.78 189.128 M2137.82 181.281 Q2137.82 183.595 2138.84 184.845 Q2139.93 186.165 2141.6 186.165 Q2143.08 186.165 2144.26 185.123 Q2145.92 183.688 2147.15 181.35 Q2148.17 179.429 2148.68 177.369 Q2146.62 172.392 2143.05 172.392 Q2140 172.392 2138.66 176.419 Q2137.82 178.919 2137.82 181.281 Z" fill="#000000" fill-rule="nonzero" fill-opacity="1" /><path clip-path="url(#clip330)" d="M2161.64 169.822 L2161.64 173.943 L2167.17 173.943 L2167.17 175.794 L2161.64 175.794 L2161.64 183.665 Q2161.64 185.447 2162.2 185.956 Q2162.75 186.466 2164.42 186.466 L2167.17 186.466 L2167.17 188.456 L2164.42 188.456 Q2161.32 188.456 2160.14 187.415 Q2158.96 186.396 2158.96 183.665 L2158.96 175.794 L2156.99 175.794 L2156.99 173.943 L2158.96 173.943 L2158.96 169.822 L2161.64 169.822 Z" fill="#000000" fill-rule="nonzero" fill-opacity="1" /><path clip-path="url(#clip330)" d="M2196.18 162.531 L2186.8 175.146 L2196.67 188.456 L2191.64 188.456 L2184.1 178.271 L2176.55 188.456 L2171.53 188.456 L2181.6 174.892 L2172.38 162.531 L2177.41 162.531 L2184.28 171.767 L2191.16 162.531 L2196.18 162.531 Z" fill="#000000" fill-rule="nonzero" fill-opacity="1" /><path clip-path="url(#clip330)" d="M2184.65 150.54 L2188.08 150.54 L2193.75 159.244 L2190.53 159.244 L2186.36 153.572 L2182.2 159.244 L2178.98 159.244 L2184.65 150.54 M2186.36 161.906 L2186.36 161.906 Z" fill="#000000" fill-rule="nonzero" fill-opacity="1" /><path clip-path="url(#clip330)" d="M2204.42 185.818 L2214.23 185.818 L2214.23 188.456 L2200.39 188.456 L2200.39 185.91 Q2201.18 185.193 2202.64 183.896 Q2210.6 176.836 2210.6 174.66 Q2210.6 173.132 2209.4 172.207 Q2208.19 171.257 2206.23 171.257 Q2205.02 171.257 2203.61 171.674 Q2202.2 172.068 2200.53 172.878 L2200.53 170.031 Q2202.31 169.382 2203.84 169.058 Q2205.39 168.734 2206.71 168.734 Q2210.07 168.734 2212.08 170.262 Q2214.1 171.79 2214.1 174.29 Q2214.1 177.507 2206.43 184.081 Q2205.14 185.193 2204.42 185.818 Z" fill="#000000" fill-rule="nonzero" fill-opacity="1" /><path clip-path="url(#clip330)" d="M2231.92 152.484 Q2228.82 157.808 2227.31 163.017 Q2225.81 168.225 2225.81 173.572 Q2225.81 178.919 2227.31 184.174 Q2228.84 189.405 2231.92 194.706 L2228.22 194.706 Q2224.74 189.267 2223.01 184.012 Q2221.29 178.757 2221.29 173.572 Q2221.29 168.41 2223.01 163.179 Q2224.72 157.947 2228.22 152.484 L2231.92 152.484 Z" fill="#000000" fill-rule="nonzero" fill-opacity="1" /><path clip-path="url(#clip330)" d="M2244.4 155.17 L2244.4 162.531 L2253.17 162.531 L2253.17 165.841 L2244.4 165.841 L2244.4 179.915 Q2244.4 183.086 2245.25 183.989 Q2246.13 184.892 2248.79 184.892 L2253.17 184.892 L2253.17 188.456 L2248.79 188.456 Q2243.86 188.456 2241.99 186.628 Q2240.11 184.776 2240.11 179.915 L2240.11 165.841 L2236.99 165.841 L2236.99 162.531 L2240.11 162.531 L2240.11 155.17 L2244.4 155.17 Z" fill="#000000" fill-rule="nonzero" fill-opacity="1" /><path clip-path="url(#clip330)" d="M2258.1 152.484 L2261.8 152.484 Q2265.28 157.947 2266.99 163.179 Q2268.72 168.41 2268.72 173.572 Q2268.72 178.757 2266.99 184.012 Q2265.28 189.267 2261.8 194.706 L2258.1 194.706 Q2261.18 189.405 2262.68 184.174 Q2264.21 178.919 2264.21 173.572 Q2264.21 168.225 2262.68 163.017 Q2261.18 157.808 2258.1 152.484 Z" fill="#000000" fill-rule="nonzero" fill-opacity="1" /><path clip-path="url(#clip330)" d="M462.06 1423.18 L2352.76 1423.18 L2352.76 815.61 L462.06 815.61  Z" fill="#ffffff" fill-rule="evenodd" fill-opacity="1"/>
<polyline clip-path="url(#clip331)" style="stroke:#000000; stroke-linecap:round; stroke-linejoin:round; stroke-width:2; stroke-opacity:0.1; fill:none" points="515.57,1423.18 515.57,815.61 "/>
<polyline clip-path="url(#clip331)" style="stroke:#000000; stroke-linecap:round; stroke-linejoin:round; stroke-width:2; stroke-opacity:0.1; fill:none" points="872.305,1423.18 872.305,815.61 "/>
<polyline clip-path="url(#clip331)" style="stroke:#000000; stroke-linecap:round; stroke-linejoin:round; stroke-width:2; stroke-opacity:0.1; fill:none" points="1229.04,1423.18 1229.04,815.61 "/>
<polyline clip-path="url(#clip331)" style="stroke:#000000; stroke-linecap:round; stroke-linejoin:round; stroke-width:2; stroke-opacity:0.1; fill:none" points="1585.78,1423.18 1585.78,815.61 "/>
<polyline clip-path="url(#clip331)" style="stroke:#000000; stroke-linecap:round; stroke-linejoin:round; stroke-width:2; stroke-opacity:0.1; fill:none" points="1942.51,1423.18 1942.51,815.61 "/>
<polyline clip-path="url(#clip331)" style="stroke:#000000; stroke-linecap:round; stroke-linejoin:round; stroke-width:2; stroke-opacity:0.1; fill:none" points="2299.25,1423.18 2299.25,815.61 "/>
<polyline clip-path="url(#clip331)" style="stroke:#000000; stroke-linecap:round; stroke-linejoin:round; stroke-width:2; stroke-opacity:0.1; fill:none" points="462.06,1382.1 2352.76,1382.1 "/>
<polyline clip-path="url(#clip331)" style="stroke:#000000; stroke-linecap:round; stroke-linejoin:round; stroke-width:2; stroke-opacity:0.1; fill:none" points="462.06,1262.69 2352.76,1262.69 "/>
<polyline clip-path="url(#clip331)" style="stroke:#000000; stroke-linecap:round; stroke-linejoin:round; stroke-width:2; stroke-opacity:0.1; fill:none" points="462.06,1143.28 2352.76,1143.28 "/>
<polyline clip-path="url(#clip331)" style="stroke:#000000; stroke-linecap:round; stroke-linejoin:round; stroke-width:2; stroke-opacity:0.1; fill:none" points="462.06,1023.87 2352.76,1023.87 "/>
<polyline clip-path="url(#clip331)" style="stroke:#000000; stroke-linecap:round; stroke-linejoin:round; stroke-width:2; stroke-opacity:0.1; fill:none" points="462.06,904.453 2352.76,904.453 "/>
<polyline clip-path="url(#clip330)" style="stroke:#000000; stroke-linecap:round; stroke-linejoin:round; stroke-width:4; stroke-opacity:1; fill:none" points="462.06,1423.18 2352.76,1423.18 "/>
<polyline clip-path="url(#clip330)" style="stroke:#000000; stroke-linecap:round; stroke-linejoin:round; stroke-width:4; stroke-opacity:1; fill:none" points="515.57,1423.18 515.57,1404.28 "/>
<polyline clip-path="url(#clip330)" style="stroke:#000000; stroke-linecap:round; stroke-linejoin:round; stroke-width:4; stroke-opacity:1; fill:none" points="872.305,1423.18 872.305,1404.28 "/>
<polyline clip-path="url(#clip330)" style="stroke:#000000; stroke-linecap:round; stroke-linejoin:round; stroke-width:4; stroke-opacity:1; fill:none" points="1229.04,1423.18 1229.04,1404.28 "/>
<polyline clip-path="url(#clip330)" style="stroke:#000000; stroke-linecap:round; stroke-linejoin:round; stroke-width:4; stroke-opacity:1; fill:none" points="1585.78,1423.18 1585.78,1404.28 "/>
<polyline clip-path="url(#clip330)" style="stroke:#000000; stroke-linecap:round; stroke-linejoin:round; stroke-width:4; stroke-opacity:1; fill:none" points="1942.51,1423.18 1942.51,1404.28 "/>
<polyline clip-path="url(#clip330)" style="stroke:#000000; stroke-linecap:round; stroke-linejoin:round; stroke-width:4; stroke-opacity:1; fill:none" points="2299.25,1423.18 2299.25,1404.28 "/>
<path clip-path="url(#clip330)" d="M515.57 1454.1 Q511.959 1454.1 510.13 1457.66 Q508.325 1461.2 508.325 1468.33 Q508.325 1475.44 510.13 1479.01 Q511.959 1482.55 515.57 1482.55 Q519.204 1482.55 521.01 1479.01 Q522.838 1475.44 522.838 1468.33 Q522.838 1461.2 521.01 1457.66 Q519.204 1454.1 515.57 1454.1 M515.57 1450.39 Q521.38 1450.39 524.436 1455 Q527.514 1459.58 527.514 1468.33 Q527.514 1477.06 524.436 1481.67 Q521.38 1486.25 515.57 1486.25 Q509.76 1486.25 506.681 1481.67 Q503.626 1477.06 503.626 1468.33 Q503.626 1459.58 506.681 1455 Q509.76 1450.39 515.57 1450.39 Z" fill="#000000" fill-rule="nonzero" fill-opacity="1" /><path clip-path="url(#clip330)" d="M862.687 1481.64 L870.326 1481.64 L870.326 1455.28 L862.016 1456.95 L862.016 1452.69 L870.28 1451.02 L874.956 1451.02 L874.956 1481.64 L882.594 1481.64 L882.594 1485.58 L862.687 1485.58 L862.687 1481.64 Z" fill="#000000" fill-rule="nonzero" fill-opacity="1" /><path clip-path="url(#clip330)" d="M1223.69 1481.64 L1240.01 1481.64 L1240.01 1485.58 L1218.07 1485.58 L1218.07 1481.64 Q1220.73 1478.89 1225.31 1474.26 Q1229.92 1469.61 1231.1 1468.27 Q1233.35 1465.74 1234.23 1464.01 Q1235.13 1462.25 1235.13 1460.56 Q1235.13 1457.8 1233.18 1456.07 Q1231.26 1454.33 1228.16 1454.33 Q1225.96 1454.33 1223.51 1455.09 Q1221.08 1455.86 1218.3 1457.41 L1218.3 1452.69 Q1221.12 1451.55 1223.58 1450.97 Q1226.03 1450.39 1228.07 1450.39 Q1233.44 1450.39 1236.63 1453.08 Q1239.83 1455.77 1239.83 1460.26 Q1239.83 1462.39 1239.02 1464.31 Q1238.23 1466.2 1236.12 1468.8 Q1235.54 1469.47 1232.44 1472.69 Q1229.34 1475.88 1223.69 1481.64 Z" fill="#000000" fill-rule="nonzero" fill-opacity="1" /><path clip-path="url(#clip330)" d="M1590.02 1466.95 Q1593.38 1467.66 1595.25 1469.93 Q1597.15 1472.2 1597.15 1475.53 Q1597.15 1480.65 1593.63 1483.45 Q1590.12 1486.25 1583.63 1486.25 Q1581.46 1486.25 1579.14 1485.81 Q1576.85 1485.39 1574.4 1484.54 L1574.4 1480.02 Q1576.34 1481.16 1578.66 1481.74 Q1580.97 1482.32 1583.5 1482.32 Q1587.89 1482.32 1590.19 1480.58 Q1592.5 1478.84 1592.5 1475.53 Q1592.5 1472.48 1590.35 1470.77 Q1588.22 1469.03 1584.4 1469.03 L1580.37 1469.03 L1580.37 1465.19 L1584.58 1465.19 Q1588.03 1465.19 1589.86 1463.82 Q1591.69 1462.43 1591.69 1459.84 Q1591.69 1457.18 1589.79 1455.77 Q1587.92 1454.33 1584.4 1454.33 Q1582.48 1454.33 1580.28 1454.75 Q1578.08 1455.16 1575.44 1456.04 L1575.44 1451.88 Q1578.1 1451.14 1580.42 1450.77 Q1582.75 1450.39 1584.81 1450.39 Q1590.14 1450.39 1593.24 1452.83 Q1596.34 1455.23 1596.34 1459.35 Q1596.34 1462.22 1594.7 1464.21 Q1593.06 1466.18 1590.02 1466.95 Z" fill="#000000" fill-rule="nonzero" fill-opacity="1" /><path clip-path="url(#clip330)" d="M1945.52 1455.09 L1933.71 1473.54 L1945.52 1473.54 L1945.52 1455.09 M1944.29 1451.02 L1950.17 1451.02 L1950.17 1473.54 L1955.1 1473.54 L1955.1 1477.43 L1950.17 1477.43 L1950.17 1485.58 L1945.52 1485.58 L1945.52 1477.43 L1929.92 1477.43 L1929.92 1472.92 L1944.29 1451.02 Z" fill="#000000" fill-rule="nonzero" fill-opacity="1" /><path clip-path="url(#clip330)" d="M2289.52 1451.02 L2307.88 1451.02 L2307.88 1454.96 L2293.81 1454.96 L2293.81 1463.43 Q2294.82 1463.08 2295.84 1462.92 Q2296.86 1462.73 2297.88 1462.73 Q2303.67 1462.73 2307.05 1465.9 Q2310.43 1469.08 2310.43 1474.49 Q2310.43 1480.07 2306.95 1483.17 Q2303.48 1486.25 2297.16 1486.25 Q2294.99 1486.25 2292.72 1485.88 Q2290.47 1485.51 2288.07 1484.77 L2288.07 1480.07 Q2290.15 1481.2 2292.37 1481.76 Q2294.59 1482.32 2297.07 1482.32 Q2301.07 1482.32 2303.41 1480.21 Q2305.75 1478.1 2305.75 1474.49 Q2305.75 1470.88 2303.41 1468.77 Q2301.07 1466.67 2297.07 1466.67 Q2295.19 1466.67 2293.32 1467.08 Q2291.47 1467.5 2289.52 1468.38 L2289.52 1451.02 Z" fill="#000000" fill-rule="nonzero" fill-opacity="1" /><path clip-path="url(#clip330)" d="M1406.47 1522.27 L1406.47 1532.4 L1418.53 1532.4 L1418.53 1536.95 L1406.47 1536.95 L1406.47 1556.3 Q1406.47 1560.66 1407.65 1561.9 Q1408.86 1563.14 1412.52 1563.14 L1418.53 1563.14 L1418.53 1568.04 L1412.52 1568.04 Q1405.74 1568.04 1403.16 1565.53 Q1400.58 1562.98 1400.58 1556.3 L1400.58 1536.95 L1396.28 1536.95 L1396.28 1532.4 L1400.58 1532.4 L1400.58 1522.27 L1406.47 1522.27 Z" fill="#000000" fill-rule="nonzero" fill-opacity="1" /><polyline clip-path="url(#clip330)" style="stroke:#000000; stroke-linecap:round; stroke-linejoin:round; stroke-width:4; stroke-opacity:1; fill:none" points="462.06,1423.18 462.06,815.61 "/>
<polyline clip-path="url(#clip330)" style="stroke:#000000; stroke-linecap:round; stroke-linejoin:round; stroke-width:4; stroke-opacity:1; fill:none" points="462.06,1382.1 480.957,1382.1 "/>
<polyline clip-path="url(#clip330)" style="stroke:#000000; stroke-linecap:round; stroke-linejoin:round; stroke-width:4; stroke-opacity:1; fill:none" points="462.06,1262.69 480.957,1262.69 "/>
<polyline clip-path="url(#clip330)" style="stroke:#000000; stroke-linecap:round; stroke-linejoin:round; stroke-width:4; stroke-opacity:1; fill:none" points="462.06,1143.28 480.957,1143.28 "/>
<polyline clip-path="url(#clip330)" style="stroke:#000000; stroke-linecap:round; stroke-linejoin:round; stroke-width:4; stroke-opacity:1; fill:none" points="462.06,1023.87 480.957,1023.87 "/>
<polyline clip-path="url(#clip330)" style="stroke:#000000; stroke-linecap:round; stroke-linejoin:round; stroke-width:4; stroke-opacity:1; fill:none" points="462.06,904.453 480.957,904.453 "/>
<path clip-path="url(#clip330)" d="M114.26 1389 L143.936 1389 L143.936 1392.94 L114.26 1392.94 L114.26 1389 Z" fill="#000000" fill-rule="nonzero" fill-opacity="1" /><path clip-path="url(#clip330)" d="M158.056 1401.89 L174.376 1401.89 L174.376 1405.83 L152.431 1405.83 L152.431 1401.89 Q155.093 1399.14 159.677 1394.51 Q164.283 1389.86 165.464 1388.51 Q167.709 1385.99 168.589 1384.26 Q169.491 1382.5 169.491 1380.81 Q169.491 1378.05 167.547 1376.32 Q165.626 1374.58 162.524 1374.58 Q160.325 1374.58 157.871 1375.34 Q155.44 1376.11 152.663 1377.66 L152.663 1372.94 Q155.487 1371.8 157.94 1371.22 Q160.394 1370.64 162.431 1370.64 Q167.802 1370.64 170.996 1373.33 Q174.19 1376.01 174.19 1380.51 Q174.19 1382.64 173.38 1384.56 Q172.593 1386.45 170.487 1389.05 Q169.908 1389.72 166.806 1392.94 Q163.704 1396.13 158.056 1401.89 Z" fill="#000000" fill-rule="nonzero" fill-opacity="1" /><path clip-path="url(#clip330)" d="M184.19 1399.95 L189.075 1399.95 L189.075 1405.83 L184.19 1405.83 L184.19 1399.95 Z" fill="#000000" fill-rule="nonzero" fill-opacity="1" /><path clip-path="url(#clip330)" d="M199.306 1371.27 L217.662 1371.27 L217.662 1375.2 L203.588 1375.2 L203.588 1383.68 Q204.607 1383.33 205.625 1383.17 Q206.644 1382.98 207.662 1382.98 Q213.449 1382.98 216.829 1386.15 Q220.209 1389.33 220.209 1394.74 Q220.209 1400.32 216.736 1403.42 Q213.264 1406.5 206.945 1406.5 Q204.769 1406.5 202.5 1406.13 Q200.255 1405.76 197.848 1405.02 L197.848 1400.32 Q199.931 1401.45 202.153 1402.01 Q204.375 1402.57 206.852 1402.57 Q210.857 1402.57 213.195 1400.46 Q215.533 1398.35 215.533 1394.74 Q215.533 1391.13 213.195 1389.02 Q210.857 1386.92 206.852 1386.92 Q204.977 1386.92 203.102 1387.33 Q201.25 1387.75 199.306 1388.63 L199.306 1371.27 Z" fill="#000000" fill-rule="nonzero" fill-opacity="1" /><path clip-path="url(#clip330)" d="M239.422 1374.35 Q235.81 1374.35 233.982 1377.91 Q232.176 1381.45 232.176 1388.58 Q232.176 1395.69 233.982 1399.26 Q235.81 1402.8 239.422 1402.8 Q243.056 1402.8 244.861 1399.26 Q246.69 1395.69 246.69 1388.58 Q246.69 1381.45 244.861 1377.91 Q243.056 1374.35 239.422 1374.35 M239.422 1370.64 Q245.232 1370.64 248.287 1375.25 Q251.366 1379.83 251.366 1388.58 Q251.366 1397.31 248.287 1401.92 Q245.232 1406.5 239.422 1406.5 Q233.611 1406.5 230.533 1401.92 Q227.477 1397.31 227.477 1388.58 Q227.477 1379.83 230.533 1375.25 Q233.611 1370.64 239.422 1370.64 Z" fill="#000000" fill-rule="nonzero" fill-opacity="1" /><path clip-path="url(#clip330)" d="M287.755 1380.37 L277.176 1390.99 L287.755 1401.57 L285 1404.37 L274.375 1393.75 L263.75 1404.37 L261.019 1401.57 L271.574 1390.99 L261.019 1380.37 L263.75 1377.57 L274.375 1388.19 L285 1377.57 L287.755 1380.37 Z" fill="#000000" fill-rule="nonzero" fill-opacity="1" /><path clip-path="url(#clip330)" d="M300.116 1401.89 L307.754 1401.89 L307.754 1375.53 L299.444 1377.2 L299.444 1372.94 L307.708 1371.27 L312.384 1371.27 L312.384 1401.89 L320.023 1401.89 L320.023 1405.83 L300.116 1405.83 L300.116 1401.89 Z" fill="#000000" fill-rule="nonzero" fill-opacity="1" /><path clip-path="url(#clip330)" d="M339.467 1374.35 Q335.856 1374.35 334.027 1377.91 Q332.222 1381.45 332.222 1388.58 Q332.222 1395.69 334.027 1399.26 Q335.856 1402.8 339.467 1402.8 Q343.102 1402.8 344.907 1399.26 Q346.736 1395.69 346.736 1388.58 Q346.736 1381.45 344.907 1377.91 Q343.102 1374.35 339.467 1374.35 M339.467 1370.64 Q345.277 1370.64 348.333 1375.25 Q351.412 1379.83 351.412 1388.58 Q351.412 1397.31 348.333 1401.92 Q345.277 1406.5 339.467 1406.5 Q333.657 1406.5 330.578 1401.92 Q327.523 1397.31 327.523 1388.58 Q327.523 1379.83 330.578 1375.25 Q333.657 1370.64 339.467 1370.64 Z" fill="#000000" fill-rule="nonzero" fill-opacity="1" /><path clip-path="url(#clip330)" d="M351.412 1364.75 L375.523 1364.75 L375.523 1367.94 L351.412 1367.94 L351.412 1364.75 Z" fill="#000000" fill-rule="nonzero" fill-opacity="1" /><path clip-path="url(#clip330)" d="M384.382 1375.22 L390.588 1375.22 L390.588 1353.8 L383.836 1355.15 L383.836 1351.69 L390.551 1350.34 L394.35 1350.34 L394.35 1375.22 L400.556 1375.22 L400.556 1378.42 L384.382 1378.42 L384.382 1375.22 Z" fill="#000000" fill-rule="nonzero" fill-opacity="1" /><path clip-path="url(#clip330)" d="M416.355 1352.84 Q413.421 1352.84 411.935 1355.74 Q410.468 1358.61 410.468 1364.41 Q410.468 1370.18 411.935 1373.08 Q413.421 1375.96 416.355 1375.96 Q419.308 1375.96 420.775 1373.08 Q422.261 1370.18 422.261 1364.41 Q422.261 1358.61 420.775 1355.74 Q419.308 1352.84 416.355 1352.84 M416.355 1349.83 Q421.076 1349.83 423.558 1353.57 Q426.06 1357.3 426.06 1364.41 Q426.06 1371.5 423.558 1375.24 Q421.076 1378.96 416.355 1378.96 Q411.634 1378.96 409.133 1375.24 Q406.65 1371.5 406.65 1364.41 Q406.65 1357.3 409.133 1353.57 Q411.634 1349.83 416.355 1349.83 Z" fill="#000000" fill-rule="nonzero" fill-opacity="1" /><path clip-path="url(#clip330)" d="M414.115 1248.49 Q410.504 1248.49 408.676 1252.05 Q406.87 1255.59 406.87 1262.72 Q406.87 1269.83 408.676 1273.4 Q410.504 1276.94 414.115 1276.94 Q417.75 1276.94 419.555 1273.4 Q421.384 1269.83 421.384 1262.72 Q421.384 1255.59 419.555 1252.05 Q417.75 1248.49 414.115 1248.49 M414.115 1244.78 Q419.925 1244.78 422.981 1249.39 Q426.06 1253.97 426.06 1262.72 Q426.06 1271.45 422.981 1276.06 Q419.925 1280.64 414.115 1280.64 Q408.305 1280.64 405.226 1276.06 Q402.171 1271.45 402.171 1262.72 Q402.171 1253.97 405.226 1249.39 Q408.305 1244.78 414.115 1244.78 Z" fill="#000000" fill-rule="nonzero" fill-opacity="1" /><path clip-path="url(#clip330)" d="M158.056 1163.07 L174.376 1163.07 L174.376 1167.01 L152.431 1167.01 L152.431 1163.07 Q155.093 1160.32 159.677 1155.69 Q164.283 1151.03 165.464 1149.69 Q167.709 1147.17 168.589 1145.43 Q169.491 1143.67 169.491 1141.98 Q169.491 1139.23 167.547 1137.49 Q165.626 1135.76 162.524 1135.76 Q160.325 1135.76 157.871 1136.52 Q155.44 1137.28 152.663 1138.83 L152.663 1134.11 Q155.487 1132.98 157.94 1132.4 Q160.394 1131.82 162.431 1131.82 Q167.802 1131.82 170.996 1134.51 Q174.19 1137.19 174.19 1141.68 Q174.19 1143.81 173.38 1145.73 Q172.593 1147.63 170.487 1150.22 Q169.908 1150.89 166.806 1154.11 Q163.704 1157.31 158.056 1163.07 Z" fill="#000000" fill-rule="nonzero" fill-opacity="1" /><path clip-path="url(#clip330)" d="M184.19 1161.13 L189.075 1161.13 L189.075 1167.01 L184.19 1167.01 L184.19 1161.13 Z" fill="#000000" fill-rule="nonzero" fill-opacity="1" /><path clip-path="url(#clip330)" d="M199.306 1132.45 L217.662 1132.45 L217.662 1136.38 L203.588 1136.38 L203.588 1144.85 Q204.607 1144.51 205.625 1144.34 Q206.644 1144.16 207.662 1144.16 Q213.449 1144.16 216.829 1147.33 Q220.209 1150.5 220.209 1155.92 Q220.209 1161.5 216.736 1164.6 Q213.264 1167.68 206.945 1167.68 Q204.769 1167.68 202.5 1167.31 Q200.255 1166.94 197.848 1166.19 L197.848 1161.5 Q199.931 1162.63 202.153 1163.19 Q204.375 1163.74 206.852 1163.74 Q210.857 1163.74 213.195 1161.63 Q215.533 1159.53 215.533 1155.92 Q215.533 1152.31 213.195 1150.2 Q210.857 1148.09 206.852 1148.09 Q204.977 1148.09 203.102 1148.51 Q201.25 1148.93 199.306 1149.81 L199.306 1132.45 Z" fill="#000000" fill-rule="nonzero" fill-opacity="1" /><path clip-path="url(#clip330)" d="M239.422 1135.52 Q235.81 1135.52 233.982 1139.09 Q232.176 1142.63 232.176 1149.76 Q232.176 1156.87 233.982 1160.43 Q235.81 1163.97 239.422 1163.97 Q243.056 1163.97 244.861 1160.43 Q246.69 1156.87 246.69 1149.76 Q246.69 1142.63 244.861 1139.09 Q243.056 1135.52 239.422 1135.52 M239.422 1131.82 Q245.232 1131.82 248.287 1136.43 Q251.366 1141.01 251.366 1149.76 Q251.366 1158.49 248.287 1163.09 Q245.232 1167.68 239.422 1167.68 Q233.611 1167.68 230.533 1163.09 Q227.477 1158.49 227.477 1149.76 Q227.477 1141.01 230.533 1136.43 Q233.611 1131.82 239.422 1131.82 Z" fill="#000000" fill-rule="nonzero" fill-opacity="1" /><path clip-path="url(#clip330)" d="M287.755 1141.54 L277.176 1152.17 L287.755 1162.75 L285 1165.55 L274.375 1154.92 L263.75 1165.55 L261.019 1162.75 L271.574 1152.17 L261.019 1141.54 L263.75 1138.74 L274.375 1149.37 L285 1138.74 L287.755 1141.54 Z" fill="#000000" fill-rule="nonzero" fill-opacity="1" /><path clip-path="url(#clip330)" d="M300.116 1163.07 L307.754 1163.07 L307.754 1136.7 L299.444 1138.37 L299.444 1134.11 L307.708 1132.45 L312.384 1132.45 L312.384 1163.07 L320.023 1163.07 L320.023 1167.01 L300.116 1167.01 L300.116 1163.07 Z" fill="#000000" fill-rule="nonzero" fill-opacity="1" /><path clip-path="url(#clip330)" d="M339.467 1135.52 Q335.856 1135.52 334.027 1139.09 Q332.222 1142.63 332.222 1149.76 Q332.222 1156.87 334.027 1160.43 Q335.856 1163.97 339.467 1163.97 Q343.102 1163.97 344.907 1160.43 Q346.736 1156.87 346.736 1149.76 Q346.736 1142.63 344.907 1139.09 Q343.102 1135.52 339.467 1135.52 M339.467 1131.82 Q345.277 1131.82 348.333 1136.43 Q351.412 1141.01 351.412 1149.76 Q351.412 1158.49 348.333 1163.09 Q345.277 1167.68 339.467 1167.68 Q333.657 1167.68 330.578 1163.09 Q327.523 1158.49 327.523 1149.76 Q327.523 1141.01 330.578 1136.43 Q333.657 1131.82 339.467 1131.82 Z" fill="#000000" fill-rule="nonzero" fill-opacity="1" /><path clip-path="url(#clip330)" d="M351.412 1125.92 L375.523 1125.92 L375.523 1129.12 L351.412 1129.12 L351.412 1125.92 Z" fill="#000000" fill-rule="nonzero" fill-opacity="1" /><path clip-path="url(#clip330)" d="M384.382 1136.4 L390.588 1136.4 L390.588 1114.98 L383.836 1116.33 L383.836 1112.87 L390.551 1111.51 L394.35 1111.51 L394.35 1136.4 L400.556 1136.4 L400.556 1139.59 L384.382 1139.59 L384.382 1136.4 Z" fill="#000000" fill-rule="nonzero" fill-opacity="1" /><path clip-path="url(#clip330)" d="M416.355 1114.02 Q413.421 1114.02 411.935 1116.91 Q410.468 1119.79 410.468 1125.58 Q410.468 1131.36 411.935 1134.25 Q413.421 1137.13 416.355 1137.13 Q419.308 1137.13 420.775 1134.25 Q422.261 1131.36 422.261 1125.58 Q422.261 1119.79 420.775 1116.91 Q419.308 1114.02 416.355 1114.02 M416.355 1111.01 Q421.076 1111.01 423.558 1114.75 Q426.06 1118.47 426.06 1125.58 Q426.06 1132.67 423.558 1136.42 Q421.076 1140.14 416.355 1140.14 Q411.634 1140.14 409.133 1136.42 Q406.65 1132.67 406.65 1125.58 Q406.65 1118.47 409.133 1114.75 Q411.634 1111.01 416.355 1111.01 Z" fill="#000000" fill-rule="nonzero" fill-opacity="1" /><path clip-path="url(#clip330)" d="M154.075 1013.03 L172.431 1013.03 L172.431 1016.97 L158.357 1016.97 L158.357 1025.44 Q159.376 1025.09 160.394 1024.93 Q161.413 1024.75 162.431 1024.75 Q168.218 1024.75 171.598 1027.92 Q174.977 1031.09 174.977 1036.5 Q174.977 1042.08 171.505 1045.19 Q168.033 1048.26 161.714 1048.26 Q159.538 1048.26 157.269 1047.89 Q155.024 1047.52 152.616 1046.78 L152.616 1042.08 Q154.7 1043.22 156.922 1043.77 Q159.144 1044.33 161.621 1044.33 Q165.626 1044.33 167.964 1042.22 Q170.302 1040.12 170.302 1036.5 Q170.302 1032.89 167.964 1030.79 Q165.626 1028.68 161.621 1028.68 Q159.746 1028.68 157.871 1029.1 Q156.019 1029.51 154.075 1030.39 L154.075 1013.03 Z" fill="#000000" fill-rule="nonzero" fill-opacity="1" /><path clip-path="url(#clip330)" d="M184.19 1041.71 L189.075 1041.71 L189.075 1047.59 L184.19 1047.59 L184.19 1041.71 Z" fill="#000000" fill-rule="nonzero" fill-opacity="1" /><path clip-path="url(#clip330)" d="M209.26 1016.11 Q205.649 1016.11 203.82 1019.68 Q202.014 1023.22 202.014 1030.35 Q202.014 1037.45 203.82 1041.02 Q205.649 1044.56 209.26 1044.56 Q212.894 1044.56 214.699 1041.02 Q216.528 1037.45 216.528 1030.35 Q216.528 1023.22 214.699 1019.68 Q212.894 1016.11 209.26 1016.11 M209.26 1012.41 Q215.07 1012.41 218.125 1017.01 Q221.204 1021.6 221.204 1030.35 Q221.204 1039.07 218.125 1043.68 Q215.07 1048.26 209.26 1048.26 Q203.449 1048.26 200.371 1043.68 Q197.315 1039.07 197.315 1030.35 Q197.315 1021.6 200.371 1017.01 Q203.449 1012.41 209.26 1012.41 Z" fill="#000000" fill-rule="nonzero" fill-opacity="1" /><path clip-path="url(#clip330)" d="M239.422 1016.11 Q235.81 1016.11 233.982 1019.68 Q232.176 1023.22 232.176 1030.35 Q232.176 1037.45 233.982 1041.02 Q235.81 1044.56 239.422 1044.56 Q243.056 1044.56 244.861 1041.02 Q246.69 1037.45 246.69 1030.35 Q246.69 1023.22 244.861 1019.68 Q243.056 1016.11 239.422 1016.11 M239.422 1012.41 Q245.232 1012.41 248.287 1017.01 Q251.366 1021.6 251.366 1030.35 Q251.366 1039.07 248.287 1043.68 Q245.232 1048.26 239.422 1048.26 Q233.611 1048.26 230.533 1043.68 Q227.477 1039.07 227.477 1030.35 Q227.477 1021.6 230.533 1017.01 Q233.611 1012.41 239.422 1012.41 Z" fill="#000000" fill-rule="nonzero" fill-opacity="1" /><path clip-path="url(#clip330)" d="M287.755 1022.13 L277.176 1032.75 L287.755 1043.33 L285 1046.13 L274.375 1035.51 L263.75 1046.13 L261.019 1043.33 L271.574 1032.75 L261.019 1022.13 L263.75 1019.33 L274.375 1029.95 L285 1019.33 L287.755 1022.13 Z" fill="#000000" fill-rule="nonzero" fill-opacity="1" /><path clip-path="url(#clip330)" d="M300.116 1043.66 L307.754 1043.66 L307.754 1017.29 L299.444 1018.96 L299.444 1014.7 L307.708 1013.03 L312.384 1013.03 L312.384 1043.66 L320.023 1043.66 L320.023 1047.59 L300.116 1047.59 L300.116 1043.66 Z" fill="#000000" fill-rule="nonzero" fill-opacity="1" /><path clip-path="url(#clip330)" d="M339.467 1016.11 Q335.856 1016.11 334.027 1019.68 Q332.222 1023.22 332.222 1030.35 Q332.222 1037.45 334.027 1041.02 Q335.856 1044.56 339.467 1044.56 Q343.102 1044.56 344.907 1041.02 Q346.736 1037.45 346.736 1030.35 Q346.736 1023.22 344.907 1019.68 Q343.102 1016.11 339.467 1016.11 M339.467 1012.41 Q345.277 1012.41 348.333 1017.01 Q351.412 1021.6 351.412 1030.35 Q351.412 1039.07 348.333 1043.68 Q345.277 1048.26 339.467 1048.26 Q333.657 1048.26 330.578 1043.68 Q327.523 1039.07 327.523 1030.35 Q327.523 1021.6 330.578 1017.01 Q333.657 1012.41 339.467 1012.41 Z" fill="#000000" fill-rule="nonzero" fill-opacity="1" /><path clip-path="url(#clip330)" d="M351.412 1006.51 L375.523 1006.51 L375.523 1009.71 L351.412 1009.71 L351.412 1006.51 Z" fill="#000000" fill-rule="nonzero" fill-opacity="1" /><path clip-path="url(#clip330)" d="M384.382 1016.99 L390.588 1016.99 L390.588 995.563 L383.836 996.917 L383.836 993.457 L390.551 992.102 L394.35 992.102 L394.35 1016.99 L400.556 1016.99 L400.556 1020.18 L384.382 1020.18 L384.382 1016.99 Z" fill="#000000" fill-rule="nonzero" fill-opacity="1" /><path clip-path="url(#clip330)" d="M416.355 994.604 Q413.421 994.604 411.935 997.5 Q410.468 1000.38 410.468 1006.17 Q410.468 1011.94 411.935 1014.84 Q413.421 1017.72 416.355 1017.72 Q419.308 1017.72 420.775 1014.84 Q422.261 1011.94 422.261 1006.17 Q422.261 1000.38 420.775 997.5 Q419.308 994.604 416.355 994.604 M416.355 991.595 Q421.076 991.595 423.558 995.337 Q426.06 999.061 426.06 1006.17 Q426.06 1013.26 423.558 1017 Q421.076 1020.73 416.355 1020.73 Q411.634 1020.73 409.133 1017 Q406.65 1013.26 406.65 1006.17 Q406.65 999.061 409.133 995.337 Q411.634 991.595 416.355 991.595 Z" fill="#000000" fill-rule="nonzero" fill-opacity="1" /><path clip-path="url(#clip330)" d="M152.848 893.62 L175.07 893.62 L175.07 895.611 L162.524 928.18 L157.64 928.18 L169.445 897.556 L152.848 897.556 L152.848 893.62 Z" fill="#000000" fill-rule="nonzero" fill-opacity="1" /><path clip-path="url(#clip330)" d="M184.19 922.301 L189.075 922.301 L189.075 928.18 L184.19 928.18 L184.19 922.301 Z" fill="#000000" fill-rule="nonzero" fill-opacity="1" /><path clip-path="url(#clip330)" d="M199.306 893.62 L217.662 893.62 L217.662 897.556 L203.588 897.556 L203.588 906.028 Q204.607 905.681 205.625 905.519 Q206.644 905.333 207.662 905.333 Q213.449 905.333 216.829 908.505 Q220.209 911.676 220.209 917.093 Q220.209 922.671 216.736 925.773 Q213.264 928.852 206.945 928.852 Q204.769 928.852 202.5 928.481 Q200.255 928.111 197.848 927.37 L197.848 922.671 Q199.931 923.805 202.153 924.361 Q204.375 924.917 206.852 924.917 Q210.857 924.917 213.195 922.81 Q215.533 920.704 215.533 917.093 Q215.533 913.481 213.195 911.375 Q210.857 909.269 206.852 909.269 Q204.977 909.269 203.102 909.685 Q201.25 910.102 199.306 910.981 L199.306 893.62 Z" fill="#000000" fill-rule="nonzero" fill-opacity="1" /><path clip-path="url(#clip330)" d="M239.422 896.699 Q235.81 896.699 233.982 900.264 Q232.176 903.806 232.176 910.935 Q232.176 918.042 233.982 921.606 Q235.81 925.148 239.422 925.148 Q243.056 925.148 244.861 921.606 Q246.69 918.042 246.69 910.935 Q246.69 903.806 244.861 900.264 Q243.056 896.699 239.422 896.699 M239.422 892.995 Q245.232 892.995 248.287 897.602 Q251.366 902.185 251.366 910.935 Q251.366 919.662 248.287 924.268 Q245.232 928.852 239.422 928.852 Q233.611 928.852 230.533 924.268 Q227.477 919.662 227.477 910.935 Q227.477 902.185 230.533 897.602 Q233.611 892.995 239.422 892.995 Z" fill="#000000" fill-rule="nonzero" fill-opacity="1" /><path clip-path="url(#clip330)" d="M287.755 902.718 L277.176 913.343 L287.755 923.921 L285 926.722 L274.375 916.097 L263.75 926.722 L261.019 923.921 L271.574 913.343 L261.019 902.718 L263.75 899.917 L274.375 910.542 L285 899.917 L287.755 902.718 Z" fill="#000000" fill-rule="nonzero" fill-opacity="1" /><path clip-path="url(#clip330)" d="M300.116 924.245 L307.754 924.245 L307.754 897.88 L299.444 899.546 L299.444 895.287 L307.708 893.62 L312.384 893.62 L312.384 924.245 L320.023 924.245 L320.023 928.18 L300.116 928.18 L300.116 924.245 Z" fill="#000000" fill-rule="nonzero" fill-opacity="1" /><path clip-path="url(#clip330)" d="M339.467 896.699 Q335.856 896.699 334.027 900.264 Q332.222 903.806 332.222 910.935 Q332.222 918.042 334.027 921.606 Q335.856 925.148 339.467 925.148 Q343.102 925.148 344.907 921.606 Q346.736 918.042 346.736 910.935 Q346.736 903.806 344.907 900.264 Q343.102 896.699 339.467 896.699 M339.467 892.995 Q345.277 892.995 348.333 897.602 Q351.412 902.185 351.412 910.935 Q351.412 919.662 348.333 924.268 Q345.277 928.852 339.467 928.852 Q333.657 928.852 330.578 924.268 Q327.523 919.662 327.523 910.935 Q327.523 902.185 330.578 897.602 Q333.657 892.995 339.467 892.995 Z" fill="#000000" fill-rule="nonzero" fill-opacity="1" /><path clip-path="url(#clip330)" d="M351.412 887.097 L375.523 887.097 L375.523 890.294 L351.412 890.294 L351.412 887.097 Z" fill="#000000" fill-rule="nonzero" fill-opacity="1" /><path clip-path="url(#clip330)" d="M384.382 897.573 L390.588 897.573 L390.588 876.151 L383.836 877.505 L383.836 874.044 L390.551 872.69 L394.35 872.69 L394.35 897.573 L400.556 897.573 L400.556 900.77 L384.382 900.77 L384.382 897.573 Z" fill="#000000" fill-rule="nonzero" fill-opacity="1" /><path clip-path="url(#clip330)" d="M416.355 875.191 Q413.421 875.191 411.935 878.088 Q410.468 880.965 410.468 886.758 Q410.468 892.532 411.935 895.429 Q413.421 898.306 416.355 898.306 Q419.308 898.306 420.775 895.429 Q422.261 892.532 422.261 886.758 Q422.261 880.965 420.775 878.088 Q419.308 875.191 416.355 875.191 M416.355 872.182 Q421.076 872.182 423.558 875.925 Q426.06 879.649 426.06 886.758 Q426.06 893.849 423.558 897.592 Q421.076 901.315 416.355 901.315 Q411.634 901.315 409.133 897.592 Q406.65 893.849 406.65 886.758 Q406.65 879.649 409.133 875.925 Q411.634 872.182 416.355 872.182 Z" fill="#000000" fill-rule="nonzero" fill-opacity="1" /><path clip-path="url(#clip330)" d="M64.9272 1283.88 Q64.9272 1288.37 62.2218 1291.3 Q59.0071 1294.77 53.1825 1294.77 Q47.135 1294.77 42.4244 1291.71 Q37.5865 1288.56 37.5865 1282.9 Q37.5865 1279.17 39.91 1276.25 Q41.2786 1274.53 43.5702 1273.35 Q40.9921 1272.94 38.0639 1272.94 Q33.7671 1272.94 31.2844 1273.95 Q25.7781 1276.21 25.7781 1282.2 Q25.7781 1284.46 27.1785 1287.96 L21.8314 1287.96 Q20.8447 1284.27 20.8447 1280.96 Q20.8447 1272.43 28.6745 1268.8 Q32.3666 1267.11 37.8729 1267.11 Q41.4696 1267.11 45.6391 1267.91 Q56.0789 1269.91 61.0441 1275.1 Q64.9272 1279.17 64.9272 1283.88 M54.1373 1289.33 Q57.3202 1289.33 59.0389 1287.93 Q60.8531 1286.43 60.8531 1284.14 Q60.8531 1282.1 59.4208 1280.48 Q57.4475 1278.19 54.2328 1276.5 Q51.591 1275.1 48.7583 1274.4 Q41.9152 1277.23 41.9152 1282.13 Q41.9152 1286.34 47.4533 1288.18 Q50.8908 1289.33 54.1373 1289.33 Z" fill="#000000" fill-rule="nonzero" fill-opacity="1" /><path clip-path="url(#clip330)" d="M38.3822 1256.58 L44.0477 1256.58 L44.0477 1248.97 L46.5939 1248.97 L46.5939 1256.58 L57.4157 1256.58 Q59.8664 1256.58 60.5667 1255.81 Q61.2669 1255.05 61.2669 1252.76 L61.2669 1248.97 L64.0042 1248.97 L64.0042 1252.76 Q64.0042 1257.02 62.5719 1258.64 Q61.1714 1260.27 57.4157 1260.27 L46.5939 1260.27 L46.5939 1262.97 L44.0477 1262.97 L44.0477 1260.27 L38.3822 1260.27 L38.3822 1256.58 Z" fill="#000000" fill-rule="nonzero" fill-opacity="1" /><path clip-path="url(#clip330)" d="M28.3562 1209.09 L45.7028 1221.98 L64.0042 1208.42 L64.0042 1215.33 L49.9996 1225.7 L64.0042 1236.08 L64.0042 1242.99 L45.3526 1229.14 L28.3562 1241.81 L28.3562 1234.9 L41.0558 1225.45 L28.3562 1215.99 L28.3562 1209.09 Z" fill="#000000" fill-rule="nonzero" fill-opacity="1" /><path clip-path="url(#clip330)" d="M14.5426 1186.08 Q21.8632 1190.34 29.0246 1192.41 Q36.186 1194.48 43.5384 1194.48 Q50.8908 1194.48 58.1159 1192.41 Q65.3091 1190.31 72.5979 1186.08 L72.5979 1191.17 Q65.1182 1195.94 57.8931 1198.33 Q50.668 1200.69 43.5384 1200.69 Q36.4406 1200.69 29.2474 1198.33 Q22.0542 1195.97 14.5426 1191.17 L14.5426 1186.08 Z" fill="#000000" fill-rule="nonzero" fill-opacity="1" /><path clip-path="url(#clip330)" d="M18.2347 1168.92 L28.3562 1168.92 L28.3562 1156.86 L32.9077 1156.86 L32.9077 1168.92 L52.2594 1168.92 Q56.6199 1168.92 57.8613 1167.74 Q59.1026 1166.53 59.1026 1162.87 L59.1026 1156.86 L64.0042 1156.86 L64.0042 1162.87 Q64.0042 1169.65 61.4897 1172.23 Q58.9434 1174.81 52.2594 1174.81 L32.9077 1174.81 L32.9077 1179.11 L28.3562 1179.11 L28.3562 1174.81 L18.2347 1174.81 L18.2347 1168.92 Z" fill="#000000" fill-rule="nonzero" fill-opacity="1" /><path clip-path="url(#clip330)" d="M14.5426 1150.08 L14.5426 1144.99 Q22.0542 1140.21 29.2474 1137.86 Q36.4406 1135.47 43.5384 1135.47 Q50.668 1135.47 57.8931 1137.86 Q65.1182 1140.21 72.5979 1144.99 L72.5979 1150.08 Q65.3091 1145.84 58.1159 1143.78 Q50.8908 1141.67 43.5384 1141.67 Q36.186 1141.67 29.0246 1143.78 Q21.8632 1145.84 14.5426 1150.08 Z" fill="#000000" fill-rule="nonzero" fill-opacity="1" /><path clip-path="url(#clip330)" d="M43.5384 1126.68 L43.5384 1109.53 L48.7583 1109.53 L48.7583 1126.68 L43.5384 1126.68 Z" fill="#000000" fill-rule="nonzero" fill-opacity="1" /><path clip-path="url(#clip330)" d="M64.9272 1092.44 Q64.9272 1096.92 62.2218 1099.85 Q59.0071 1103.32 53.1825 1103.32 Q47.135 1103.32 42.4244 1100.27 Q37.5865 1097.11 37.5865 1091.45 Q37.5865 1087.73 39.91 1084.8 Q41.2786 1083.08 43.5702 1081.9 Q40.9921 1081.49 38.0639 1081.49 Q33.7671 1081.49 31.2844 1082.51 Q25.7781 1084.77 25.7781 1090.75 Q25.7781 1093.01 27.1785 1096.51 L21.8314 1096.51 Q20.8447 1092.82 20.8447 1089.51 Q20.8447 1080.98 28.6745 1077.35 Q32.3666 1075.66 37.8729 1075.66 Q41.4696 1075.66 45.6391 1076.46 Q56.0789 1078.46 61.0441 1083.65 Q64.9272 1087.73 64.9272 1092.44 M54.1373 1097.88 Q57.3202 1097.88 59.0389 1096.48 Q60.8531 1094.98 60.8531 1092.69 Q60.8531 1090.65 59.4208 1089.03 Q57.4475 1086.74 54.2328 1085.05 Q51.591 1083.65 48.7583 1082.95 Q41.9152 1085.78 41.9152 1090.69 Q41.9152 1094.89 47.4533 1096.73 Q50.8908 1097.88 54.1373 1097.88 Z" fill="#000000" fill-rule="nonzero" fill-opacity="1" /><path clip-path="url(#clip330)" d="M38.3822 1065.13 L44.0477 1065.13 L44.0477 1057.52 L46.5939 1057.52 L46.5939 1065.13 L57.4157 1065.13 Q59.8664 1065.13 60.5667 1064.36 Q61.2669 1063.6 61.2669 1061.31 L61.2669 1057.52 L64.0042 1057.52 L64.0042 1061.31 Q64.0042 1065.57 62.5719 1067.2 Q61.1714 1068.82 57.4157 1068.82 L46.5939 1068.82 L46.5939 1071.52 L44.0477 1071.52 L44.0477 1068.82 L38.3822 1068.82 L38.3822 1065.13 Z" fill="#000000" fill-rule="nonzero" fill-opacity="1" /><path clip-path="url(#clip330)" d="M28.3562 1017.64 L45.7028 1030.53 L64.0042 1016.97 L64.0042 1023.88 L49.9996 1034.25 L64.0042 1044.63 L64.0042 1051.54 L45.3526 1037.69 L28.3562 1050.36 L28.3562 1043.45 L41.0558 1034 L28.3562 1024.55 L28.3562 1017.64 Z" fill="#000000" fill-rule="nonzero" fill-opacity="1" /><path clip-path="url(#clip330)" d="M11.869 1033.49 L11.869 1028.78 L23.8365 1020.98 L23.8365 1025.41 L16.0386 1031.13 L23.8365 1036.86 L23.8365 1041.29 L11.869 1033.49 M27.4968 1031.13 L27.4968 1031.13 Z" fill="#000000" fill-rule="nonzero" fill-opacity="1" /><path clip-path="url(#clip330)" d="M14.5426 994.627 Q21.8632 998.892 29.0246 1000.96 Q36.186 1003.03 43.5384 1003.03 Q50.8908 1003.03 58.1159 1000.96 Q65.3091 998.86 72.5979 994.627 L72.5979 999.72 Q65.1182 1004.49 57.8931 1006.88 Q50.668 1009.24 43.5384 1009.24 Q36.4406 1009.24 29.2474 1006.88 Q22.0542 1004.53 14.5426 999.72 L14.5426 994.627 Z" fill="#000000" fill-rule="nonzero" fill-opacity="1" /><path clip-path="url(#clip330)" d="M18.2347 977.472 L28.3562 977.472 L28.3562 965.409 L32.9077 965.409 L32.9077 977.472 L52.2594 977.472 Q56.6199 977.472 57.8613 976.294 Q59.1026 975.084 59.1026 971.424 L59.1026 965.409 L64.0042 965.409 L64.0042 971.424 Q64.0042 978.204 61.4897 980.782 Q58.9434 983.36 52.2594 983.36 L32.9077 983.36 L32.9077 987.657 L28.3562 987.657 L28.3562 983.36 L18.2347 983.36 L18.2347 977.472 Z" fill="#000000" fill-rule="nonzero" fill-opacity="1" /><path clip-path="url(#clip330)" d="M14.5426 958.629 L14.5426 953.536 Q22.0542 948.762 29.2474 946.407 Q36.4406 944.02 43.5384 944.02 Q50.668 944.02 57.8931 946.407 Q65.1182 948.762 72.5979 953.536 L72.5979 958.629 Q65.3091 954.396 58.1159 952.327 Q50.8908 950.226 43.5384 950.226 Q36.186 950.226 29.0246 952.327 Q21.8632 954.396 14.5426 958.629 Z" fill="#000000" fill-rule="nonzero" fill-opacity="1" /><polyline clip-path="url(#clip331)" style="stroke:#009af9; stroke-linecap:round; stroke-linejoin:round; stroke-width:4; stroke-opacity:1; fill:none" points="515.57,1405.98 551.243,1394.97 586.917,1384.8 622.591,1375.41 658.264,1366.74 693.938,1358.74 729.611,1351.36 765.285,1344.54 800.958,1338.25 836.632,1332.44 872.305,1327.08 907.979,1322.13 943.652,1317.56 979.326,1313.34 1015,1309.44 1050.67,1305.85 1086.35,1302.53 1122.02,1299.47 1157.69,1296.64 1193.37,1294.03 1229.04,1291.62 1264.71,1289.4 1300.39,1287.34 1336.06,1285.45 1371.73,1283.7 1407.41,1282.08 1443.08,1280.59 1478.75,1279.22 1514.43,1277.94 1550.1,1276.77 1585.78,1275.69 1621.45,1274.69 1657.12,1273.77 1692.8,1272.92 1728.47,1272.13 1764.14,1271.4 1799.82,1270.73 1835.49,1270.12 1871.16,1269.54 1906.84,1269.02 1942.51,1268.53 1978.18,1268.08 2013.86,1267.67 2049.53,1267.28 2085.2,1266.93 2120.88,1266.61 2156.55,1266.3 2192.23,1266.03 2227.9,1265.77 2263.57,1265.53 2299.25,1265.31 "/>
<polyline clip-path="url(#clip331)" style="stroke:#e26f46; stroke-linecap:round; stroke-linejoin:round; stroke-width:4; stroke-opacity:1; fill:none" points="515.57,832.805 551.243,896.367 586.917,950.529 622.591,996.685 658.264,1036.02 693.938,1069.53 729.611,1098.09 765.285,1122.43 800.958,1143.17 836.632,1160.84 872.305,1175.9 907.979,1188.73 943.652,1199.67 979.326,1208.98 1015,1216.92 1050.67,1223.69 1086.35,1229.46 1122.02,1234.37 1157.69,1238.56 1193.37,1242.13 1229.04,1245.17 1264.71,1247.76 1300.39,1249.97 1336.06,1251.85 1371.73,1253.45 1407.41,1254.82 1443.08,1255.98 1478.75,1256.97 1514.43,1257.82 1550.1,1258.54 1585.78,1259.15 1621.45,1259.67 1657.12,1260.12 1692.8,1260.5 1728.47,1260.82 1764.14,1261.1 1799.82,1261.34 1835.49,1261.54 1871.16,1261.71 1906.84,1261.85 1942.51,1261.98 1978.18,1262.08 2013.86,1262.17 2049.53,1262.25 2085.2,1262.31 2120.88,1262.37 2156.55,1262.42 2192.23,1262.46 2227.9,1262.49 2263.57,1262.52 2299.25,1262.55 "/>
<path clip-path="url(#clip330)" d="M2003.6 991.382 L2289.73 991.382 L2289.73 835.862 L2003.6 835.862  Z" fill="#ffffff" fill-rule="evenodd" fill-opacity="1"/>
<polyline clip-path="url(#clip330)" style="stroke:#000000; stroke-linecap:round; stroke-linejoin:round; stroke-width:4; stroke-opacity:1; fill:none" points="2003.6,991.382 2289.73,991.382 2289.73,835.862 2003.6,835.862 2003.6,991.382 "/>
<polyline clip-path="url(#clip330)" style="stroke:#009af9; stroke-linecap:round; stroke-linejoin:round; stroke-width:4; stroke-opacity:1; fill:none" points="2024.61,887.702 2150.66,887.702 "/>
<path clip-path="url(#clip330)" d="M2195.69 890.955 L2195.69 893.038 L2176.11 893.038 Q2176.39 897.436 2178.75 899.751 Q2181.13 902.043 2185.37 902.043 Q2187.82 902.043 2190.11 901.441 Q2192.43 900.839 2194.7 899.635 L2194.7 903.663 Q2192.41 904.635 2190 905.144 Q2187.59 905.654 2185.11 905.654 Q2178.91 905.654 2175.28 902.043 Q2171.67 898.432 2171.67 892.274 Q2171.67 885.908 2175.09 882.182 Q2178.54 878.432 2184.37 878.432 Q2189.61 878.432 2192.64 881.811 Q2195.69 885.168 2195.69 890.955 M2191.43 889.705 Q2191.39 886.209 2189.47 884.126 Q2187.57 882.043 2184.42 882.043 Q2180.86 882.043 2178.7 884.057 Q2176.57 886.07 2176.25 889.728 L2191.43 889.705 Z" fill="#000000" fill-rule="nonzero" fill-opacity="1" /><path clip-path="url(#clip330)" d="M2201.83 902.436 L2206.55 902.436 L2206.55 888.293 L2201.39 889.242 L2201.39 886.557 L2206.71 885.654 L2209.88 885.654 L2209.88 902.436 L2214.63 902.436 L2214.63 904.982 L2201.83 904.982 L2201.83 902.436 Z" fill="#000000" fill-rule="nonzero" fill-opacity="1" /><path clip-path="url(#clip330)" d="M2231.92 869.01 Q2228.82 874.334 2227.31 879.543 Q2225.81 884.751 2225.81 890.098 Q2225.81 895.445 2227.31 900.7 Q2228.84 905.931 2231.92 911.232 L2228.22 911.232 Q2224.74 905.793 2223.01 900.538 Q2221.29 895.283 2221.29 890.098 Q2221.29 884.936 2223.01 879.705 Q2224.72 874.473 2228.22 869.01 L2231.92 869.01 Z" fill="#000000" fill-rule="nonzero" fill-opacity="1" /><path clip-path="url(#clip330)" d="M2244.4 871.696 L2244.4 879.057 L2253.17 879.057 L2253.17 882.367 L2244.4 882.367 L2244.4 896.441 Q2244.4 899.612 2245.25 900.515 Q2246.13 901.418 2248.79 901.418 L2253.17 901.418 L2253.17 904.982 L2248.79 904.982 Q2243.86 904.982 2241.99 903.154 Q2240.11 901.302 2240.11 896.441 L2240.11 882.367 L2236.99 882.367 L2236.99 879.057 L2240.11 879.057 L2240.11 871.696 L2244.4 871.696 Z" fill="#000000" fill-rule="nonzero" fill-opacity="1" /><path clip-path="url(#clip330)" d="M2258.1 869.01 L2261.8 869.01 Q2265.28 874.473 2266.99 879.705 Q2268.72 884.936 2268.72 890.098 Q2268.72 895.283 2266.99 900.538 Q2265.28 905.793 2261.8 911.232 L2258.1 911.232 Q2261.18 905.931 2262.68 900.7 Q2264.21 895.445 2264.21 890.098 Q2264.21 884.751 2262.68 879.543 Q2261.18 874.334 2258.1 869.01 Z" fill="#000000" fill-rule="nonzero" fill-opacity="1" /><polyline clip-path="url(#clip330)" style="stroke:#e26f46; stroke-linecap:round; stroke-linejoin:round; stroke-width:4; stroke-opacity:1; fill:none" points="2024.61,939.542 2150.66,939.542 "/>
<path clip-path="url(#clip330)" d="M2195.69 942.795 L2195.69 944.878 L2176.11 944.878 Q2176.39 949.276 2178.75 951.591 Q2181.13 953.883 2185.37 953.883 Q2187.82 953.883 2190.11 953.281 Q2192.43 952.679 2194.7 951.475 L2194.7 955.503 Q2192.41 956.475 2190 956.984 Q2187.59 957.494 2185.11 957.494 Q2178.91 957.494 2175.28 953.883 Q2171.67 950.272 2171.67 944.114 Q2171.67 937.748 2175.09 934.022 Q2178.54 930.272 2184.37 930.272 Q2189.61 930.272 2192.64 933.651 Q2195.69 937.008 2195.69 942.795 M2191.43 941.545 Q2191.39 938.049 2189.47 935.966 Q2187.57 933.883 2184.42 933.883 Q2180.86 933.883 2178.7 935.897 Q2176.57 937.91 2176.25 941.568 L2191.43 941.545 Z" fill="#000000" fill-rule="nonzero" fill-opacity="1" /><path clip-path="url(#clip330)" d="M2204.42 954.184 L2214.23 954.184 L2214.23 956.822 L2200.39 956.822 L2200.39 954.276 Q2201.18 953.559 2202.64 952.262 Q2210.6 945.202 2210.6 943.026 Q2210.6 941.498 2209.4 940.572 Q2208.19 939.623 2206.23 939.623 Q2205.02 939.623 2203.61 940.04 Q2202.2 940.434 2200.53 941.244 L2200.53 938.397 Q2202.31 937.748 2203.84 937.424 Q2205.39 937.1 2206.71 937.1 Q2210.07 937.1 2212.08 938.628 Q2214.1 940.156 2214.1 942.656 Q2214.1 945.873 2206.43 952.447 Q2205.14 953.559 2204.42 954.184 Z" fill="#000000" fill-rule="nonzero" fill-opacity="1" /><path clip-path="url(#clip330)" d="M2231.92 920.85 Q2228.82 926.174 2227.31 931.383 Q2225.81 936.591 2225.81 941.938 Q2225.81 947.285 2227.31 952.54 Q2228.84 957.771 2231.92 963.072 L2228.22 963.072 Q2224.74 957.633 2223.01 952.378 Q2221.29 947.123 2221.29 941.938 Q2221.29 936.776 2223.01 931.545 Q2224.72 926.313 2228.22 920.85 L2231.92 920.85 Z" fill="#000000" fill-rule="nonzero" fill-opacity="1" /><path clip-path="url(#clip330)" d="M2244.4 923.536 L2244.4 930.897 L2253.17 930.897 L2253.17 934.207 L2244.4 934.207 L2244.4 948.281 Q2244.4 951.452 2245.25 952.355 Q2246.13 953.258 2248.79 953.258 L2253.17 953.258 L2253.17 956.822 L2248.79 956.822 Q2243.86 956.822 2241.99 954.994 Q2240.11 953.142 2240.11 948.281 L2240.11 934.207 L2236.99 934.207 L2236.99 930.897 L2240.11 930.897 L2240.11 923.536 L2244.4 923.536 Z" fill="#000000" fill-rule="nonzero" fill-opacity="1" /><path clip-path="url(#clip330)" d="M2258.1 920.85 L2261.8 920.85 Q2265.28 926.313 2266.99 931.545 Q2268.72 936.776 2268.72 941.938 Q2268.72 947.123 2266.99 952.378 Q2265.28 957.633 2261.8 963.072 L2258.1 963.072 Q2261.18 957.771 2262.68 952.54 Q2264.21 947.285 2264.21 941.938 Q2264.21 936.591 2262.68 931.383 Q2261.18 926.174 2258.1 920.85 Z" fill="#000000" fill-rule="nonzero" fill-opacity="1" /></svg>
