<?xml version="1.0" encoding="utf-8"?>
<svg xmlns="http://www.w3.org/2000/svg" xmlns:xlink="http://www.w3.org/1999/xlink" width="600" height="400" viewBox="0 0 2400 1600">
<defs>
  <clipPath id="clip740">
    <rect x="0" y="0" width="2400" height="1600"/>
  </clipPath>
</defs>
<path clip-path="url(#clip740)" d="M0 1600 L2400 1600 L2400 0 L0 0  Z" fill="#ffffff" fill-rule="evenodd" fill-opacity="1"/>
<defs>
  <clipPath id="clip741">
    <rect x="285" y="853" width="2068" height="570"/>
  </clipPath>
</defs>
<path clip-path="url(#clip740)" d="M285.769 692.928 L2352.76 692.928 L2352.76 123.472 L285.769 123.472  Z" fill="#ffffff" fill-rule="evenodd" fill-opacity="1"/>
<defs>
  <clipPath id="clip742">
    <rect x="285" y="123" width="2068" height="570"/>
  </clipPath>
</defs>
<polyline clip-path="url(#clip742)" style="stroke:#000000; stroke-linecap:round; stroke-linejoin:round; stroke-width:2; stroke-opacity:0.1; fill:none" points="344.268,692.928 344.268,123.472 "/>
<polyline clip-path="url(#clip742)" style="stroke:#000000; stroke-linecap:round; stroke-linejoin:round; stroke-width:2; stroke-opacity:0.1; fill:none" points="831.765,692.928 831.765,123.472 "/>
<polyline clip-path="url(#clip742)" style="stroke:#000000; stroke-linecap:round; stroke-linejoin:round; stroke-width:2; stroke-opacity:0.1; fill:none" points="1319.26,692.928 1319.26,123.472 "/>
<polyline clip-path="url(#clip742)" style="stroke:#000000; stroke-linecap:round; stroke-linejoin:round; stroke-width:2; stroke-opacity:0.1; fill:none" points="1806.76,692.928 1806.76,123.472 "/>
<polyline clip-path="url(#clip742)" style="stroke:#000000; stroke-linecap:round; stroke-linejoin:round; stroke-width:2; stroke-opacity:0.1; fill:none" points="2294.26,692.928 2294.26,123.472 "/>
<polyline clip-path="url(#clip742)" style="stroke:#000000; stroke-linecap:round; stroke-linejoin:round; stroke-width:2; stroke-opacity:0.1; fill:none" points="285.769,668.069 2352.76,668.069 "/>
<polyline clip-path="url(#clip742)" style="stroke:#000000; stroke-linecap:round; stroke-linejoin:round; stroke-width:2; stroke-opacity:0.1; fill:none" points="285.769,532.208 2352.76,532.208 "/>
<polyline clip-path="url(#clip742)" style="stroke:#000000; stroke-linecap:round; stroke-linejoin:round; stroke-width:2; stroke-opacity:0.1; fill:none" points="285.769,396.347 2352.76,396.347 "/>
<polyline clip-path="url(#clip742)" style="stroke:#000000; stroke-linecap:round; stroke-linejoin:round; stroke-width:2; stroke-opacity:0.1; fill:none" points="285.769,260.486 2352.76,260.486 "/>
<polyline clip-path="url(#clip742)" style="stroke:#000000; stroke-linecap:round; stroke-linejoin:round; stroke-width:2; stroke-opacity:0.1; fill:none" points="285.769,124.625 2352.76,124.625 "/>
<polyline clip-path="url(#clip740)" style="stroke:#000000; stroke-linecap:round; stroke-linejoin:round; stroke-width:4; stroke-opacity:1; fill:none" points="285.769,692.928 2352.76,692.928 "/>
<polyline clip-path="url(#clip740)" style="stroke:#000000; stroke-linecap:round; stroke-linejoin:round; stroke-width:4; stroke-opacity:1; fill:none" points="344.268,692.928 344.268,674.03 "/>
<polyline clip-path="url(#clip740)" style="stroke:#000000; stroke-linecap:round; stroke-linejoin:round; stroke-width:4; stroke-opacity:1; fill:none" points="831.765,692.928 831.765,674.03 "/>
<polyline clip-path="url(#clip740)" style="stroke:#000000; stroke-linecap:round; stroke-linejoin:round; stroke-width:4; stroke-opacity:1; fill:none" points="1319.26,692.928 1319.26,674.03 "/>
<polyline clip-path="url(#clip740)" style="stroke:#000000; stroke-linecap:round; stroke-linejoin:round; stroke-width:4; stroke-opacity:1; fill:none" points="1806.76,692.928 1806.76,674.03 "/>
<polyline clip-path="url(#clip740)" style="stroke:#000000; stroke-linecap:round; stroke-linejoin:round; stroke-width:4; stroke-opacity:1; fill:none" points="2294.26,692.928 2294.26,674.03 "/>
<path clip-path="url(#clip740)" d="M344.268 723.847 Q340.657 723.847 338.829 727.411 Q337.023 730.953 337.023 738.083 Q337.023 745.189 338.829 748.754 Q340.657 752.295 344.268 752.295 Q347.903 752.295 349.708 748.754 Q351.537 745.189 351.537 738.083 Q351.537 730.953 349.708 727.411 Q347.903 723.847 344.268 723.847 M344.268 720.143 Q350.078 720.143 353.134 724.749 Q356.213 729.333 356.213 738.083 Q356.213 746.809 353.134 751.416 Q350.078 755.999 344.268 755.999 Q338.458 755.999 335.379 751.416 Q332.324 746.809 332.324 738.083 Q332.324 729.333 335.379 724.749 Q338.458 720.143 344.268 720.143 Z" fill="#000000" fill-rule="nonzero" fill-opacity="1" /><path clip-path="url(#clip740)" d="M822.043 720.768 L840.4 720.768 L840.4 724.703 L826.326 724.703 L826.326 733.175 Q827.344 732.828 828.363 732.666 Q829.381 732.481 830.4 732.481 Q836.187 732.481 839.566 735.652 Q842.946 738.823 842.946 744.24 Q842.946 749.819 839.474 752.92 Q836.001 755.999 829.682 755.999 Q827.506 755.999 825.238 755.629 Q822.992 755.258 820.585 754.518 L820.585 749.819 Q822.668 750.953 824.89 751.508 Q827.113 752.064 829.589 752.064 Q833.594 752.064 835.932 749.958 Q838.27 747.851 838.27 744.24 Q838.27 740.629 835.932 738.522 Q833.594 736.416 829.589 736.416 Q827.714 736.416 825.839 736.833 Q823.988 737.249 822.043 738.129 L822.043 720.768 Z" fill="#000000" fill-rule="nonzero" fill-opacity="1" /><path clip-path="url(#clip740)" d="M1293.95 751.393 L1301.59 751.393 L1301.59 725.027 L1293.28 726.694 L1293.28 722.435 L1301.54 720.768 L1306.22 720.768 L1306.22 751.393 L1313.86 751.393 L1313.86 755.328 L1293.95 755.328 L1293.95 751.393 Z" fill="#000000" fill-rule="nonzero" fill-opacity="1" /><path clip-path="url(#clip740)" d="M1333.3 723.847 Q1329.69 723.847 1327.86 727.411 Q1326.06 730.953 1326.06 738.083 Q1326.06 745.189 1327.86 748.754 Q1329.69 752.295 1333.3 752.295 Q1336.94 752.295 1338.74 748.754 Q1340.57 745.189 1340.57 738.083 Q1340.57 730.953 1338.74 727.411 Q1336.94 723.847 1333.3 723.847 M1333.3 720.143 Q1339.11 720.143 1342.17 724.749 Q1345.25 729.333 1345.25 738.083 Q1345.25 746.809 1342.17 751.416 Q1339.11 755.999 1333.3 755.999 Q1327.49 755.999 1324.41 751.416 Q1321.36 746.809 1321.36 738.083 Q1321.36 729.333 1324.41 724.749 Q1327.49 720.143 1333.3 720.143 Z" fill="#000000" fill-rule="nonzero" fill-opacity="1" /><path clip-path="url(#clip740)" d="M1781.94 751.393 L1789.58 751.393 L1789.58 725.027 L1781.27 726.694 L1781.27 722.435 L1789.54 720.768 L1794.21 720.768 L1794.21 751.393 L1801.85 751.393 L1801.85 755.328 L1781.94 755.328 L1781.94 751.393 Z" fill="#000000" fill-rule="nonzero" fill-opacity="1" /><path clip-path="url(#clip740)" d="M1811.34 720.768 L1829.7 720.768 L1829.7 724.703 L1815.62 724.703 L1815.62 733.175 Q1816.64 732.828 1817.66 732.666 Q1818.68 732.481 1819.7 732.481 Q1825.49 732.481 1828.87 735.652 Q1832.25 738.823 1832.25 744.24 Q1832.25 749.819 1828.77 752.92 Q1825.3 755.999 1818.98 755.999 Q1816.81 755.999 1814.54 755.629 Q1812.29 755.258 1809.88 754.518 L1809.88 749.819 Q1811.97 750.953 1814.19 751.508 Q1816.41 752.064 1818.89 752.064 Q1822.89 752.064 1825.23 749.958 Q1827.57 747.851 1827.57 744.24 Q1827.57 740.629 1825.23 738.522 Q1822.89 736.416 1818.89 736.416 Q1817.01 736.416 1815.14 736.833 Q1813.29 737.249 1811.34 738.129 L1811.34 720.768 Z" fill="#000000" fill-rule="nonzero" fill-opacity="1" /><path clip-path="url(#clip740)" d="M2273.03 751.393 L2289.35 751.393 L2289.35 755.328 L2267.4 755.328 L2267.4 751.393 Q2270.07 748.638 2274.65 744.008 Q2279.26 739.356 2280.44 738.013 Q2282.68 735.49 2283.56 733.754 Q2284.46 731.995 2284.46 730.305 Q2284.46 727.55 2282.52 725.814 Q2280.6 724.078 2277.5 724.078 Q2275.3 724.078 2272.84 724.842 Q2270.41 725.606 2267.64 727.157 L2267.64 722.435 Q2270.46 721.3 2272.91 720.722 Q2275.37 720.143 2277.4 720.143 Q2282.77 720.143 2285.97 722.828 Q2289.16 725.513 2289.16 730.004 Q2289.16 732.134 2288.35 734.055 Q2287.57 735.953 2285.46 738.546 Q2284.88 739.217 2281.78 742.434 Q2278.68 745.629 2273.03 751.393 Z" fill="#000000" fill-rule="nonzero" fill-opacity="1" /><path clip-path="url(#clip740)" d="M2309.16 723.847 Q2305.55 723.847 2303.72 727.411 Q2301.92 730.953 2301.92 738.083 Q2301.92 745.189 2303.72 748.754 Q2305.55 752.295 2309.16 752.295 Q2312.8 752.295 2314.6 748.754 Q2316.43 745.189 2316.43 738.083 Q2316.43 730.953 2314.6 727.411 Q2312.8 723.847 2309.16 723.847 M2309.16 720.143 Q2314.97 720.143 2318.03 724.749 Q2321.11 729.333 2321.11 738.083 Q2321.11 746.809 2318.03 751.416 Q2314.97 755.999 2309.16 755.999 Q2303.35 755.999 2300.27 751.416 Q2297.22 746.809 2297.22 738.083 Q2297.22 729.333 2300.27 724.749 Q2303.35 720.143 2309.16 720.143 Z" fill="#000000" fill-rule="nonzero" fill-opacity="1" /><polyline clip-path="url(#clip740)" style="stroke:#000000; stroke-linecap:round; stroke-linejoin:round; stroke-width:4; stroke-opacity:1; fill:none" points="285.769,692.928 285.769,123.472 "/>
<polyline clip-path="url(#clip740)" style="stroke:#000000; stroke-linecap:round; stroke-linejoin:round; stroke-width:4; stroke-opacity:1; fill:none" points="285.769,668.069 304.666,668.069 "/>
<polyline clip-path="url(#clip740)" style="stroke:#000000; stroke-linecap:round; stroke-linejoin:round; stroke-width:4; stroke-opacity:1; fill:none" points="285.769,532.208 304.666,532.208 "/>
<polyline clip-path="url(#clip740)" style="stroke:#000000; stroke-linecap:round; stroke-linejoin:round; stroke-width:4; stroke-opacity:1; fill:none" points="285.769,396.347 304.666,396.347 "/>
<polyline clip-path="url(#clip740)" style="stroke:#000000; stroke-linecap:round; stroke-linejoin:round; stroke-width:4; stroke-opacity:1; fill:none" points="285.769,260.486 304.666,260.486 "/>
<polyline clip-path="url(#clip740)" style="stroke:#000000; stroke-linecap:round; stroke-linejoin:round; stroke-width:4; stroke-opacity:1; fill:none" points="285.769,124.625 304.666,124.625 "/>
<path clip-path="url(#clip740)" d="M142.825 668.521 L172.501 668.521 L172.501 672.456 L142.825 672.456 L142.825 668.521 Z" fill="#000000" fill-rule="nonzero" fill-opacity="1" /><path clip-path="url(#clip740)" d="M183.403 681.414 L191.042 681.414 L191.042 655.048 L182.732 656.715 L182.732 652.456 L190.996 650.789 L195.672 650.789 L195.672 681.414 L203.311 681.414 L203.311 685.349 L183.403 685.349 L183.403 681.414 Z" fill="#000000" fill-rule="nonzero" fill-opacity="1" /><path clip-path="url(#clip740)" d="M212.755 679.47 L217.639 679.47 L217.639 685.349 L212.755 685.349 L212.755 679.47 Z" fill="#000000" fill-rule="nonzero" fill-opacity="1" /><path clip-path="url(#clip740)" d="M237.824 653.868 Q234.213 653.868 232.385 657.433 Q230.579 660.974 230.579 668.104 Q230.579 675.21 232.385 678.775 Q234.213 682.317 237.824 682.317 Q241.459 682.317 243.264 678.775 Q245.093 675.21 245.093 668.104 Q245.093 660.974 243.264 657.433 Q241.459 653.868 237.824 653.868 M237.824 650.164 Q243.634 650.164 246.69 654.771 Q249.769 659.354 249.769 668.104 Q249.769 676.831 246.69 681.437 Q243.634 686.021 237.824 686.021 Q232.014 686.021 228.935 681.437 Q225.88 676.831 225.88 668.104 Q225.88 659.354 228.935 654.771 Q232.014 650.164 237.824 650.164 Z" fill="#000000" fill-rule="nonzero" fill-opacity="1" /><path clip-path="url(#clip740)" d="M143.82 532.659 L173.496 532.659 L173.496 536.595 L143.82 536.595 L143.82 532.659 Z" fill="#000000" fill-rule="nonzero" fill-opacity="1" /><path clip-path="url(#clip740)" d="M193.588 518.007 Q189.977 518.007 188.149 521.572 Q186.343 525.113 186.343 532.243 Q186.343 539.349 188.149 542.914 Q189.977 546.456 193.588 546.456 Q197.223 546.456 199.028 542.914 Q200.857 539.349 200.857 532.243 Q200.857 525.113 199.028 521.572 Q197.223 518.007 193.588 518.007 M193.588 514.303 Q199.399 514.303 202.454 518.91 Q205.533 523.493 205.533 532.243 Q205.533 540.97 202.454 545.576 Q199.399 550.159 193.588 550.159 Q187.778 550.159 184.7 545.576 Q181.644 540.97 181.644 532.243 Q181.644 523.493 184.7 518.91 Q187.778 514.303 193.588 514.303 Z" fill="#000000" fill-rule="nonzero" fill-opacity="1" /><path clip-path="url(#clip740)" d="M213.75 543.608 L218.635 543.608 L218.635 549.488 L213.75 549.488 L213.75 543.608 Z" fill="#000000" fill-rule="nonzero" fill-opacity="1" /><path clip-path="url(#clip740)" d="M228.866 514.928 L247.222 514.928 L247.222 518.863 L233.148 518.863 L233.148 527.335 Q234.167 526.988 235.185 526.826 Q236.204 526.641 237.222 526.641 Q243.009 526.641 246.389 529.812 Q249.769 532.984 249.769 538.4 Q249.769 543.979 246.296 547.081 Q242.824 550.159 236.505 550.159 Q234.329 550.159 232.06 549.789 Q229.815 549.419 227.408 548.678 L227.408 543.979 Q229.491 545.113 231.713 545.669 Q233.935 546.224 236.412 546.224 Q240.417 546.224 242.755 544.118 Q245.093 542.011 245.093 538.4 Q245.093 534.789 242.755 532.683 Q240.417 530.576 236.412 530.576 Q234.537 530.576 232.662 530.993 Q230.81 531.409 228.866 532.289 L228.866 514.928 Z" fill="#000000" fill-rule="nonzero" fill-opacity="1" /><path clip-path="url(#clip740)" d="M192.593 382.146 Q188.982 382.146 187.153 385.71 Q185.348 389.252 185.348 396.382 Q185.348 403.488 187.153 407.053 Q188.982 410.594 192.593 410.594 Q196.227 410.594 198.033 407.053 Q199.862 403.488 199.862 396.382 Q199.862 389.252 198.033 385.71 Q196.227 382.146 192.593 382.146 M192.593 378.442 Q198.403 378.442 201.459 383.048 Q204.537 387.632 204.537 396.382 Q204.537 405.108 201.459 409.715 Q198.403 414.298 192.593 414.298 Q186.783 414.298 183.704 409.715 Q180.649 405.108 180.649 396.382 Q180.649 387.632 183.704 383.048 Q186.783 378.442 192.593 378.442 Z" fill="#000000" fill-rule="nonzero" fill-opacity="1" /><path clip-path="url(#clip740)" d="M212.755 407.747 L217.639 407.747 L217.639 413.627 L212.755 413.627 L212.755 407.747 Z" fill="#000000" fill-rule="nonzero" fill-opacity="1" /><path clip-path="url(#clip740)" d="M237.824 382.146 Q234.213 382.146 232.385 385.71 Q230.579 389.252 230.579 396.382 Q230.579 403.488 232.385 407.053 Q234.213 410.594 237.824 410.594 Q241.459 410.594 243.264 407.053 Q245.093 403.488 245.093 396.382 Q245.093 389.252 243.264 385.71 Q241.459 382.146 237.824 382.146 M237.824 378.442 Q243.634 378.442 246.69 383.048 Q249.769 387.632 249.769 396.382 Q249.769 405.108 246.69 409.715 Q243.634 414.298 237.824 414.298 Q232.014 414.298 228.935 409.715 Q225.88 405.108 225.88 396.382 Q225.88 387.632 228.935 383.048 Q232.014 378.442 237.824 378.442 Z" fill="#000000" fill-rule="nonzero" fill-opacity="1" /><path clip-path="url(#clip740)" d="M193.588 246.284 Q189.977 246.284 188.149 249.849 Q186.343 253.391 186.343 260.52 Q186.343 267.627 188.149 271.192 Q189.977 274.733 193.588 274.733 Q197.223 274.733 199.028 271.192 Q200.857 267.627 200.857 260.52 Q200.857 253.391 199.028 249.849 Q197.223 246.284 193.588 246.284 M193.588 242.581 Q199.399 242.581 202.454 247.187 Q205.533 251.77 205.533 260.52 Q205.533 269.247 202.454 273.854 Q199.399 278.437 193.588 278.437 Q187.778 278.437 184.7 273.854 Q181.644 269.247 181.644 260.52 Q181.644 251.77 184.7 247.187 Q187.778 242.581 193.588 242.581 Z" fill="#000000" fill-rule="nonzero" fill-opacity="1" /><path clip-path="url(#clip740)" d="M213.75 271.886 L218.635 271.886 L218.635 277.766 L213.75 277.766 L213.75 271.886 Z" fill="#000000" fill-rule="nonzero" fill-opacity="1" /><path clip-path="url(#clip740)" d="M228.866 243.206 L247.222 243.206 L247.222 247.141 L233.148 247.141 L233.148 255.613 Q234.167 255.266 235.185 255.104 Q236.204 254.919 237.222 254.919 Q243.009 254.919 246.389 258.09 Q249.769 261.261 249.769 266.678 Q249.769 272.256 246.296 275.358 Q242.824 278.437 236.505 278.437 Q234.329 278.437 232.06 278.067 Q229.815 277.696 227.408 276.956 L227.408 272.256 Q229.491 273.391 231.713 273.946 Q233.935 274.502 236.412 274.502 Q240.417 274.502 242.755 272.395 Q245.093 270.289 245.093 266.678 Q245.093 263.067 242.755 260.96 Q240.417 258.854 236.412 258.854 Q234.537 258.854 232.662 259.27 Q230.81 259.687 228.866 260.567 L228.866 243.206 Z" fill="#000000" fill-rule="nonzero" fill-opacity="1" /><path clip-path="url(#clip740)" d="M183.403 137.969 L191.042 137.969 L191.042 111.604 L182.732 113.27 L182.732 109.011 L190.996 107.345 L195.672 107.345 L195.672 137.969 L203.311 137.969 L203.311 141.905 L183.403 141.905 L183.403 137.969 Z" fill="#000000" fill-rule="nonzero" fill-opacity="1" /><path clip-path="url(#clip740)" d="M212.755 136.025 L217.639 136.025 L217.639 141.905 L212.755 141.905 L212.755 136.025 Z" fill="#000000" fill-rule="nonzero" fill-opacity="1" /><path clip-path="url(#clip740)" d="M237.824 110.423 Q234.213 110.423 232.385 113.988 Q230.579 117.53 230.579 124.659 Q230.579 131.766 232.385 135.33 Q234.213 138.872 237.824 138.872 Q241.459 138.872 243.264 135.33 Q245.093 131.766 245.093 124.659 Q245.093 117.53 243.264 113.988 Q241.459 110.423 237.824 110.423 M237.824 106.72 Q243.634 106.72 246.69 111.326 Q249.769 115.909 249.769 124.659 Q249.769 133.386 246.69 137.993 Q243.634 142.576 237.824 142.576 Q232.014 142.576 228.935 137.993 Q225.88 133.386 225.88 124.659 Q225.88 115.909 228.935 111.326 Q232.014 106.72 237.824 106.72 Z" fill="#000000" fill-rule="nonzero" fill-opacity="1" /><path clip-path="url(#clip740)" d="M93.4918 440.49 Q93.4918 444.978 90.7864 447.906 Q87.5717 451.375 81.7471 451.375 Q75.6997 451.375 70.9891 448.32 Q66.1511 445.169 66.1511 439.503 Q66.1511 435.779 68.4746 432.851 Q69.8432 431.132 72.1349 429.955 Q69.5568 429.541 66.6286 429.541 Q62.3317 429.541 59.8491 430.56 Q54.3428 432.819 54.3428 438.803 Q54.3428 441.063 55.7432 444.564 L50.396 444.564 Q49.4093 440.872 49.4093 437.562 Q49.4093 429.032 57.2391 425.403 Q60.9313 423.716 66.4376 423.716 Q70.0342 423.716 74.2038 424.512 Q84.6435 426.517 89.6088 431.705 Q93.4918 435.779 93.4918 440.49 M82.702 445.933 Q85.8848 445.933 87.6036 444.532 Q89.4178 443.036 89.4178 440.745 Q89.4178 438.708 87.9855 437.084 Q86.0121 434.793 82.7975 433.106 Q80.1557 431.705 77.323 431.005 Q70.4798 433.838 70.4798 438.739 Q70.4798 442.941 76.018 444.787 Q79.4555 445.933 82.702 445.933 Z" fill="#000000" fill-rule="nonzero" fill-opacity="1" /><path clip-path="url(#clip740)" d="M66.9469 413.181 L72.6123 413.181 L72.6123 405.574 L75.1586 405.574 L75.1586 413.181 L85.9803 413.181 Q88.4311 413.181 89.1313 412.417 Q89.8316 411.653 89.8316 409.362 L89.8316 405.574 L92.5688 405.574 L92.5688 409.362 Q92.5688 413.627 91.1365 415.25 Q89.7361 416.873 85.9803 416.873 L75.1586 416.873 L75.1586 419.579 L72.6123 419.579 L72.6123 416.873 L66.9469 416.873 L66.9469 413.181 Z" fill="#000000" fill-rule="nonzero" fill-opacity="1" /><path clip-path="url(#clip740)" d="M56.9209 365.693 L74.2674 378.584 L92.5688 365.025 L92.5688 371.931 L78.5643 382.307 L92.5688 392.684 L92.5688 399.59 L73.9173 385.745 L56.9209 398.413 L56.9209 391.506 L69.6204 382.053 L56.9209 372.6 L56.9209 365.693 Z" fill="#000000" fill-rule="nonzero" fill-opacity="1" /><path clip-path="url(#clip740)" d="M791.51 12.096 L799.693 12.096 L799.693 72.576 L791.51 72.576 L791.51 12.096 Z" fill="#000000" fill-rule="nonzero" fill-opacity="1" /><path clip-path="url(#clip740)" d="M845.509 34.0924 L845.509 9.54393 L852.963 9.54393 L852.963 72.576 L845.509 72.576 L845.509 65.7705 Q843.16 69.8214 839.554 71.8063 Q835.989 73.7508 830.966 73.7508 Q822.743 73.7508 817.558 67.1883 Q812.413 60.6258 812.413 49.9314 Q812.413 39.2371 817.558 32.6746 Q822.743 26.1121 830.966 26.1121 Q835.989 26.1121 839.554 28.0971 Q843.16 30.0415 845.509 34.0924 M820.11 49.9314 Q820.11 58.1548 823.472 62.8538 Q826.875 67.5124 832.789 67.5124 Q838.704 67.5124 842.106 62.8538 Q845.509 58.1548 845.509 49.9314 Q845.509 41.7081 842.106 37.0496 Q838.704 32.3505 832.789 32.3505 Q826.875 32.3505 823.472 37.0496 Q820.11 41.7081 820.11 49.9314 Z" fill="#000000" fill-rule="nonzero" fill-opacity="1" /><path clip-path="url(#clip740)" d="M907.123 48.0275 L907.123 51.6733 L872.853 51.6733 Q873.339 59.3701 877.471 63.421 Q881.643 67.4314 889.056 67.4314 Q893.35 67.4314 897.361 66.3781 Q901.412 65.3249 905.381 63.2184 L905.381 70.267 Q901.371 71.9684 897.158 72.8596 Q892.945 73.7508 888.611 73.7508 Q877.754 73.7508 871.394 67.4314 Q865.075 61.1119 865.075 50.3365 Q865.075 39.1965 871.07 32.6746 Q877.106 26.1121 887.314 26.1121 Q896.469 26.1121 901.776 32.0264 Q907.123 37.9003 907.123 48.0275 M899.67 45.84 Q899.589 39.7232 896.226 36.0774 Q892.905 32.4315 887.395 32.4315 Q881.157 32.4315 877.39 35.9558 Q873.663 39.4801 873.096 45.8805 L899.67 45.84 Z" fill="#000000" fill-rule="nonzero" fill-opacity="1" /><path clip-path="url(#clip740)" d="M957.071 45.1919 L957.071 72.576 L949.617 72.576 L949.617 45.4349 Q949.617 38.994 947.106 35.7938 Q944.594 32.5936 939.571 32.5936 Q933.535 32.5936 930.051 36.4419 Q926.568 40.2903 926.568 46.9338 L926.568 72.576 L919.073 72.576 L919.073 27.2059 L926.568 27.2059 L926.568 34.2544 Q929.241 30.163 932.847 28.1376 Q936.492 26.1121 941.232 26.1121 Q949.05 26.1121 953.061 30.9732 Q957.071 35.7938 957.071 45.1919 Z" fill="#000000" fill-rule="nonzero" fill-opacity="1" /><path clip-path="url(#clip740)" d="M979.31 14.324 L979.31 27.2059 L994.663 27.2059 L994.663 32.9987 L979.31 32.9987 L979.31 57.6282 Q979.31 63.1779 980.809 64.7578 Q982.349 66.3376 987.007 66.3376 L994.663 66.3376 L994.663 72.576 L987.007 72.576 Q978.379 72.576 975.097 69.3758 Q971.816 66.1351 971.816 57.6282 L971.816 32.9987 L966.348 32.9987 L966.348 27.2059 L971.816 27.2059 L971.816 14.324 L979.31 14.324 Z" fill="#000000" fill-rule="nonzero" fill-opacity="1" /><path clip-path="url(#clip740)" d="M1004.47 27.2059 L1011.92 27.2059 L1011.92 72.576 L1004.47 72.576 L1004.47 27.2059 M1004.47 9.54393 L1011.92 9.54393 L1011.92 18.9825 L1004.47 18.9825 L1004.47 9.54393 Z" fill="#000000" fill-rule="nonzero" fill-opacity="1" /><path clip-path="url(#clip740)" d="M1050.48 9.54393 L1050.48 15.7418 L1043.36 15.7418 Q1039.34 15.7418 1037.76 17.3622 Q1036.23 18.9825 1036.23 23.1955 L1036.23 27.2059 L1048.5 27.2059 L1048.5 32.9987 L1036.23 32.9987 L1036.23 72.576 L1028.73 72.576 L1028.73 32.9987 L1021.6 32.9987 L1021.6 27.2059 L1028.73 27.2059 L1028.73 24.0462 Q1028.73 16.471 1032.26 13.0277 Q1035.78 9.54393 1043.44 9.54393 L1050.48 9.54393 Z" fill="#000000" fill-rule="nonzero" fill-opacity="1" /><path clip-path="url(#clip740)" d="M1056.72 27.2059 L1064.18 27.2059 L1064.18 72.576 L1056.72 72.576 L1056.72 27.2059 M1056.72 9.54393 L1064.18 9.54393 L1064.18 18.9825 L1056.72 18.9825 L1056.72 9.54393 Z" fill="#000000" fill-rule="nonzero" fill-opacity="1" /><path clip-path="url(#clip740)" d="M1118.58 48.0275 L1118.58 51.6733 L1084.31 51.6733 Q1084.8 59.3701 1088.93 63.421 Q1093.1 67.4314 1100.51 67.4314 Q1104.81 67.4314 1108.82 66.3781 Q1112.87 65.3249 1116.84 63.2184 L1116.84 70.267 Q1112.83 71.9684 1108.62 72.8596 Q1104.4 73.7508 1100.07 73.7508 Q1089.21 73.7508 1082.85 67.4314 Q1076.53 61.1119 1076.53 50.3365 Q1076.53 39.1965 1082.53 32.6746 Q1088.56 26.1121 1098.77 26.1121 Q1107.93 26.1121 1113.23 32.0264 Q1118.58 37.9003 1118.58 48.0275 M1111.13 45.84 Q1111.05 39.7232 1107.68 36.0774 Q1104.36 32.4315 1098.85 32.4315 Q1092.61 32.4315 1088.85 35.9558 Q1085.12 39.4801 1084.55 45.8805 L1111.13 45.84 Z" fill="#000000" fill-rule="nonzero" fill-opacity="1" /><path clip-path="url(#clip740)" d="M1160.67 34.0924 L1160.67 9.54393 L1168.12 9.54393 L1168.12 72.576 L1160.67 72.576 L1160.67 65.7705 Q1158.32 69.8214 1154.71 71.8063 Q1151.15 73.7508 1146.13 73.7508 Q1137.9 73.7508 1132.72 67.1883 Q1127.57 60.6258 1127.57 49.9314 Q1127.57 39.2371 1132.72 32.6746 Q1137.9 26.1121 1146.13 26.1121 Q1151.15 26.1121 1154.71 28.0971 Q1158.32 30.0415 1160.67 34.0924 M1135.27 49.9314 Q1135.27 58.1548 1138.63 62.8538 Q1142.04 67.5124 1147.95 67.5124 Q1153.86 67.5124 1157.27 62.8538 Q1160.67 58.1548 1160.67 49.9314 Q1160.67 41.7081 1157.27 37.0496 Q1153.86 32.3505 1147.95 32.3505 Q1142.04 32.3505 1138.63 37.0496 Q1135.27 41.7081 1135.27 49.9314 Z" fill="#000000" fill-rule="nonzero" fill-opacity="1" /><path clip-path="url(#clip740)" d="M1246.43 14.0809 L1246.43 22.0612 Q1241.77 19.8332 1237.64 18.7395 Q1233.5 17.6457 1229.66 17.6457 Q1222.97 17.6457 1219.33 20.2383 Q1215.72 22.8309 1215.72 27.611 Q1215.72 31.6214 1218.11 33.6873 Q1220.54 35.7128 1227.27 36.9686 L1232.21 37.9813 Q1241.36 39.7232 1245.7 44.1387 Q1250.07 48.5136 1250.07 55.8863 Q1250.07 64.6767 1244.16 69.2137 Q1238.28 73.7508 1226.9 73.7508 Q1222.61 73.7508 1217.75 72.7785 Q1212.93 71.8063 1207.74 69.9024 L1207.74 61.4765 Q1212.72 64.2716 1217.5 65.6895 Q1222.28 67.1073 1226.9 67.1073 Q1233.91 67.1073 1237.72 64.3527 Q1241.53 61.598 1241.53 56.4939 Q1241.53 52.0379 1238.77 49.5264 Q1236.06 47.0148 1229.82 45.759 L1224.84 44.7868 Q1215.68 42.9639 1211.59 39.075 Q1207.5 35.1862 1207.5 28.2591 Q1207.5 20.2383 1213.13 15.6203 Q1218.8 11.0023 1228.72 11.0023 Q1232.98 11.0023 1237.39 11.7719 Q1241.81 12.5416 1246.43 14.0809 Z" fill="#000000" fill-rule="nonzero" fill-opacity="1" /><path clip-path="url(#clip740)" d="M1281.39 76.7889 Q1278.23 84.8907 1275.23 87.3618 Q1272.23 89.8329 1267.21 89.8329 L1261.25 89.8329 L1261.25 83.5945 L1265.63 83.5945 Q1268.71 83.5945 1270.41 82.1361 Q1272.11 80.6778 1274.18 75.2496 L1275.51 71.8468 L1257.16 27.2059 L1265.06 27.2059 L1279.24 62.6918 L1293.42 27.2059 L1301.32 27.2059 L1281.39 76.7889 Z" fill="#000000" fill-rule="nonzero" fill-opacity="1" /><path clip-path="url(#clip740)" d="M1340.53 28.5427 L1340.53 35.5912 Q1337.37 33.9709 1333.97 33.1607 Q1330.56 32.3505 1326.92 32.3505 Q1321.37 32.3505 1318.57 34.0519 Q1315.82 35.7533 1315.82 39.156 Q1315.82 41.7486 1317.8 43.2475 Q1319.79 44.7058 1325.78 46.0426 L1328.34 46.6097 Q1336.28 48.3111 1339.6 51.4303 Q1342.96 54.509 1342.96 60.0587 Q1342.96 66.3781 1337.94 70.0644 Q1332.95 73.7508 1324.2 73.7508 Q1320.56 73.7508 1316.59 73.0216 Q1312.66 72.3329 1308.28 70.9151 L1308.28 63.2184 Q1312.42 65.3654 1316.43 66.4591 Q1320.44 67.5124 1324.37 67.5124 Q1329.63 67.5124 1332.47 65.73 Q1335.3 63.9071 1335.3 60.6258 Q1335.3 57.5877 1333.24 55.9673 Q1331.21 54.3469 1324.29 52.8481 L1321.69 52.2405 Q1314.77 50.7821 1311.69 47.7845 Q1308.61 44.7463 1308.61 39.4801 Q1308.61 33.0797 1313.15 29.5959 Q1317.68 26.1121 1326.03 26.1121 Q1330.16 26.1121 1333.81 26.7198 Q1337.45 27.3274 1340.53 28.5427 Z" fill="#000000" fill-rule="nonzero" fill-opacity="1" /><path clip-path="url(#clip740)" d="M1362.2 14.324 L1362.2 27.2059 L1377.55 27.2059 L1377.55 32.9987 L1362.2 32.9987 L1362.2 57.6282 Q1362.2 63.1779 1363.7 64.7578 Q1365.24 66.3376 1369.9 66.3376 L1377.55 66.3376 L1377.55 72.576 L1369.9 72.576 Q1361.27 72.576 1357.99 69.3758 Q1354.71 66.1351 1354.71 57.6282 L1354.71 32.9987 L1349.24 32.9987 L1349.24 27.2059 L1354.71 27.2059 L1354.71 14.324 L1362.2 14.324 Z" fill="#000000" fill-rule="nonzero" fill-opacity="1" /><path clip-path="url(#clip740)" d="M1426.17 48.0275 L1426.17 51.6733 L1391.9 51.6733 Q1392.38 59.3701 1396.51 63.421 Q1400.69 67.4314 1408.1 67.4314 Q1412.39 67.4314 1416.4 66.3781 Q1420.45 65.3249 1424.42 63.2184 L1424.42 70.267 Q1420.41 71.9684 1416.2 72.8596 Q1411.99 73.7508 1407.65 73.7508 Q1396.8 73.7508 1390.44 67.4314 Q1384.12 61.1119 1384.12 50.3365 Q1384.12 39.1965 1390.11 32.6746 Q1396.15 26.1121 1406.36 26.1121 Q1415.51 26.1121 1420.82 32.0264 Q1426.17 37.9003 1426.17 48.0275 M1418.71 45.84 Q1418.63 39.7232 1415.27 36.0774 Q1411.95 32.4315 1406.44 32.4315 Q1400.2 32.4315 1396.43 35.9558 Q1392.71 39.4801 1392.14 45.8805 L1418.71 45.84 Z" fill="#000000" fill-rule="nonzero" fill-opacity="1" /><path clip-path="url(#clip740)" d="M1473.72 35.9153 Q1476.52 30.8922 1480.41 28.5022 Q1484.3 26.1121 1489.56 26.1121 Q1496.65 26.1121 1500.5 31.0947 Q1504.35 36.0368 1504.35 45.1919 L1504.35 72.576 L1496.85 72.576 L1496.85 45.4349 Q1496.85 38.913 1494.54 35.7533 Q1492.24 32.5936 1487.5 32.5936 Q1481.7 32.5936 1478.34 36.4419 Q1474.98 40.2903 1474.98 46.9338 L1474.98 72.576 L1467.48 72.576 L1467.48 45.4349 Q1467.48 38.8725 1465.18 35.7533 Q1462.87 32.5936 1458.05 32.5936 Q1452.33 32.5936 1448.97 36.4824 Q1445.61 40.3308 1445.61 46.9338 L1445.61 72.576 L1438.12 72.576 L1438.12 27.2059 L1445.61 27.2059 L1445.61 34.2544 Q1448.16 30.082 1451.73 28.0971 Q1455.29 26.1121 1460.19 26.1121 Q1465.14 26.1121 1468.58 28.6237 Q1472.06 31.1352 1473.72 35.9153 Z" fill="#000000" fill-rule="nonzero" fill-opacity="1" /><path clip-path="url(#clip740)" d="M1540.24 27.2059 L1548.14 27.2059 L1562.32 65.2844 L1576.49 27.2059 L1584.39 27.2059 L1567.38 72.576 L1557.25 72.576 L1540.24 27.2059 Z" fill="#000000" fill-rule="nonzero" fill-opacity="1" /><path clip-path="url(#clip740)" d="M1623.61 28.5427 L1623.61 35.5912 Q1620.45 33.9709 1617.04 33.1607 Q1613.64 32.3505 1610 32.3505 Q1604.45 32.3505 1601.65 34.0519 Q1598.9 35.7533 1598.9 39.156 Q1598.9 41.7486 1600.88 43.2475 Q1602.87 44.7058 1608.86 46.0426 L1611.41 46.6097 Q1619.35 48.3111 1622.68 51.4303 Q1626.04 54.509 1626.04 60.0587 Q1626.04 66.3781 1621.01 70.0644 Q1616.03 73.7508 1607.28 73.7508 Q1603.64 73.7508 1599.67 73.0216 Q1595.74 72.3329 1591.36 70.9151 L1591.36 63.2184 Q1595.49 65.3654 1599.5 66.4591 Q1603.51 67.5124 1607.44 67.5124 Q1612.71 67.5124 1615.55 65.73 Q1618.38 63.9071 1618.38 60.6258 Q1618.38 57.5877 1616.32 55.9673 Q1614.29 54.3469 1607.36 52.8481 L1604.77 52.2405 Q1597.84 50.7821 1594.76 47.7845 Q1591.69 44.7463 1591.69 39.4801 Q1591.69 33.0797 1596.22 29.5959 Q1600.76 26.1121 1609.1 26.1121 Q1613.24 26.1121 1616.88 26.7198 Q1620.53 27.3274 1623.61 28.5427 Z" fill="#000000" fill-rule="nonzero" fill-opacity="1" /><path clip-path="url(#clip740)" d="M1672.78 18.8205 L1672.78 65.8515 L1682.67 65.8515 Q1695.19 65.8515 1700.98 60.1802 Q1706.81 54.509 1706.81 42.2752 Q1706.81 30.1225 1700.98 24.4918 Q1695.19 18.8205 1682.67 18.8205 L1672.78 18.8205 M1664.6 12.096 L1681.41 12.096 Q1698.99 12.096 1707.22 19.4281 Q1715.44 26.7198 1715.44 42.2752 Q1715.44 57.9117 1707.18 65.2439 Q1698.91 72.576 1681.41 72.576 L1664.6 72.576 L1664.6 12.096 Z" fill="#000000" fill-rule="nonzero" fill-opacity="1" /><path clip-path="url(#clip740)" d="M1748.78 49.7694 Q1739.75 49.7694 1736.26 51.8354 Q1732.78 53.9013 1732.78 58.8839 Q1732.78 62.8538 1735.37 65.2034 Q1738 67.5124 1742.5 67.5124 Q1748.7 67.5124 1752.43 63.1374 Q1756.19 58.7219 1756.19 51.4303 L1756.19 49.7694 L1748.78 49.7694 M1763.65 46.6907 L1763.65 72.576 L1756.19 72.576 L1756.19 65.6895 Q1753.64 69.8214 1749.83 71.8063 Q1746.03 73.7508 1740.52 73.7508 Q1733.55 73.7508 1729.42 69.8619 Q1725.32 65.9325 1725.32 59.3701 Q1725.32 51.7138 1730.43 47.825 Q1735.57 43.9361 1745.74 43.9361 L1756.19 43.9361 L1756.19 43.2069 Q1756.19 38.0623 1752.79 35.2672 Q1749.43 32.4315 1743.31 32.4315 Q1739.42 32.4315 1735.74 33.3632 Q1732.05 34.295 1728.65 36.1584 L1728.65 29.2718 Q1732.74 27.692 1736.59 26.9223 Q1740.43 26.1121 1744.08 26.1121 Q1753.92 26.1121 1758.79 31.2163 Q1763.65 36.3204 1763.65 46.6907 Z" fill="#000000" fill-rule="nonzero" fill-opacity="1" /><path clip-path="url(#clip740)" d="M1786.37 14.324 L1786.37 27.2059 L1801.72 27.2059 L1801.72 32.9987 L1786.37 32.9987 L1786.37 57.6282 Q1786.37 63.1779 1787.87 64.7578 Q1789.41 66.3376 1794.07 66.3376 L1801.72 66.3376 L1801.72 72.576 L1794.07 72.576 Q1785.44 72.576 1782.16 69.3758 Q1778.88 66.1351 1778.88 57.6282 L1778.88 32.9987 L1773.41 32.9987 L1773.41 27.2059 L1778.88 27.2059 L1778.88 14.324 L1786.37 14.324 Z" fill="#000000" fill-rule="nonzero" fill-opacity="1" /><path clip-path="url(#clip740)" d="M1832.15 49.7694 Q1823.11 49.7694 1819.63 51.8354 Q1816.15 53.9013 1816.15 58.8839 Q1816.15 62.8538 1818.74 65.2034 Q1821.37 67.5124 1825.87 67.5124 Q1832.07 67.5124 1835.79 63.1374 Q1839.56 58.7219 1839.56 51.4303 L1839.56 49.7694 L1832.15 49.7694 M1847.01 46.6907 L1847.01 72.576 L1839.56 72.576 L1839.56 65.6895 Q1837.01 69.8214 1833.2 71.8063 Q1829.39 73.7508 1823.88 73.7508 Q1816.92 73.7508 1812.78 69.8619 Q1808.69 65.9325 1808.69 59.3701 Q1808.69 51.7138 1813.8 47.825 Q1818.94 43.9361 1829.11 43.9361 L1839.56 43.9361 L1839.56 43.2069 Q1839.56 38.0623 1836.16 35.2672 Q1832.8 32.4315 1826.68 32.4315 Q1822.79 32.4315 1819.1 33.3632 Q1815.42 34.295 1812.01 36.1584 L1812.01 29.2718 Q1816.11 27.692 1819.95 26.9223 Q1823.8 26.1121 1827.45 26.1121 Q1837.29 26.1121 1842.15 31.2163 Q1847.01 36.3204 1847.01 46.6907 Z" fill="#000000" fill-rule="nonzero" fill-opacity="1" /><polyline clip-path="url(#clip742)" style="stroke:#009af9; stroke-linecap:round; stroke-linejoin:round; stroke-width:4; stroke-opacity:1; fill:none" points="344.268,469.633 354.018,452.487 363.768,437.298 373.518,423.987 383.268,412.462 393.018,402.622 402.768,394.352 412.518,387.529 422.268,382.025 432.018,377.704 441.768,374.425 451.518,372.047 461.268,370.427 471.018,369.424 480.767,368.899 490.517,368.72 500.267,368.759 510.017,368.897 519.767,369.028 529.517,369.051 539.267,368.88 549.017,368.443 558.767,367.681 568.517,366.548 578.267,365.015 588.017,363.071 597.767,360.717 607.517,357.967 617.267,354.85 627.017,351.407 636.767,347.695 646.516,343.78 656.266,339.743 666.016,335.672 675.766,331.659 685.516,327.803 695.266,324.208 705.016,320.98 714.766,318.225 724.516,316.047 734.266,314.546 744.016,313.819 753.766,313.955 763.516,315.036 773.266,317.126 783.016,320.282 792.766,324.55 802.515,329.964 812.265,336.543 822.015,344.292 831.765,353.2 841.515,363.241 851.265,374.368 861.015,386.52 870.765,399.617 880.515,413.576 890.265,428.296 900.015,443.662 909.765,459.551 919.515,475.83 929.265,492.359 939.015,508.993 948.765,525.582 958.515,541.973 968.264,558.013 978.014,573.552 987.764,588.438 997.514,602.53 1007.26,615.697 1017.01,627.816 1026.76,638.773 1036.51,648.466 1046.26,656.801 1056.01,663.703 1065.76,669.108 1075.51,672.972 1085.26,675.268 1095.01,675.988 1104.76,675.146 1114.51,672.773 1124.26,668.902 1134.01,663.591 1143.76,656.912 1153.51,648.954 1163.26,639.812 1173.01,629.596 1182.76,618.424 1192.51,606.423 1202.26,593.725 1212.01,580.468 1221.76,566.795 1231.51,552.849 1241.26,538.773 1251.01,524.706 1260.76,510.775 1270.51,497.105 1280.26,483.811 1290.01,471.001 1299.76,458.774 1309.51,447.215 1319.26,436.397 1329.01,426.378 1338.76,417.201 1348.51,408.89 1358.26,401.454 1368.01,394.884 1377.76,389.17 1387.51,384.276 1397.26,380.154 1407.01,376.746 1416.76,373.983 1426.51,371.785 1436.26,370.066 1446.01,368.731 1455.76,367.681 1465.51,366.811 1475.26,366.014 1485.01,365.182 1494.76,364.21 1504.51,362.994 1514.26,361.435 1524.01,359.443 1533.76,356.939 1543.51,353.858 1553.26,350.144 1563.01,345.75 1572.76,340.64 1582.51,334.793 1592.26,328.201 1602.01,320.872 1611.76,312.828 1621.51,304.11 1631.26,294.773 1641.01,284.89 1650.76,274.543 1660.51,263.82 1670.26,252.823 1680.01,241.667 1689.76,230.47 1699.51,219.361 1709.26,208.469 1719.01,197.929 1728.76,187.875 1738.51,178.442 1748.26,169.761 1758.01,161.96 1767.76,155.156 1777.51,149.461 1787.26,144.975 1797.01,141.783 1806.76,139.965 1816.51,139.589 1826.26,140.694 1836.01,143.309 1845.76,147.448 1855.51,153.11 1865.26,160.28 1875.01,168.926 1884.76,179.001 1894.51,190.439 1904.26,203.161 1914.01,217.069 1923.76,232.052 1933.51,247.982 1943.26,264.718 1953.01,282.126 1962.76,300.065 1972.51,318.385 1982.26,336.933 1992.01,355.555 2001.76,374.095 2011.51,392.401 2021.26,410.325 2031.01,427.726 2040.76,444.471 2050.51,460.437 2060.26,475.513 2070.01,489.606 2079.76,502.634 2089.51,514.531 2099.26,525.232 2109.01,534.704 2118.76,542.933 2128.51,549.915 2138.26,555.662 2148.01,560.197 2157.76,563.558 2167.51,565.795 2177.26,566.971 2187.01,567.162 2196.76,566.454 2206.51,564.944 2216.26,562.736 2226.01,559.944 2235.76,556.686 2245.51,553.083 2255.26,549.259 2265.01,545.34 2274.76,541.44 2284.51,537.648 2294.26,534.062 "/>
<polyline clip-path="url(#clip742)" style="stroke:#e26f46; stroke-linecap:round; stroke-linejoin:round; stroke-width:4; stroke-opacity:1; fill:none" points="344.268,315.633 354.018,311.589 363.768,308.244 373.518,305.583 383.268,303.583 393.018,302.214 402.768,301.438 412.518,301.212 422.268,301.489 432.018,302.214 441.768,303.332 451.518,304.784 461.268,306.509 471.018,308.446 480.767,310.533 490.517,312.709 500.267,314.917 510.017,317.102 519.767,319.213 529.517,321.202 539.267,323.028 549.017,324.655 558.767,326.054 568.517,327.203 578.267,328.085 588.017,328.696 597.767,329.033 607.517,329.103 617.267,328.922 627.017,328.509 636.767,327.892 646.516,327.106 656.266,326.19 666.016,325.191 675.766,324.156 685.516,323.139 695.266,322.194 705.016,321.378 714.766,320.748 724.516,320.362 734.266,320.277 744.016,320.545 753.766,321.22 763.516,322.348 773.266,323.97 783.016,326.124 792.766,328.838 802.515,332.139 812.265,336.043 822.015,340.56 831.765,345.693 841.515,351.434 851.265,357.768 861.015,364.671 870.765,372.108 880.515,380.044 890.265,388.43 900.015,397.212 909.765,406.332 919.515,415.723 929.265,425.316 939.015,435.036 948.765,444.808 958.515,454.551 968.264,464.185 978.014,473.629 987.764,482.804 997.514,491.629 1007.26,500.032 1017.01,507.943 1026.76,515.296 1036.51,522.03 1046.26,528.089 1056.01,533.425 1065.76,537.998 1075.51,541.774 1085.26,544.73 1095.01,546.85 1104.76,548.132 1114.51,548.578 1124.26,548.199 1134.01,547.015 1143.76,545.054 1153.51,542.354 1163.26,538.958 1173.01,534.914 1182.76,530.279 1192.51,525.112 1202.26,519.477 1212.01,513.444 1221.76,507.083 1231.51,500.467 1241.26,493.668 1251.01,486.76 1260.76,479.812 1270.51,472.89 1280.26,466.058 1290.01,459.377 1299.76,452.901 1309.51,446.682 1319.26,440.761 1329.01,435.178 1338.76,429.959 1348.51,425.127 1358.26,420.695 1368.01,416.667 1377.76,413.045 1387.51,409.818 1397.26,406.969 1407.01,404.473 1416.76,402.302 1426.51,400.421 1436.26,398.788 1446.01,397.361 1455.76,396.092 1465.51,394.93 1475.26,393.823 1485.01,392.717 1494.76,391.558 1504.51,390.294 1514.26,388.873 1524.01,387.247 1533.76,385.373 1543.51,383.213 1553.26,380.734 1563.01,377.909 1572.76,374.714 1582.51,371.136 1592.26,367.164 1602.01,362.8 1611.76,358.05 1621.51,352.93 1631.26,347.463 1641.01,341.682 1650.76,335.625 1660.51,329.335 1670.26,322.862 1680.01,316.263 1689.76,309.599 1699.51,302.934 1709.26,296.336 1719.01,289.876 1728.76,283.624 1738.51,277.652 1748.26,272.032 1758.01,266.833 1767.76,262.122 1777.51,257.962 1787.26,254.411 1797.01,251.523 1806.76,249.346 1816.51,247.923 1826.26,247.283 1836.01,247.451 1845.76,248.443 1855.51,250.267 1865.26,252.924 1875.01,256.407 1884.76,260.698 1894.51,265.772 1904.26,271.595 1914.01,278.124 1923.76,285.309 1933.51,293.09 1943.26,301.402 1953.01,310.177 1962.76,319.345 1972.51,328.829 1982.26,338.552 1992.01,348.432 2001.76,358.389 2011.51,368.342 2021.26,378.212 2031.01,387.922 2040.76,397.398 2050.51,406.57 2060.26,415.375 2070.01,423.755 2079.76,431.66 2089.51,439.044 2099.26,445.865 2109.01,452.098 2118.76,457.723 2128.51,462.731 2138.26,467.118 2148.01,470.888 2157.76,474.051 2167.51,476.626 2177.26,478.637 2187.01,480.116 2196.76,481.1 2206.51,481.634 2216.26,481.766 2226.01,481.546 2235.76,481.033 2245.51,480.284 2255.26,479.358 2265.01,478.318 2274.76,477.221 2284.51,476.118 2294.26,475.063 "/>
<polyline clip-path="url(#clip742)" style="stroke:#000000; stroke-linecap:round; stroke-linejoin:round; stroke-width:4; stroke-opacity:1; fill:none" stroke-dasharray="16, 10" points="344.268,455.713 354.018,455.713 363.768,439.896 373.518,425.995 383.268,413.919 393.018,403.572 402.768,394.846 412.518,387.623 422.268,381.772 432.018,377.162 441.768,373.658 451.518,371.116 461.268,369.392 471.018,368.347 480.767,367.843 490.517,367.743 500.267,367.92 510.017,368.241 519.767,368.587 529.517,368.873 539.267,369.017 549.017,368.935 558.767,368.543 568.517,367.815 578.267,366.699 588.017,365.119 597.767,363.111 607.517,360.713 617.267,357.962 627.017,354.896 636.767,351.552 646.516,347.967 656.266,344.179 666.016,340.276 675.766,336.425 685.516,332.682 695.266,329.147 705.016,325.926 714.766,323.122 724.516,320.837 734.266,319.177 744.016,318.245 753.766,318.086 763.516,318.795 773.266,320.579 783.016,323.446 792.766,327.4 802.515,332.446 812.265,338.585 822.015,345.823 831.765,354.163 841.515,363.608 851.265,374.163 861.015,385.83 870.765,398.589 880.515,412.124 890.265,426.446 900.015,441.48 909.765,457.086 919.515,473.118 929.265,489.434 939.015,505.889 948.765,522.342 958.515,538.647 968.264,554.662 978.014,570.244 987.764,585.275 997.514,599.614 1007.26,612.966 1017.01,625.244 1026.76,636.382 1036.51,646.314 1046.26,654.971 1056.01,662.288 1065.76,668.197 1075.51,672.632 1085.26,675.526 1095.01,676.811 1104.76,676.422 1114.51,674.323 1124.26,670.882 1134.01,665.979 1143.76,659.623 1153.51,651.935 1163.26,643.035 1173.01,633.044 1182.76,622.083 1192.51,610.273 1202.26,597.734 1212.01,584.586 1221.76,570.951 1231.51,556.95 1241.26,542.702 1251.01,528.365 1260.76,514.2 1270.51,500.318 1280.26,486.795 1290.01,473.709 1299.76,461.135 1309.51,449.151 1319.26,437.834 1329.01,427.259 1338.76,417.504 1348.51,408.645 1358.26,400.759 1368.01,393.823 1377.76,387.599 1387.51,382.292 1397.26,377.837 1407.01,374.144 1416.76,371.123 1426.51,368.683 1436.26,366.733 1446.01,365.182 1455.76,363.94 1465.51,362.917 1475.26,362.021 1485.01,361.162 1494.76,360.249 1504.51,359.192 1514.26,357.9 1524.01,356.295 1533.76,354.15 1543.51,351.353 1553.26,347.902 1563.01,343.793 1572.76,339.021 1582.51,333.583 1592.26,327.474 1602.01,320.691 1611.76,313.23 1621.51,305.087 1631.26,296.258 1641.01,286.739 1650.76,276.682 1660.51,266.355 1670.26,255.691 1680.01,244.813 1689.76,233.85 1699.51,222.93 1709.26,212.179 1719.01,201.727 1728.76,191.702 1738.51,182.23 1748.26,173.441 1758.01,165.462 1767.76,158.421 1777.51,152.446 1787.26,147.665 1797.01,144.206 1806.76,142.013 1816.51,141.109 1826.26,141.838 1836.01,144.157 1845.76,148.021 1855.51,153.381 1865.26,160.192 1875.01,168.406 1884.76,177.976 1894.51,188.856 1904.26,200.997 1914.01,214.354 1923.76,228.879 1933.51,244.526 1943.26,261.237 1953.01,278.597 1962.76,296.404 1972.51,314.611 1982.26,333.079 1992.01,351.669 2001.76,370.241 2011.51,388.656 2021.26,406.775 2031.01,424.459 2040.76,441.568 2050.51,457.964 2060.26,473.506 2070.01,488.056 2079.76,501.475 2089.51,513.707 2099.26,525.067 2109.01,535.05 2118.76,543.618 2128.51,550.842 2138.26,556.79 2148.01,561.531 2157.76,565.136 2167.51,567.673 2177.26,569.212 2187.01,569.821 2196.76,569.572 2206.51,568.531 2216.26,566.77 2226.01,564.358 2235.76,561.363 2245.51,557.855 2255.26,553.903 2265.01,549.577 2274.76,545.125 2284.51,541.084 2294.26,537.225 "/>
<polyline clip-path="url(#clip742)" style="stroke:#000000; stroke-linecap:round; stroke-linejoin:round; stroke-width:4; stroke-opacity:1; fill:none" stroke-dasharray="16, 10" points="344.268,312.776 354.018,312.776 363.768,309.14 373.518,306.207 383.268,303.952 393.018,302.348 402.768,301.362 412.518,300.953 422.268,301.073 432.018,301.668 441.768,302.687 451.518,304.07 461.268,305.756 471.018,307.683 480.767,309.791 490.517,312.016 500.267,314.303 510.017,316.588 519.767,318.815 529.517,320.945 539.267,322.936 549.017,324.748 558.767,326.339 568.517,327.699 578.267,328.798 588.017,329.597 597.767,330.113 607.517,330.366 617.267,330.374 627.017,330.156 636.767,329.73 646.516,329.116 656.266,328.333 666.016,327.425 675.766,326.479 685.516,325.523 695.266,324.613 705.016,323.805 714.766,323.158 724.516,322.727 734.266,322.569 744.016,322.74 753.766,323.269 763.516,324.211 773.266,325.683 783.016,327.697 792.766,330.262 802.515,333.385 812.265,337.076 822.015,341.344 831.765,346.196 841.515,351.642 851.265,357.69 861.015,364.348 870.765,371.613 880.515,379.328 890.265,387.514 900.015,396.135 909.765,405.117 919.515,414.388 929.265,423.874 939.015,433.502 948.765,443.198 958.515,452.89 968.264,462.503 978.014,471.966 987.764,481.216 997.514,490.171 1007.26,498.67 1017.01,506.66 1026.76,514.099 1036.51,520.945 1046.26,527.156 1056.01,532.689 1065.76,537.503 1075.51,541.554 1085.26,544.801 1095.01,547.202 1104.76,548.714 1114.51,549.311 1124.26,549.166 1134.01,548.193 1143.76,546.39 1153.51,543.816 1163.26,540.53 1173.01,536.59 1182.76,532.055 1192.51,526.982 1202.26,521.431 1212.01,515.46 1221.76,509.126 1231.51,502.49 1241.26,495.608 1251.01,488.563 1260.76,481.496 1270.51,474.467 1280.26,467.521 1290.01,460.705 1299.76,454.061 1309.51,447.636 1319.26,441.474 1329.01,435.62 1338.76,430.118 1348.51,425.014 1358.26,420.353 1368.01,416.122 1377.76,412.209 1387.51,408.759 1397.26,405.743 1407.01,403.116 1416.76,400.833 1426.51,398.85 1436.26,397.122 1446.01,395.603 1455.76,394.25 1465.51,393.018 1475.26,391.86 1485.01,390.734 1494.76,389.593 1504.51,388.394 1514.26,387.091 1524.01,385.652 1533.76,383.959 1543.51,381.941 1553.26,379.592 1563.01,376.907 1572.76,373.878 1582.51,370.502 1592.26,366.77 1602.01,362.678 1611.76,358.219 1621.51,353.388 1631.26,348.178 1641.01,342.583 1650.76,336.684 1660.51,330.608 1670.26,324.305 1680.01,317.841 1689.76,311.285 1699.51,304.706 1709.26,298.172 1719.01,291.752 1728.76,285.516 1738.51,279.532 1748.26,273.869 1758.01,268.596 1767.76,263.782 1777.51,259.495 1787.26,255.804 1797.01,252.779 1806.76,250.395 1816.51,248.69 1826.26,247.858 1836.01,247.883 1845.76,248.749 1855.51,250.436 1865.26,252.929 1875.01,256.208 1884.76,260.257 1894.51,265.057 1904.26,270.591 1914.01,276.841 1923.76,283.79 1933.51,291.42 1943.26,299.707 1953.01,308.449 1962.76,317.549 1972.51,326.981 1982.26,336.669 1992.01,346.538 2001.76,356.513 2011.51,366.518 2021.26,376.478 2031.01,386.317 2040.76,395.96 2050.51,405.331 2060.26,414.356 2070.01,422.957 2079.76,431.061 2089.51,438.644 2099.26,445.885 2109.01,452.435 2118.76,458.258 2128.51,463.385 2138.26,467.85 2148.01,471.684 2157.76,474.921 2167.51,477.593 2177.26,479.732 2187.01,481.371 2196.76,482.543 2206.51,483.28 2216.26,483.614 2226.01,483.578 2235.76,483.205 2245.51,482.527 2255.26,481.577 2265.01,480.387 2274.76,479.062 2284.51,477.839 2294.26,476.648 "/>
<path clip-path="url(#clip740)" d="M354.668 297.974 L696.227 297.974 L696.227 142.454 L354.668 142.454  Z" fill="#ffffff" fill-rule="evenodd" fill-opacity="1"/>
<polyline clip-path="url(#clip740)" style="stroke:#000000; stroke-linecap:round; stroke-linejoin:round; stroke-width:4; stroke-opacity:1; fill:none" points="354.668,297.974 696.227,297.974 696.227,142.454 354.668,142.454 354.668,297.974 "/>
<polyline clip-path="url(#clip740)" style="stroke:#009af9; stroke-linecap:round; stroke-linejoin:round; stroke-width:4; stroke-opacity:1; fill:none" points="377.635,194.294 515.434,194.294 "/>
<path clip-path="url(#clip740)" d="M546.317 212.245 Q543.053 212.245 540.924 210.278 Q538.4 207.94 538.4 203.704 Q538.4 199.306 540.623 195.88 Q542.914 192.361 547.035 192.361 Q549.743 192.361 551.873 194.051 Q553.123 195.046 553.979 196.713 Q554.28 194.838 554.28 192.708 Q554.28 189.583 553.539 187.778 Q551.896 183.773 547.544 183.773 Q545.9 183.773 543.354 184.792 L543.354 180.903 Q546.039 180.185 548.447 180.185 Q554.65 180.185 557.289 185.88 Q558.516 188.565 558.516 192.569 Q558.516 195.185 557.937 198.218 Q556.479 205.81 552.706 209.421 Q549.743 212.245 546.317 212.245 M542.359 204.398 Q542.359 206.713 543.377 207.963 Q544.465 209.282 546.132 209.282 Q547.613 209.282 548.794 208.241 Q550.461 206.805 551.687 204.468 Q552.706 202.546 553.215 200.486 Q551.155 195.509 547.59 195.509 Q544.535 195.509 543.192 199.537 Q542.359 202.037 542.359 204.398 Z" fill="#000000" fill-rule="nonzero" fill-opacity="1" /><path clip-path="url(#clip740)" d="M566.178 192.94 L566.178 197.06 L571.71 197.06 L571.71 198.912 L566.178 198.912 L566.178 206.782 Q566.178 208.565 566.734 209.074 Q567.289 209.583 568.956 209.583 L571.71 209.583 L571.71 211.574 L568.956 211.574 Q565.854 211.574 564.673 210.532 Q563.493 209.514 563.493 206.782 L563.493 198.912 L561.525 198.912 L561.525 197.06 L563.493 197.06 L563.493 192.94 L566.178 192.94 Z" fill="#000000" fill-rule="nonzero" fill-opacity="1" /><path clip-path="url(#clip740)" d="M600.715 185.648 L591.34 198.264 L601.201 211.574 L596.178 211.574 L588.632 201.389 L581.085 211.574 L576.062 211.574 L586.132 198.009 L576.919 185.648 L581.942 185.648 L588.817 194.884 L595.692 185.648 L600.715 185.648 Z" fill="#000000" fill-rule="nonzero" fill-opacity="1" /><path clip-path="url(#clip740)" d="M589.187 173.658 L592.613 173.658 L598.284 182.361 L595.067 182.361 L590.9 176.69 L586.734 182.361 L583.516 182.361 L589.187 173.658 M590.9 185.023 L590.9 185.023 Z" fill="#000000" fill-rule="nonzero" fill-opacity="1" /><path clip-path="url(#clip740)" d="M606.363 209.028 L611.085 209.028 L611.085 194.884 L605.923 195.833 L605.923 193.148 L611.247 192.245 L614.419 192.245 L614.419 209.028 L619.164 209.028 L619.164 211.574 L606.363 211.574 L606.363 209.028 Z" fill="#000000" fill-rule="nonzero" fill-opacity="1" /><path clip-path="url(#clip740)" d="M636.455 175.602 Q633.354 180.926 631.849 186.134 Q630.344 191.343 630.344 196.69 Q630.344 202.037 631.849 207.292 Q633.377 212.523 636.455 217.824 L632.752 217.824 Q629.28 212.384 627.544 207.13 Q625.831 201.875 625.831 196.69 Q625.831 191.528 627.544 186.296 Q629.256 181.065 632.752 175.602 L636.455 175.602 Z" fill="#000000" fill-rule="nonzero" fill-opacity="1" /><path clip-path="url(#clip740)" d="M648.932 178.287 L648.932 185.648 L657.705 185.648 L657.705 188.958 L648.932 188.958 L648.932 203.032 Q648.932 206.204 649.789 207.106 Q650.668 208.009 653.33 208.009 L657.705 208.009 L657.705 211.574 L653.33 211.574 Q648.4 211.574 646.525 209.745 Q644.65 207.893 644.65 203.032 L644.65 188.958 L641.525 188.958 L641.525 185.648 L644.65 185.648 L644.65 178.287 L648.932 178.287 Z" fill="#000000" fill-rule="nonzero" fill-opacity="1" /><path clip-path="url(#clip740)" d="M662.636 175.602 L666.34 175.602 Q669.812 181.065 671.525 186.296 Q673.261 191.528 673.261 196.69 Q673.261 201.875 671.525 207.13 Q669.812 212.384 666.34 217.824 L662.636 217.824 Q665.715 212.523 667.219 207.292 Q668.747 202.037 668.747 196.69 Q668.747 191.343 667.219 186.134 Q665.715 180.926 662.636 175.602 Z" fill="#000000" fill-rule="nonzero" fill-opacity="1" /><polyline clip-path="url(#clip740)" style="stroke:#e26f46; stroke-linecap:round; stroke-linejoin:round; stroke-width:4; stroke-opacity:1; fill:none" points="377.635,246.134 515.434,246.134 "/>
<path clip-path="url(#clip740)" d="M546.317 264.085 Q543.053 264.085 540.924 262.118 Q538.4 259.78 538.4 255.544 Q538.4 251.146 540.623 247.72 Q542.914 244.201 547.035 244.201 Q549.743 244.201 551.873 245.891 Q553.123 246.886 553.979 248.553 Q554.28 246.678 554.28 244.548 Q554.28 241.423 553.539 239.618 Q551.896 235.613 547.544 235.613 Q545.9 235.613 543.354 236.632 L543.354 232.743 Q546.039 232.025 548.447 232.025 Q554.65 232.025 557.289 237.72 Q558.516 240.405 558.516 244.409 Q558.516 247.025 557.937 250.058 Q556.479 257.65 552.706 261.261 Q549.743 264.085 546.317 264.085 M542.359 256.238 Q542.359 258.553 543.377 259.803 Q544.465 261.122 546.132 261.122 Q547.613 261.122 548.794 260.081 Q550.461 258.645 551.687 256.308 Q552.706 254.386 553.215 252.326 Q551.155 247.349 547.59 247.349 Q544.535 247.349 543.192 251.377 Q542.359 253.877 542.359 256.238 Z" fill="#000000" fill-rule="nonzero" fill-opacity="1" /><path clip-path="url(#clip740)" d="M566.178 244.78 L566.178 248.9 L571.71 248.9 L571.71 250.752 L566.178 250.752 L566.178 258.622 Q566.178 260.405 566.734 260.914 Q567.289 261.423 568.956 261.423 L571.71 261.423 L571.71 263.414 L568.956 263.414 Q565.854 263.414 564.673 262.372 Q563.493 261.354 563.493 258.622 L563.493 250.752 L561.525 250.752 L561.525 248.9 L563.493 248.9 L563.493 244.78 L566.178 244.78 Z" fill="#000000" fill-rule="nonzero" fill-opacity="1" /><path clip-path="url(#clip740)" d="M600.715 237.488 L591.34 250.104 L601.201 263.414 L596.178 263.414 L588.632 253.229 L581.085 263.414 L576.062 263.414 L586.132 249.849 L576.919 237.488 L581.942 237.488 L588.817 246.724 L595.692 237.488 L600.715 237.488 Z" fill="#000000" fill-rule="nonzero" fill-opacity="1" /><path clip-path="url(#clip740)" d="M589.187 225.498 L592.613 225.498 L598.284 234.201 L595.067 234.201 L590.9 228.53 L586.734 234.201 L583.516 234.201 L589.187 225.498 M590.9 236.863 L590.9 236.863 Z" fill="#000000" fill-rule="nonzero" fill-opacity="1" /><path clip-path="url(#clip740)" d="M608.956 260.775 L618.77 260.775 L618.77 263.414 L604.928 263.414 L604.928 260.868 Q605.715 260.15 607.173 258.854 Q615.136 251.794 615.136 249.618 Q615.136 248.09 613.932 247.164 Q612.729 246.215 610.761 246.215 Q609.557 246.215 608.145 246.632 Q606.733 247.025 605.067 247.835 L605.067 244.988 Q606.849 244.34 608.377 244.016 Q609.928 243.692 611.247 243.692 Q614.604 243.692 616.618 245.22 Q618.632 246.747 618.632 249.247 Q618.632 252.465 610.97 259.039 Q609.673 260.15 608.956 260.775 Z" fill="#000000" fill-rule="nonzero" fill-opacity="1" /><path clip-path="url(#clip740)" d="M636.455 227.442 Q633.354 232.766 631.849 237.974 Q630.344 243.183 630.344 248.53 Q630.344 253.877 631.849 259.132 Q633.377 264.363 636.455 269.664 L632.752 269.664 Q629.28 264.224 627.544 258.97 Q625.831 253.715 625.831 248.53 Q625.831 243.368 627.544 238.136 Q629.256 232.905 632.752 227.442 L636.455 227.442 Z" fill="#000000" fill-rule="nonzero" fill-opacity="1" /><path clip-path="url(#clip740)" d="M648.932 230.127 L648.932 237.488 L657.705 237.488 L657.705 240.798 L648.932 240.798 L648.932 254.872 Q648.932 258.044 649.789 258.946 Q650.668 259.849 653.33 259.849 L657.705 259.849 L657.705 263.414 L653.33 263.414 Q648.4 263.414 646.525 261.585 Q644.65 259.733 644.65 254.872 L644.65 240.798 L641.525 240.798 L641.525 237.488 L644.65 237.488 L644.65 230.127 L648.932 230.127 Z" fill="#000000" fill-rule="nonzero" fill-opacity="1" /><path clip-path="url(#clip740)" d="M662.636 227.442 L666.34 227.442 Q669.812 232.905 671.525 238.136 Q673.261 243.368 673.261 248.53 Q673.261 253.715 671.525 258.97 Q669.812 264.224 666.34 269.664 L662.636 269.664 Q665.715 264.363 667.219 259.132 Q668.747 253.877 668.747 248.53 Q668.747 243.183 667.219 237.974 Q665.715 232.766 662.636 227.442 Z" fill="#000000" fill-rule="nonzero" fill-opacity="1" /><path clip-path="url(#clip740)" d="M285.769 1423.18 L2352.76 1423.18 L2352.76 853.724 L285.769 853.724  Z" fill="#ffffff" fill-rule="evenodd" fill-opacity="1"/>
<polyline clip-path="url(#clip741)" style="stroke:#000000; stroke-linecap:round; stroke-linejoin:round; stroke-width:2; stroke-opacity:0.1; fill:none" points="344.268,1423.18 344.268,853.724 "/>
<polyline clip-path="url(#clip741)" style="stroke:#000000; stroke-linecap:round; stroke-linejoin:round; stroke-width:2; stroke-opacity:0.1; fill:none" points="831.765,1423.18 831.765,853.724 "/>
<polyline clip-path="url(#clip741)" style="stroke:#000000; stroke-linecap:round; stroke-linejoin:round; stroke-width:2; stroke-opacity:0.1; fill:none" points="1319.26,1423.18 1319.26,853.724 "/>
<polyline clip-path="url(#clip741)" style="stroke:#000000; stroke-linecap:round; stroke-linejoin:round; stroke-width:2; stroke-opacity:0.1; fill:none" points="1806.76,1423.18 1806.76,853.724 "/>
<polyline clip-path="url(#clip741)" style="stroke:#000000; stroke-linecap:round; stroke-linejoin:round; stroke-width:2; stroke-opacity:0.1; fill:none" points="2294.26,1423.18 2294.26,853.724 "/>
<polyline clip-path="url(#clip741)" style="stroke:#000000; stroke-linecap:round; stroke-linejoin:round; stroke-width:2; stroke-opacity:0.1; fill:none" points="285.769,1420.98 2352.76,1420.98 "/>
<polyline clip-path="url(#clip741)" style="stroke:#000000; stroke-linecap:round; stroke-linejoin:round; stroke-width:2; stroke-opacity:0.1; fill:none" points="285.769,1266.23 2352.76,1266.23 "/>
<polyline clip-path="url(#clip741)" style="stroke:#000000; stroke-linecap:round; stroke-linejoin:round; stroke-width:2; stroke-opacity:0.1; fill:none" points="285.769,1111.49 2352.76,1111.49 "/>
<polyline clip-path="url(#clip741)" style="stroke:#000000; stroke-linecap:round; stroke-linejoin:round; stroke-width:2; stroke-opacity:0.1; fill:none" points="285.769,956.742 2352.76,956.742 "/>
<polyline clip-path="url(#clip740)" style="stroke:#000000; stroke-linecap:round; stroke-linejoin:round; stroke-width:4; stroke-opacity:1; fill:none" points="285.769,1423.18 2352.76,1423.18 "/>
<polyline clip-path="url(#clip740)" style="stroke:#000000; stroke-linecap:round; stroke-linejoin:round; stroke-width:4; stroke-opacity:1; fill:none" points="344.268,1423.18 344.268,1404.28 "/>
<polyline clip-path="url(#clip740)" style="stroke:#000000; stroke-linecap:round; stroke-linejoin:round; stroke-width:4; stroke-opacity:1; fill:none" points="831.765,1423.18 831.765,1404.28 "/>
<polyline clip-path="url(#clip740)" style="stroke:#000000; stroke-linecap:round; stroke-linejoin:round; stroke-width:4; stroke-opacity:1; fill:none" points="1319.26,1423.18 1319.26,1404.28 "/>
<polyline clip-path="url(#clip740)" style="stroke:#000000; stroke-linecap:round; stroke-linejoin:round; stroke-width:4; stroke-opacity:1; fill:none" points="1806.76,1423.18 1806.76,1404.28 "/>
<polyline clip-path="url(#clip740)" style="stroke:#000000; stroke-linecap:round; stroke-linejoin:round; stroke-width:4; stroke-opacity:1; fill:none" points="2294.26,1423.18 2294.26,1404.28 "/>
<path clip-path="url(#clip740)" d="M344.268 1454.1 Q340.657 1454.1 338.829 1457.66 Q337.023 1461.2 337.023 1468.33 Q337.023 1475.44 338.829 1479.01 Q340.657 1482.55 344.268 1482.55 Q347.903 1482.55 349.708 1479.01 Q351.537 1475.44 351.537 1468.33 Q351.537 1461.2 349.708 1457.66 Q347.903 1454.1 344.268 1454.1 M344.268 1450.39 Q350.078 1450.39 353.134 1455 Q356.213 1459.58 356.213 1468.33 Q356.213 1477.06 353.134 1481.67 Q350.078 1486.25 344.268 1486.25 Q338.458 1486.25 335.379 1481.67 Q332.324 1477.06 332.324 1468.33 Q332.324 1459.58 335.379 1455 Q338.458 1450.39 344.268 1450.39 Z" fill="#000000" fill-rule="nonzero" fill-opacity="1" /><path clip-path="url(#clip740)" d="M822.043 1451.02 L840.4 1451.02 L840.4 1454.96 L826.326 1454.96 L826.326 1463.43 Q827.344 1463.08 828.363 1462.92 Q829.381 1462.73 830.4 1462.73 Q836.187 1462.73 839.566 1465.9 Q842.946 1469.08 842.946 1474.49 Q842.946 1480.07 839.474 1483.17 Q836.001 1486.25 829.682 1486.25 Q827.506 1486.25 825.238 1485.88 Q822.992 1485.51 820.585 1484.77 L820.585 1480.07 Q822.668 1481.2 824.89 1481.76 Q827.113 1482.32 829.589 1482.32 Q833.594 1482.32 835.932 1480.21 Q838.27 1478.1 838.27 1474.49 Q838.27 1470.88 835.932 1468.77 Q833.594 1466.67 829.589 1466.67 Q827.714 1466.67 825.839 1467.08 Q823.988 1467.5 822.043 1468.38 L822.043 1451.02 Z" fill="#000000" fill-rule="nonzero" fill-opacity="1" /><path clip-path="url(#clip740)" d="M1293.95 1481.64 L1301.59 1481.64 L1301.59 1455.28 L1293.28 1456.95 L1293.28 1452.69 L1301.54 1451.02 L1306.22 1451.02 L1306.22 1481.64 L1313.86 1481.64 L1313.86 1485.58 L1293.95 1485.58 L1293.95 1481.64 Z" fill="#000000" fill-rule="nonzero" fill-opacity="1" /><path clip-path="url(#clip740)" d="M1333.3 1454.1 Q1329.69 1454.1 1327.86 1457.66 Q1326.06 1461.2 1326.06 1468.33 Q1326.06 1475.44 1327.86 1479.01 Q1329.69 1482.55 1333.3 1482.55 Q1336.94 1482.55 1338.74 1479.01 Q1340.57 1475.44 1340.57 1468.33 Q1340.57 1461.2 1338.74 1457.66 Q1336.94 1454.1 1333.3 1454.1 M1333.3 1450.39 Q1339.11 1450.39 1342.17 1455 Q1345.25 1459.58 1345.25 1468.33 Q1345.25 1477.06 1342.17 1481.67 Q1339.11 1486.25 1333.3 1486.25 Q1327.49 1486.25 1324.41 1481.67 Q1321.36 1477.06 1321.36 1468.33 Q1321.36 1459.58 1324.41 1455 Q1327.49 1450.39 1333.3 1450.39 Z" fill="#000000" fill-rule="nonzero" fill-opacity="1" /><path clip-path="url(#clip740)" d="M1781.94 1481.64 L1789.58 1481.64 L1789.58 1455.28 L1781.27 1456.95 L1781.27 1452.69 L1789.54 1451.02 L1794.21 1451.02 L1794.21 1481.64 L1801.85 1481.64 L1801.85 1485.58 L1781.94 1485.58 L1781.94 1481.64 Z" fill="#000000" fill-rule="nonzero" fill-opacity="1" /><path clip-path="url(#clip740)" d="M1811.34 1451.02 L1829.7 1451.02 L1829.7 1454.96 L1815.62 1454.96 L1815.62 1463.43 Q1816.64 1463.08 1817.66 1462.92 Q1818.68 1462.73 1819.7 1462.73 Q1825.49 1462.73 1828.87 1465.9 Q1832.25 1469.08 1832.25 1474.49 Q1832.25 1480.07 1828.77 1483.17 Q1825.3 1486.25 1818.98 1486.25 Q1816.81 1486.25 1814.54 1485.88 Q1812.29 1485.51 1809.88 1484.77 L1809.88 1480.07 Q1811.97 1481.2 1814.19 1481.76 Q1816.41 1482.32 1818.89 1482.32 Q1822.89 1482.32 1825.23 1480.21 Q1827.57 1478.1 1827.57 1474.49 Q1827.57 1470.88 1825.23 1468.77 Q1822.89 1466.67 1818.89 1466.67 Q1817.01 1466.67 1815.14 1467.08 Q1813.29 1467.5 1811.34 1468.38 L1811.34 1451.02 Z" fill="#000000" fill-rule="nonzero" fill-opacity="1" /><path clip-path="url(#clip740)" d="M2273.03 1481.64 L2289.35 1481.64 L2289.35 1485.58 L2267.4 1485.58 L2267.4 1481.64 Q2270.07 1478.89 2274.65 1474.26 Q2279.26 1469.61 2280.44 1468.27 Q2282.68 1465.74 2283.56 1464.01 Q2284.46 1462.25 2284.46 1460.56 Q2284.46 1457.8 2282.52 1456.07 Q2280.6 1454.33 2277.5 1454.33 Q2275.3 1454.33 2272.84 1455.09 Q2270.41 1455.86 2267.64 1457.41 L2267.64 1452.69 Q2270.46 1451.55 2272.91 1450.97 Q2275.37 1450.39 2277.4 1450.39 Q2282.77 1450.39 2285.97 1453.08 Q2289.16 1455.77 2289.16 1460.26 Q2289.16 1462.39 2288.35 1464.31 Q2287.57 1466.2 2285.46 1468.8 Q2284.88 1469.47 2281.78 1472.69 Q2278.68 1475.88 2273.03 1481.64 Z" fill="#000000" fill-rule="nonzero" fill-opacity="1" /><path clip-path="url(#clip740)" d="M2309.16 1454.1 Q2305.55 1454.1 2303.72 1457.66 Q2301.92 1461.2 2301.92 1468.33 Q2301.92 1475.44 2303.72 1479.01 Q2305.55 1482.55 2309.16 1482.55 Q2312.8 1482.55 2314.6 1479.01 Q2316.43 1475.44 2316.43 1468.33 Q2316.43 1461.2 2314.6 1457.66 Q2312.8 1454.1 2309.16 1454.1 M2309.16 1450.39 Q2314.97 1450.39 2318.03 1455 Q2321.11 1459.58 2321.11 1468.33 Q2321.11 1477.06 2318.03 1481.67 Q2314.97 1486.25 2309.16 1486.25 Q2303.35 1486.25 2300.27 1481.67 Q2297.22 1477.06 2297.22 1468.33 Q2297.22 1459.58 2300.27 1455 Q2303.35 1450.39 2309.16 1450.39 Z" fill="#000000" fill-rule="nonzero" fill-opacity="1" /><path clip-path="url(#clip740)" d="M1318.32 1522.27 L1318.32 1532.4 L1330.39 1532.4 L1330.39 1536.95 L1318.32 1536.95 L1318.32 1556.3 Q1318.32 1560.66 1319.5 1561.9 Q1320.71 1563.14 1324.37 1563.14 L1330.39 1563.14 L1330.39 1568.04 L1324.37 1568.04 Q1317.59 1568.04 1315.01 1565.53 Q1312.44 1562.98 1312.44 1556.3 L1312.44 1536.95 L1308.14 1536.95 L1308.14 1532.4 L1312.44 1532.4 L1312.44 1522.27 L1318.32 1522.27 Z" fill="#000000" fill-rule="nonzero" fill-opacity="1" /><polyline clip-path="url(#clip740)" style="stroke:#000000; stroke-linecap:round; stroke-linejoin:round; stroke-width:4; stroke-opacity:1; fill:none" points="285.769,1423.18 285.769,853.724 "/>
<polyline clip-path="url(#clip740)" style="stroke:#000000; stroke-linecap:round; stroke-linejoin:round; stroke-width:4; stroke-opacity:1; fill:none" points="285.769,1420.98 304.666,1420.98 "/>
<polyline clip-path="url(#clip740)" style="stroke:#000000; stroke-linecap:round; stroke-linejoin:round; stroke-width:4; stroke-opacity:1; fill:none" points="285.769,1266.23 304.666,1266.23 "/>
<polyline clip-path="url(#clip740)" style="stroke:#000000; stroke-linecap:round; stroke-linejoin:round; stroke-width:4; stroke-opacity:1; fill:none" points="285.769,1111.49 304.666,1111.49 "/>
<polyline clip-path="url(#clip740)" style="stroke:#000000; stroke-linecap:round; stroke-linejoin:round; stroke-width:4; stroke-opacity:1; fill:none" points="285.769,956.742 304.666,956.742 "/>
<path clip-path="url(#clip740)" d="M114.26 1421.43 L143.936 1421.43 L143.936 1425.36 L114.26 1425.36 L114.26 1421.43 Z" fill="#000000" fill-rule="nonzero" fill-opacity="1" /><path clip-path="url(#clip740)" d="M164.028 1406.78 Q160.417 1406.78 158.589 1410.34 Q156.783 1413.88 156.783 1421.01 Q156.783 1428.12 158.589 1431.68 Q160.417 1435.23 164.028 1435.23 Q167.663 1435.23 169.468 1431.68 Q171.297 1428.12 171.297 1421.01 Q171.297 1413.88 169.468 1410.34 Q167.663 1406.78 164.028 1406.78 M164.028 1403.07 Q169.839 1403.07 172.894 1407.68 Q175.973 1412.26 175.973 1421.01 Q175.973 1429.74 172.894 1434.35 Q169.839 1438.93 164.028 1438.93 Q158.218 1438.93 155.14 1434.35 Q152.084 1429.74 152.084 1421.01 Q152.084 1412.26 155.14 1407.68 Q158.218 1403.07 164.028 1403.07 Z" fill="#000000" fill-rule="nonzero" fill-opacity="1" /><path clip-path="url(#clip740)" d="M184.19 1432.38 L189.075 1432.38 L189.075 1438.26 L184.19 1438.26 L184.19 1432.38 Z" fill="#000000" fill-rule="nonzero" fill-opacity="1" /><path clip-path="url(#clip740)" d="M209.26 1406.78 Q205.649 1406.78 203.82 1410.34 Q202.014 1413.88 202.014 1421.01 Q202.014 1428.12 203.82 1431.68 Q205.649 1435.23 209.26 1435.23 Q212.894 1435.23 214.699 1431.68 Q216.528 1428.12 216.528 1421.01 Q216.528 1413.88 214.699 1410.34 Q212.894 1406.78 209.26 1406.78 M209.26 1403.07 Q215.07 1403.07 218.125 1407.68 Q221.204 1412.26 221.204 1421.01 Q221.204 1429.74 218.125 1434.35 Q215.07 1438.93 209.26 1438.93 Q203.449 1438.93 200.371 1434.35 Q197.315 1429.74 197.315 1421.01 Q197.315 1412.26 200.371 1407.68 Q203.449 1403.07 209.26 1403.07 Z" fill="#000000" fill-rule="nonzero" fill-opacity="1" /><path clip-path="url(#clip740)" d="M233.449 1434.32 L249.769 1434.32 L249.769 1438.26 L227.824 1438.26 L227.824 1434.32 Q230.486 1431.57 235.07 1426.94 Q239.676 1422.29 240.857 1420.94 Q243.102 1418.42 243.982 1416.68 Q244.884 1414.92 244.884 1413.24 Q244.884 1410.48 242.94 1408.74 Q241.019 1407.01 237.917 1407.01 Q235.718 1407.01 233.264 1407.77 Q230.834 1408.54 228.056 1410.09 L228.056 1405.36 Q230.88 1404.23 233.334 1403.65 Q235.787 1403.07 237.824 1403.07 Q243.195 1403.07 246.389 1405.76 Q249.584 1408.44 249.584 1412.93 Q249.584 1415.06 248.773 1416.99 Q247.986 1418.88 245.88 1421.48 Q245.301 1422.15 242.199 1425.36 Q239.097 1428.56 233.449 1434.32 Z" fill="#000000" fill-rule="nonzero" fill-opacity="1" /><path clip-path="url(#clip740)" d="M162.431 1252.03 Q158.82 1252.03 156.991 1255.6 Q155.186 1259.14 155.186 1266.27 Q155.186 1273.37 156.991 1276.94 Q158.82 1280.48 162.431 1280.48 Q166.065 1280.48 167.871 1276.94 Q169.7 1273.37 169.7 1266.27 Q169.7 1259.14 167.871 1255.6 Q166.065 1252.03 162.431 1252.03 M162.431 1248.33 Q168.241 1248.33 171.297 1252.93 Q174.376 1257.52 174.376 1266.27 Q174.376 1274.99 171.297 1279.6 Q168.241 1284.18 162.431 1284.18 Q156.621 1284.18 153.542 1279.6 Q150.487 1274.99 150.487 1266.27 Q150.487 1257.52 153.542 1252.93 Q156.621 1248.33 162.431 1248.33 Z" fill="#000000" fill-rule="nonzero" fill-opacity="1" /><path clip-path="url(#clip740)" d="M182.593 1277.63 L187.477 1277.63 L187.477 1283.51 L182.593 1283.51 L182.593 1277.63 Z" fill="#000000" fill-rule="nonzero" fill-opacity="1" /><path clip-path="url(#clip740)" d="M207.662 1252.03 Q204.051 1252.03 202.223 1255.6 Q200.417 1259.14 200.417 1266.27 Q200.417 1273.37 202.223 1276.94 Q204.051 1280.48 207.662 1280.48 Q211.297 1280.48 213.102 1276.94 Q214.931 1273.37 214.931 1266.27 Q214.931 1259.14 213.102 1255.6 Q211.297 1252.03 207.662 1252.03 M207.662 1248.33 Q213.473 1248.33 216.528 1252.93 Q219.607 1257.52 219.607 1266.27 Q219.607 1274.99 216.528 1279.6 Q213.473 1284.18 207.662 1284.18 Q201.852 1284.18 198.774 1279.6 Q195.718 1274.99 195.718 1266.27 Q195.718 1257.52 198.774 1252.93 Q201.852 1248.33 207.662 1248.33 Z" fill="#000000" fill-rule="nonzero" fill-opacity="1" /><path clip-path="url(#clip740)" d="M237.824 1252.03 Q234.213 1252.03 232.385 1255.6 Q230.579 1259.14 230.579 1266.27 Q230.579 1273.37 232.385 1276.94 Q234.213 1280.48 237.824 1280.48 Q241.459 1280.48 243.264 1276.94 Q245.093 1273.37 245.093 1266.27 Q245.093 1259.14 243.264 1255.6 Q241.459 1252.03 237.824 1252.03 M237.824 1248.33 Q243.634 1248.33 246.69 1252.93 Q249.769 1257.52 249.769 1266.27 Q249.769 1274.99 246.69 1279.6 Q243.634 1284.18 237.824 1284.18 Q232.014 1284.18 228.935 1279.6 Q225.88 1274.99 225.88 1266.27 Q225.88 1257.52 228.935 1252.93 Q232.014 1248.33 237.824 1248.33 Z" fill="#000000" fill-rule="nonzero" fill-opacity="1" /><path clip-path="url(#clip740)" d="M164.028 1097.29 Q160.417 1097.29 158.589 1100.85 Q156.783 1104.39 156.783 1111.52 Q156.783 1118.63 158.589 1122.19 Q160.417 1125.73 164.028 1125.73 Q167.663 1125.73 169.468 1122.19 Q171.297 1118.63 171.297 1111.52 Q171.297 1104.39 169.468 1100.85 Q167.663 1097.29 164.028 1097.29 M164.028 1093.58 Q169.839 1093.58 172.894 1098.19 Q175.973 1102.77 175.973 1111.52 Q175.973 1120.25 172.894 1124.86 Q169.839 1129.44 164.028 1129.44 Q158.218 1129.44 155.14 1124.86 Q152.084 1120.25 152.084 1111.52 Q152.084 1102.77 155.14 1098.19 Q158.218 1093.58 164.028 1093.58 Z" fill="#000000" fill-rule="nonzero" fill-opacity="1" /><path clip-path="url(#clip740)" d="M184.19 1122.89 L189.075 1122.89 L189.075 1128.77 L184.19 1128.77 L184.19 1122.89 Z" fill="#000000" fill-rule="nonzero" fill-opacity="1" /><path clip-path="url(#clip740)" d="M209.26 1097.29 Q205.649 1097.29 203.82 1100.85 Q202.014 1104.39 202.014 1111.52 Q202.014 1118.63 203.82 1122.19 Q205.649 1125.73 209.26 1125.73 Q212.894 1125.73 214.699 1122.19 Q216.528 1118.63 216.528 1111.52 Q216.528 1104.39 214.699 1100.85 Q212.894 1097.29 209.26 1097.29 M209.26 1093.58 Q215.07 1093.58 218.125 1098.19 Q221.204 1102.77 221.204 1111.52 Q221.204 1120.25 218.125 1124.86 Q215.07 1129.44 209.26 1129.44 Q203.449 1129.44 200.371 1124.86 Q197.315 1120.25 197.315 1111.52 Q197.315 1102.77 200.371 1098.19 Q203.449 1093.58 209.26 1093.58 Z" fill="#000000" fill-rule="nonzero" fill-opacity="1" /><path clip-path="url(#clip740)" d="M233.449 1124.83 L249.769 1124.83 L249.769 1128.77 L227.824 1128.77 L227.824 1124.83 Q230.486 1122.08 235.07 1117.45 Q239.676 1112.79 240.857 1111.45 Q243.102 1108.93 243.982 1107.19 Q244.884 1105.43 244.884 1103.74 Q244.884 1100.99 242.94 1099.25 Q241.019 1097.52 237.917 1097.52 Q235.718 1097.52 233.264 1098.28 Q230.834 1099.04 228.056 1100.6 L228.056 1095.87 Q230.88 1094.74 233.334 1094.16 Q235.787 1093.58 237.824 1093.58 Q243.195 1093.58 246.389 1096.27 Q249.584 1098.95 249.584 1103.44 Q249.584 1105.57 248.773 1107.49 Q247.986 1109.39 245.88 1111.98 Q245.301 1112.66 242.199 1115.87 Q239.097 1119.07 233.449 1124.83 Z" fill="#000000" fill-rule="nonzero" fill-opacity="1" /><path clip-path="url(#clip740)" d="M161.945 942.54 Q158.334 942.54 156.505 946.105 Q154.7 949.647 154.7 956.776 Q154.7 963.883 156.505 967.447 Q158.334 970.989 161.945 970.989 Q165.579 970.989 167.385 967.447 Q169.214 963.883 169.214 956.776 Q169.214 949.647 167.385 946.105 Q165.579 942.54 161.945 942.54 M161.945 938.837 Q167.755 938.837 170.811 943.443 Q173.889 948.026 173.889 956.776 Q173.889 965.503 170.811 970.109 Q167.755 974.693 161.945 974.693 Q156.135 974.693 153.056 970.109 Q150.001 965.503 150.001 956.776 Q150.001 948.026 153.056 943.443 Q156.135 938.837 161.945 938.837 Z" fill="#000000" fill-rule="nonzero" fill-opacity="1" /><path clip-path="url(#clip740)" d="M182.107 968.142 L186.991 968.142 L186.991 974.022 L182.107 974.022 L182.107 968.142 Z" fill="#000000" fill-rule="nonzero" fill-opacity="1" /><path clip-path="url(#clip740)" d="M207.176 942.54 Q203.565 942.54 201.737 946.105 Q199.931 949.647 199.931 956.776 Q199.931 963.883 201.737 967.447 Q203.565 970.989 207.176 970.989 Q210.811 970.989 212.616 967.447 Q214.445 963.883 214.445 956.776 Q214.445 949.647 212.616 946.105 Q210.811 942.54 207.176 942.54 M207.176 938.837 Q212.986 938.837 216.042 943.443 Q219.121 948.026 219.121 956.776 Q219.121 965.503 216.042 970.109 Q212.986 974.693 207.176 974.693 Q201.366 974.693 198.287 970.109 Q195.232 965.503 195.232 956.776 Q195.232 948.026 198.287 943.443 Q201.366 938.837 207.176 938.837 Z" fill="#000000" fill-rule="nonzero" fill-opacity="1" /><path clip-path="url(#clip740)" d="M240.185 943.536 L228.38 961.985 L240.185 961.985 L240.185 943.536 M238.959 939.462 L244.838 939.462 L244.838 961.985 L249.769 961.985 L249.769 965.873 L244.838 965.873 L244.838 974.022 L240.185 974.022 L240.185 965.873 L224.584 965.873 L224.584 961.36 L238.959 939.462 Z" fill="#000000" fill-rule="nonzero" fill-opacity="1" /><path clip-path="url(#clip740)" d="M64.9272 1302.94 Q64.9272 1307.43 62.2218 1310.36 Q59.0071 1313.83 53.1825 1313.83 Q47.135 1313.83 42.4244 1310.77 Q37.5865 1307.62 37.5865 1301.96 Q37.5865 1298.23 39.91 1295.3 Q41.2786 1293.58 43.5702 1292.41 Q40.9921 1291.99 38.0639 1291.99 Q33.7671 1291.99 31.2844 1293.01 Q25.7781 1295.27 25.7781 1301.25 Q25.7781 1303.51 27.1785 1307.02 L21.8314 1307.02 Q20.8447 1303.32 20.8447 1300.01 Q20.8447 1291.48 28.6745 1287.86 Q32.3666 1286.17 37.8729 1286.17 Q41.4696 1286.17 45.6391 1286.96 Q56.0789 1288.97 61.0441 1294.16 Q64.9272 1298.23 64.9272 1302.94 M54.1373 1308.38 Q57.3202 1308.38 59.0389 1306.98 Q60.8531 1305.49 60.8531 1303.2 Q60.8531 1301.16 59.4208 1299.54 Q57.4475 1297.24 54.2328 1295.56 Q51.591 1294.16 48.7583 1293.46 Q41.9152 1296.29 41.9152 1301.19 Q41.9152 1305.39 47.4533 1307.24 Q50.8908 1308.38 54.1373 1308.38 Z" fill="#000000" fill-rule="nonzero" fill-opacity="1" /><path clip-path="url(#clip740)" d="M38.3822 1275.63 L44.0477 1275.63 L44.0477 1268.03 L46.5939 1268.03 L46.5939 1275.63 L57.4157 1275.63 Q59.8664 1275.63 60.5667 1274.87 Q61.2669 1274.11 61.2669 1271.81 L61.2669 1268.03 L64.0042 1268.03 L64.0042 1271.81 Q64.0042 1276.08 62.5719 1277.7 Q61.1714 1279.33 57.4157 1279.33 L46.5939 1279.33 L46.5939 1282.03 L44.0477 1282.03 L44.0477 1279.33 L38.3822 1279.33 L38.3822 1275.63 Z" fill="#000000" fill-rule="nonzero" fill-opacity="1" /><path clip-path="url(#clip740)" d="M28.3562 1228.14 L45.7028 1241.04 L64.0042 1227.48 L64.0042 1234.38 L49.9996 1244.76 L64.0042 1255.14 L64.0042 1262.04 L45.3526 1248.2 L28.3562 1260.86 L28.3562 1253.96 L41.0558 1244.5 L28.3562 1235.05 L28.3562 1228.14 Z" fill="#000000" fill-rule="nonzero" fill-opacity="1" /><path clip-path="url(#clip740)" d="M14.5426 1205.13 Q21.8632 1209.4 29.0246 1211.47 Q36.186 1213.54 43.5384 1213.54 Q50.8908 1213.54 58.1159 1211.47 Q65.3091 1209.37 72.5979 1205.13 L72.5979 1210.23 Q65.1182 1215 57.8931 1217.39 Q50.668 1219.74 43.5384 1219.74 Q36.4406 1219.74 29.2474 1217.39 Q22.0542 1215.03 14.5426 1210.23 L14.5426 1205.13 Z" fill="#000000" fill-rule="nonzero" fill-opacity="1" /><path clip-path="url(#clip740)" d="M18.2347 1187.98 L28.3562 1187.98 L28.3562 1175.91 L32.9077 1175.91 L32.9077 1187.98 L52.2594 1187.98 Q56.6199 1187.98 57.8613 1186.8 Q59.1026 1185.59 59.1026 1181.93 L59.1026 1175.91 L64.0042 1175.91 L64.0042 1181.93 Q64.0042 1188.71 61.4897 1191.29 Q58.9434 1193.87 52.2594 1193.87 L32.9077 1193.87 L32.9077 1198.16 L28.3562 1198.16 L28.3562 1193.87 L18.2347 1193.87 L18.2347 1187.98 Z" fill="#000000" fill-rule="nonzero" fill-opacity="1" /><path clip-path="url(#clip740)" d="M14.5426 1169.13 L14.5426 1164.04 Q22.0542 1159.27 29.2474 1156.91 Q36.4406 1154.53 43.5384 1154.53 Q50.668 1154.53 57.8931 1156.91 Q65.1182 1159.27 72.5979 1164.04 L72.5979 1169.13 Q65.3091 1164.9 58.1159 1162.83 Q50.8908 1160.73 43.5384 1160.73 Q36.186 1160.73 29.0246 1162.83 Q21.8632 1164.9 14.5426 1169.13 Z" fill="#000000" fill-rule="nonzero" fill-opacity="1" /><path clip-path="url(#clip740)" d="M43.5384 1145.74 L43.5384 1128.59 L48.7583 1128.59 L48.7583 1145.74 L43.5384 1145.74 Z" fill="#000000" fill-rule="nonzero" fill-opacity="1" /><path clip-path="url(#clip740)" d="M64.9272 1111.49 Q64.9272 1115.98 62.2218 1118.91 Q59.0071 1122.38 53.1825 1122.38 Q47.135 1122.38 42.4244 1119.32 Q37.5865 1116.17 37.5865 1110.51 Q37.5865 1106.78 39.91 1103.85 Q41.2786 1102.14 43.5702 1100.96 Q40.9921 1100.54 38.0639 1100.54 Q33.7671 1100.54 31.2844 1101.56 Q25.7781 1103.82 25.7781 1109.81 Q25.7781 1112.07 27.1785 1115.57 L21.8314 1115.57 Q20.8447 1111.88 20.8447 1108.56 Q20.8447 1100.03 28.6745 1096.41 Q32.3666 1094.72 37.8729 1094.72 Q41.4696 1094.72 45.6391 1095.52 Q56.0789 1097.52 61.0441 1102.71 Q64.9272 1106.78 64.9272 1111.49 M54.1373 1116.94 Q57.3202 1116.94 59.0389 1115.54 Q60.8531 1114.04 60.8531 1111.75 Q60.8531 1109.71 59.4208 1108.09 Q57.4475 1105.8 54.2328 1104.11 Q51.591 1102.71 48.7583 1102.01 Q41.9152 1104.84 41.9152 1109.74 Q41.9152 1113.94 47.4533 1115.79 Q50.8908 1116.94 54.1373 1116.94 Z" fill="#000000" fill-rule="nonzero" fill-opacity="1" /><path clip-path="url(#clip740)" d="M38.3822 1084.18 L44.0477 1084.18 L44.0477 1076.58 L46.5939 1076.58 L46.5939 1084.18 L57.4157 1084.18 Q59.8664 1084.18 60.5667 1083.42 Q61.2669 1082.66 61.2669 1080.36 L61.2669 1076.58 L64.0042 1076.58 L64.0042 1080.36 Q64.0042 1084.63 62.5719 1086.25 Q61.1714 1087.88 57.4157 1087.88 L46.5939 1087.88 L46.5939 1090.58 L44.0477 1090.58 L44.0477 1087.88 L38.3822 1087.88 L38.3822 1084.18 Z" fill="#000000" fill-rule="nonzero" fill-opacity="1" /><path clip-path="url(#clip740)" d="M28.3562 1036.7 L45.7028 1049.59 L64.0042 1036.03 L64.0042 1042.93 L49.9996 1053.31 L64.0042 1063.69 L64.0042 1070.59 L45.3526 1056.75 L28.3562 1069.42 L28.3562 1062.51 L41.0558 1053.06 L28.3562 1043.6 L28.3562 1036.7 Z" fill="#000000" fill-rule="nonzero" fill-opacity="1" /><path clip-path="url(#clip740)" d="M11.869 1052.55 L11.869 1047.84 L23.8365 1040.04 L23.8365 1044.46 L16.0386 1050.19 L23.8365 1055.92 L23.8365 1060.34 L11.869 1052.55 M27.4968 1050.19 L27.4968 1050.19 Z" fill="#000000" fill-rule="nonzero" fill-opacity="1" /><path clip-path="url(#clip740)" d="M14.5426 1013.68 Q21.8632 1017.95 29.0246 1020.02 Q36.186 1022.09 43.5384 1022.09 Q50.8908 1022.09 58.1159 1020.02 Q65.3091 1017.92 72.5979 1013.68 L72.5979 1018.78 Q65.1182 1023.55 57.8931 1025.94 Q50.668 1028.29 43.5384 1028.29 Q36.4406 1028.29 29.2474 1025.94 Q22.0542 1023.58 14.5426 1018.78 L14.5426 1013.68 Z" fill="#000000" fill-rule="nonzero" fill-opacity="1" /><path clip-path="url(#clip740)" d="M18.2347 996.529 L28.3562 996.529 L28.3562 984.466 L32.9077 984.466 L32.9077 996.529 L52.2594 996.529 Q56.6199 996.529 57.8613 995.351 Q59.1026 994.141 59.1026 990.481 L59.1026 984.466 L64.0042 984.466 L64.0042 990.481 Q64.0042 997.261 61.4897 999.839 Q58.9434 1002.42 52.2594 1002.42 L32.9077 1002.42 L32.9077 1006.71 L28.3562 1006.71 L28.3562 1002.42 L18.2347 1002.42 L18.2347 996.529 Z" fill="#000000" fill-rule="nonzero" fill-opacity="1" /><path clip-path="url(#clip740)" d="M14.5426 977.686 L14.5426 972.593 Q22.0542 967.819 29.2474 965.464 Q36.4406 963.077 43.5384 963.077 Q50.668 963.077 57.8931 965.464 Q65.1182 967.819 72.5979 972.593 L72.5979 977.686 Q65.3091 973.453 58.1159 971.384 Q50.8908 969.283 43.5384 969.283 Q36.186 969.283 29.0246 971.384 Q21.8632 973.453 14.5426 977.686 Z" fill="#000000" fill-rule="nonzero" fill-opacity="1" /><polyline clip-path="url(#clip741)" style="stroke:#009af9; stroke-linecap:round; stroke-linejoin:round; stroke-width:4; stroke-opacity:1; fill:none" points="344.268,869.841 354.018,1358.09 363.768,1340.23 373.518,1323.42 383.268,1307.71 393.018,1293.29 402.768,1280.3 412.518,1268.88 422.268,1259.03 432.018,1250.8 441.768,1244.4 451.518,1239.74 461.268,1236.77 471.018,1235.58 480.767,1236.17 490.517,1238.41 500.267,1242.36 510.017,1247.54 519.767,1253.68 529.517,1261.18 539.267,1270.13 549.017,1280.24 558.767,1290.8 568.517,1302.31 578.267,1314.18 588.017,1324.55 597.767,1334.42 607.517,1344.44 617.267,1354.87 627.017,1365.58 636.767,1376.06 646.516,1385.45 656.266,1392.55 666.016,1397.34 675.766,1401.96 685.516,1405.15 695.266,1406.87 705.016,1407.06 714.766,1405.66 724.516,1402.65 734.266,1398.09 744.016,1392.25 753.766,1383.87 763.516,1373.3 773.266,1364.56 783.016,1356.32 792.766,1347.39 802.515,1336.9 812.265,1324.4 822.015,1309.85 831.765,1293.65 841.515,1276.7 851.265,1260.38 861.015,1246.58 870.765,1236.96 880.515,1224.9 890.265,1213.55 900.015,1204.12 909.765,1196.04 919.515,1189.01 929.265,1182.93 939.015,1177.85 948.765,1173.97 958.515,1171.53 968.264,1170.82 978.014,1172.05 987.764,1176.14 997.514,1183.21 1007.26,1188.48 1017.01,1193.01 1026.76,1198.15 1036.51,1204.95 1046.26,1214.11 1056.01,1225.94 1065.76,1240.3 1075.51,1256.56 1085.26,1273.58 1095.01,1289.67 1104.76,1302.56 1114.51,1310.36 1124.26,1322.61 1134.01,1334.24 1143.76,1343.42 1153.51,1351.13 1163.26,1358.01 1173.01,1364.42 1182.76,1370.42 1192.51,1375.86 1202.26,1380.39 1212.01,1383.49 1221.76,1384.58 1231.51,1383 1241.26,1378.1 1251.01,1370.44 1260.76,1363.75 1270.51,1357.71 1280.26,1351.2 1290.01,1343.32 1299.76,1333.47 1309.51,1321.37 1319.26,1307.14 1329.01,1291.3 1338.76,1274.85 1348.51,1259.24 1358.26,1246.45 1368.01,1236.03 1377.76,1221.51 1387.51,1209.74 1397.26,1200.25 1407.01,1192.14 1416.76,1184.81 1426.51,1177.9 1436.26,1171.32 1446.01,1165.17 1455.76,1159.72 1465.51,1155.35 1475.26,1152.54 1485.01,1151.75 1494.76,1153.44 1504.51,1157.98 1514.26,1165.57 1524.01,1176.6 1533.76,1186.81 1543.51,1194.9 1553.26,1202.4 1563.01,1210.51 1572.76,1220.13 1582.51,1231.76 1592.26,1245.51 1602.01,1261.08 1611.76,1277.67 1621.51,1294.06 1631.26,1308.53 1641.01,1318.9 1650.76,1327.13 1660.51,1338.42 1670.26,1347.89 1680.01,1355.83 1689.76,1362.48 1699.51,1367.86 1709.26,1371.89 1719.01,1374.41 1728.76,1375.2 1738.51,1374.1 1748.26,1371 1758.01,1365.95 1767.76,1359.19 1777.51,1351.21 1787.26,1342.82 1797.01,1335.22 1806.76,1324.55 1816.51,1309.53 1826.26,1298.79 1836.01,1290.38 1845.76,1282.54 1855.51,1273.96 1865.26,1263.74 1875.01,1251.43 1884.76,1237.07 1894.51,1221.14 1904.26,1204.62 1914.01,1188.92 1923.76,1175.9 1933.51,1167.83 1943.26,1167.11 1953.01,1165.74 1962.76,1161.99 1972.51,1158.78 1982.26,1156.49 1992.01,1155.59 2001.76,1156.5 2011.51,1159.6 2021.26,1165.15 2031.01,1173.2 2040.76,1183.58 2050.51,1195.82 2060.26,1209.07 2070.01,1222.12 2079.76,1233.25 2089.51,1242.78 2099.26,1261.55 2109.01,1276.09 2118.76,1285.76 2128.51,1292.63 2138.26,1298.35 2148.01,1304.23 2157.76,1311.18 2167.51,1319.72 2177.26,1330.04 2187.01,1341.97 2196.76,1355.01 2206.51,1368.4 2216.26,1381.11 2226.01,1391.91 2235.76,1399.41 2245.51,1402.12 2255.26,1398.46 2265.01,1386.88 2274.76,1371.18 2284.51,1364.07 2294.26,1356.31 "/>
<polyline clip-path="url(#clip741)" style="stroke:#e26f46; stroke-linecap:round; stroke-linejoin:round; stroke-width:4; stroke-opacity:1; fill:none" points="344.268,1184.86 354.018,1300.03 363.768,1291.77 373.518,1283.99 383.268,1276.72 393.018,1270.05 402.768,1264.06 412.518,1258.86 422.268,1254.38 432.018,1250.68 441.768,1247.86 451.518,1245.89 461.268,1244.78 471.018,1244.52 480.767,1245.11 490.517,1246.5 500.267,1248.73 510.017,1251.58 519.767,1254.92 529.517,1258.92 539.267,1263.62 549.017,1268.88 558.767,1274.36 568.517,1280.36 578.267,1286.53 588.017,1291.9 597.767,1297.01 607.517,1302.19 617.267,1307.58 627.017,1313.13 636.767,1318.58 646.516,1323.49 656.266,1327.24 666.016,1329.85 675.766,1332.36 685.516,1334.11 695.266,1335.11 705.016,1335.37 714.766,1334.86 724.516,1333.56 734.266,1331.49 744.016,1328.73 753.766,1324.58 763.516,1319.28 773.266,1315 783.016,1311.04 792.766,1306.76 802.515,1301.72 812.265,1295.66 822.015,1288.55 831.765,1280.56 841.515,1272.15 851.265,1264 861.015,1257.04 870.765,1252.12 880.515,1245.87 890.265,1240.16 900.015,1235.54 909.765,1231.64 919.515,1228.21 929.265,1225.17 939.015,1222.53 948.765,1220.4 958.515,1218.93 968.264,1218.35 978.014,1218.86 987.764,1221.02 997.514,1224.73 1007.26,1227.45 1017.01,1229.69 1026.76,1232.15 1036.51,1235.35 1046.26,1239.66 1056.01,1245.27 1065.76,1252.13 1075.51,1259.97 1085.26,1268.27 1095.01,1276.24 1104.76,1282.81 1114.51,1287.1 1124.26,1293.77 1134.01,1299.77 1143.76,1304.26 1153.51,1307.86 1163.26,1311.01 1173.01,1313.96 1182.76,1316.8 1192.51,1319.5 1202.26,1321.86 1212.01,1323.62 1221.76,1324.41 1231.51,1323.84 1241.26,1321.46 1251.01,1317.57 1260.76,1314.17 1270.51,1311.12 1280.26,1307.89 1290.01,1304.04 1299.76,1299.26 1309.51,1293.41 1319.26,1286.52 1329.01,1278.83 1338.76,1270.76 1348.51,1263.02 1358.26,1256.49 1368.01,1250.72 1377.76,1242.43 1387.51,1236.07 1397.26,1231.31 1407.01,1227.57 1416.76,1224.39 1426.51,1221.51 1436.26,1218.78 1446.01,1216.17 1455.76,1213.78 1465.51,1211.77 1475.26,1210.35 1485.01,1209.77 1494.76,1210.28 1504.51,1212.13 1514.26,1215.47 1524.01,1220.82 1533.76,1225.97 1543.51,1230.01 1553.26,1233.72 1563.01,1237.7 1572.76,1242.44 1582.51,1248.18 1592.26,1255 1602.01,1262.75 1611.76,1271.05 1621.51,1279.28 1631.26,1286.59 1641.01,1291.89 1650.76,1296.36 1660.51,1302.48 1670.26,1307.32 1680.01,1311.16 1689.76,1314.24 1699.51,1316.68 1709.26,1318.5 1719.01,1319.67 1728.76,1320.12 1738.51,1319.76 1748.26,1318.54 1758.01,1316.43 1767.76,1313.49 1777.51,1309.88 1787.26,1305.9 1797.01,1301.99 1806.76,1296.11 1816.51,1288.09 1826.26,1282.6 1836.01,1278.54 1845.76,1274.94 1855.51,1271.05 1865.26,1266.36 1875.01,1260.57 1884.76,1253.67 1894.51,1245.88 1904.26,1237.65 1914.01,1229.71 1923.76,1222.99 1933.51,1218.67 1943.26,1217.98 1953.01,1217.02 1962.76,1215.09 1972.51,1213.59 1982.26,1212.62 1992.01,1212.31 2001.76,1212.82 2011.51,1214.3 2021.26,1216.85 2031.01,1220.54 2040.76,1225.3 2050.51,1230.97 2060.26,1237.21 2070.01,1243.52 2079.76,1249.19 2089.51,1254.83 2099.26,1266.8 2109.01,1275.85 2118.76,1281.46 2128.51,1284.85 2138.26,1287.06 2148.01,1288.9 2157.76,1291.01 2167.51,1293.78 2177.26,1297.43 2187.01,1301.99 2196.76,1307.31 2206.51,1313.09 2216.26,1318.87 2226.01,1324.09 2235.76,1328.09 2245.51,1330.12 2255.26,1329.41 2265.01,1325.14 2274.76,1318.66 2284.51,1315.22 2294.26,1311.37 "/>
<path clip-path="url(#clip740)" d="M1980.1 1028.23 L2283.86 1028.23 L2283.86 872.706 L1980.1 872.706  Z" fill="#ffffff" fill-rule="evenodd" fill-opacity="1"/>
<polyline clip-path="url(#clip740)" style="stroke:#000000; stroke-linecap:round; stroke-linejoin:round; stroke-width:4; stroke-opacity:1; fill:none" points="1980.1,1028.23 2283.86,1028.23 2283.86,872.706 1980.1,872.706 1980.1,1028.23 "/>
<polyline clip-path="url(#clip740)" style="stroke:#009af9; stroke-linecap:round; stroke-linejoin:round; stroke-width:4; stroke-opacity:1; fill:none" points="2003.06,924.546 2140.86,924.546 "/>
<path clip-path="url(#clip740)" d="M2187.86 927.798 L2187.86 929.882 L2168.27 929.882 Q2168.55 934.28 2170.91 936.594 Q2173.3 938.886 2177.53 938.886 Q2179.99 938.886 2182.28 938.284 Q2184.59 937.682 2186.86 936.479 L2186.86 940.507 Q2184.57 941.479 2182.16 941.988 Q2179.76 942.497 2177.28 942.497 Q2171.08 942.497 2167.44 938.886 Q2163.83 935.275 2163.83 929.118 Q2163.83 922.752 2167.26 919.025 Q2170.71 915.275 2176.54 915.275 Q2181.77 915.275 2184.8 918.655 Q2187.86 922.011 2187.86 927.798 M2183.6 926.548 Q2183.55 923.053 2181.63 920.97 Q2179.73 918.886 2176.58 918.886 Q2173.02 918.886 2170.87 920.9 Q2168.74 922.914 2168.41 926.571 L2183.6 926.548 Z" fill="#000000" fill-rule="nonzero" fill-opacity="1" /><path clip-path="url(#clip740)" d="M2193.99 939.28 L2198.71 939.28 L2198.71 925.136 L2193.55 926.085 L2193.55 923.4 L2198.88 922.497 L2202.05 922.497 L2202.05 939.28 L2206.79 939.28 L2206.79 941.826 L2193.99 941.826 L2193.99 939.28 Z" fill="#000000" fill-rule="nonzero" fill-opacity="1" /><path clip-path="url(#clip740)" d="M2224.08 905.854 Q2220.98 911.178 2219.48 916.386 Q2217.97 921.595 2217.97 926.942 Q2217.97 932.289 2219.48 937.544 Q2221.01 942.775 2224.08 948.076 L2220.38 948.076 Q2216.91 942.636 2215.17 937.382 Q2213.46 932.127 2213.46 926.942 Q2213.46 921.78 2215.17 916.548 Q2216.89 911.317 2220.38 905.854 L2224.08 905.854 Z" fill="#000000" fill-rule="nonzero" fill-opacity="1" /><path clip-path="url(#clip740)" d="M2236.56 908.539 L2236.56 915.9 L2245.33 915.9 L2245.33 919.21 L2236.56 919.21 L2236.56 933.284 Q2236.56 936.456 2237.42 937.358 Q2238.3 938.261 2240.96 938.261 L2245.33 938.261 L2245.33 941.826 L2240.96 941.826 Q2236.03 941.826 2234.15 939.997 Q2232.28 938.145 2232.28 933.284 L2232.28 919.21 L2229.15 919.21 L2229.15 915.9 L2232.28 915.9 L2232.28 908.539 L2236.56 908.539 Z" fill="#000000" fill-rule="nonzero" fill-opacity="1" /><path clip-path="url(#clip740)" d="M2250.26 905.854 L2253.97 905.854 Q2257.44 911.317 2259.15 916.548 Q2260.89 921.78 2260.89 926.942 Q2260.89 932.127 2259.15 937.382 Q2257.44 942.636 2253.97 948.076 L2250.26 948.076 Q2253.34 942.775 2254.85 937.544 Q2256.38 932.289 2256.38 926.942 Q2256.38 921.595 2254.85 916.386 Q2253.34 911.178 2250.26 905.854 Z" fill="#000000" fill-rule="nonzero" fill-opacity="1" /><polyline clip-path="url(#clip740)" style="stroke:#e26f46; stroke-linecap:round; stroke-linejoin:round; stroke-width:4; stroke-opacity:1; fill:none" points="2003.06,976.386 2140.86,976.386 "/>
<path clip-path="url(#clip740)" d="M2187.86 979.638 L2187.86 981.722 L2168.27 981.722 Q2168.55 986.12 2170.91 988.434 Q2173.3 990.726 2177.53 990.726 Q2179.99 990.726 2182.28 990.124 Q2184.59 989.522 2186.86 988.319 L2186.86 992.347 Q2184.57 993.319 2182.16 993.828 Q2179.76 994.337 2177.28 994.337 Q2171.08 994.337 2167.44 990.726 Q2163.83 987.115 2163.83 980.958 Q2163.83 974.592 2167.26 970.865 Q2170.71 967.115 2176.54 967.115 Q2181.77 967.115 2184.8 970.495 Q2187.86 973.851 2187.86 979.638 M2183.6 978.388 Q2183.55 974.893 2181.63 972.81 Q2179.73 970.726 2176.58 970.726 Q2173.02 970.726 2170.87 972.74 Q2168.74 974.754 2168.41 978.411 L2183.6 978.388 Z" fill="#000000" fill-rule="nonzero" fill-opacity="1" /><path clip-path="url(#clip740)" d="M2196.58 991.027 L2206.4 991.027 L2206.4 993.666 L2192.56 993.666 L2192.56 991.12 Q2193.34 990.402 2194.8 989.106 Q2202.77 982.046 2202.77 979.87 Q2202.77 978.342 2201.56 977.416 Q2200.36 976.467 2198.39 976.467 Q2197.19 976.467 2195.77 976.884 Q2194.36 977.277 2192.7 978.087 L2192.7 975.24 Q2194.48 974.592 2196.01 974.268 Q2197.56 973.944 2198.88 973.944 Q2202.23 973.944 2204.25 975.472 Q2206.26 976.999 2206.26 979.499 Q2206.26 982.717 2198.6 989.291 Q2197.3 990.402 2196.58 991.027 Z" fill="#000000" fill-rule="nonzero" fill-opacity="1" /><path clip-path="url(#clip740)" d="M2224.08 957.694 Q2220.98 963.018 2219.48 968.226 Q2217.97 973.435 2217.97 978.782 Q2217.97 984.129 2219.48 989.384 Q2221.01 994.615 2224.08 999.916 L2220.38 999.916 Q2216.91 994.476 2215.17 989.222 Q2213.46 983.967 2213.46 978.782 Q2213.46 973.62 2215.17 968.388 Q2216.89 963.157 2220.38 957.694 L2224.08 957.694 Z" fill="#000000" fill-rule="nonzero" fill-opacity="1" /><path clip-path="url(#clip740)" d="M2236.56 960.379 L2236.56 967.74 L2245.33 967.74 L2245.33 971.05 L2236.56 971.05 L2236.56 985.124 Q2236.56 988.296 2237.42 989.198 Q2238.3 990.101 2240.96 990.101 L2245.33 990.101 L2245.33 993.666 L2240.96 993.666 Q2236.03 993.666 2234.15 991.837 Q2232.28 989.985 2232.28 985.124 L2232.28 971.05 L2229.15 971.05 L2229.15 967.74 L2232.28 967.74 L2232.28 960.379 L2236.56 960.379 Z" fill="#000000" fill-rule="nonzero" fill-opacity="1" /><path clip-path="url(#clip740)" d="M2250.26 957.694 L2253.97 957.694 Q2257.44 963.157 2259.15 968.388 Q2260.89 973.62 2260.89 978.782 Q2260.89 983.967 2259.15 989.222 Q2257.44 994.476 2253.97 999.916 L2250.26 999.916 Q2253.34 994.615 2254.85 989.384 Q2256.38 984.129 2256.38 978.782 Q2256.38 973.435 2254.85 968.226 Q2253.34 963.018 2250.26 957.694 Z" fill="#000000" fill-rule="nonzero" fill-opacity="1" /></svg>
